<svg width="40" height="40" fill="none" xmlns="http://www.w3.org/2000/svg"><path d="M20 0c-5.428 0-6.11.025-8.242.12-2.133.1-3.585.435-4.858.93a9.793 9.793 0 00-3.543 2.308A9.818 9.818 0 001.05 6.9C.555 8.17.217 9.625.12 11.75.025 13.887 0 14.568 0 20.003c0 5.43.025 6.11.12 8.242.1 2.13.435 3.582.93 4.855a9.823 9.823 0 002.308 3.542 9.76 9.76 0 003.54 2.308c1.274.495 2.725.832 4.854.93 2.135.095 2.816.12 8.248.12 5.433 0 6.11-.025 8.245-.12 2.127-.1 3.585-.435 4.857-.93a9.79 9.79 0 003.54-2.308A9.823 9.823 0 0038.95 33.1c.492-1.273.83-2.725.93-4.855.095-2.133.12-2.813.12-8.245 0-5.432-.025-6.113-.12-8.248-.1-2.127-.438-3.582-.93-4.852a9.815 9.815 0 00-2.308-3.543A9.777 9.777 0 0033.1 1.05C31.825.555 30.37.217 28.242.12 26.108.025 25.43 0 19.995 0h.008H20zm-1.793 3.605h1.796c5.34 0 5.972.018 8.08.115 1.95.087 3.01.415 3.715.687.932.363 1.6.798 2.3 1.498.7.7 1.132 1.365 1.495 2.3.274.703.6 1.762.687 3.713.097 2.107.117 2.74.117 8.077s-.02 5.973-.117 8.08c-.087 1.95-.415 3.008-.688 3.713a6.174 6.174 0 01-1.497 2.297c-.7.7-1.365 1.133-2.3 1.495-.7.275-1.76.6-3.713.69-2.107.095-2.74.117-8.08.117s-5.974-.022-8.082-.117c-1.95-.09-3.008-.415-3.713-.69a6.196 6.196 0 01-2.3-1.495 6.2 6.2 0 01-1.5-2.3c-.272-.703-.6-1.762-.687-3.712-.095-2.108-.115-2.74-.115-8.083 0-5.34.02-5.97.115-8.077.09-1.95.415-3.01.69-3.716.362-.932.797-1.6 1.497-2.3.7-.7 1.365-1.132 2.3-1.495.705-.274 1.763-.6 3.713-.69 1.845-.085 2.56-.11 6.287-.112v.005zm12.47 3.32a2.4 2.4 0 100 4.799 2.4 2.4 0 000-4.799zM20.003 9.73a10.272 10.272 0 10-.321 20.542 10.272 10.272 0 00.32-20.542zm0 3.602a6.668 6.668 0 110 13.336 6.668 6.668 0 010-13.335z" fill="#fff"/></svg>