<svg width="40" height="40" fill="none" xmlns="http://www.w3.org/2000/svg"><path d="M40 7.79a16.817 16.817 0 01-4.712 1.275 8.126 8.126 0 003.61-4.467 16.478 16.478 0 01-5.213 1.958 8.262 8.262 0 00-5.993-2.558c-4.535 0-8.204 3.617-8.204 8.075a7.72 7.72 0 00.211 1.842A23.39 23.39 0 012.783 5.473a7.974 7.974 0 00-1.116 4.058c0 2.8 1.46 5.275 3.666 6.725a8.125 8.125 0 01-3.731-1.008v.1c0 3.917 2.833 7.175 6.583 7.917a8.396 8.396 0 01-2.162.283 7.87 7.87 0 01-1.542-.15c1.042 3.208 4.076 5.542 7.67 5.608a16.632 16.632 0 01-10.193 3.459A16.866 16.866 0 010 32.348a23.224 23.224 0 0012.562 3.65c15.113 0 23.37-12.308 23.37-22.983 0-.35-.01-.7-.026-1.042A16.541 16.541 0 0040 7.79z" fill="#fff"/></svg>