<svg width="124" height="242" fill="none" xmlns="http://www.w3.org/2000/svg"><path opacity=".4" d="M77.156 215.53V69.608c-29.104 20.849-48.686 31.265-58.765 31.265-4.823 0-9.089-1.786-12.798-5.374C1.855 91.927 0 87.775 0 83.076c0-5.451 1.837-9.449 5.498-12.042 3.668-2.549 10.138-5.86 19.423-9.924 13.864-6.093 24.956-12.5 33.245-19.235 8.28-6.71 15.694-14.3 22.089-22.613 6.423-8.348 10.582-13.48 12.532-15.398 1.949-1.93 5.64-2.88 11.014-2.88 6.067 0 10.932 2.178 14.623 6.563 3.638 4.378 5.475 10.427 5.475 18.123v183.612c0 21.491-7.845 32.233-23.534 32.233-6.98 0-12.597-2.2-16.84-6.579-4.26-4.384-6.369-10.859-6.369-19.406z" fill="#D2D2D2"/></svg>