<svg width="170" height="240" fill="none" xmlns="http://www.w3.org/2000/svg"><path opacity=".4" d="M76.207 94.202c10.134 0 18.89-2.9 26.227-8.657 7.32-5.773 10.985-14.035 10.985-24.835 0-8.212-2.924-15.299-8.761-21.211-5.843-5.946-13.732-8.908-23.665-8.908-6.705 0-12.244.913-16.582 2.723-4.372 1.82-7.82 4.225-10.347 7.21-2.551 2.983-4.941 6.836-7.188 11.54a606.228 606.228 0 00-6.193 13.294c-1.12 2.244-3.102 4.009-5.981 5.284-2.855 1.28-6.153 1.926-9.91 1.926-4.419 0-8.452-1.731-12.158-5.205-3.683-3.474-5.527-8.09-5.527-13.857 0-5.556 1.752-11.402 5.2-17.526 3.47-6.14 8.549-11.997 15.225-17.553 6.664-5.55 14.955-10.015 24.877-13.389C62.32 1.681 73.397 0 85.646 0c10.687 0 20.436 1.425 29.256 4.259 8.83 2.817 16.472 6.903 22.981 12.236 6.504 5.356 11.41 11.552 14.72 18.595 3.315 7.053 4.952 14.63 4.952 22.742 0 10.677-2.396 19.846-7.181 27.468-4.809 7.655-11.669 15.098-20.592 22.38 8.595 4.487 15.84 9.614 21.741 15.371 5.906 5.773 10.336 12.147 13.312 19.14 2.976 7.014 4.447 14.569 4.447 22.686 0 9.715-2.006 19.123-6.016 28.181-4.033 9.08-9.962 17.169-17.788 24.278-7.802 7.093-17.103 12.66-27.853 16.657-10.75 4.008-22.62 6.007-35.627 6.007-13.226 0-25.102-2.299-35.54-6.903-10.486-4.571-19.116-10.322-25.878-17.203-6.797-6.875-11.922-14.023-15.392-21.383C1.718 187.134 0 181.055 0 176.245c0-6.191 2.068-11.19 6.176-14.976 4.137-3.791 9.285-5.684 15.484-5.684 3.08 0 6.056.869 8.911 2.65 2.878 1.748 4.757 3.864 5.63 6.313 5.746 14.865 11.876 25.877 18.426 33.086 6.573 7.209 15.788 10.823 27.698 10.823 6.843 0 13.427-1.637 19.759-4.894 6.343-3.251 11.605-8.084 15.708-14.497 4.136-6.408 6.199-13.823 6.199-22.263 0-12.498-3.545-22.324-10.583-29.395-7.061-7.109-16.88-10.655-29.44-10.655-2.223 0-5.607.206-10.25.64-4.641.423-7.618.629-8.922.629-6.067 0-10.755-1.464-14.064-4.398-3.304-2.939-4.947-7.014-4.947-12.259 0-5.116 1.988-9.258 5.935-12.409 3.976-3.156 9.876-4.726 17.707-4.726h6.78v-.028z" fill="#D2D2D2"/></svg>