<svg width="173" height="241" fill="none" xmlns="http://www.w3.org/2000/svg"><path opacity=".4" d="M58.212 202.434h87.717c8.748 0 15.395 1.746 20.012 5.234 4.587 3.481 6.886 8.226 6.886 14.211 0 5.336-1.819 9.859-5.459 13.568-3.669 3.698-9.18 5.553-16.559 5.553H27.113c-8.415 0-14.962-2.259-19.667-6.781-4.692-4.506-7.045-9.825-7.045-15.935 0-3.909 1.51-9.12 4.547-15.6 3.025-6.474 6.325-11.566 9.9-15.281 14.892-15.036 28.361-27.91 40.34-38.64 12-10.729 20.555-17.778 25.692-21.163 9.216-6.309 16.858-12.664 22.931-19.036 6.127-6.36 10.784-12.902 13.973-19.61 3.195-6.684 4.781-13.261 4.781-19.673 0-6.974-1.703-13.215-5.114-18.71-3.356-5.436-8.181-9.871-13.95-12.824a41.2 41.2 0 00-19.239-4.574c-14.675 0-26.231 6.264-34.628 18.785-1.117 1.644-3.002 6.11-5.617 13.392-2.65 7.305-5.617 12.914-8.906 16.834-3.323 3.931-8.156 5.883-14.534 5.883-5.6 0-10.258-1.798-13.944-5.4-3.71-3.595-5.547-8.482-5.547-14.7 0-7.515 1.72-15.366 5.208-23.518 3.475-8.181 8.648-15.588 15.535-22.233 6.922-6.65 15.635-12.016 26.22-16.1C58.638 2.03 71.05 0 85.28 0c17.145 0 31.749 2.6 43.868 7.84a65.705 65.705 0 0120.66 14.376 66.383 66.383 0 0113.886 21.152c3.288 8.016 4.938 16.31 4.938 24.93 0 13.505-3.44 25.782-10.327 36.83-6.899 11.071-13.932 19.718-21.089 25.993-7.191 6.264-19.203 16.078-36.061 29.498-16.87 13.392-28.402 23.809-34.698 31.199-2.692 2.93-5.46 6.486-8.245 10.616z" fill="#D2D2D2"/></svg>