<svg width="66" height="140" fill="none" xmlns="http://www.w3.org/2000/svg"><path d="M45.076 62.518l-1.335-.506c.753-2.08 1.25-4.653 1.477-7.644 1.137-15.288-2.769-34.103-6.973-41.443-2.002-3.497-2.926-4.596-3.323-4.928-.057.246-.128.723-.17 1.662-.114 3.005-1.592 15.447-5.1 21.126-3.266 5.289-5.808 20.91-5.127 27.918.071.795.157 1.503.228 2.139l-1.406.173c-.071-.636-.157-1.358-.228-2.168-.71-7.297 1.847-23.192 5.34-28.828 3.097-5.014 4.744-16.632 4.886-20.404.057-1.517.185-2.89 1.179-3.15.966-.245 2.002.578 4.97 5.737 4.318 7.514 8.324 26.733 7.173 42.281-.27 3.122-.795 5.824-1.59 8.035z" fill="#92B69A"/><path d="M54.847 65.335l-.937-1.084c1.335-1.185 2.656-2.716 3.92-4.552 3.806-5.548 4.97-17.932 5.326-23.785-1.52 2.717-4.19 7.052-7.882 11.474-2.94 3.526-4.758 5.1-6.08 6.242-1.363 1.185-2.044 1.778-2.896 3.642l-1.293-.607c.98-2.153 1.832-2.905 3.252-4.133 1.279-1.113 3.04-2.644 5.909-6.083 5.922-7.096 9.146-13.93 9.175-13.988l1.42-3.035-.057 3.353c-.014.809-.426 20.028-5.71 27.744-1.334 1.936-2.726 3.555-4.147 4.812z" fill="#92B69A"/><path d="M45.971 63.919l-.383-1.387c7.158-2.081 15.963-14.075 17.71-29.84l1.406.16C62.872 49.44 53.74 61.664 45.971 63.918z" fill="#92B69A"/><path d="M54.92 47.763l-1.293-.607c1.704-3.684 2.244-11.227 1.349-18.77-.824-6.965.17-17.716 1.292-21.3-.951.881-2.428 2.471-3.877 4.032l-.241.26c-4.261 4.58-7.087 8.193-7.556 16.372l-1.42-.087c.497-8.656 3.607-12.615 7.939-17.282l.241-.26c4.304-4.625 5.241-5.593 6.15-5.03.753.463.37 1.605.142 2.298-1.065 3.208-2.074 14.046-1.278 20.823.724 5.997.767 14.725-1.449 19.551zM17.055 63.14c-1.931-2.154-3.21-5.232-3.707-8.873-.412-3.078-1.022-6.575-1.562-9.653-1.335-7.557-1.449-8.786-.966-9.378l.213-.26.412-.044c1.278 0 10.595 7.543 13.35 13.728l-1.292.593c-2.258-5.073-9.16-10.968-11.518-12.529.114 1.489.682 4.71 1.193 7.615.54 3.093 1.164 6.604 1.576 9.71.455 3.353 1.605 6.142 3.338 8.093l-1.037.997z" fill="#92B69A"/><path d="M18.148 42.027c-2.84-4.826-4.076-15.924-3.848-21.747.127-3.078-.91-7.269-1.804-10.954-.81-3.309-1.52-6.17-1.279-7.76.114-.78.44-1.242.98-1.358 1.236-.274 2.458 1.489 5.838 6.647 1.093 1.662 2.315 3.54 3.621 5.42l1.307 1.863c3.977 5.621 5.454 7.717 6.775 16.17l-1.406.231c-1.264-8.106-2.6-9.985-6.534-15.548l-1.306-1.864c-1.321-1.893-2.557-3.786-3.65-5.448-1.591-2.442-3.38-5.173-4.218-5.867-.2 1.315.51 4.162 1.25 7.196.923 3.786 1.988 8.064 1.846 11.358-.228 5.766 1.036 16.531 3.65 20.939l-1.222.722z" fill="#92B69A"/><path d="M13.178 64.641c-1.833-1.473-3.75-4.002-5.568-7.326-3.423-6.242-3.636-9.48-4.303-19.074l-.071-.954c-.398-5.809-1.364-9.855-1.988-12.528-.597-2.486-.838-3.526-.086-4.075a.896.896 0 01.753-.13c2.017.477 11.433 10.65 16.02 19.32l-1.25.679C12.44 32.533 4.643 24.08 2.172 22.288c.085.55.284 1.344.468 2.124.611 2.558 1.62 6.835 2.031 12.76l.071.953c.668 9.61.867 12.514 4.133 18.482 1.733 3.15 3.537 5.535 5.213 6.893l-.91 1.141z" fill="#92B69A"/><path d="M10.025 30.538c-.838-4.696-.497-8.28.54-14.103.54-3.005.468-5.65.411-8.193-.056-2.254-.1-4.379.228-6.662l1.406.217c-.313 2.153-.27 4.22-.213 6.402.056 2.63.127 5.346-.44 8.496-1.023 5.766-1.35 9.09-.54 13.583l-1.392.26zm26.189 33.945l-1.292-.578c1.747-4.032 1.917-8.208 1.619-13.641-.213-3.844-.014-7.529.184-11.416.256-4.898.526-9.97-.07-15.447-1.052-9.624-2.571-16.01-2.6-16.069l1.378-.346c.014.057 1.562 6.531 2.627 16.256.611 5.592.341 10.722.072 15.678-.2 3.859-.398 7.5-.185 11.272.312 5.635.128 10-1.733 14.29zm14.103-11.965l-1.32-.52c3.536-9.422 4.601-12.269 5.709-31.747l1.42.086c-1.122 19.71-2.215 22.6-5.809 32.18z" fill="#92B69A"/><path d="M17.566 68.24l-1.136-.867c1.719-2.327 1.42-3.02 1.378-3.092-.085-.16-.497-.333-1.35-.232-2.641.275-6.618 2.515-7.072 3.989l-1.35-.448c.739-2.356 5.54-4.697 8.28-4.986 1.72-.173 2.43.42 2.728.969.568 1.026.085 2.557-1.478 4.667z" fill="#545251"/><path d="M28.9 67.879c-.185-1.908-1.051-3.165-2.542-3.728-2.358-.896-5.88.13-7.443 1.647l-.98-1.055c1.875-1.806 6.008-3.049 8.92-1.95 1.406.534 3.153 1.82 3.465 4.927l-1.42.159zm27.88.347c-1.776-2.587-4.048-4.046-5.923-3.8-1.477.188-2.713 1.445-3.55 3.656l-1.321-.52c1.306-3.454 3.28-4.393 4.7-4.567 2.444-.303 5.156 1.344 7.258 4.407l-1.165.824z" fill="#545251"/><path d="M26.443 63.992c-.568-1.358-2.045-2.413-3.664-2.644-1.903-.275-3.75.592-5.227 2.427l-1.108-.91c2.429-3.02 5.128-3.136 6.52-2.934 2.13.304 4.004 1.677 4.771 3.512l-1.292.549zm8.138 4.061l-1.335-.477c1.08-3.136 5.255-6.618 9.26-6.46 2.713.073 4.687 1.807 5.582 4.9l-1.364.404c-.724-2.515-2.158-3.8-4.246-3.858-3.338-.116-7.002 2.933-7.897 5.49z" fill="#545251"/><path d="M28.928 65.394l-.88-1.142c1.534-1.214 4.133-2.297 6.164-1.777 1.093.274 1.903.982 2.371 2.052l-1.292.578c-.284-.665-.753-1.07-1.42-1.229-1.506-.375-3.665.492-4.943 1.518z" fill="#545251"/><path d="M33.416 140c-8.067-.159-22.54-1.402-28.945-7.904-5.084-5.174-2.755-40.736-.923-61.472.17-1.95 1.875-3.54 3.807-3.54h52.123c1.931 0 3.636 1.59 3.806 3.54 1.832 20.737 4.162 56.298-.923 61.472-6.391 6.517-20.878 7.745-28.945 7.904zM7.355 68.53c-1.208 0-2.287.996-2.4 2.224-3.04 34.349-2.855 56.891.51 60.316 6.278 6.387 21.617 7.355 27.937 7.485 6.334-.13 21.687-1.098 27.965-7.485 3.366-3.425 3.55-25.967.511-60.316-.114-1.228-1.179-2.225-2.4-2.225H7.355z" fill="#D2D2D2"/><path d="M31.982 131.157c-7.869 0-14.118-2.515-18.577-7.456-11.263-12.485-9.076-38.481-7.77-54.015l.058-.665 55.22-.145.056.65c2.017 22.124 3.054 42.874-6.476 53.51-4.886 5.462-12.243 8.121-22.511 8.121zM6.999 70.466c-1.292 15.36-3.224 40.417 7.457 52.252 4.19 4.638 10.084 6.994 17.54 6.994 9.828 0 16.858-2.5 21.46-7.63 9.047-10.101 8.124-30.2 6.164-51.746L7 70.466z" fill="#C7B28A"/><path d="M23.446 107.675c-6.505 0-13.99-1.72-18.15-5.939l1.008-1.026c5.752 5.838 18.35 6.56 24.854 4.508 9.203-2.89 14.5-1.459 18.762-.317 3.806 1.026 6.561 1.777 10.68-1.171l.824 1.185c-4.645 3.324-7.982 2.428-11.86 1.387-4.075-1.098-9.16-2.471-17.966.304-2.215.679-5.07 1.069-8.152 1.069z" fill="#C7B28A"/><path d="M18.092 116.85c-.469 0-1.037-.289-1.207-1.098l-.072-.347.228-.274c.227-.26 1.008-1.113 1.875-1.113.198 0 .397.043.567.13.412.202.597.65.483 1.127-.17.708-1.036 1.575-1.874 1.575zm9.075 1.431c-.91 0-1.733-.463-2.06-1.156a1.391 1.391 0 01.157-1.46c.866-1.098 1.732-1.329 2.315-1.329.923 0 1.732.607 1.974 1.474.213.795-.1 1.56-.838 1.994a2.822 2.822 0 01-1.548.477zm.412-2.5c-.37 0-.81.275-1.208.78.043.015.327.26.796.26.27 0 .554-.086.823-.245.228-.13.228-.275.2-.376-.058-.202-.285-.419-.611-.419zm17.412-2.298c-.568 0-1.179-.289-1.875-.896-.411-.347-.54-.867-.355-1.372.256-.709 1.122-1.287 1.932-1.287.44 0 .838.159 1.136.463.54.549.739 1.503.454 2.211-.227.549-.71.881-1.292.881zm-.81-1.878c.512.404.768.433.81.433h.014c.014-.072 0-.433-.184-.621a.873.873 0 00-.64.188zm1.449 11.979c-.795 0-1.463-.953-1.576-1.82-.1-.766.241-1.706 1.463-2.038.994-.274 1.704.173 1.817 1.026.128.925-.624 2.558-1.448 2.789l-.256.043zm.298-2.471c-.014 0-.028 0-.042.015-.384.101-.398.26-.412.318-.028.173.057.39.156.534.1-.231.256-.607.298-.867zm-13.648 4.654c-.284 0-.526-.058-.753-.174-.61-.303-.88-1.069-.682-1.922.2-.867.88-1.806 1.903-1.806.384 0 .767.145 1.123.419.667.52.908 1.228.681 1.936-.298.853-1.306 1.547-2.272 1.547zm.468-2.457c-.099 0-.241.116-.355.304-.184.303-.213.65-.17.736l.07-.028c.37 0 .839-.318.924-.564.014-.043.043-.13-.199-.318-.113-.087-.213-.13-.27-.13zm-20.267-13.121c-.596 0-1.107-.275-1.306-.723-.114-.26-.242-.78.298-1.445.71-.867 1.775-.693 2.159.232.199.476.227 1.141-.156 1.546-.299.347-.753.39-.995.39z" fill="#545251"/><path d="M50.8 91.274c-.128 0-.241 0-.355-.014-1.278-.101-2.017-1.2-1.946-2.934.114-3.208 2.713-8.135 5.695-8.135.782 0 1.506.318 2.173.954 1.634 1.575 2.13 3.497 1.378 5.404-1.023 2.558-4.204 4.725-6.945 4.725zm3.38-9.638c-1.903 0-4.175 4.017-4.275 6.734-.028.925.185 1.416.64 1.445.085 0 .17.014.255.014 1.946 0 4.758-1.633 5.61-3.815.526-1.358.185-2.644-1.037-3.814-.397-.376-.78-.564-1.193-.564zM21.813 95.03c0 .13-.014.246-.029.362-.142 1.3-1.235 2.009-2.954 1.893-3.153-.217-7.896-3.02-7.811-6.055.028-.794.37-1.517 1.008-2.167 1.605-1.619 3.508-2.052 5.355-1.228 2.5 1.098 4.516 4.392 4.43 7.196zm-9.36-3.756c-.056 1.936 3.807 4.378 6.49 4.566.91.058 1.393-.145 1.435-.607.014-.087.014-.173.014-.26.057-1.98-1.448-4.884-3.564-5.838-1.321-.578-2.585-.275-3.778.925-.398.404-.583.795-.597 1.214zm17.967 13.193c-1.492 0-4.091-1.084-4.588-2.717-.156-.52-.227-1.517 1.05-2.384.455-.318.98-.477 1.535-.477 1.534 0 2.968 1.228 3.593 2.442.469.911.483 1.792.043 2.428-.2.318-.668.708-1.634.708zm-1.99-4.147c-.269 0-.51.072-.738.231-.596.419-.525.679-.497.766.228.766 2.003 1.705 3.224 1.705.327 0 .469-.072.483-.101.114-.174.071-.535-.142-.939-.412-.824-1.406-1.662-2.33-1.662zM15.748 78.254c-.014 0-.014 0 0 0-1.49 0-4.09-1.083-4.587-2.716-.156-.52-.227-1.517 1.051-2.399.454-.318.98-.477 1.534-.477 1.534 0 2.968 1.228 3.593 2.442.469.91.483 1.792.043 2.428-.213.332-.682.722-1.634.722zm-2.002-4.147c-.27 0-.511.072-.739.231-.596.42-.525.68-.497.766.228.766 2.003 1.705 3.224 1.705.327 0 .469-.072.483-.1.114-.174.071-.535-.142-.94-.412-.81-1.406-1.662-2.33-1.662zm20.366 7.514c-1.32 0-1.818-.534-2.003-.968-.255-.607-.099-1.387.412-2.168.81-1.242 2.528-2.485 4.233-2.485.866 0 1.633.332 2.244.954.824.838.667 1.676.497 2.08-.668 1.604-3.58 2.587-5.383 2.587zm-.682-1.517c.029 0 .242.072.682.072 1.548 0 3.75-.925 4.076-1.705.029-.072.1-.231-.184-.506a1.669 1.669 0 00-1.236-.52c-1.15 0-2.443.94-3.04 1.85-.298.419-.34.708-.298.809zm15.808 22.586c-1.563 0-2.642-1.936-2.77-3.742-.128-2.038.938-3.497 2.713-3.743 1.619-.231 2.514.694 2.556 2.312.043 1.763-1.193 5.115-2.428 5.173h-.071zm0-1.445v.723l.014-.723h-.014zm.397-4.624c-.085 0-.17 0-.255.015-1.406.188-1.534 1.474-1.492 2.21.071 1.2.71 2.226 1.222 2.37.468-.563 1.52-3.049 1.136-4.22-.085-.23-.213-.375-.61-.375z" fill="#C7B28A"/></svg>