<svg width="62" height="140" fill="none" xmlns="http://www.w3.org/2000/svg"><path d="M43.816 82.448H42.46c1.696-1.726 3.206-4.895 5.972-12.426 1.836-5.026 1.709-9.72-.383-13.562-2.394-4.399-6.706-6.692-9.68-7.319-5.393-1.135-12.76-1.241-17.27 1.845-2.312 1.584-3.765 3.913-4.3 6.916-2.358 13.1 6.125 22.099 8.775 24.546h-1.286c-2.766-2.554-11.09-11.055-8.627-24.758.593-3.323 2.208-5.912 4.8-7.686 6.054-4.15 15.42-2.601 18.151-2.022 3.208.674 7.88 3.145 10.46 7.898 2.254 4.162 2.416 9.187.453 14.544-2.86 7.815-3.861 10.144-5.71 12.024z" fill="#92B69A"/><path d="M9.78 82.448c-5.066-2.46-7.739-6.266-7.507-10.724.29-5.734 3.115-7.272 4.777-7.685 3.544-.875 8.111 1.596 10.424 5.628l-1.011.59c-2.022-3.546-6.136-5.816-9.146-5.072-2.36.58-3.707 2.862-3.893 6.598-.267 5.32 5.986 9.376 8.659 10.665H9.781zm37.258-28.365l-.57-1.029c7.751-4.386 11.598-13.207 11.389-19.663-.14-4.41-2.08-7.732-5.462-9.364-2.812-1.348-5.346-1.17-7.554.532-4.741 3.666-6.996 14-5.276 24.014l-1.139.201c-1.824-10.594.57-21.176 5.706-25.16 2.545-1.963 5.567-2.2 8.75-.663 3.79 1.821 5.962 5.522 6.125 10.393.28 7.946-4.764 16.66-11.97 20.739zm2.963 14.637c-.128 0-.244 0-.372-.011l.047-1.183c3.126.142 5.531-1.537 6.542-3.227.349-.58.837-1.703.268-2.72-.454-.792-1.232-1.773-2.383-1.88-1.069-.094-2.277.58-3.451 1.975l-.883-.769c1.813-2.14 3.416-2.483 4.45-2.376 1.302.13 2.44.98 3.278 2.47.639 1.124.534 2.555-.28 3.926-1.161 1.904-3.811 3.796-7.216 3.796z" fill="#92B69A"/><path d="M22.03 49.886c-5.928-7.828-8.763-17.24-7.59-25.173.721-4.883 2.871-8.738 6.218-11.15 4.962-3.582 11.946-2.14 16.827.39 4.962 2.578 8.31 6.444 8.332 9.625l-1.162.012c-.023-2.708-3.195-6.231-7.704-8.584-4.58-2.377-11.087-3.76-15.63-.485-3.08 2.223-5.068 5.805-5.73 10.357-1.127 7.615 1.627 16.696 7.356 24.274l-.918.733zm14.42-1.289l-.755-.899c1.163-1.005 2.371-2.873 2.383-2.885l.976.65c-.058.072-1.313 2.01-2.603 3.134z" fill="#92B69A"/><path d="M16.939 55.407c-6.682-2.459-11.086-7.78-12.4-14.98-.685-3.772 1.22-8.111 4.254-9.672 1.313-.674 3.95-1.36 6.775 1.703l-.849.804c-1.731-1.88-3.59-2.389-5.403-1.455-2.557 1.313-4.219 5.155-3.638 8.395.72 3.926 3.173 10.973 11.656 14.082l-.395 1.123zm24.497-37.859l-.627-1.005c2.73-1.762 4.59-5.83 4.334-9.483-.174-2.447-1.313-4.268-3.219-5.12-2.068-.933-4.056-.732-5.601.568-2.313 1.963-3.138 6.018-2.115 10.334l-1.127.284c-1.151-4.824-.186-9.246 2.498-11.528C37.45.013 39.925-.26 42.39.865c2.313 1.04 3.695 3.216 3.905 6.124.302 4.044-1.79 8.584-4.858 10.559zM23.435 36.95c-1.499 0-1.499 2.365 0 2.365 1.5 0 1.5-2.365 0-2.365zm2.034-15.962c-1.5 0-1.5 2.365 0 2.365 1.499 0 1.499-2.365 0-2.365zm5.229 11.824c-1.499 0-1.499 2.365 0 2.365 1.5 0 1.5-2.365 0-2.365zm8.135-12.119c-1.499 0-1.499 2.365 0 2.365 1.5 0 1.5-2.365 0-2.365zM22.657 54.095c-1.5 0-1.5 2.364 0 2.364 1.499 0 1.499-2.364 0-2.364zm12.202 16.364c-1.5 0-1.5 2.364 0 2.364 1.499 0 1.499-2.364 0-2.364zm10.842-11.824c-1.499 0-1.499 2.365 0 2.365 1.5 0 1.5-2.365 0-2.365zm-9.878-4.138c-1.499 0-1.499 2.365 0 2.365 1.5 0 1.5-2.365 0-2.365zm-11.04 12.414c-1.499 0-1.499 2.365 0 2.365 1.5 0 1.5-2.365 0-2.365zm15.305 11.032c-1.499 0-1.499 2.365 0 2.365 1.5 0 1.5-2.365 0-2.365zm-2.324-15.962c-1.5 0-1.5 2.365 0 2.365s1.5-2.365 0-2.365zM32.732 41.29c-1.5 0-1.5 2.364 0 2.364s1.5-2.364 0-2.364z" fill="#92B69A"/><path d="M40.867 11.34c-1.5 0-1.5 2.365 0 2.365 1.499 0 1.499-2.364 0-2.364zm-3.301-6.313c-1.499 0-1.499 2.365 0 2.365 1.5 0 1.5-2.365 0-2.365zm5.625-1.183c-1.5 0-1.5 2.365 0 2.365s1.5-2.365 0-2.365zm-.779 28.578c-1.499 0-1.499 2.365 0 2.365 1.5 0 1.5-2.365 0-2.365zm6.973-5.711c-1.5 0-1.5 2.365 0 2.365s1.5-2.365 0-2.365zm4.265 8.667c-1.5 0-1.5 2.365 0 2.365s1.5-2.365 0-2.365zm-6.59 4.729c-1.498 0-1.498 2.365 0 2.365 1.5 0 1.5-2.365 0-2.365zM49.385 47c-1.5 0-1.5 2.365 0 2.365s1.5-2.364 0-2.364zm-7.937-2.755c-1.5 0-1.5 2.365 0 2.365 1.499 0 1.499-2.365 0-2.365zM18.392 27.491c-1.5 0-1.5 2.365 0 2.365 1.499 0 1.499-2.365 0-2.365zm12.202-14.377c-1.5 0-1.5 2.365 0 2.365 1.499 0 1.499-2.365 0-2.365zM27.503 76.17c-1.5 0-1.5 2.364 0 2.364 1.499 0 1.499-2.364 0-2.364zm17.617-7.485c-1.499 0-1.499 2.365 0 2.365 1.5 0 1.5-2.365 0-2.365zm-30.795-20.1c-1.5 0-1.5 2.365 0 2.365 1.499 0 1.499-2.365 0-2.365zm2.719-6.314c-1.5 0-1.5 2.365 0 2.365 1.499 0 1.499-2.365 0-2.365zm-7.368-2.554c-1.5 0-1.5 2.365 0 2.365s1.5-2.365 0-2.365zm2.138-5.912c-1.499 0-1.499 2.365 0 2.365 1.5 0 1.5-2.365 0-2.365zM6.387 74.396c-1.499 0-1.499 2.365 0 2.365 1.5 0 1.5-2.365 0-2.365zm1.941-8.076c-1.5 0-1.5 2.365 0 2.365 1.499 0 1.499-2.365 0-2.365zm4.253 6.102c-1.499 0-1.499 2.365 0 2.365 1.5 0 1.5-2.365 0-2.365zm4.265 5.521c-1.499 0-1.499 2.365 0 2.365 1.5 0 1.5-2.365 0-2.365zM53.65 61.591c-1.5 0-1.5 2.365 0 2.365s1.5-2.365 0-2.365z" fill="#92B69A"/><path d="M54.834 86.084H5.619c-.988 0-1.79-.816-1.79-1.82 0-1.006.802-1.822 1.79-1.822h49.215c.988 0 1.79.816 1.79 1.821s-.802 1.821-1.79 1.821zm-49.215-2.46a.63.63 0 00-.628.64.63.63 0 00.628.638h49.215a.63.63 0 00.627-.639.63.63 0 00-.627-.638H5.619z" fill="#B692B2"/><path d="M51.383 127.207l-1.14-.249c2.243-10.688 4.347-28.353 3.998-41.453l1.162-.036c.349 13.196-1.754 30.99-4.02 41.738zm-40.976.012c-2.568-11.588-4.823-29.122-5.369-41.69L6.2 85.48c.535 12.51 2.777 29.949 5.334 41.489l-1.127.249z" fill="#B692B2"/><path d="M54.8 92.244H6.083v1.183h48.715v-1.183zm-.722 11.528H7.258v1.183h46.82v-1.183zm0 3.11H7.654v1.182h46.425v-1.182zm-2.672 16.612H10.337v1.182h41.069v-1.182zm3.463-33.603H5.909v1.183h48.96V89.89zm4.881 40.461H2.446c-.976 0-1.754-.863-1.754-1.927 0-1.065.79-1.928 1.754-1.928H59.75c.964 0 1.755.863 1.755 1.928 0 1.064-.79 1.927-1.755 1.927zM2.446 127.68c-.325 0-.592.331-.592.745 0 .413.267.744.592.744H59.75c.325 0 .592-.331.592-.744 0-.414-.267-.745-.592-.745H2.446z" fill="#B692B2"/><path d="M30.662 140c-23.637 0-24.404-2.412-26.426-8.844a35.88 35.88 0 00-.383-1.206l1.104-.378c.139.425.267.827.395 1.218 1.836 5.841 2.521 8.028 25.322 8.028 24.764 0 26.02-.426 26.89-9.116l1.163.118c-1 9.861-3.707 10.18-28.065 10.18z" fill="#B692B2"/></svg>