<svg width="67" height="140" fill="none" xmlns="http://www.w3.org/2000/svg"><path d="M11.267 80.753a4.602 4.602 0 01-.063-.725V69.133c0-1.196.45-2.304 1.276-3.144l.888.904a3.195 3.195 0 00-.913 2.253V80.04c0 .179.013.344.038.522l-1.226.191z" fill="#D2D2D2"/><path d="M33.934 140c-14.198 0-23.167-1.146-28.209-3.589C.997 134.12.096 120.527 2.873 93.633c1.589-15.31 11.534-15.222 26.595-15.107 1.439.013 2.927.025 4.466.025v1.273c-1.551 0-3.04-.013-4.478-.025-15.387-.115-23.868-.191-25.344 13.962-2.64 25.557-1.914 39.519 2.151 41.492 4.866 2.367 13.66 3.461 27.671 3.461V140z" fill="#D2D2D2"/><path d="M33.934 140v-1.273c14.01 0 22.805-1.094 27.67-3.461 4.066-1.973 4.792-15.935 2.152-41.492C62.293 79.62 53.8 79.684 38.412 79.81c-1.438.013-2.927.026-4.478.026v-1.273c1.538 0 3.027-.012 4.466-.025 15.061-.115 25.006-.204 26.595 15.107 2.777 26.881 1.876 40.474-2.852 42.778C57.1 138.855 48.145 140 33.933 140z" fill="#D2D2D2"/><path d="M33.934 133.993c-19.14 0-27.52-1.846-27.52-19.461 0-16.316 1.012-24.233 7.255-31.03 2.426-2.634 2.364-4.836 2.214-11.39-.025-1.223-.063-2.584-.075-4.112l1.25-.013c.013 1.528.05 2.89.076 4.099.15 6.758.212 9.278-2.552 12.295-5.955 6.478-6.918 14.204-6.918 30.164 0 15.668 6.242 18.188 26.27 18.188v1.26z" fill="#C7B28A"/><path d="M33.934 133.993v-1.273c20.028 0 26.27-2.507 26.27-18.188 0-15.96-.963-23.686-6.918-30.164-2.764-3.016-2.714-5.536-2.552-12.295.025-1.362.063-2.914.088-4.683l-22.492.076v-1.273l23.755-.076v.636c-.012 2.05-.05 3.806-.087 5.346-.15 6.554-.2 8.769 2.214 11.404 6.242 6.796 7.255 14.713 7.255 31.029-.012 17.615-8.393 19.461-27.533 19.461z" fill="#C7B28A"/><path d="M13.444 72.124c-.6 0-1.151-.025-1.664-.076l.112-1.273c1.94.19 4.767-.064 7.268-.382-3.715-.293-7.33-.636-7.38-.636l.112-1.273c.088.013 8.582.802 12.898 1.018l5.178.255-5.078 1.005c-.326.076-6.88 1.362-11.447 1.362zm-1.577 2.902l-.05-1.273c.263-.013 26.633-1.222 44.084-5.244l.275 1.248C38.6 73.804 12.13 75.013 11.867 75.026z" fill="#D2D2D2"/><path d="M11.867 77.368l-.062-1.273c.338-.013 33.775-1.846 43.983-6.364l.5 1.171c-10.407 4.608-43.032 6.39-44.42 6.466zm31.511 0h-.713l-.025-1.273c5.892-.407 13.098-3.144 13.16-3.17l.438 1.197c-.15.064-2.089.79-4.74 1.553a64.376 64.376 0 004.415-.624l.225 1.248c-5.392.98-10.846 1.069-12.76 1.069z" fill="#D2D2D2"/><path d="M37.962 84.826l-.588-.331c-6.23-3.564-11.22-.178-11.434-.026l-.387.268-.363-.306c-2.064-1.756-6.618-3.194-10.683.013l-.763-1.005c4.003-3.157 8.907-2.533 11.896-.268 1.376-.802 6.092-3.054 11.81-.076.4-.611 1.175-1.553 2.338-1.96.926-.318 1.902-.255 2.915.19 1.426-.61 7.956-2.978 11.559 2.254l-1.026.725c-3.44-4.99-10.195-1.744-10.27-1.718l-.275.14-.276-.14c-.8-.407-1.538-.497-2.214-.255-1.25.446-1.939 1.871-1.939 1.884l-.3.61z" fill="#C7B28A"/><path d="M18.297 98.788c-.975 0-1.713-.891-1.713-2.087 0-.637.212-1.235.6-1.68.313-.37.9-.815 1.889-.815.325 0 .688.051 1.05.153.789.216 1.202.865 1.101 1.705-.162 1.26-1.476 2.724-2.927 2.724zm.776-3.31c-1.176 0-1.239 1.032-1.239 1.235 0 .319.125.815.463.815.75 0 1.589-.93 1.69-1.617.037-.254-.051-.28-.176-.318a2.744 2.744 0 00-.738-.114zm30.135 30.102c-1.1 0-2.327-.726-2.477-2.787-.037-.573.175-.942.363-1.146.313-.344.776-.522 1.338-.522 1.151 0 2.59.738 3.003 1.96.175.509.087 1.031-.226 1.489-.4.611-1.2 1.006-2.001 1.006zm-.763-3.169c-.238 0-.375.063-.425.114-.038.038-.038.128-.038.191.075 1.031.513 1.604 1.226 1.604.388 0 .813-.191 1-.458.1-.153.088-.255.063-.331-.225-.649-1.15-1.12-1.826-1.12zM42.04 90.452c-.65 0-1.288-.471-1.526-1.108-.125-.33-.3-1.17.638-2.023.588-.522 1.438-.293 1.876.521.3.573.426 1.439 0 2.088a1.15 1.15 0 01-.988.522zm-.163-2.088c-.137.14-.275.344-.2.522.063.166.263.28.363.28v.636l.013-.636a1.223 1.223 0 00-.025-.458 1.104 1.104 0 00-.15-.344zm8.244 23.953c-.65 0-1.288-.471-1.526-1.107-.125-.331-.3-1.171.638-2.024.588-.522 1.439-.292 1.876.522.3.573.426 1.438 0 2.087a1.15 1.15 0 01-.988.522zm-.15-2.087c-.138.14-.275.344-.2.522.062.165.263.28.363.28v.636l.012-.636a1.22 1.22 0 00-.025-.458c-.05-.14-.1-.268-.15-.344zm-16.125-10.08c-.225 0-.437-.038-.637-.114-.651-.242-.989-.93-.864-1.706.138-.827.826-1.667 1.864-1.667.476 0 .963.178 1.451.522.476.33.663.865.488 1.412-.263.84-1.313 1.553-2.302 1.553zm.376-2.214c-.413 0-.6.407-.638.61-.025.14 0 .28.05.293a.576.576 0 00.212.038c.55 0 1.101-.496 1.126-.687-.287-.153-.55-.254-.75-.254zm2.789 25.047c-.6 0-1.163-.254-1.513-.713-.276-.356-.563-.992-.35-2.023.137-.624.6-1.006 1.225-1.006 1.001 0 2.265 1.031 2.315 2.228a1.35 1.35 0 01-.363.98c-.313.343-.788.534-1.314.534zm-.638-2.456c-.062.292-.1.7.1.954.163.217.438.229.538.229.2 0 .35-.063.413-.127-.012-.547-.7-1.056-1.05-1.056z" fill="#545251"/><path d="M35.585 65.696c-.525-.725-.6-1.616-.713-2.749-.137-1.4-.3-3.156-1.313-5.562-1.301-3.067-1.164-6.147.363-8.018.95-1.171 2.864-2.393 6.58-1.566 5.829 1.298 7.33 3.895 7.718 4.951.35.993.238 1.986-.313 2.724-.826 1.082-1.163 2.698-1.113 3.322 1.076-.331 4.178-1.82 5.429-3.653l.15-.23.263-.037c.05 0 4.49-.688 5.942-3.118.525-.891.588-1.897.175-3.093l1.176-.42c.538 1.552.438 2.953-.288 4.174-1.551 2.597-5.504 3.475-6.567 3.679-1.652 2.163-5.405 3.894-6.405 4.021-.388.051-.738-.14-.939-.496-.537-.954.076-3.487 1.176-4.938.288-.382.338-.916.125-1.502-.237-.675-1.438-2.953-6.805-4.15-2.452-.546-4.303-.152-5.341 1.134-1.201 1.489-1.276 4.123-.175 6.707 1.1 2.596 1.276 4.531 1.413 5.944.088.967.163 1.667.476 2.113l-1.014.763z" fill="#92B69A"/><path d="M49.708 65.913l-.475-1.171c3.002-1.273 5.804-3.106 7.906-5.168 2.69-2.634 3.965-5.18 3.69-7.356-.275-2.164-1.951-3.437-2.927-3.997-1.751-1.005-4.166-.012-6.955 1.133-1.702.7-3.453 1.413-5.28 1.782l-.237-1.247c1.714-.344 3.415-1.044 5.054-1.719 2.965-1.221 5.767-2.367 8.043-1.056 1.176.687 3.215 2.227 3.553 4.951.325 2.622-1.038 5.46-4.065 8.426-2.252 2.189-5.117 4.073-8.307 5.422z" fill="#92B69A"/><path d="M52.223 55.896c-.013-.026-1.601-2.024-4.966-2.8l.275-1.247c3.828.878 5.604 3.156 5.68 3.258l-.99.789zm-17.476 1.298l-1.25-.127c.312-3.13 1.087-5.053 2.451-6.084 1.564-1.17 3.665-.941 5.692-.521 2.29.483 4.078 1.603 5.016 3.169.6.992.8 2.074.563 3.003l-1.213-.33c.15-.573-.013-1.324-.426-1.999-.438-.725-1.576-2.036-4.215-2.584-2.39-.496-3.753-.42-4.704.293-1.013.79-1.651 2.482-1.914 5.18z" fill="#92B69A"/><path d="M21.2 69.337c-1.026 0-1.877-.09-2.465-.179-4.791-.712-8.631-3.283-8.581-5.714.075-3.513 3.052-5.066 5.679-6.44 1.213-.637 2.364-1.235 3.19-1.986 1.263-1.145 1.601-4.2 1.889-6.898.3-2.75.575-5.346 1.789-6.53 1.163-1.132 3.652-1.081 6.342.128 2.952 1.323 6.08 4.11 6.017 7.993l-1.251-.026c.05-3.258-2.69-5.65-5.267-6.796-2.089-.93-4.228-1.095-4.978-.37-.876.853-1.151 3.335-1.414 5.74-.325 3.068-.675 6.237-2.302 7.7-.95.854-2.214 1.515-3.452 2.165-2.54 1.323-4.942 2.583-5.004 5.332-.037 1.515 3.24 3.78 7.518 4.43 2.74.407 11.934.903 14.924-10.131l1.2.343c-2.614 9.686-9.63 11.239-13.834 11.239z" fill="#92B69A"/><path d="M32.17 60.643l-1.326-.84c-3.227-2.036-9.307-4.11-9.37-4.123l-1.1-.37.913-.725c2.177-1.756 5.229-2.164 6.367-2.265.463-1.591 1.74-7.51-4.378-9.902l.45-1.184c7.156 2.787 5.592 9.851 5.104 11.544 1.927 2.342 2.927 6.16 2.965 6.325l.375 1.54zm-9.107-5.74c1.639.599 4.629 1.757 7.018 3.017-.45-1.273-1.213-3.08-2.252-4.34-.763.063-2.927.318-4.766 1.323z" fill="#92B69A"/><path d="M16.709 66.537c-1.714 0-3.578-.344-5.567-1.019l.4-1.209c3.966 1.35 7.306 1.26 9.933-.254 3.903-2.253 4.953-6.975 4.966-7.026l1.226.267c-.05.217-1.164 5.308-5.554 7.853-1.602.93-3.415 1.388-5.404 1.388z" fill="#92B69A"/><path d="M30.619 59.574c-3.002-5.51-8.732-3.907-8.782-3.895l-.35-1.221c.063-.026 6.755-1.897 10.233 4.492l-1.101.624zm18.326-9.456l-.713-1.044c9.72-6.847 14.098-14.255 16.037-27.173-1.113-.242-3.965-.484-6.417 2.52l-.963-.815c3.652-4.467 8.243-2.787 8.294-2.762l.475.179-.075.509c-1.952 13.67-6.455 21.408-16.638 28.586zm-9.569-1.528l-.976-.801c7.068-8.935 11.546-15.464 9.582-24.386-.45-2.05-1.389-3.399-2.79-4.01-2.777-1.209-6.692.675-7.993 1.375.5 1.642 1.876 6.81.513 9.622-.426.878-1.064 1.464-1.914 1.744-.8.267-1.601.165-2.29-.293-2.514-1.693-3.352-7.93-3.552-9.864-1.764-.242-8.094-.649-10.183 5.562-2.414 7.191 6.88 13.415 6.98 13.479l-.675 1.069c-.413-.28-10.195-6.848-7.48-14.955 2.739-8.171 11.97-6.351 12.058-6.326l.463.102.038.471c.175 2.164 1.076 8.082 3.04 9.406.375.254.763.305 1.2.152.526-.178.914-.534 1.189-1.107 1.376-2.825-.713-9.087-.738-9.151l-.163-.484.438-.267c.225-.14 5.617-3.411 9.557-1.693 1.79.777 2.965 2.419 3.515 4.9 2.102 9.47-2.526 16.228-9.82 25.455z" fill="#92B69A"/><path d="M40.79 48.883l-.852-.93c7.243-6.885 11.184-15.158 12.21-17.525 2.264-5.18 4.69-7.318 7.23-6.351l.213.127c.15.14 1.05 1.12.763 3.488.8-1.49 1.514-3.297 1.614-5.104l1.25.076c-.275 4.786-4.165 9.228-4.328 9.419l-2.99 3.373 1.965-4.073c1.951-4.048 1.175-5.766.925-6.16-2.176-.637-4.19 2.736-5.491 5.727-1.064 2.418-5.104 10.87-12.51 17.933z" fill="#92B69A"/><path d="M49.52 29.346l-.988-.776c2.127-2.838 5.08-4.811 7.706-5.168 1.314-.178 2.452.09 3.303.751l-.763 1.006c-.576-.458-1.401-.636-2.377-.496-2.277.305-4.979 2.15-6.88 4.683z" fill="#92B69A"/><path d="M53.987 25.426l-.951-.827c3.528-4.162 3.99-9.52 3.24-13.122-.538-2.597-1.701-4.62-3.253-5.664-.7 1.693-2.69 5.918-5.504 6.835-1.15.382-2.289.178-3.402-.598-.838-.586-1.339-1.4-1.489-2.444-.388-2.647 1.714-6.058 2.727-7.522-1.889-.598-6.867-1.68-10.095 1.985-4.266 4.862-6.03 11.277-4.716 17.132l-1.213.28c-1.414-6.262.462-13.084 4.99-18.264 4.63-5.282 12.198-2.075 12.273-2.037l.75.331-.513.65c-.037.037-3.415 4.403-2.99 7.254.1.675.413 1.196.964 1.578.775.547 1.538.688 2.314.433 2.39-.776 4.403-5.142 4.979-6.758l.237-.662.626.305c2.19 1.07 3.84 3.577 4.528 6.886.826 3.92.326 9.711-3.502 14.23zm5.153-.598l-.863-.916c.063-.064 1.464-1.426 4.078-1.897a11.616 11.616 0 012.415-1.184l.4 1.21c-1.163.394-2.214 1.107-2.227 1.107l-.25.102c-2.29.382-3.54 1.565-3.553 1.578z" fill="#92B69A"/><path d="M30.844 44.263c-.513-.318-12.46-7.942-10.796-15.438 1.677-7.535 10.37-8.019 10.458-8.019l.238-.012.188.152c.062.051 1.55 1.273 2.389 3.87l-1.188.394c-.55-1.731-1.439-2.75-1.802-3.106-1.376.128-7.718 1.019-9.044 7.013C19.81 35.748 31.395 43.13 31.52 43.194l-.676 1.07z" fill="#92B69A"/><path d="M32.358 30.607c-1.351-3.042.5-9.38.588-9.648l.238-.814.7.458c.125.076 3.09 2.087 4.39 6.503l-1.188.37c-.8-2.711-2.301-4.417-3.19-5.231-.525 2.138-1.213 5.994-.4 7.84l-1.138.522z" fill="#92B69A"/><path d="M35.986 23.046l-1.226-.267c.388-1.794 1.188-2.698 1.226-2.736l.925.865s-.613.7-.925 2.138zM18.885 53.809c-7.43 0-16.162-4.938-17.888-10.475-1.577-5.066 3.365-9.902 5.516-10.882.876-.407 1.251-.051 1.389.19.5.79 5.792 5.614 7.318 5.995-.125-1.107-1.977-4.67-3.803-7.61l-.2-.319.188-.33c2.214-3.959 7.593-3.666 7.818-3.654l-.075 1.273c-.05 0-4.529-.229-6.468 2.698 1.714 2.775 4.254 7.268 3.69 8.63a.96.96 0 01-.662.585c-1.814.42-7.393-4.887-8.644-6.313-.676.293-2.552 1.68-3.866 3.78-.838 1.337-1.689 3.386-1 5.575 1.688 5.435 11.37 10.386 18.488 9.47l.15 1.26c-.637.089-1.288.127-1.95.127z" fill="#92B69A"/><path d="M11.555 35.354c-5.267-3.971-9.295-12.588-6.793-18.2 2.54-5.703 9.745-5.334 10.045-5.32l.663.037-.075.662c-.188 1.77-.375 6.695 1.088 8.324.313.344.663.496 1.101.496.363-.012.638-.127.85-.381 1.027-1.197.589-4.76.301-7.115-.213-1.744-.3-2.533-.1-3.004.238-.56 1.05-.954 2.39-1.158 2.189-.331 6.992-.178 9.482 2.787l-.951.828c-1.264-1.502-3.703-2.419-6.518-2.47-1.914-.025-3.09.357-3.277.573-.038.204.1 1.362.213 2.291.337 2.736.788 6.479-.6 8.108-.451.534-1.052.801-1.777.814-.788.013-1.489-.293-2.052-.916-1.776-1.986-1.614-6.746-1.463-8.617-1.727.051-6.405.586-8.182 4.57-2.264 5.065 1.514 12.969 6.393 16.647l-.738 1.044z" fill="#92B69A"/><path d="M14.544 36.003c-3.352-.267-7.593-2.406-7.768-2.495l.563-1.133c.037.026 4.19 2.126 7.305 2.368l-.1 1.26zm33.15-23.431l-.588-1.12c2.79-1.515 2.052-5.919 1.602-7.726-1.564 1.056-5.242 3.894-4.441 6.745l-1.201.344c-1.276-4.544 5.429-8.476 5.717-8.63l.663-.381.237.725c.088.319 2.465 7.624-1.989 10.043z" fill="#92B69A"/><path d="M50.221 7.022l-.938-.84c.763-.865 2.652-2.787 3.828-1.782l-.8.98c.012.013.024.013.037.013-.3-.05-1.364.751-2.127 1.63zM46.268 5.61l-1.176-.434c.476-1.323.65-3.449.65-3.461l1.252.114c0 .09-.188 2.304-.726 3.78zM18.873 20.462c-3.103 0-3.728-3.563-4.116-5.765-.112-.675-.275-1.591-.438-1.77l.888-.903c.426.433.576 1.273.788 2.444.513 2.889 1.089 5.065 3.466 4.658l.2 1.26a4.333 4.333 0 01-.788.076z" fill="#92B69A"/><path d="M56.601 80.753l-1.238-.204a3.49 3.49 0 00.037-.509V69.146c0-1.757-1.4-3.182-3.127-3.182h-21.7l1.202-1.273h20.498c2.414 0 4.378 1.998 4.378 4.455V80.04c.013.23-.012.471-.05.713z" fill="#D2D2D2"/></svg>