<svg width="67" height="140" viewBox="0 0 67 140" fill="none" xmlns="http://www.w3.org/2000/svg">
<path d="M11.2669 80.7532C11.2294 80.5241 11.2043 80.2696 11.2043 80.0278V69.133C11.2043 67.9366 11.6547 66.8293 12.4803 65.9893L13.3685 66.8929C12.7805 67.4911 12.4553 68.2929 12.4553 69.1457V80.0405C12.4553 80.2187 12.4678 80.3841 12.4928 80.5623L11.2669 80.7532Z" fill="#D2D2D2"/>
<path d="M33.9341 140C19.7358 140 10.7666 138.854 5.72526 136.411C0.99669 134.12 0.0960096 120.527 2.87311 93.6334C4.46181 78.3222 14.4068 78.4113 29.4682 78.5258C30.9068 78.5385 32.3954 78.5513 33.9341 78.5513V79.824C32.3829 79.824 30.8943 79.8113 29.4557 79.7986C14.0691 79.684 5.58765 79.6077 4.11154 93.7607C1.47205 119.318 2.1976 133.28 6.26317 135.253C11.1293 137.62 19.9235 138.714 33.9341 138.714V140Z" fill="#D2D2D2"/>
<path d="M33.9338 140V138.727C47.9444 138.727 56.7386 137.633 61.6047 135.266C65.6703 133.293 66.3959 119.331 63.7564 93.7737C62.2928 79.6206 53.7988 79.6842 38.4122 79.8115C36.9736 79.8242 35.485 79.837 33.9338 79.837V78.5642C35.4725 78.5642 36.9611 78.5515 38.3997 78.5387C53.4611 78.4242 63.4061 78.3351 64.9948 93.6464C67.7719 120.527 66.8712 134.12 62.1426 136.424C57.1013 138.855 48.1446 140 33.9338 140Z" fill="#D2D2D2"/>
<path d="M33.9339 133.993C14.7944 133.993 6.41309 132.147 6.41309 114.532C6.41309 98.2155 7.42635 90.299 13.6686 83.5025C16.0954 80.8678 16.0328 78.666 15.8827 72.1113C15.8577 70.8894 15.8202 69.5276 15.8077 68.0003L17.0586 67.9875C17.0711 69.5149 17.1087 70.8767 17.1337 72.0858C17.2838 78.8442 17.3463 81.3642 14.5818 84.3807C8.62726 90.859 7.66403 98.5846 7.66403 114.545C7.66403 130.213 13.9062 132.733 33.9339 132.733V133.993Z" fill="#C7B28A"/>
<path d="M33.9341 133.993V132.72C53.9617 132.72 60.2039 130.213 60.2039 114.532C60.2039 98.572 59.2407 90.8464 53.2862 84.368C50.5216 81.3516 50.5716 78.8315 50.7343 72.0732C50.7593 70.7114 50.7968 69.1586 50.8218 67.3895L28.3298 67.4658V66.1931L52.0853 66.1167V66.7531C52.0728 68.8022 52.0352 70.5586 51.9977 72.0987C51.8476 78.6534 51.7976 80.868 54.2119 83.5026C60.4541 90.2991 61.4674 98.2156 61.4674 114.532C61.4549 132.147 53.0735 133.993 33.9341 133.993Z" fill="#C7B28A"/>
<path d="M13.4435 72.124C12.8431 72.124 12.2927 72.0985 11.7798 72.0476L11.8924 70.7748C13.8313 70.9658 16.6585 70.7112 19.1604 70.393C15.4451 70.1003 11.8298 69.7566 11.7798 69.7566L11.8924 68.4839C11.9799 68.4966 20.4738 69.2857 24.7896 69.5021L29.9685 69.7566L24.8897 70.7621C24.5644 70.8385 18.0095 72.124 13.4435 72.124Z" fill="#D2D2D2"/>
<path d="M11.8673 75.0258L11.8173 73.753C12.08 73.7403 38.4499 72.5312 55.9006 68.5093L56.1758 69.7566C38.6 73.8039 12.13 75.0131 11.8673 75.0258Z" fill="#D2D2D2"/>
<path d="M11.8674 77.3677L11.8048 76.095C12.1426 76.0823 45.5803 74.2495 55.788 69.7312L56.2884 70.9021C45.8805 75.5095 13.2559 77.2914 11.8674 77.3677Z" fill="#D2D2D2"/>
<path d="M43.3784 77.3677C42.9281 77.3677 42.6779 77.3677 42.6654 77.3677L42.6404 76.0949C48.5323 75.6877 55.7378 72.9512 55.8003 72.9258L56.2382 74.1222C56.088 74.1858 54.1491 74.9113 51.4971 75.6749C52.9232 75.5222 54.4118 75.3186 55.9129 75.0513L56.1381 76.2986C50.7465 77.2786 45.2924 77.3677 43.3784 77.3677Z" fill="#D2D2D2"/>
<path d="M37.9621 84.8259L37.3741 84.495C31.1444 80.9312 26.1531 84.3168 25.9405 84.4695L25.5527 84.7368L25.1899 84.4313C23.1259 82.6749 18.5724 81.2367 14.5069 84.444L13.7438 83.4386C17.7468 80.2821 22.6505 80.9058 25.6403 83.1713C27.0163 82.3694 31.7324 80.1167 37.4492 83.0949C37.8495 82.484 38.6251 81.5422 39.7884 81.1349C40.7141 80.8167 41.6899 80.8803 42.7031 81.3258C44.1292 80.7149 50.6591 78.3475 54.2619 83.5786L53.2361 84.304C49.796 79.3148 43.0409 82.5604 42.9658 82.5858L42.6906 82.7258L42.4154 82.5858C41.6148 82.1785 40.8768 82.0894 40.2013 82.3313C38.9503 82.7767 38.2623 84.2022 38.2623 84.2149L37.9621 84.8259Z" fill="#C7B28A"/>
<path d="M18.2973 98.788C17.3216 98.788 16.5835 97.897 16.5835 96.7007C16.5835 96.0643 16.7962 95.4661 17.1839 95.0206C17.4967 94.6515 18.0846 94.2061 19.0729 94.2061C19.3981 94.2061 19.7609 94.257 20.1237 94.3588C20.9118 94.5751 21.3246 95.2243 21.2245 96.0643C21.0619 97.3243 19.7484 98.788 18.2973 98.788ZM19.0729 95.4788C17.897 95.4788 17.8344 96.5097 17.8344 96.7134C17.8344 97.0316 17.9595 97.5279 18.2973 97.5279C19.0479 97.5279 19.886 96.5988 19.9861 95.9115C20.0236 95.657 19.936 95.6315 19.8109 95.5934C19.5357 95.517 19.298 95.4788 19.0729 95.4788Z" fill="#545251"/>
<path d="M49.208 125.58C48.1072 125.58 46.8813 124.854 46.7312 122.793C46.6936 122.22 46.9063 121.851 47.0939 121.647C47.4067 121.303 47.8695 121.125 48.4324 121.125C49.5833 121.125 51.0219 121.863 51.4347 123.085C51.6098 123.594 51.5223 124.116 51.2095 124.574C50.8092 125.185 50.0086 125.58 49.208 125.58ZM48.4449 122.411C48.2073 122.411 48.0697 122.474 48.0196 122.525C47.9821 122.563 47.9821 122.653 47.9821 122.716C48.0572 123.747 48.495 124.32 49.208 124.32C49.5958 124.32 50.0211 124.129 50.2088 123.862C50.3089 123.709 50.2963 123.607 50.2713 123.531C50.0462 122.882 49.1205 122.411 48.4449 122.411Z" fill="#545251"/>
<path d="M42.0401 90.4516C41.3896 90.4516 40.7516 89.9807 40.5139 89.3443C40.3889 89.0134 40.2137 88.1734 41.1519 87.3206C41.7399 86.7988 42.5905 87.0279 43.0283 87.8424C43.3286 88.4152 43.4537 89.2807 43.0283 89.9298C42.8157 90.2607 42.4529 90.4516 42.0401 90.4516ZM41.8775 88.3643C41.7399 88.5043 41.6023 88.7079 41.6773 88.8861C41.7399 89.0516 41.94 89.1661 42.0401 89.1661V89.8025L42.0526 89.1661C42.0651 89.1025 42.0776 88.9115 42.0276 88.7079C41.9901 88.5552 41.9275 88.4406 41.8775 88.3643Z" fill="#545251"/>
<path d="M50.1211 112.317C49.4707 112.317 48.8327 111.846 48.595 111.21C48.4699 110.879 48.2948 110.039 49.233 109.186C49.8209 108.664 50.6716 108.894 51.1094 109.708C51.4096 110.281 51.5347 111.146 51.1094 111.795C50.8967 112.126 50.534 112.317 50.1211 112.317ZM49.971 110.23C49.8334 110.37 49.6958 110.574 49.7709 110.752C49.8334 110.917 50.0336 111.032 50.1337 111.032V111.668L50.1462 111.032C50.1587 110.968 50.1712 110.777 50.1211 110.574C50.0711 110.434 50.0211 110.306 49.971 110.23Z" fill="#545251"/>
<path d="M33.8465 100.15C33.6213 100.15 33.4086 100.112 33.2085 100.036C32.558 99.7938 32.2202 99.1065 32.3453 98.3302C32.4829 97.5029 33.1709 96.6628 34.2092 96.6628C34.6846 96.6628 35.1725 96.841 35.6603 97.1847C36.1357 97.5156 36.3233 98.0502 36.1482 98.5974C35.8855 99.4375 34.8347 100.15 33.8465 100.15ZM34.2217 97.9356C33.8089 97.9356 33.6213 98.3429 33.5838 98.5465C33.5587 98.6865 33.5838 98.8265 33.6338 98.8393C33.6963 98.8647 33.7714 98.8774 33.8465 98.8774C34.3969 98.8774 34.9473 98.3811 34.9723 98.1902C34.6846 98.0374 34.4219 97.9356 34.2217 97.9356Z" fill="#545251"/>
<path d="M37.0113 122.983C36.4108 122.983 35.8479 122.729 35.4976 122.27C35.2224 121.914 34.9347 121.278 35.1474 120.247C35.285 119.623 35.7478 119.241 36.3733 119.241C37.374 119.241 38.6375 120.272 38.6875 121.469C38.7 121.838 38.5749 122.181 38.3248 122.449C38.012 122.792 37.5367 122.983 37.0113 122.983ZM36.3733 120.527C36.3107 120.819 36.2732 121.227 36.4734 121.481C36.636 121.698 36.9112 121.71 37.0113 121.71C37.2114 121.71 37.3615 121.647 37.4241 121.583C37.4116 121.036 36.7235 120.527 36.3733 120.527Z" fill="#545251"/>
<path d="M35.5852 65.6962C35.0599 64.9707 34.9848 64.0798 34.8722 62.947C34.7346 61.547 34.572 59.7906 33.5587 57.3851C32.2577 54.3177 32.3953 51.2377 33.9215 49.3667C34.8722 48.1958 36.7862 46.9739 40.5015 47.8012C46.3309 49.0994 47.832 51.6959 48.2198 52.7522C48.5701 53.745 48.4575 54.7377 47.9071 55.4759C47.0814 56.5578 46.7437 58.1742 46.7937 58.7978C47.8695 58.4669 50.9719 56.9778 52.2228 55.145L52.3729 54.9159L52.6356 54.8777C52.6857 54.8777 57.1265 54.1905 58.5776 51.7595C59.103 50.8686 59.1656 49.8631 58.7528 48.6667L59.9286 48.2467C60.4665 49.7994 60.3665 51.1995 59.6409 52.4213C58.0897 55.0178 54.1368 55.896 53.0735 56.0996C51.4222 58.2633 47.6694 59.9942 46.6686 60.1215C46.2808 60.1724 45.9306 59.9815 45.7304 59.6251C45.1925 58.6706 45.8055 56.1378 46.9063 54.6868C47.194 54.305 47.2441 53.7705 47.0314 53.185C46.7937 52.5104 45.5928 50.2322 40.2263 49.0358C37.7744 48.4885 35.923 48.8831 34.8847 50.1686C33.6838 51.6577 33.6088 54.2923 34.7096 56.876C35.8104 59.4724 35.9856 61.407 36.1232 62.8198C36.2107 63.7871 36.2858 64.4871 36.5985 64.9325L35.5852 65.6962Z" fill="#92B69A"/>
<path d="M49.7083 65.9126L49.2329 64.7417C52.2352 63.4689 55.0373 61.6361 57.1389 59.5743C59.8284 56.9397 61.1044 54.3942 60.8292 52.2177C60.554 50.0541 58.8777 48.7813 57.902 48.2213C56.1506 47.2158 53.7363 48.2086 50.9467 49.354C49.2454 50.0541 47.4941 50.7668 45.6677 51.1359L45.4301 49.8886C47.1438 49.545 48.8451 48.8449 50.4839 48.1704C53.4486 46.9485 56.2507 45.8031 58.5274 47.114C59.7033 47.8013 61.7424 49.3413 62.0801 52.065C62.4054 54.6869 61.0418 57.5251 58.0146 60.4907C55.7629 62.6798 52.8982 64.5635 49.7083 65.9126Z" fill="#92B69A"/>
<path d="M52.2228 55.896C52.2103 55.8705 50.6216 53.8723 47.2566 53.0959L47.5318 51.8486C51.3597 52.7268 53.136 55.0051 53.2111 55.1069L52.2228 55.896Z" fill="#92B69A"/>
<path d="M34.7472 57.1944L33.4962 57.0671C33.809 53.9361 34.5845 52.0142 35.9481 50.9833C37.5117 49.8124 39.6133 50.0415 41.6399 50.4615C43.9291 50.9451 45.7179 52.0651 46.6561 53.6306C47.2566 54.6234 47.4567 55.7052 47.2191 56.6343L46.0057 56.3034C46.1558 55.7307 45.9931 54.9798 45.5803 54.3052C45.1425 53.5797 44.0041 52.2688 41.3647 51.7215C38.9753 51.2251 37.6118 51.3015 36.6611 52.0142C35.6478 52.8033 35.0099 54.4961 34.7472 57.1944Z" fill="#92B69A"/>
<path d="M21.1994 69.3366C20.1736 69.3366 19.323 69.2475 18.735 69.1584C13.9439 68.4457 10.1035 65.8747 10.1536 63.4437C10.2286 59.9309 13.2059 58.3782 15.8328 57.0036C17.0463 56.3672 18.1971 55.769 19.0228 55.0181C20.2862 53.8726 20.624 50.818 20.9117 48.1197C21.2119 45.3706 21.4871 42.7742 22.7005 41.5905C23.8639 40.4577 26.3533 40.5086 29.0428 41.7178C31.995 43.0414 35.1224 45.8288 35.0599 49.7107L33.8089 49.6852C33.859 46.427 31.1194 44.0342 28.5424 42.8887C26.4534 41.9596 24.3142 41.7941 23.5637 42.5196C22.688 43.3724 22.4128 45.8542 22.1501 48.2597C21.8249 51.3271 21.4746 54.4963 19.8484 55.9599C18.8977 56.8127 17.6342 57.4745 16.3958 58.1236C13.8564 59.4473 11.4545 60.7073 11.392 63.4565C11.3545 64.971 14.6319 67.2366 18.9102 67.8857C21.6497 68.2929 30.8442 68.7893 33.8339 57.7545L35.0348 58.0982C32.4204 67.7838 25.4026 69.3366 21.1994 69.3366Z" fill="#92B69A"/>
<path d="M32.1702 60.6434L30.8442 59.8034C27.6167 57.767 21.5372 55.6924 21.4746 55.6797L20.3738 55.3106L21.287 54.5851C23.4636 52.8287 26.5159 52.4214 27.6543 52.3196C28.1171 50.7287 29.3931 44.8103 23.276 42.4176L23.7263 41.2339C30.8817 44.0212 29.318 51.085 28.8302 52.7778C30.7566 55.1197 31.7574 58.9379 31.7949 59.1034L32.1702 60.6434ZM23.0633 54.9033C24.702 55.5015 27.6918 56.6597 30.0811 57.9197C29.6308 56.647 28.8677 54.8397 27.8294 53.5796C27.0663 53.6433 24.9022 53.8978 23.0633 54.9033Z" fill="#92B69A"/>
<path d="M16.7085 66.5365C14.9948 66.5365 13.1308 66.1929 11.1418 65.5183L11.5421 64.3092C15.5076 65.6583 18.8477 65.5693 21.4746 64.0547C25.3776 61.8019 26.4284 57.08 26.4409 57.0291L27.6668 57.2963C27.6168 57.5127 26.5034 62.6037 22.1126 65.1492C20.5114 66.0784 18.6975 66.5365 16.7085 66.5365Z" fill="#92B69A"/>
<path d="M30.619 59.5742C27.6167 54.0631 21.8874 55.6668 21.8373 55.6795L21.4871 54.4577C21.5496 54.4322 28.2422 52.5613 31.7198 58.9505L30.619 59.5742Z" fill="#92B69A"/>
<path d="M48.9452 50.1179L48.2322 49.0742C57.952 42.2268 62.3303 34.8194 64.2693 21.9009C63.156 21.6591 60.3038 21.4172 57.8519 24.4209L56.8887 23.6064C60.5415 19.139 65.1325 20.819 65.1825 20.8445L65.6578 21.0227L65.5828 21.5318C63.6313 35.2012 59.1279 42.9396 48.9452 50.1179Z" fill="#92B69A"/>
<path d="M39.3755 48.5905L38.3997 47.7887C45.4676 38.8539 49.946 32.3247 47.982 23.4026C47.5316 21.3535 46.5934 20.0044 45.1924 19.3935C42.4153 18.1843 38.4998 20.068 37.1988 20.768C37.6992 22.4099 39.0753 27.5773 37.7117 30.3901C37.2864 31.2683 36.6484 31.8537 35.7978 32.1337C34.9972 32.401 34.1966 32.2992 33.5086 31.841C30.9942 30.1482 30.156 23.9117 29.9559 21.9771C28.192 21.7353 21.8623 21.328 19.7732 27.5391C17.3589 34.7302 26.6534 40.954 26.7535 41.0176L26.0779 42.0867C25.6651 41.8067 15.8827 35.2393 18.5973 27.1318C21.3369 18.9607 30.5688 20.7808 30.6564 20.8062L31.1192 20.908L31.1568 21.379C31.3319 23.5426 32.2326 29.461 34.1966 30.7846C34.5719 31.0392 34.9597 31.0901 35.3975 30.9374C35.9229 30.7592 36.3107 30.4028 36.5859 29.8301C37.9619 27.0045 35.8728 20.7426 35.8478 20.6789L35.6852 20.1953L36.123 19.928C36.3482 19.788 41.7398 16.517 45.6802 18.2352C47.4691 19.0116 48.645 20.6535 49.1954 23.1354C51.297 32.6047 46.6685 39.363 39.3755 48.5905Z" fill="#92B69A"/>
<path d="M40.7891 48.8831L39.9385 47.9539C47.1814 41.0683 51.1219 32.7954 52.1477 30.4281C54.4119 25.248 56.8387 23.1097 59.3782 24.077L59.5908 24.2043C59.7409 24.3443 60.6416 25.3243 60.3539 27.6916C61.1545 26.2025 61.8675 24.3952 61.9676 22.5879L63.2186 22.6643C62.9433 27.4498 59.0529 31.8917 58.8903 32.0827L55.9005 35.4555L57.8645 31.3826C59.816 27.3353 59.0404 25.6171 58.7902 25.2225C56.6136 24.5861 54.5995 27.9589 53.2986 30.9499C52.2353 33.3681 48.1947 41.8193 40.7891 48.8831Z" fill="#92B69A"/>
<path d="M49.5207 29.3463L48.5325 28.5699C50.6591 25.7316 53.6113 23.7589 56.2383 23.4025C57.5518 23.2243 58.6901 23.4916 59.5408 24.1534L58.7777 25.1589C58.2023 24.7007 57.3766 24.5225 56.4009 24.6625C54.1242 24.968 51.4221 26.8135 49.5207 29.3463Z" fill="#92B69A"/>
<path d="M53.9867 25.4263L53.036 24.599C56.5636 20.4371 57.0265 15.0788 56.2759 11.4769C55.738 8.88043 54.5746 6.85675 53.0235 5.81309C52.3229 7.50586 50.3339 11.7314 47.5193 12.6478C46.3684 13.0296 45.2301 12.826 44.1167 12.0496C43.2786 11.4641 42.7782 10.6496 42.6281 9.6059C42.2403 6.95857 44.3419 3.54758 45.3552 2.08391C43.4662 1.48571 38.4875 0.403871 35.2601 4.06941C30.9943 8.93134 29.2305 15.346 30.544 21.2007L29.3306 21.4807C27.917 15.2188 29.7934 8.39679 34.3218 3.21666C38.9503 -2.06528 46.5186 1.14207 46.5936 1.18025L47.3442 1.51117L46.8313 2.16028C46.7938 2.19846 43.4162 6.56402 43.8415 9.41499C43.9416 10.0896 44.2543 10.6114 44.8048 10.9932C45.5803 11.5405 46.3434 11.6805 47.119 11.4259C49.5083 10.6496 51.5223 6.28401 52.0978 4.66761L52.3354 4.00577L52.9609 4.31123C55.1501 5.38035 56.8013 7.88768 57.4893 11.1969C58.315 15.1169 57.8146 20.908 53.9867 25.4263Z" fill="#92B69A"/>
<path d="M59.1404 24.828L58.2772 23.9116C58.3398 23.848 59.7408 22.4861 62.3553 22.0152C62.6805 21.7988 63.6563 21.2134 64.7696 20.8315L65.1699 22.0407C64.0065 22.4352 62.9557 23.148 62.9432 23.148L62.693 23.2498C60.4038 23.6316 59.1529 24.8153 59.1404 24.828Z" fill="#92B69A"/>
<path d="M30.8441 44.2631C30.3312 43.9449 18.3847 36.3211 20.0484 28.8246C21.7247 21.2898 30.4188 20.8062 30.5063 20.8062L30.744 20.7935L30.9317 20.9462C30.9942 20.9971 32.4828 22.2189 33.321 24.8154L32.1326 25.2099C31.5822 23.479 30.694 22.4608 30.3312 22.1044C28.9552 22.2317 22.6129 23.1226 21.2869 29.1173C19.8108 35.7484 31.3945 43.1303 31.5196 43.194L30.8441 44.2631Z" fill="#92B69A"/>
<path d="M32.3579 30.6066C31.0069 27.5647 32.8583 21.2264 32.9458 20.9591L33.1835 20.1445L33.8841 20.6027C34.0091 20.6791 36.9739 22.69 38.2749 27.1065L37.0865 27.4756C36.2859 24.7646 34.7847 23.0591 33.8966 22.2446C33.3712 24.3828 32.6831 28.2393 33.4963 30.0848L32.3579 30.6066Z" fill="#92B69A"/>
<path d="M35.9857 23.0464L34.7598 22.7792C35.1476 20.9846 35.9482 20.0809 35.9857 20.0427L36.9114 20.9082C36.9114 20.9082 36.2984 21.6082 35.9857 23.0464Z" fill="#92B69A"/>
<path d="M18.8851 53.8088C11.4545 53.8088 2.7229 48.8705 0.996594 43.334C-0.579597 38.2684 4.36163 33.4319 6.51326 32.4519C7.38892 32.0446 7.76421 32.401 7.90181 32.6428C8.40219 33.4319 13.6937 38.2557 15.2198 38.6375C15.0947 37.5302 13.2433 33.9665 11.417 31.0264L11.2168 30.7082L11.4045 30.3773C13.6186 26.419 18.9977 26.7117 19.2229 26.7245L19.1478 27.9972C19.0978 27.9972 14.6194 27.7681 12.6804 30.6955C14.3942 33.4701 16.9336 37.9629 16.3707 39.3248C16.2456 39.6302 16.0079 39.8339 15.7077 39.9102C13.8938 40.3303 8.31462 35.0229 7.06368 33.5974C6.38817 33.8901 4.51175 35.2774 3.19826 37.3775C2.36012 38.7139 1.50948 40.763 2.1975 42.9521C3.88628 48.3868 13.5686 53.3378 20.6865 52.4215L20.8366 53.6815C20.1986 53.7706 19.5481 53.8088 18.8851 53.8088Z" fill="#92B69A"/>
<path d="M11.5547 35.3537C6.28818 31.3827 2.26014 22.7661 4.76202 17.1533C7.30144 11.4513 14.5069 11.8204 14.8071 11.8332L15.4701 11.8713L15.3951 12.5332C15.2074 14.3023 15.0198 19.2279 16.4834 20.857C16.7961 21.2007 17.1464 21.3534 17.5842 21.3534C17.947 21.3407 18.2222 21.2261 18.4349 20.9716C19.4606 19.7752 19.0228 16.2114 18.7351 13.8568C18.5224 12.1132 18.4349 11.3241 18.635 10.8531C18.8727 10.2931 19.6858 9.89857 21.0243 9.69493C23.2135 9.36402 28.0171 9.51675 30.5065 12.4823L29.5557 13.3096C28.2923 11.8077 25.853 10.8913 23.0383 10.8404C21.1244 10.815 19.9485 11.1968 19.7609 11.4132C19.7233 11.6168 19.8609 12.775 19.9735 13.7041C20.3113 16.4405 20.7616 20.1825 19.3731 21.8116C18.9227 22.3461 18.3223 22.6134 17.5967 22.6261C16.8086 22.6389 16.1081 22.3334 15.5452 21.7098C13.7688 19.7243 13.9315 14.9641 14.0816 13.0932C12.3553 13.1441 7.67673 13.6787 5.90038 17.6624C3.63617 22.728 7.41403 30.6318 12.2927 34.31L11.5547 35.3537Z" fill="#92B69A"/>
<path d="M14.5444 36.0029C11.1918 35.7356 6.95113 33.5973 6.776 33.5082L7.33892 32.3755C7.37645 32.4009 11.5296 34.501 14.6444 34.7428L14.5444 36.0029Z" fill="#92B69A"/>
<path d="M47.6944 12.5715L47.1065 11.4515C49.8961 9.93687 49.1581 5.53313 48.7077 3.72582C47.144 4.78221 43.4663 7.62045 44.2669 10.4714L43.0659 10.8151C41.79 6.27133 48.495 2.33851 48.7828 2.18578L49.4458 1.80396L49.6834 2.52943C49.771 2.84762 52.1478 10.1532 47.6944 12.5715Z" fill="#92B69A"/>
<path d="M50.2213 7.02223L49.2831 6.18221C50.0462 5.31673 51.9351 3.39487 53.111 4.40034L52.3104 5.38037C52.3229 5.39309 52.3354 5.3931 52.3479 5.3931C52.0477 5.34218 50.9844 6.14402 50.2213 7.02223Z" fill="#92B69A"/>
<path d="M46.2682 5.60924L45.0923 5.1765C45.5676 3.85283 45.7428 1.72733 45.7428 1.7146L46.9937 1.82915C46.9937 1.91824 46.8061 4.13284 46.2682 5.60924Z" fill="#92B69A"/>
<path d="M18.8727 20.4625C15.7703 20.4625 15.1448 16.8988 14.757 14.697C14.6445 14.0224 14.4818 13.106 14.3192 12.9278L15.2074 12.0242C15.6327 12.4569 15.7828 13.2969 15.9955 14.4679C16.5084 17.357 17.0838 19.5334 19.4606 19.1262L19.6608 20.3862C19.3855 20.4371 19.1228 20.4625 18.8727 20.4625Z" fill="#92B69A"/>
<path d="M56.601 80.7531L55.3626 80.5495C55.3876 80.384 55.4001 80.2058 55.4001 80.0404V69.1456C55.4001 67.3892 53.9991 65.9637 52.2728 65.9637H30.573L31.7753 64.6909H52.2728C54.6871 64.6909 56.6511 66.6891 56.6511 69.1456V80.0404C56.6636 80.2695 56.6386 80.5113 56.601 80.7531Z" fill="#D2D2D2"/>
</svg>
