<svg width="39" height="18" fill="none" xmlns="http://www.w3.org/2000/svg"><path d="M38.59 16.211l-4.355-7.355L38.546 1.8a1.111 1.111 0 00-.944-1.689H2.912a2.222 2.222 0 00-2.22 2.222v13.334a2.222 2.222 0 002.222 2.222h34.722a1.112 1.112 0 00.956-1.678zm-26.222-3.678h-1.244L7.502 7.711v4.833H6.246V5.667h1.256l3.633 4.833V5.667h1.245l-.012 6.866zm7.034-5.755H15.48v1.655h3.555v1.111H15.48v1.79h3.922v1.11h-5.178V5.667h5.167l.01 1.11zm9.21 5.733h-1.255l-1.722-5.1-1.722 5.122h-1.244l-2.223-6.866h1.356l1.466 4.922 1.69-4.922h1.355l1.622 4.922 1.478-4.922h1.367l-2.167 6.844z" fill="#8AAAC7"/></svg>