<svg width="41" height="40" fill="none" xmlns="http://www.w3.org/2000/svg"><path d="M18.466 38.515c-.417-.467-.89-.996-1.25-1.066a3.233 3.233 0 00-1.633.525l.011-.009a4.74 4.74 0 01-1.923.63l-.02.002h-.016c-.21 0-.418-.041-.612-.122l.01.003c-.818-.34-1.15-1.286-1.467-2.203a3.43 3.43 0 00-.761-1.49l.003.004a1.752 1.752 0 00-.928-.169h.007c-.244 0-.5.015-.757.03-.277.017-.553.03-.817.03a2.41 2.41 0 01-1.768-.546l.004.003a3.26 3.26 0 01-.509-2.601l-.003.021c.098-.57.05-1.155-.14-1.701l.007.025a3.396 3.396 0 00-1.464-.755l-.023-.005c-.917-.318-1.866-.648-2.203-1.467a3.25 3.25 0 01.522-2.571l-.007.01c.304-.489.48-1.047.511-1.622v-.008c-.07-.362-.6-.833-1.066-1.25-.73-.646-1.483-1.318-1.483-2.216 0-.899.753-1.57 1.481-2.222.467-.416.997-.89 1.067-1.25a3.437 3.437 0 00-.525-1.635l.008.014a3.256 3.256 0 01-.508-2.585l-.003.022c.34-.819 1.286-1.15 2.203-1.467a3.406 3.406 0 001.49-.763l-.004.003c.188-.545.233-1.13.13-1.698l.004.02a3.281 3.281 0 01.516-2.591l-.006.01a2.417 2.417 0 011.773-.54h-.01c.266 0 .541.015.816.03.257.015.514.03.757.03.32.029.643-.03.931-.172l-.01.005c.359-.41.624-.91.754-1.463l.005-.024c.32-.916.65-1.866 1.466-2.203.191-.078.396-.118.602-.116h.018-.001c.726.075 1.386.3 1.968.643l-.024-.012c.482.317 1.04.496 1.615.518h.007c.362-.07.833-.6 1.25-1.066C19.118.753 19.79 0 20.689 0c.898 0 1.57.753 2.221 1.483.417.467.89.997 1.25 1.067a3.267 3.267 0 001.634-.527l-.014.008a4.732 4.732 0 011.925-.628l.02-.001h.017c.216 0 .423.043.611.121l-.01-.003c.819.34 1.15 1.286 1.467 2.203.135.577.4 1.077.762 1.49l-.004-.003c.289.14.61.196.93.165h-.007c.244 0 .5-.015.757-.029.277-.015.553-.03.817-.03a2.42 2.42 0 011.77.547l-.004-.003a3.271 3.271 0 01.507 2.601l.003-.022c-.098.57-.05 1.156.142 1.702l-.007-.024c.408.36.91.625 1.463.754l.024.005c.916.32 1.866.65 2.203 1.466a3.27 3.27 0 01-.52 2.572l.007-.01a3.4 3.4 0 00-.517 1.611v.01c.07.362.6.834 1.066 1.25.735.655 1.489 1.327 1.489 2.225 0 .898-.754 1.572-1.483 2.223-.467.417-.997.888-1.067 1.25a3.45 3.45 0 00.525 1.637l-.008-.015a3.25 3.25 0 01.508 2.583l.003-.022c-.338.82-1.286 1.15-2.203 1.467a3.416 3.416 0 00-1.49.763l.003-.003a3.373 3.373 0 00-.13 1.698l-.003-.02a3.28 3.28 0 01-.516 2.59l.006-.01a2.42 2.42 0 01-1.771.543h.01c-.267 0-.542-.015-.817-.03a13.26 13.26 0 00-.757-.03 1.74 1.74 0 00-.931.171l.01-.005a3.412 3.412 0 00-.753 1.464l-.005.023c-.32.917-.65 1.867-1.467 2.203a1.56 1.56 0 01-.602.117h-.018a4.788 4.788 0 01-1.965-.645l.022.012a3.149 3.149 0 00-1.615-.517h-.007c-.361.07-.833.6-1.25 1.066-.658.73-1.33 1.484-2.23 1.484-.9 0-1.57-.754-2.224-1.482zm5.886-26.334l-8.133 14.778a.276.276 0 00.242.41h1.412a.272.272 0 00.24-.141l8.12-14.782a.276.276 0 00-.241-.41h-1.398a.276.276 0 00-.242.145zm-1.173 7.58a1.865 1.865 0 00-.677 1.439v4c0 .573.264 1.085.675 1.422l.003.003c.427.357.98.572 1.585.572s1.159-.217 1.588-.575l-.003.003c.417-.338.68-.85.68-1.423v-4c0-.573-.258-1.088-.663-1.431l-.004-.002c-.422-.38-.97-.59-1.538-.588h-.051.003-.052a2.326 2.326 0 00-1.546.583l.003-.002-.003-.001zm-7.073-7.177a1.862 1.862 0 00-.677 1.438v4c0 .575.262 1.09.675 1.428l.004.003c.426.362.981.58 1.588.58.606 0 1.163-.22 1.591-.583l-.003.003a1.84 1.84 0 00.685-1.434v-3.99a1.86 1.86 0 00-.675-1.437l-.003-.001a2.458 2.458 0 00-3.19.001l.003-.003.002-.005zm8.296 12.834a.306.306 0 01-.115-.238v-4.002c0-.096.045-.181.113-.236a.477.477 0 01.312-.117h.022-.002.02c.115 0 .226.04.313.115a.306.306 0 01.115.237v4.003a.304.304 0 01-.113.236.526.526 0 01-.333.117.526.526 0 01-.335-.119h.001l.002.004zm-7.066-7.176a.308.308 0 01-.115-.239v-3.999a.31.31 0 01.113-.239.526.526 0 01.334-.116c.126 0 .243.043.335.118a.305.305 0 01.113.238v4.002a.308.308 0 01-.113.238.526.526 0 01-.334.117.526.526 0 01-.335-.118l.002-.002z" fill="#B692B2"/></svg>