<svg width="116" height="123" fill="none" xmlns="http://www.w3.org/2000/svg"><path d="M30.399 28.56c-4.431-7.582-1.607-11.205.676-14.1 1.472-1.882 2.639-3.374 2.098-5.7l-.576-2.415 1.895 1.474c2.672 2.095 4.65 1.722 6.562 1.367 1.59-.302 3.23-.604 4.956.604l-.93 1.474c-1.167-.8-2.3-.604-3.738-.337-1.725.32-3.806.692-6.36-.693-.118 2.149-1.387 3.765-2.604 5.328-2.233 2.859-4.347 5.54-.542 12.057l-1.437.942z" fill="#B692B2"/><path d="M18.342 98.352l-12.267-.036C5.855 98.227.467 96.359.7 80.039l.291-1.168 17.827-.125v1.776l-16.692.124C2.09 93.895 5.797 96.31 6.307 96.577h12.035v1.776z" fill="#92B69A"/><path d="M56.316 96.576h-11.17v1.776h11.17v-1.776z" fill="#B692B2"/><path d="M109.465 98.352H84.679v-1.776h24.433c4.003-3.623 3.349-13.745 3.084-16.55h-11.147l-.383-1.777h12.613l.101.728c.075.586 1.825 14.562-3.739 19.25l-.176.125zm-36.436 17.846h-55.04c-10.18 0-11.823-17.882-11.885-18.646l1.536-.178c.015.178 1.566 17.048 10.364 17.048h53.903l.785.767.415 1.009h-.078z" fill="#92B69A"/><path d="M99.163 116.198H75.396l.514-1.776h23.253c7.79 0 9.163-16.87 9.176-17.048l1.36.178c-.068.763-1.523 18.646-10.536 18.646z" fill="#92B69A"/><path d="M98.984 123H17.347l-.124-.142c-2.113-2.362-1.512-7.512-1.491-7.725l.083-.71h13.359v1.775h-12.49c-.062 1.226-.04 3.694.974 5.026h80.995c1.025-1.332 1.036-3.8.973-5.026H86.402v-1.775h14.115l.083.71c.031.213.621 5.345-1.491 7.725l-.125.142z" fill="#92B69A"/><path d="M65.46 63.474c-3.468 0-5.852-.586-5.954-.604l-.304-.07-.186-.25C52.74 53.815 50.44 47.51 52.2 43.817c.98-2.06 3.213-3.215 6.291-3.215 2.504 0 4.905.746 6.09 1.439a6.816 6.816 0 003.483.941c2.148 0 3.755-.923 3.772-.941l.558-.32.457.462c.034.035.913.87 2.909.87 1.031 0 2.165-.23 3.4-.675a9.269 9.269 0 013.196-.568c2.537 0 4.55 1.065 5.395 2.841 1.1 2.362.203 5.559-2.706 9.537-5.632 7.689-13.767 9.287-19.585 9.287zm-5.294-2.255c.71.142 2.689.497 5.277.497 5.446 0 13.04-1.492 18.232-8.595 2.402-3.285 3.298-6.002 2.52-7.672-.541-1.154-1.995-1.846-3.873-1.846-.896 0-1.81.16-2.638.461-1.404.515-2.74.782-3.958.782-1.81 0-2.994-.569-3.603-.977-.744.337-2.249.906-4.093.906a8.45 8.45 0 01-4.296-1.155c-1.031-.603-3.18-1.207-5.276-1.207-1.709 0-3.907.39-4.787 2.22-.778 1.669-.98 6.073 6.495 16.586z" fill="#B692B2"/><path d="M60.115 62.782l-.862-1.527c11.264-7.068 12.143-18.38 12.143-18.487l1.692.124c-.034.498-.914 12.307-12.973 19.89z" fill="#B692B2"/><path d="M72.056 43.407l-1.674-.23c.676-5.453-2.943-8.809-12.888-11.97-4.161-1.314-6.8-3.232-7.848-5.683a5.08 5.08 0 01-.17-.461c-1.014 2.29-1.978 5.522-.997 8.683.93 3.037 3.5 5.488 7.628 7.335l-.66 1.633c-4.6-2.042-7.492-4.883-8.575-8.417-1.691-5.487 1.455-10.921 2.503-12.715l.17-.302 1.505.817c-.017.035-.49 1.243.169 2.735.846 1.918 3.196 3.534 6.782 4.67 7.882 2.504 15.036 5.932 14.055 13.905zM87.6 46.355l-.863-1.527c8.422-5.186 9.742-13.727 9.708-18.789-1.725 2.824-4.922 4.653-8.237 6.553-4.77 2.735-9.708 5.559-11.569 11.65l-1.606-.55c2.08-6.749 7.543-9.892 12.38-12.663 4.516-2.592 8.406-4.812 8.677-9.358l.372-6.464 1.285 6.34c.017.16 3.197 16.586-10.148 24.808z" fill="#B692B2"/><path d="M82.491 36.126l-1.471-.888c2.165-3.907-.897-8.115-4.871-10.548-2.892-1.758-4.33-4.28-5.04-6.127-1.64 2.469-4.635 3.996-7.358 5.363-3.991 2.025-6.376 3.428-5.987 6.02l-1.674.267c-.61-4.067 3.23-6.02 6.934-7.885 3.281-1.67 6.68-3.392 7.459-6.482l1.082-4.244.575 4.35c0 .054.66 4.636 4.855 7.193 5.665 3.463 7.881 8.666 5.496 12.981z" fill="#B692B2"/><path d="M78.415 25.577l-.964-1.456c11.552-8.417 19.569-3.356 19.907-3.143l-.896 1.51c-.288-.214-7.46-4.636-18.047 3.09zm12.55 34.096c-3.349 0-6.478-.888-9.286-2.646l.863-1.527c4.06 2.557 8.93 3.09 14.089 1.527 6.884-2.077 12.786-7.334 15.611-11.969-1.184-.017-2.74-.337-3.975-1.58-2.165-2.184-9.505-7.352-14.68-2.61l-1.117-1.333c6.14-5.647 14.326.018 16.964 2.664 1.59 1.599 4.127.96 4.144.96l1.793-.463-.846 1.74c-2.469 5.097-8.981 11.757-17.438 14.314-2.08.604-4.143.923-6.122.923z" fill="#B692B2"/><path d="M86.973 50.741l-.862-1.527c5.953-3.676 11.044-3.605 15.526-3.57 3.975.036 7.73.09 11.721-2.397l.863 1.528c-4.381 2.734-8.389 2.681-12.601 2.645-4.448-.053-9.082-.106-14.647 3.321zM53.214 77.539c-1.099 0-2.08-.178-2.943-.533-7.543-3.072-15.086-18.753-15.39-19.428l-.339-.728.66-.426a3.218 3.218 0 011.776-.515c5.564 0 14.088 12.467 14.46 13 .762-.09 2.436-.818 4.212-1.581 3.213-1.403 7.628-3.321 11.72-3.321 2.555 0 4.736.746 6.478 2.22l.846.71-.862.693c-.542.408-12.584 9.909-20.618 9.909zM36.825 57.703c1.726 3.392 8.085 15.236 14.038 17.651.66.267 1.455.409 2.334.409 6.241 0 15.628-6.588 18.622-8.826-1.269-.781-2.74-1.154-4.482-1.154-3.755 0-8 1.847-11.078 3.196-2.182.96-3.755 1.634-4.837 1.634-.778 0-1.184-.355-1.387-.657-4.093-6.02-10.131-12.395-13.21-12.253z" fill="#B692B2"/><path d="M58.272 61.236c-15.628-6.055-20.6-5.238-22.005-3.48l-1.285-1.137c2.622-3.267 10.216-2.326 23.882 2.966l-.592 1.651zM71.6 66.742c-1.777-2.184-7.223-3.214-9.168-3.41l.17-1.758c.32.036 7.695.853 10.283 4.031l-1.286 1.137z" fill="#B692B2"/><path d="M104.918 97.126c-2.942-2.344-6.325-2.22-11.433-1.989-4.076.178-9.15.39-15.678-.657-3.519-.568-5.92-1.882-7.358-4.031-2.418-3.623-1.437-8.88-.575-13.514.592-3.18 1.15-6.198.626-8.294l1.64-.461c.626 2.504.034 5.7-.608 9.092-.846 4.493-1.709 9.146.304 12.147 1.167 1.74 3.197 2.806 6.241 3.303 6.376 1.03 11.349.817 15.357.64 3.687-.16 6.681-.285 9.303.585-1.523-2.61-3.315-6.712-3.383-11.525-.135-8.897-3.67-12.822-11.772-13.141-10.114-.39-14.765-7.015-14.951-7.299l1.37-1.03c.05.071 4.397 6.198 13.649 6.57 11.805.462 13.294 8.72 13.395 14.882.119 7.53 4.99 13.372 5.04 13.443l-1.167 1.279z" fill="#B692B2"/><path d="M96.411 72.211l-.186-1.758c4.076-.462 9.505-4.937 11.687-6.89-1.962-.977-5.852-3.126-8.778-6.11l1.184-1.278c3.755 3.818 9.421 6.287 9.471 6.322l1.218.533-.964.941c-.321.302-7.865 7.6-13.632 8.24zm-21.818 49.741l-1.066-4.422c-.862-3.534-3.788-4.972-7.171-6.641-4.178-2.06-8.913-4.369-10.283-11.295-1.37-6.943 1.945-12.768 4.6-17.456 2.013-3.534 3.738-6.57 2.808-8.88l1.556-.692c1.268 3.143-.677 6.535-2.91 10.478-2.638 4.652-5.648 9.927-4.397 16.195 1.201 6.038 5.345 8.08 9.336 10.051 2.672 1.315 5.43 2.664 7.036 5.221.727-2.539 2.266-6.357 5.395-9.039 4.618-3.942 5.531-8.346 4.398-10.779l1.522-.781c1.404 3.036.474 8.364-4.854 12.928-4.448 3.8-5.362 10.513-5.378 10.566l-.592 4.546zm-60.922-19.676l2.453-3.267c.05-.071 4.99-6.695 6.714-13.94 1.235-5.186 8.17-6.358 14.867-7.477 4.06-.675 8.237-1.385 11.078-2.912l.778 1.58c-3.078 1.67-7.408 2.398-11.585 3.09-6.444 1.083-12.533 2.096-13.497 6.145-1.167 4.9-3.636 9.411-5.328 12.093 4.888-1.545 9.76-.39 14.157.657 3.771.888 7.053 1.67 9.437.515 2.436-1.172 3.535-4.795 4.82-8.986 1.658-5.398 3.519-11.507 8.93-14.49l.779 1.562c-4.804 2.646-6.563 8.382-8.102 13.461-1.353 4.386-2.621 8.542-5.716 10.051-2.91 1.421-6.614.533-10.52-.39-4.922-1.172-10.52-2.504-15.764.373l-3.5 1.935z" fill="#B692B2"/><path d="M57.24 90.414c-.203-.213-5.04-5.15-5.632-10.087l1.674-.213c.508 4.297 5.074 8.968 5.125 9.021l-1.167 1.279zm-33.2-5.293c-2.538-.017-4.246-2.61-6.056-5.345-2.012-3.037-4.093-6.18-7.425-6.624l.153-1.776c.067 0 5.716.249 9.742-3.25 5.53-4.812 12.583-.053 14.9 1.51 3.89 2.628 10.047 1.865 10.097 1.865l.203 1.758c-.27.035-6.833.834-11.213-2.131-5.683-3.836-9.776-4.351-12.905-1.634-2.317 2.007-5.04 2.93-7.171 3.339 2.08 1.474 3.62 3.8 5.04 5.93 1.624 2.451 3.027 4.565 4.685 4.582l-.05 1.776z" fill="#B692B2"/><path d="M19.591 70.577C8.462 67.825 2.271 57.152 2.018 56.707l-1.32-2.325 2.369 1.047c.017 0 3.4 1.226 10.858-4.102 8.085-5.771 14.545-6.926 23.56 4.35l-1.302 1.137c-8.288-10.353-13.683-9.483-21.31-4.03-5.041 3.604-8.424 4.457-10.386 4.545 2.131 3.02 7.544 9.537 15.51 11.508l-.406 1.74z" fill="#B692B2"/><path d="M42.221 69.743c-5.581-5.008-14.258-6.375-22.647-7.69-6.833-1.065-13.277-2.077-17.336-5.078l.981-1.456c3.72 2.752 9.979 3.747 16.609 4.777 8.626 1.35 17.539 2.752 23.492 8.097l-1.099 1.35zm10.605-24.88c-7.476-2.362-12.093-6.304-13.7-11.72-2.317-7.779 1.505-18.345 11.383-31.433L51.607.254l.389 1.812s.592 1.97 4.905 3.764c5.09 2.114 13.496 5.612 11.315 15.29l-1.64-.408c1.843-8.187-5.43-11.206-10.233-13.195-3.028-1.26-4.533-2.646-5.277-3.658-8.812 11.951-12.38 21.878-10.317 28.769 1.437 4.812 5.666 8.364 12.583 10.548l-.507 1.687z" fill="#B692B2"/><path d="M49.172 38.275c-11.247-6.926-5.006-21.559-.862-31.237.795-1.847 1.539-3.605 2.08-5.097l1.573.64c-.558 1.544-1.32 3.303-2.114 5.185-4.127 9.643-9.76 22.855.186 28.982l-.863 1.527zM95.26 20.836l-1.674-.266c.508-3.339-1.2-6.038-2.993-8.88-1.404-2.237-2.859-4.51-3.163-7.138-2.266 2.166-5.937 3.303-9.505 4.421-4.685 1.457-9.117 2.824-9.98 6.18l-1.623-.461c1.117-4.316 6.207-5.896 11.13-7.423 4.498-1.403 9.166-2.842 10.282-6.234l1.607.55c-.964 3.41.795 6.199 2.656 9.146 1.91 2.984 3.873 6.074 3.264 10.105zM40.834 56.37c-9.64-7.014-11.095-11.418-12.803-16.55-1.083-3.268-2.317-6.98-5.954-12.076l-1.725-2.415 2.69 1.048c2.84 1.118 5.648.959 8.371.799 3.18-.178 6.174-.338 8.49 1.74l-1.099 1.35c-1.81-1.616-4.346-1.474-7.306-1.314-2.063.124-4.33.248-6.68-.231 2.74 4.28 3.839 7.565 4.803 10.513 1.657 5.025 2.976 8.985 12.16 15.663l-.947 1.474z" fill="#B692B2"/></svg>