<svg width="50" height="50" viewBox="0 0 50 50" fill="none" xmlns="http://www.w3.org/2000/svg">
<path d="M25 0C38.8075 0 50 11.1925 50 25C50 38.8075 38.8075 50 25 50C11.1925 50 0 38.8075 0 25C0 11.1925 11.1925 0 25 0ZM25 3.4875C19.2945 3.4875 13.8227 5.75399 9.78837 9.78837C5.75399 13.8227 3.4875 19.2945 3.4875 25C3.4875 30.7055 5.75399 36.1773 9.78837 40.2116C13.8227 44.246 19.2945 46.5125 25 46.5125C30.7055 46.5125 36.1773 44.246 40.2116 40.2116C44.246 36.1773 46.5125 30.7055 46.5125 25C46.5125 19.2945 44.246 13.8227 40.2116 9.78837C36.1773 5.75399 30.7055 3.4875 25 3.4875ZM22.675 13.9525C23.6375 13.9525 24.4175 14.735 24.4175 15.6975V27.9075H36.6275C37.0785 27.9246 37.5054 28.1158 37.8185 28.4409C38.1316 28.7661 38.3065 29.1999 38.3065 29.6513C38.3065 30.1026 38.1316 30.5364 37.8185 30.8616C37.5054 31.1867 37.0785 31.3779 36.6275 31.395H22.675C22.2122 31.395 21.7684 31.2112 21.4411 30.8839C21.1138 30.5567 20.93 30.1128 20.93 29.65V15.7C20.93 14.735 21.71 13.9525 22.675 13.9525Z" fill="#45594F"/>
</svg>
