<svg width="48" height="44" fill="none" xmlns="http://www.w3.org/2000/svg"><path fill-rule="evenodd" clip-rule="evenodd" d="M5.25 39.188V18.875h3.125v20.313a1.563 1.563 0 001.563 1.562h28.124a1.563 1.563 0 001.563-1.563V18.875h3.125v20.313a4.688 4.688 0 01-4.688 4.687H9.939a4.688 4.688 0 01-4.688-4.688zM39.625 4.812V15.75l-6.25-6.25V4.812a1.563 1.563 0 011.563-1.562h3.124a1.563 1.563 0 011.563 1.563z" fill="#45594F"/><path fill-rule="evenodd" clip-rule="evenodd" d="M21.79 1.687a3.125 3.125 0 014.42 0l20.77 20.769a1.564 1.564 0 11-2.212 2.212L24 3.896 3.231 24.668a1.564 1.564 0 01-2.212-2.212L21.79 1.686z" fill="#45594F"/></svg>