<svg width="50" height="50" fill="none" xmlns="http://www.w3.org/2000/svg"><path d="M17.416 12.49a1.247 1.247 0 00-.4-.343 1.216 1.216 0 00-1.456.225l-1.892 1.94c-.883.908-1.209 2.193-.823 3.32a33.062 33.062 0 007.624 12.39 32.042 32.042 0 0012.088 7.814c1.1.396 2.352.062 3.238-.844l1.891-1.938a1.276 1.276 0 00.361-.979 1.265 1.265 0 00-.477-.925l-4.22-3.363a1.211 1.211 0 00-1.06-.229l-4.006 1.026a3.117 3.117 0 01-1.626-.021 3.176 3.176 0 01-1.405-.84l-4.493-4.607a3.29 3.29 0 01-.82-1.44 3.35 3.35 0 01-.021-1.666l1.002-4.107a1.303 1.303 0 00-.223-1.087l-3.282-4.325zm-3.236-1.53c.32-.329.704-.583 1.128-.747a3.12 3.12 0 012.62.167c.401.217.752.519 1.03.885l3.281 4.324c.602.793.814 1.826.576 2.801l-1 4.106a1.3 1.3 0 00.326 1.206l4.494 4.607a1.21 1.21 0 001.178.334l4.004-1.026a3.126 3.126 0 012.733.59l4.218 3.364c1.516 1.21 1.655 3.506.298 4.895l-1.891 1.94c-1.354 1.387-3.377 1.996-5.263 1.316a33.985 33.985 0 01-12.823-8.288 35.068 35.068 0 01-8.085-13.141c-.662-1.932-.067-4.007 1.286-5.395l1.892-1.938h-.002z" fill="#45594F"/><circle cx="25" cy="25" r="23.5" stroke="#45594F" stroke-width="3"/></svg>