<svg width="297" height="270" fill="none" xmlns="http://www.w3.org/2000/svg"><g filter="url(#filter0_d)"><path d="M212.027 158.455c-.62 3.192-1.58 6.259-2.882 9.11-6.816 15.307-22.247 25.966-40.094 25.966h-29.963c-18.157 0-34.053-11.093-40.56-27.019a41.295 41.295 0 01-1.92-6.012c2.633 1.395 5.639 3.285 9.202 4.834 20.915 9.11 29.777-5.484 59.925-.682 16.329 2.603 21.256 8.088 31.388 4.338 7.685-2.788 10.194-7.963 14.904-10.535z" fill="#C7B28A"/><path d="M212.832 150.894a43.192 43.192 0 01-.836 7.561c-.62 3.191-1.581 6.259-2.882 9.11-6.321 3.563-13.416 5.236-15.276 5.639-13.571 3.037-16.484-.836-35.849-.681-22.589.185-24.417 5.484-37.864 2.881-7.809-1.487-15.679-4.927-21.628-8.893a41.243 41.243 0 01-1.921-6.011 40.081 40.081 0 01-1.115-7.282 6.527 6.527 0 01-.063-.774 64.152 64.152 0 01-.123-4.245c5.05-1.829 13.943-4.06 29.436-6.662 0 0 .061 0 .154-.031a2.73 2.73 0 01.527-.062c2.014-.31 8.552-1.24 18.126-1.829 16.299-.991 41.335-1.022 67.703 4.586.465.093 1.023.217 1.58.403.062 2.169.062 4.245.031 6.29z" fill="#C7B28A"/><path d="M212.833 150.894c-5.454 1.271-6.693 1.333-8.335 1.178-2.696-.279-2.262-.837-5.547-1.302-3.346-.526-8.552-1.456-11.185 1.395-1.488 1.611-1.426 3.687-3.192 4.307-1.828.682-3.005-1.178-5.825-1.828-3.873-.899-5.732 1.673-10.845 2.819-4.338.961-5.019-.464-11.402-.557-8.428-.093-8.583 2.355-16.175 2.448-7.467.092-7.808-2.324-16.763-2.665-7.467-.31-8.427 1.27-13.881.96-5.05-.341-10.442-2.169-14.284-4.369a6.526 6.526 0 01-.062-.774 64.083 64.083 0 01-.124-4.245c-.031-1.24-.03-2.448-.03-3.719 5.267-1.084 14.779-1.642 29.621-3.005a2.73 2.73 0 01.527-.062c5.329-.496 11.371-1.116 18.126-1.829 4.059-.464 8.428-.96 13.045-1.518 0 0 36.593-4.555 56.052 1.673.124 1.612.186 3.254.186 4.834.124 2.138.124 4.214.093 6.259z" fill="#837D78"/><path d="M169.05 194.337h-29.962c-17.972 0-34.549-11.031-41.304-27.485-.867-2.2-1.518-4.183-1.952-6.104a41.444 41.444 0 01-1.115-7.406 6.081 6.081 0 01-.062-.805c-.093-1.24-.124-2.603-.124-4.245-.031-1.209-.031-2.448-.031-3.719.031-1.704.062-3.408.155-5.112 1.053-20.451 6.91-40.871 16.949-59.029a.683.683 0 01.496-.372c14.563-3.47 29.404-5.205 44.215-5.05 13.882.093 27.794 1.797 41.397 5.05a.977.977 0 01.526.403 152.884 152.884 0 018.831 22.682c3.191 10.535 5.267 21.566 6.166 32.783.093 1.302.186 2.603.217 3.904.124 1.581.186 3.223.186 4.865.062 1.921.062 3.966.031 6.29a44.88 44.88 0 01-.837 7.716 42.683 42.683 0 01-2.943 9.296c-7.22 15.958-23.208 26.338-40.839 26.338zM112.781 81.424c-9.822 17.879-15.554 37.958-16.577 58.068-.093 1.704-.124 3.377-.155 5.05 0 1.24 0 2.448.031 3.688 0 1.611.031 2.974.124 4.214 0 .279.031.496.062.712.155 2.51.527 4.896 1.085 7.189.433 1.859 1.053 3.78 1.89 5.888 6.507 15.864 22.526 26.524 39.847 26.524h29.962c17.011 0 32.473-10.009 39.382-25.502a41.188 41.188 0 002.82-8.955c.465-2.386.744-4.896.806-7.406h.774-.774c.031-2.293.031-4.338-.031-6.259 0-1.611-.062-3.222-.186-4.803-.031-1.301-.124-2.571-.217-3.873a153.157 153.157 0 00-6.104-32.442c-2.324-7.654-5.206-15.09-8.583-22.124a184.226 184.226 0 00-40.684-4.927 186.42 186.42 0 00-43.472 4.958z" fill="#D2D2D2"/><path d="M154.921 85.646c-14.253 0-28.63-1.054-42.759-3.099a.765.765 0 01-.651-.867.75.75 0 01.868-.651c14.47 2.107 29.095 3.191 43.813 3.099 13.726-.063 27.576-1.085 41.179-3.1.465-.061.805.249.867.652a.748.748 0 01-.65.867 299.212 299.212 0 01-41.427 3.099h-1.24z" fill="#D2D2D2"/><path d="M151.915 111.046c9.698 13.665 7.901 29.561 7.467 32.877l-10.318 3.904a200.36 200.36 0 01-9.76-34.147 204.31 204.31 0 01-2.324-15.183c3.532 1.704 9.791 5.299 14.935 12.549z" fill="#92B69A"/><path d="M149.034 148.229a.403.403 0 01-.372-.248 200.609 200.609 0 01-9.76-34.208 209.515 209.515 0 01-2.324-15.214c0-.124.031-.28.155-.372.124-.093.248-.093.403-.031 6.011 2.82 11.216 7.22 15.089 12.673 9.079 12.797 8.274 27.423 7.53 33.124a.426.426 0 01-.248.31l-10.318 3.904a.524.524 0 01-.155.062zm-11.588-49.05a189.1 189.1 0 002.231 14.47 199.132 199.132 0 009.605 33.713l9.76-3.688c.744-5.763 1.364-19.955-7.405-32.349-3.718-5.206-8.583-9.389-14.191-12.147z" fill="#45594F"/><path d="M165.549 110.24c-9.699 13.665-7.901 29.561-7.468 32.876l10.318 3.905a200.264 200.264 0 009.761-34.147 204.91 204.91 0 002.324-15.183c-3.564 1.673-9.792 5.298-14.935 12.549z" fill="#92B69A"/><path d="M168.4 147.424c-.124-.031-10.473-3.936-10.473-3.936a.426.426 0 01-.248-.309c-.775-5.702-1.549-20.327 7.529-33.125 3.873-5.453 9.079-9.853 15.09-12.673a.381.381 0 01.403.031c.124.093.186.217.155.372a209.443 209.443 0 01-2.324 15.214 201.43 201.43 0 01-9.76 34.209.43.43 0 01-.372.217zm-9.977-4.586l9.76 3.687c4.152-10.907 7.405-22.217 9.605-33.713a189.13 189.13 0 002.231-14.47 38.426 38.426 0 00-14.16 12.115c-8.8 12.426-8.149 26.617-7.436 32.381z" fill="#45594F"/><path d="M166.634 137.818c-.093 0-9.048-2.2-9.048-2.2-.217-.062-.341-.248-.279-.465.062-.217.248-.341.465-.279l8.955 2.2c.217.062.341.248.279.465a.39.39 0 01-.372.279z" fill="#45594F"/><path d="M163.999 112.843a186.782 186.782 0 011.209 34.395c-3.161-.186-6.321-.341-9.482-.527-1.797-7.932-3.563-19.738-2.293-33.868.651-7.251 2.665-20.823 5.268-20.853 2.634-.031 4.555 14.966 5.298 20.853z" fill="#92B69A"/><path d="M165.208 147.61c-.031 0-9.512-.527-9.512-.527-.186 0-.31-.124-.372-.31-2.541-11.31-3.315-22.744-2.293-33.992.186-2.169 2.045-21.163 5.671-21.194 2.107 0 3.749 6.135 5.67 21.163l-.372.062.372-.062a188.38 188.38 0 011.208 34.457c0 .248-.155.403-.372.403zm-9.171-1.271l8.8.465a185.597 185.597 0 00-1.24-33.93c-2.169-16.949-3.842-20.512-4.895-20.512-1.891.03-3.998 10.659-4.896 20.512-.992 11.062-.248 22.341 2.231 33.465z" fill="#45594F"/><path d="M154.735 149.252c-2.045.341-4.927.558-8.211-.248-9.854-2.448-16.175-13.355-17.91-22.743-.496-2.665-.929-6.972.062-12.364 4.493 3.873 9.915 9.296 15.245 16.609 4.957 6.817 8.397 13.355 10.814 18.746z" fill="#92B69A"/><path d="M151.203 149.934c-1.611 0-3.223-.186-4.772-.589-10.039-2.51-16.453-13.696-18.188-23.054-.744-4.028-.744-8.242.062-12.518a.493.493 0 01.248-.31c.124-.031.279-.031.371.062a97.71 97.71 0 0115.276 16.671c4.214 5.794 7.87 12.146 10.876 18.839.062.124.031.248 0 .341-.062.093-.155.186-.279.186-1.208.279-2.417.372-3.594.372zm-22.248-35.293c-.65 3.935-.619 7.808.062 11.558 1.705 9.109 7.933 20.017 17.631 22.433 2.417.62 4.958.713 7.56.341-2.943-6.476-6.476-12.611-10.597-18.22a98.309 98.309 0 00-14.656-16.112z" fill="#45594F"/><path d="M159.103 149.252c2.045.341 4.927.558 8.212-.248 9.853-2.448 16.174-13.355 17.909-22.743.496-2.665.929-6.972-.062-12.364-4.493 3.873-9.915 9.296-15.245 16.609a102.587 102.587 0 00-10.814 18.746z" fill="#92B69A"/><path d="M162.636 149.934c-1.177 0-2.386-.093-3.594-.31a.451.451 0 01-.279-.186c-.062-.093-.062-.217 0-.341 2.975-6.662 6.631-13.014 10.876-18.839 4.493-6.166 9.636-11.775 15.307-16.671a.33.33 0 01.372-.062.427.427 0 01.247.31c.775 4.245.806 8.459.062 12.519-1.735 9.357-8.18 20.543-18.188 23.053-1.611.341-3.191.527-4.803.527zm-2.974-.992c2.572.372 5.112.279 7.529-.34 9.699-2.417 15.927-13.324 17.631-22.434.681-3.719.712-7.623.062-11.558-5.423 4.741-10.349 10.163-14.656 16.082a105.56 105.56 0 00-10.566 18.25z" fill="#45594F"/><path d="M157.802 122.697c-7.003 9.853-5.702 21.318-5.392 23.704 2.479.93 4.958 1.89 7.437 2.82a145.804 145.804 0 007.033-24.603 142.917 142.917 0 001.674-10.938c-2.541 1.177-7.034 3.78-10.752 9.017z" fill="#92B69A"/><path d="M159.879 149.593c-.124-.031-7.592-2.851-7.592-2.851a.426.426 0 01-.248-.31c-.557-4.121-1.115-14.718 5.454-23.952 2.788-3.935 6.569-7.127 10.906-9.172a.381.381 0 01.403.031c.124.093.186.217.155.372a158.385 158.385 0 01-1.673 10.969 144.627 144.627 0 01-7.065 24.665c-.031.155-.186.248-.34.248zm-7.096-3.471l6.879 2.603a145.325 145.325 0 006.878-24.169 137.662 137.662 0 001.581-10.225 27.002 27.002 0 00-9.978 8.614c-6.29 8.862-5.856 18.994-5.36 23.177z" fill="#45594F"/><path d="M196.472 161.337c0 .619-.496 1.115-1.116 1.115a1.11 1.11 0 01-1.115-1.115c0-.62.496-1.116 1.115-1.116.62 0 1.116.496 1.116 1.116zm-6.29 3.036a.682.682 0 100-1.363.682.682 0 000 1.363zm-5.019.961a2.355 2.355 0 11-2.355-2.355c1.301.031 2.355 1.085 2.355 2.355zm9.295-8.087a1.426 1.426 0 10-.002-2.852 1.426 1.426 0 00.002 2.852zm-73.001 10.473a1.487 1.487 0 11-1.487-1.488c.837 0 1.487.651 1.487 1.488zm15.771 3.471c0 1.549-1.921 2.819-4.276 2.819-2.355 0-4.276-1.27-4.276-2.819 0-1.55 1.921-2.82 4.276-2.82 2.355.031 4.276 1.27 4.276 2.82z" fill="#C7B28A"/></g><defs><filter id="filter0_d" x="89.5" y="75" width="129.189" height="129.337" filterUnits="userSpaceOnUse" color-interpolation-filters="sRGB"><feFlood flood-opacity="0" result="BackgroundImageFix"/><feColorMatrix in="SourceAlpha" values="0 0 0 0 0 0 0 0 0 0 0 0 0 0 0 0 0 0 127 0" result="hardAlpha"/><feOffset dy="5"/><feGaussianBlur stdDeviation="2.5"/><feColorMatrix values="0 0 0 0 0 0 0 0 0 0 0 0 0 0 0 0 0 0 0.25 0"/><feBlend in2="BackgroundImageFix" result="effect1_dropShadow"/><feBlend in="SourceGraphic" in2="effect1_dropShadow" result="shape"/></filter></defs></svg>