<svg width="297" height="270" fill="none" xmlns="http://www.w3.org/2000/svg"><g filter="url(#filter0_d)"><path d="M142.189 112.813H84.721v94.72h57.468v-94.72z" fill="#B6DABE"/><path d="M84.72 112.813v33.29c3.28-.953 6.642-1.5 9.941-2.367 5.47-1.436 10.949-2.932 16.611-3.391 4.501-.363 9.746-.486 13.886 1.642 6.856 3.524 9.717 11.552 11.064 18.669 1.377 7.278 2.109 15.335 1.139 22.713-.825 6.286-3.993 12.042-9.401 15.505-5.642 3.61-12.501 4.848-19.101 5.164-8.104.387-16.146-.429-24.14-1.676v5.171h57.469v-94.72H84.721z" fill="#B6DABE"/><path d="M126.07 137.165H68.602l16.12-24.352h57.468l-16.12 24.352z" fill="#92B69A"/><path d="M133.597 112.813c-1.056 2.433-2.381 4.743-4.053 6.836-3.552 4.445-8.29 7.684-13.594 9.711-6.009 2.294-12.436 3.307-18.83 3.766-8.692.625-17.456 1.263-26.148.456l-2.372 3.582h57.469l16.119-24.351h-8.591zm97.166 0h-88.574v94.72h88.574v-94.72z" fill="#92B69A"/><path d="M156.955 182.773v-25.536h65.323v25.536h-65.323z" fill="#fff" stroke="#45594F" stroke-width="2"/><g filter="url(#filter1_d)"><path d="M184.744 170.889c0-.709-.315-1.267-.945-1.676-.107-.071-.458-.257-1.053-.558-.544-.28-.891-.566-1.042-.86a1.324 1.324 0 01-.139-.601c0-.559.236-.967.709-1.225.243-.129.501-.193.773-.193.544 0 .956.215 1.236.644.035.058.068.111.096.162l.387-.194c-.236-.544-.67-.87-1.3-.977a2.232 2.232 0 00-.376-.033c-.616 0-1.121.201-1.514.602a1.69 1.69 0 00-.484 1.214c0 .659.301 1.185.902 1.579.094.057.441.24 1.042.548.559.279.921.58 1.085.902.101.201.151.423.151.666 0 .652-.258 1.099-.774 1.343-.222.1-.465.15-.73.15-.523-.007-1.06-.197-1.611-.569l-.237.365c.573.401 1.178.602 1.816.602.73 0 1.282-.244 1.654-.731.236-.322.354-.709.354-1.16zm5.307 1.891c.05 0 .143-.007.279-.022l-.021-.333c-.05.007-.108.011-.172.011-.286 0-.458-.143-.516-.43a2.174 2.174 0 01-.032-.408v-4.265h-.43v3.159c0 .787-.243 1.353-.73 1.697-.229.165-.48.247-.752.247-.544 0-.906-.261-1.085-.784a2.083 2.083 0 01-.097-.655v-3.664h-.429v3.696c0 .895.333 1.45.999 1.665.179.057.376.086.591.086.644 0 1.124-.294 1.439-.881l.064-.129c.036.537.212.856.527.956.107.036.229.054.365.054zm4.426-.441l-.151-.322c-.465.258-.905.387-1.321.387-.694 0-1.164-.387-1.407-1.16a4.17 4.17 0 01-.161-1.214c0-1.089.265-1.816.795-2.181a1.2 1.2 0 01.698-.215c.551.007.985.308 1.3.903l.344-.172c-.244-.566-.641-.917-1.193-1.053a1.632 1.632 0 00-.419-.054c-.73 0-1.275.351-1.633 1.053-.236.466-.354 1.035-.354 1.708 0 1.196.319 2.016.956 2.46.286.201.616.301.988.301.523-.007 1.042-.154 1.558-.441zm4.06 0l-.15-.322c-.465.258-.906.387-1.321.387-.695 0-1.164-.387-1.407-1.16a4.135 4.135 0 01-.162-1.214c0-1.089.265-1.816.795-2.181.208-.143.441-.215.699-.215.551.007.984.308 1.299.903l.344-.172c-.243-.566-.641-.917-1.192-1.053a1.632 1.632 0 00-.419-.054c-.731 0-1.275.351-1.633 1.053-.236.466-.355 1.035-.355 1.708 0 1.196.319 2.016.957 2.46.286.201.615.301.988.301.523-.007 1.042-.154 1.557-.441zm5.006.441c.05 0 .144-.007.28-.022l-.022-.333c-.05.007-.107.011-.172.011-.286 0-.458-.143-.515-.43a2.082 2.082 0 01-.033-.408v-4.265h-.429v3.159c0 .787-.244 1.353-.731 1.697-.229.165-.48.247-.752.247-.544 0-.906-.261-1.085-.784a2.083 2.083 0 01-.096-.655v-3.664h-.43v3.696c0 .895.333 1.45.999 1.665.179.057.376.086.591.086.644 0 1.124-.294 1.439-.881l.065-.129c.035.537.211.856.526.956.107.036.229.054.365.054zm2.245-.011c.179 0 .369-.043.57-.129l-.118-.322a1.044 1.044 0 01-.398.097c-.301-.015-.455-.23-.462-.645v-6.853h-.429v6.907c0 .48.182.78.547.902a.97.97 0 00.29.043zm4.888-.376l-.14-.333c-.465.222-.905.333-1.321.333-.759 0-1.285-.354-1.579-1.063-.158-.366-.236-.799-.236-1.3v-.022h3.394v-.215c0-1.518-.501-2.356-1.504-2.513a2.633 2.633 0 00-.343-.022c-.738 0-1.289.358-1.655 1.075-.236.472-.354 1.034-.354 1.686 0 1.189.354 2.005 1.063 2.449.33.208.709.312 1.139.312.48-.007.992-.136 1.536-.387zm-1.729-4.759c.694 0 1.135.398 1.321 1.193.05.25.075.515.075.795l-2.933.01c.079-.981.402-1.607.967-1.88.179-.078.369-.118.57-.118zm7.089 4.791c-.257.029-.415-.061-.472-.268a2.01 2.01 0 01-.032-.408v-2.74c0-.881-.319-1.432-.956-1.654a1.784 1.784 0 00-.602-.097c-.695.007-1.196.358-1.504 1.053l-.011-.978h-.397v5.372h.43v-3.126c0-.81.243-1.386.73-1.73a1.27 1.27 0 01.73-.236c.559 0 .917.283 1.075.848.05.187.075.391.075.613v2.739c0 .58.193.899.58.956a1.081 1.081 0 00.376-.011l-.022-.333zm3.47.108l-.139-.301c-.222.115-.419.172-.591.172-.451 0-.702-.294-.752-.881a2.565 2.565 0 01-.011-.226v-3.588h1.364v-.376h-1.364v-1.45h-.43v1.45h-.924v.376h.924v3.717c0 .659.222 1.082.666 1.268.136.057.283.086.441.086.258-.007.53-.09.816-.247z" fill="#484848"/></g><path d="M169.089 170.629v-.323c.145 0 .313-.045.313-.391 0-.316-.155-.774-.392-1.162-.231-.378-.503-.62-.69-.62v-.322c.437 0 .816.539.959.771.272.442.439.952.439 1.333 0 .446-.234.714-.629.714z" fill="#92B69A"/><path d="M169.252 170.495l-.193-.257c-.122.086-.289.152-.499-.123-.19-.25-.334-.703-.37-1.149-.033-.434.049-.788.203-.899l-.193-.256c-.365.259-.358.908-.338 1.177.039.51.203 1.013.433 1.314.269.354.626.424.957.193z" fill="#92B69A"/><path d="M172.532 174.152c-.08 0-.159-.004-.242-.007-2.16-.098-3.497-1.281-3.97-3.516l.321-.078c.166.784.665 3.133 3.666 3.267 1.478.062 2.762-.526 3.427-1.581.48-.765.546-1.66.169-2.333-.52-.928-1.244-1.065-1.631-1.065-.546 0-1.059.268-1.281.663-.317.568-1.038 1.072-1.796 1.258-.476.114-1.187.16-1.866-.281l.182-.271c.579.375 1.191.336 1.605.235.661-.16 1.313-.614 1.584-1.098.278-.497.91-.83 1.572-.83.78 0 1.482.451 1.918 1.235.437.778.368 1.801-.175 2.663-.695 1.098-1.985 1.739-3.483 1.739z" fill="#92B69A"/><path d="M171.7 170.629l-.161-.281c1.22-.636 1.465-1.777 1.291-2.634-.185-.908-.828-1.595-1.566-1.675-.788-.086-1.368.052-1.717.406-.419.425-.529 1.167-.335 2.212l-.328.057c-.215-1.147-.074-1.984.419-2.486.426-.431 1.099-.601 1.998-.505.892.099 1.639.876 1.854 1.934.201.965-.077 2.256-1.455 2.972zm-7.213 5.871a5.17 5.17 0 01-1.245-.15c-1.355-.331-2.272-1.139-2.521-2.218-.265-1.143.06-2.177.885-2.839.741-.595 1.761-.786 2.533-.474.802.324 1.626.003 2.424-.306.49-.191 1.199-.544 1.696-.589l.03.318c-.447.042-1.113.379-1.6.567-.861.334-1.752.678-2.679.306-.652-.265-1.553-.086-2.192.426-.428.344-1.097 1.127-.775 2.527.222.955 1.053 1.678 2.278 1.98 1.49.366 3.093.003 3.901-.882 1.55-1.699 1.464-3.463 1.464-3.479l.331-.019c.004.077.1 1.904-1.543 3.708-.659.713-1.792 1.124-2.987 1.124z" fill="#92B69A"/><path d="M166.513 170.864c-1.725 0-2.937-.995-3.271-2.709a2.888 2.888 0 01.651-2.391 2.227 2.227 0 011.761-.771c.918.016 1.355.4 1.563.717.297.46.307 1.117.023 1.674-.489.966.277 1.702 1.08 2.309l-.205.249c-1.186-.894-1.549-1.954-1.172-2.693.234-.463.231-1.001-.007-1.372-.235-.362-.677-.56-1.285-.569h-.037a1.92 1.92 0 00-1.467.66 2.575 2.575 0 00-.578 2.13c.152.787.77 2.599 3.222 2.442l.023.314a4.47 4.47 0 01-.301.01z" fill="#92B69A"/><path d="M172.365 166.402l-.29-.156c.653-1.103.76-2.486.267-3.526-.237-.499-.717-1.135-1.676-1.329-1.017-.206-2.016.026-2.739.636-.846.712-1.243 1.876-1.113 3.268l-.333.029c-.137-1.497.3-2.753 1.226-3.535.803-.677 1.909-.935 3.032-.709.866.175 1.526.699 1.909 1.51.53 1.125.42 2.623-.283 3.812zm-1.201 13.621a2.935 2.935 0 01-2.132-.869c-1.055-1.054-1.444-2.905-.992-4.717l.323.078c-.419 1.679-.057 3.452.908 4.412.675.674 1.59.911 2.648.687 1.044-.223 1.706-.93 1.859-1.99.203-1.41-.545-3.086-1.633-3.657l.156-.285c1.221.642 2.033 2.428 1.807 3.987-.173 1.206-.925 2.007-2.116 2.263a4.178 4.178 0 01-.828.091zm-6.925-8.69a4.647 4.647 0 01-2.823-2.25c-.587-1.079-.71-2.296-.349-3.43.447-1.391 1.721-1.86 2.683-1.834 1.007.026 1.812.527 2.007 1.253l-.316.084c-.156-.584-.837-.991-1.698-1.011-.89-.025-1.972.391-2.363 1.612-.335 1.049-.221 2.176.323 3.177a4.337 4.337 0 002.624 2.096l-.088.303z" fill="#92B69A"/><path d="M161.702 175.561c-2.188-.338-2.813-1.881-2.687-3.096.147-1.384 1.318-2.831 3.247-2.774l-.01.319c-1.721-.048-2.762 1.211-2.895 2.484-.113 1.08.447 2.448 2.403 2.751l-.058.316zm4.437 3.757c-.369 0-.731-.086-1.073-.258-1.03-.516-1.595-1.693-1.348-2.795l.332.07c-.217.959.277 1.981 1.171 2.427.982.493 2.103.166 3.082-.893l.25.222c-.741.807-1.591 1.227-2.414 1.227zm9.85-1.879c-.69 0-1.4-.258-2.076-.769l.2-.253c1.196.904 2.192.776 2.816.508.936-.402 1.478-1.28 1.531-1.941.072-.898-.151-1.699-.614-2.201-.388-.418-.937-.642-1.633-.661l.009-.319c.789.022 1.42.281 1.87.766.716.776.746 1.862.7 2.44-.072.882-.799 1.811-1.728 2.21-.349.147-.71.22-1.075.22z" fill="#92B69A"/><path d="M177.943 172.508l-.114-.298c.688-.238 1.178-.988 1.309-2.011.158-1.231-.262-2.428-1.017-2.91a3.828 3.828 0 00-3.04-.427c-.651.19-1.531.665-2.021 1.84l-.313-.117c.538-1.292 1.512-1.815 2.234-2.027a4.181 4.181 0 013.324.466c1.008.639 1.31 2.07 1.166 3.207-.148 1.149-.719 1.998-1.528 2.277z" fill="#92B69A"/><path d="M176.436 166.636l-.316-.078c.505-1.882.274-3.181-.655-3.654-.811-.413-1.932-.047-2.473.552l-.245-.208c.62-.687 1.894-1.122 2.871-.624.623.318 1.558 1.261.818 4.012z" fill="#92B69A"/><path d="M191.499 198.667c-4.962.313-9.89.255-14.855.242-3.712-.009-7.436.159-11.142-.103-6.551-.461-13.562-2.176-16.33-8.806-3.616-8.662-2.203-19.656.477-28.381 1.218-3.963 2.791-8.194 5.483-11.421 2.828-3.39 6.905-5.505 11.033-6.904 10.616-3.596 22.075-3.504 33.145-3.197 7.214.2 14.417.442 21.636.398 3.274-.02 6.547-.025 9.815.075v-27.757h-88.572v94.72h88.574v-16.115c-12.736 4.052-26.075 6.416-39.264 7.249z" fill="#92B69A"/><path d="M246.883 137.165h-88.574l-16.12-24.352h88.573l16.121 24.352z" fill="#B6DABE"/><path d="M231.89 125.616c-12.535 3.645-24.99 6.928-38.152 6.489-9.613-.32-20.52-.153-29.182-4.977-5.905-3.288-9.983-8.389-12.761-14.315h-9.606l16.12 24.351h88.574l-9.174-13.859c-1.822.952-3.756 1.711-5.819 2.311z" fill="#B6DABE"/><path d="M160.198 111.214l-25.061-22.383c-5.918-5.91-5.918-15.49 0-21.4 5.919-5.908 15.513-5.908 21.432 0l3.629 3.624 3.628-3.623c5.919-5.91 15.514-5.91 21.433 0 5.918 5.909 5.918 15.489 0 21.398l-25.061 22.384z" fill="#B692B2"/><path d="M160.197 112.813l-23.993-21.43c-5.666-5.656-5.666-14.827 0-20.485 5.666-5.657 14.852-5.657 20.519 0l3.474 3.469 3.474-3.47c5.666-5.656 14.853-5.656 20.518 0 5.666 5.657 5.666 14.83 0 20.487l-23.992 21.429z" fill="#B692B2"/><path d="M184.19 70.898a14.459 14.459 0 00-8.915-4.18c3.569 4.785 5.094 10.968 2.32 16.7-3.199 6.607-9.534 11.207-16.15 14.04-4.978 2.133-10.502 3.106-15.592 2.542l14.345 12.812 23.992-21.429c5.666-5.656 5.666-14.828 0-20.485z" fill="#B692B2"/></g><defs><filter id="filter0_d" x="63.6" y="63" width="188.283" height="154.533" filterUnits="userSpaceOnUse" color-interpolation-filters="sRGB"><feFlood flood-opacity="0" result="BackgroundImageFix"/><feColorMatrix in="SourceAlpha" values="0 0 0 0 0 0 0 0 0 0 0 0 0 0 0 0 0 0 127 0" result="hardAlpha"/><feOffset dy="5"/><feGaussianBlur stdDeviation="2.5"/><feColorMatrix values="0 0 0 0 0 0 0 0 0 0 0 0 0 0 0 0 0 0 0.25 0"/><feBlend in2="BackgroundImageFix" result="effect1_dropShadow"/><feBlend in="SourceGraphic" in2="effect1_dropShadow" result="shape"/></filter><filter id="filter1_d" x="175.92" y="164.917" width="48.586" height="17.863" filterUnits="userSpaceOnUse" color-interpolation-filters="sRGB"><feFlood flood-opacity="0" result="BackgroundImageFix"/><feColorMatrix in="SourceAlpha" values="0 0 0 0 0 0 0 0 0 0 0 0 0 0 0 0 0 0 127 0" result="hardAlpha"/><feOffset dy="5"/><feGaussianBlur stdDeviation="2.5"/><feColorMatrix values="0 0 0 0 0 0 0 0 0 0 0 0 0 0 0 0 0 0 0.25 0"/><feBlend in2="BackgroundImageFix" result="effect1_dropShadow"/><feBlend in="SourceGraphic" in2="effect1_dropShadow" result="shape"/></filter></defs></svg>