<svg width="297" height="270" viewBox="0 0 297 270" fill="none" xmlns="http://www.w3.org/2000/svg">
<g filter="url(#filter0_d)">
<path d="M142.189 112.813H84.721V207.533H142.189V112.813Z" fill="#B6DABE"/>
<path d="M84.7209 112.813V146.103C87.9999 145.15 91.3622 144.603 94.6614 143.736C100.131 142.3 105.61 140.804 111.272 140.345C115.773 139.982 121.018 139.859 125.158 141.987C132.014 145.511 134.875 153.539 136.222 160.656C137.599 167.934 138.331 175.991 137.361 183.369C136.536 189.655 133.368 195.411 127.96 198.874C122.318 202.484 115.459 203.722 108.859 204.038C100.755 204.425 92.7127 203.609 84.7197 202.362V207.533H142.188V112.813H84.7209Z" fill="#B6DABE"/>
<path d="M126.07 137.165H68.6024L84.7222 112.813H142.19L126.07 137.165Z" fill="#92B69A"/>
<path d="M133.597 112.813C132.541 115.246 131.216 117.556 129.544 119.649C125.992 124.094 121.254 127.333 115.95 129.36C109.941 131.654 103.514 132.667 97.1201 133.126C88.4279 133.751 79.6637 134.389 70.9715 133.582L68.6 137.164H126.069L142.188 112.813H133.597Z" fill="#92B69A"/>
<path d="M230.763 112.813H142.189V207.533H230.763V112.813Z" fill="#92B69A"/>
<path d="M156.955 182.773V157.237H222.278V182.773H156.955Z" fill="white" stroke="#45594F" stroke-width="2"/>
<g filter="url(#filter1_d)">
<path d="M184.744 170.889C184.744 170.18 184.429 169.622 183.799 169.213C183.692 169.142 183.341 168.956 182.746 168.655C182.202 168.375 181.855 168.089 181.704 167.795C181.611 167.609 181.565 167.409 181.565 167.194C181.565 166.635 181.801 166.227 182.274 165.969C182.517 165.84 182.775 165.776 183.047 165.776C183.591 165.776 184.003 165.991 184.283 166.42C184.318 166.478 184.351 166.531 184.379 166.582L184.766 166.388C184.53 165.844 184.096 165.518 183.466 165.411C183.337 165.389 183.212 165.378 183.09 165.378C182.474 165.378 181.969 165.579 181.576 165.98C181.253 166.317 181.092 166.721 181.092 167.194C181.092 167.853 181.393 168.379 181.994 168.773C182.088 168.83 182.435 169.013 183.036 169.321C183.595 169.6 183.957 169.901 184.121 170.223C184.222 170.424 184.272 170.646 184.272 170.889C184.272 171.541 184.014 171.988 183.498 172.232C183.276 172.332 183.033 172.382 182.768 172.382C182.245 172.375 181.708 172.185 181.157 171.813L180.92 172.178C181.493 172.579 182.098 172.78 182.736 172.78C183.466 172.78 184.018 172.536 184.39 172.049C184.626 171.727 184.744 171.34 184.744 170.889ZM190.051 172.78C190.101 172.78 190.194 172.773 190.33 172.758L190.309 172.425C190.259 172.432 190.201 172.436 190.137 172.436C189.851 172.436 189.679 172.293 189.621 172.006C189.6 171.899 189.589 171.763 189.589 171.598V167.333H189.159V170.492C189.159 171.279 188.916 171.845 188.429 172.189C188.2 172.354 187.949 172.436 187.677 172.436C187.133 172.436 186.771 172.175 186.592 171.652C186.528 171.458 186.495 171.24 186.495 170.997V167.333H186.066V171.029C186.066 171.924 186.399 172.479 187.065 172.694C187.244 172.751 187.441 172.78 187.656 172.78C188.3 172.78 188.78 172.486 189.095 171.899C189.117 171.856 189.138 171.813 189.159 171.77C189.195 172.307 189.371 172.626 189.686 172.726C189.793 172.762 189.915 172.78 190.051 172.78ZM194.477 172.339L194.326 172.017C193.861 172.275 193.421 172.404 193.005 172.404C192.311 172.404 191.841 172.017 191.598 171.244C191.491 170.893 191.437 170.488 191.437 170.03C191.437 168.941 191.702 168.214 192.232 167.849C192.439 167.706 192.672 167.634 192.93 167.634C193.481 167.641 193.915 167.942 194.23 168.537L194.574 168.365C194.33 167.799 193.933 167.448 193.381 167.312C193.245 167.276 193.105 167.258 192.962 167.258C192.232 167.258 191.687 167.609 191.329 168.311C191.093 168.777 190.975 169.346 190.975 170.019C190.975 171.215 191.294 172.035 191.931 172.479C192.217 172.68 192.547 172.78 192.919 172.78C193.442 172.773 193.961 172.626 194.477 172.339ZM198.537 172.339L198.387 172.017C197.922 172.275 197.481 172.404 197.066 172.404C196.371 172.404 195.902 172.017 195.659 171.244C195.551 170.893 195.497 170.488 195.497 170.03C195.497 168.941 195.762 168.214 196.292 167.849C196.5 167.706 196.733 167.634 196.991 167.634C197.542 167.641 197.975 167.942 198.29 168.537L198.634 168.365C198.391 167.799 197.993 167.448 197.442 167.312C197.306 167.276 197.166 167.258 197.023 167.258C196.292 167.258 195.748 167.609 195.39 168.311C195.154 168.777 195.035 169.346 195.035 170.019C195.035 171.215 195.354 172.035 195.992 172.479C196.278 172.68 196.607 172.78 196.98 172.78C197.503 172.773 198.022 172.626 198.537 172.339ZM203.543 172.78C203.593 172.78 203.687 172.773 203.823 172.758L203.801 172.425C203.751 172.432 203.694 172.436 203.629 172.436C203.343 172.436 203.171 172.293 203.114 172.006C203.092 171.899 203.081 171.763 203.081 171.598V167.333H202.652V170.492C202.652 171.279 202.408 171.845 201.921 172.189C201.692 172.354 201.441 172.436 201.169 172.436C200.625 172.436 200.263 172.175 200.084 171.652C200.02 171.458 199.988 171.24 199.988 170.997V167.333H199.558V171.029C199.558 171.924 199.891 172.479 200.557 172.694C200.736 172.751 200.933 172.78 201.148 172.78C201.792 172.78 202.272 172.486 202.587 171.899C202.609 171.856 202.63 171.813 202.652 171.77C202.687 172.307 202.863 172.626 203.178 172.726C203.285 172.762 203.407 172.78 203.543 172.78ZM205.788 172.769C205.967 172.769 206.157 172.726 206.358 172.64L206.24 172.318C206.089 172.382 205.957 172.415 205.842 172.415C205.541 172.4 205.387 172.185 205.38 171.77V164.917H204.951V171.824C204.951 172.304 205.133 172.604 205.498 172.726C205.591 172.755 205.688 172.769 205.788 172.769ZM210.676 172.393L210.536 172.06C210.071 172.282 209.631 172.393 209.215 172.393C208.456 172.393 207.93 172.039 207.636 171.33C207.478 170.964 207.4 170.531 207.4 170.03V170.008H210.794V169.793C210.794 168.275 210.293 167.437 209.29 167.28C209.176 167.265 209.061 167.258 208.947 167.258C208.209 167.258 207.658 167.616 207.292 168.333C207.056 168.805 206.938 169.367 206.938 170.019C206.938 171.208 207.292 172.024 208.001 172.468C208.331 172.676 208.71 172.78 209.14 172.78C209.62 172.773 210.132 172.644 210.676 172.393ZM208.947 167.634C209.641 167.634 210.082 168.032 210.268 168.827C210.318 169.077 210.343 169.342 210.343 169.622L207.41 169.632C207.489 168.651 207.812 168.025 208.377 167.752C208.556 167.674 208.746 167.634 208.947 167.634ZM216.036 172.425C215.779 172.454 215.621 172.364 215.564 172.157C215.542 172.056 215.532 171.92 215.532 171.749V169.009C215.532 168.128 215.213 167.577 214.576 167.355C214.396 167.291 214.196 167.258 213.974 167.258C213.279 167.265 212.778 167.616 212.47 168.311L212.459 167.333H212.062V172.705H212.492V169.579C212.492 168.769 212.735 168.193 213.222 167.849C213.451 167.692 213.695 167.613 213.952 167.613C214.511 167.613 214.869 167.896 215.027 168.461C215.077 168.648 215.102 168.852 215.102 169.074V171.813C215.102 172.393 215.295 172.712 215.682 172.769C215.732 172.776 215.782 172.78 215.832 172.78C215.89 172.78 215.965 172.773 216.058 172.758L216.036 172.425ZM219.506 172.533L219.367 172.232C219.145 172.347 218.948 172.404 218.776 172.404C218.325 172.404 218.074 172.11 218.024 171.523C218.017 171.444 218.013 171.369 218.013 171.297V167.709H219.377V167.333H218.013V165.883H217.583V167.333H216.659V167.709H217.583V171.426C217.583 172.085 217.805 172.508 218.249 172.694C218.385 172.751 218.532 172.78 218.69 172.78C218.948 172.773 219.22 172.69 219.506 172.533Z" fill="#484848"/>
</g>
<path d="M169.089 170.629V170.306C169.234 170.306 169.402 170.261 169.402 169.915C169.402 169.599 169.247 169.141 169.01 168.753C168.779 168.375 168.507 168.133 168.32 168.133V167.811C168.757 167.811 169.136 168.35 169.279 168.582C169.551 169.024 169.718 169.534 169.718 169.915C169.718 170.361 169.484 170.629 169.089 170.629Z" fill="#92B69A"/>
<path d="M169.252 170.495L169.059 170.238C168.937 170.324 168.77 170.39 168.56 170.115C168.37 169.865 168.226 169.412 168.19 168.966C168.157 168.532 168.239 168.178 168.393 168.067L168.2 167.811C167.835 168.07 167.842 168.719 167.862 168.988C167.901 169.498 168.065 170.001 168.295 170.302C168.564 170.656 168.921 170.726 169.252 170.495Z" fill="#92B69A"/>
<path d="M172.532 174.152C172.452 174.152 172.373 174.148 172.29 174.145C170.13 174.047 168.793 172.864 168.32 170.629L168.641 170.551C168.807 171.335 169.306 173.684 172.307 173.818C173.785 173.88 175.069 173.292 175.734 172.237C176.214 171.472 176.28 170.577 175.903 169.904C175.383 168.976 174.659 168.839 174.272 168.839C173.726 168.839 173.213 169.107 172.991 169.502C172.674 170.07 171.953 170.574 171.195 170.76C170.719 170.874 170.008 170.92 169.329 170.479L169.511 170.208C170.09 170.583 170.702 170.544 171.116 170.443C171.777 170.283 172.429 169.829 172.7 169.345C172.978 168.848 173.61 168.515 174.272 168.515C175.052 168.515 175.754 168.966 176.19 169.75C176.627 170.528 176.558 171.551 176.015 172.413C175.32 173.511 174.03 174.152 172.532 174.152Z" fill="#92B69A"/>
<path d="M171.7 170.629L171.539 170.348C172.759 169.712 173.004 168.571 172.83 167.714C172.645 166.806 172.002 166.119 171.264 166.039C170.476 165.953 169.896 166.091 169.547 166.445C169.128 166.87 169.018 167.612 169.212 168.657L168.884 168.714C168.669 167.567 168.81 166.73 169.303 166.228C169.729 165.797 170.402 165.627 171.301 165.723C172.193 165.822 172.94 166.599 173.155 167.657C173.356 168.622 173.078 169.913 171.7 170.629Z" fill="#92B69A"/>
<path d="M164.487 176.5C164.073 176.5 163.652 176.452 163.242 176.35C161.887 176.019 160.97 175.211 160.721 174.132C160.456 172.989 160.781 171.955 161.606 171.293C162.347 170.698 163.367 170.507 164.139 170.819C164.941 171.143 165.765 170.822 166.563 170.513C167.053 170.322 167.762 169.969 168.259 169.924L168.289 170.242C167.842 170.284 167.176 170.621 166.689 170.809C165.828 171.143 164.937 171.487 164.01 171.115C163.358 170.85 162.457 171.029 161.818 171.541C161.39 171.885 160.721 172.668 161.043 174.068C161.265 175.023 162.096 175.746 163.321 176.048C164.811 176.414 166.414 176.051 167.222 175.166C168.772 173.467 168.686 171.703 168.686 171.687L169.017 171.668C169.021 171.745 169.117 173.572 167.474 175.376C166.815 176.089 165.682 176.5 164.487 176.5Z" fill="#92B69A"/>
<path d="M166.513 170.864C164.788 170.864 163.576 169.869 163.242 168.155C163.08 167.327 163.338 166.39 163.893 165.764C164.352 165.248 164.96 164.977 165.654 164.993C166.572 165.009 167.009 165.393 167.217 165.71C167.514 166.17 167.524 166.827 167.24 167.384C166.751 168.35 167.517 169.086 168.32 169.693L168.115 169.942C166.929 169.048 166.566 167.988 166.943 167.249C167.177 166.786 167.174 166.248 166.936 165.877C166.701 165.515 166.259 165.317 165.651 165.308C165.637 165.308 165.624 165.308 165.614 165.308C164.887 165.308 164.418 165.666 164.147 165.968C163.652 166.525 163.427 167.359 163.569 168.098C163.721 168.885 164.339 170.697 166.791 170.54L166.814 170.854C166.708 170.861 166.612 170.864 166.513 170.864Z" fill="#92B69A"/>
<path d="M172.365 166.402L172.075 166.246C172.728 165.143 172.835 163.76 172.342 162.72C172.105 162.221 171.625 161.585 170.666 161.391C169.649 161.185 168.65 161.417 167.927 162.027C167.081 162.739 166.684 163.903 166.814 165.295L166.481 165.324C166.344 163.827 166.781 162.571 167.707 161.789C168.51 161.112 169.616 160.854 170.739 161.08C171.605 161.255 172.265 161.779 172.648 162.59C173.178 163.715 173.068 165.213 172.365 166.402Z" fill="#92B69A"/>
<path d="M171.164 180.023C170.336 180.023 169.607 179.728 169.032 179.154C167.977 178.1 167.588 176.249 168.04 174.437L168.363 174.515C167.944 176.194 168.306 177.967 169.271 178.927C169.946 179.601 170.861 179.838 171.919 179.614C172.963 179.391 173.625 178.684 173.778 177.624C173.981 176.214 173.233 174.538 172.145 173.967L172.301 173.682C173.522 174.324 174.334 176.11 174.108 177.669C173.935 178.875 173.183 179.676 171.992 179.932C171.706 179.99 171.43 180.023 171.164 180.023Z" fill="#92B69A"/>
<path d="M164.239 171.333C163.042 171.001 162.013 170.181 161.416 169.083C160.829 168.004 160.706 166.787 161.067 165.653C161.514 164.262 162.788 163.793 163.75 163.819C164.757 163.845 165.562 164.346 165.757 165.072L165.441 165.156C165.285 164.572 164.604 164.165 163.743 164.145C162.853 164.12 161.771 164.536 161.38 165.757C161.045 166.806 161.159 167.933 161.703 168.934C162.26 169.955 163.215 170.72 164.327 171.03L164.239 171.333Z" fill="#92B69A"/>
<path d="M161.702 175.561C159.514 175.223 158.889 173.68 159.015 172.465C159.162 171.081 160.333 169.634 162.262 169.691L162.252 170.01C160.531 169.962 159.49 171.221 159.357 172.494C159.244 173.574 159.804 174.942 161.76 175.245L161.702 175.561Z" fill="#92B69A"/>
<path d="M166.139 179.318C165.77 179.318 165.408 179.232 165.066 179.06C164.036 178.544 163.471 177.367 163.718 176.265L164.05 176.335C163.833 177.294 164.327 178.316 165.221 178.762C166.203 179.255 167.324 178.928 168.303 177.869L168.553 178.091C167.812 178.898 166.962 179.318 166.139 179.318Z" fill="#92B69A"/>
<path d="M175.989 177.439C175.299 177.439 174.589 177.181 173.913 176.67L174.113 176.417C175.309 177.321 176.305 177.193 176.929 176.925C177.865 176.523 178.407 175.645 178.46 174.984C178.532 174.086 178.309 173.285 177.846 172.783C177.458 172.365 176.909 172.141 176.213 172.122L176.222 171.803C177.011 171.825 177.642 172.084 178.092 172.569C178.808 173.345 178.838 174.431 178.792 175.009C178.72 175.891 177.993 176.82 177.064 177.219C176.715 177.366 176.354 177.439 175.989 177.439Z" fill="#92B69A"/>
<path d="M177.943 172.508L177.829 172.21C178.517 171.972 179.007 171.222 179.138 170.199C179.296 168.968 178.876 167.771 178.121 167.289C177.244 166.732 176.079 166.571 175.081 166.862C174.43 167.052 173.55 167.527 173.06 168.702L172.747 168.585C173.285 167.293 174.259 166.77 174.981 166.558C176.072 166.238 177.348 166.416 178.305 167.024C179.313 167.663 179.615 169.094 179.471 170.231C179.323 171.38 178.752 172.229 177.943 172.508Z" fill="#92B69A"/>
<path d="M176.436 166.636L176.12 166.558C176.625 164.676 176.394 163.377 175.465 162.904C174.654 162.491 173.533 162.857 172.992 163.456L172.747 163.248C173.367 162.561 174.641 162.126 175.618 162.624C176.241 162.942 177.176 163.885 176.436 166.636Z" fill="#92B69A"/>
<path d="M191.499 198.667C186.537 198.98 181.609 198.922 176.644 198.909C172.932 198.9 169.208 199.068 165.502 198.806C158.951 198.345 151.94 196.63 149.172 190C145.556 181.338 146.969 170.344 149.649 161.619C150.867 157.656 152.44 153.425 155.132 150.198C157.96 146.808 162.037 144.693 166.165 143.294C176.781 139.698 188.24 139.79 199.31 140.097C206.524 140.297 213.727 140.539 220.946 140.495C224.22 140.475 227.493 140.47 230.761 140.57V112.813H142.189V207.533H230.763V191.418C218.027 195.47 204.688 197.834 191.499 198.667Z" fill="#92B69A"/>
<path d="M246.883 137.165H158.309L142.189 112.813H230.762L246.883 137.165Z" fill="#B6DABE"/>
<path d="M231.89 125.616C219.355 129.261 206.9 132.544 193.738 132.105C184.125 131.785 173.218 131.952 164.556 127.128C158.651 123.84 154.573 118.739 151.795 112.813H142.189L158.309 137.164H246.883L237.709 123.305C235.887 124.257 233.953 125.016 231.89 125.616Z" fill="#B6DABE"/>
<path d="M160.198 111.214L135.137 88.8305C129.219 82.9209 129.219 73.3414 135.137 67.4317C141.056 61.5228 150.65 61.5228 156.569 67.4317L160.198 71.0551L163.826 67.4317C169.745 61.5228 179.34 61.5228 185.259 67.4317C191.177 73.3407 191.177 82.9209 185.259 88.8305L160.198 111.214Z" fill="#B692B2"/>
<path d="M160.197 112.813L136.204 91.3838C130.538 85.7271 130.538 76.5559 136.204 70.8978C141.87 65.2411 151.056 65.2411 156.723 70.8978L160.197 74.3665L163.671 70.8978C169.337 65.2411 178.524 65.2411 184.189 70.8978C189.855 76.5545 189.855 85.7271 184.189 91.3838L160.197 112.813Z" fill="#B692B2"/>
<path d="M184.19 70.8978C181.7 68.411 178.528 67.0189 175.275 66.7181C178.844 71.5032 180.369 77.6857 177.595 83.4175C174.396 90.0255 168.061 94.6254 161.445 97.4587C156.467 99.591 150.943 100.564 145.853 100L160.198 112.812L184.19 91.3831C189.856 85.727 189.856 76.5545 184.19 70.8978Z" fill="#B692B2"/>
</g>
<defs>
<filter id="filter0_d" x="63.6" y="63" width="188.283" height="154.533" filterUnits="userSpaceOnUse" color-interpolation-filters="sRGB">
<feFlood flood-opacity="0" result="BackgroundImageFix"/>
<feColorMatrix in="SourceAlpha" type="matrix" values="0 0 0 0 0 0 0 0 0 0 0 0 0 0 0 0 0 0 127 0" result="hardAlpha"/>
<feOffset dy="5"/>
<feGaussianBlur stdDeviation="2.5"/>
<feColorMatrix type="matrix" values="0 0 0 0 0 0 0 0 0 0 0 0 0 0 0 0 0 0 0.25 0"/>
<feBlend mode="normal" in2="BackgroundImageFix" result="effect1_dropShadow"/>
<feBlend mode="normal" in="SourceGraphic" in2="effect1_dropShadow" result="shape"/>
</filter>
<filter id="filter1_d" x="175.92" y="164.917" width="48.5859" height="17.8633" filterUnits="userSpaceOnUse" color-interpolation-filters="sRGB">
<feFlood flood-opacity="0" result="BackgroundImageFix"/>
<feColorMatrix in="SourceAlpha" type="matrix" values="0 0 0 0 0 0 0 0 0 0 0 0 0 0 0 0 0 0 127 0" result="hardAlpha"/>
<feOffset dy="5"/>
<feGaussianBlur stdDeviation="2.5"/>
<feColorMatrix type="matrix" values="0 0 0 0 0 0 0 0 0 0 0 0 0 0 0 0 0 0 0.25 0"/>
<feBlend mode="normal" in2="BackgroundImageFix" result="effect1_dropShadow"/>
<feBlend mode="normal" in="SourceGraphic" in2="effect1_dropShadow" result="shape"/>
</filter>
</defs>
</svg>
