<svg width="297" height="270" fill="none" xmlns="http://www.w3.org/2000/svg"><g filter="url(#filter0_d)"><path d="M207.035 180.279c-1.815 11.717-12.255 19.186-28.047 22.729-7.288 1.642-15.718 2.442-24.971 2.442-29.283 0-53.017-7.831-53.017-25.171 0-29.248 27.084-79.128 47.02-88.33 2.097-.961 4.108-1.483 5.997-1.483 2.012 0 4.201.587 6.521 1.67 4.426 2.07 9.29 5.957 14.174 11.085h.009c17.87 18.815 35.841 54.224 32.314 77.058z" fill="#688476"/><path d="M178.988 203.008c-7.288 1.642-15.718 2.442-24.971 2.442-29.283 0-53.017-7.831-53.017-25.171 0-29.248 27.084-79.128 47.02-88.33 4.033-.196 8.168-.019 12.518.186 4.426 2.07 9.29 5.958 14.174 11.086-.431.456-1.254.624-2.611.271-2.292-.598-3.349-5.129-5.557-4.075-.346 2.76 1.123 4.122 2.217 6.387.656 1.351 2.583 5.23 1.395 6.525-2.021 2.192-4.182-1.612-5.137-3.095-1.244-1.93-4.724-12.569-7.334-8.083-1.103 1.892.851 15.141-3.284 11.878-3.395-2.676-1.497-10.088-3.863-13.613-1.712-.307-2.919.914-3.93 2.183-2.75 3.449-3.92 8.362-5.688 12.38-2.405 5.474-4.491 11.422-5.538 17.397-2.386 13.511.411 28.745 5.155 41.322 3.64 9.631 9.009 19.877 18.851 24.483 5.594 2.621 13.266 4.363 19.6 5.827z" fill="#92B69A"/><path d="M176.76 72.378c-.121 1.083-.561 2.49-1.271 4.084-3.312 7.459-12.434 18.852-21.247 18.852-7.119 0-14.211-7.254-18.459-13.995-3.04-4.839-4.621-9.415-3.685-10.862a1.33 1.33 0 01.13-.186c3.134-4.596 5.333 2.946 12.434 1.735 3.012-.513 5.968-9.006 9.58-9.006 5.286 0 5.632 7.97 9.44 9.006 5.004 1.37 7.484-6.834 12.704-1.549.366.373.478 1.036.374 1.921z" fill="#688476"/><path d="M175.489 76.462c-3.312 7.459-12.434 18.852-21.247 18.852-7.119 0-14.211-7.254-18.459-13.995-1.253-3.318-1.487-5.995 1.721-4.969 5.203 1.66 5.418 11.067 12.416 9.911.673-2.108-.187-5.426 1.524-7.114 2.9-2.863 2.311 1.343 2.882 3.431 1.974 7.15 4.827-4.447 8.055-5.557.775 4.56-.758 11.384 5.668 5.8 1.844-1.603 5.961-7.058 7.44-6.359z" fill="#92B69A"/><path d="M167.115 92.395a2.926 2.926 0 01-2.931 2.922h-18.856a2.926 2.926 0 01-2.93-2.922 2.926 2.926 0 012.93-2.921h18.856a2.926 2.926 0 012.931 2.921z" fill="#D2D2D2"/><path opacity=".5" d="M176.761 72.378c-1.048-.111-1.956-1.053-3.406-.997-3.274.13-5.146 5.044-8.373 4.615-.336-1.146-.879-1.23-1.833-1.76-.384.549-.786.52-1.075 1.135-3.649-.353-3.883-11.29-10.563-7.477-5.277 3.013-2.396 9.94-4.435 14.014-2.021-1.287-2.021-3.337-3.115-5.156-1.367-2.274-2.863-2.265-4.93-3.169-1.554-.691-4.5-1.838-6.803-3.31 3.134-4.598 5.333 2.945 12.434 1.734 3.012-.514 5.968-9.007 9.581-9.007 5.285 0 5.631 7.97 9.439 9.006 5.004 1.37 7.484-6.834 12.704-1.549.366.373.478 1.036.375 1.921zm22.786 112.444c2.524-6.631 1.686-16.508.077-23.309-2.102-8.892-5.55-17.269-8.566-25.863-2.275-6.478-4.843-13.205-8.282-19.2-1.228-2.14-7.757-13.48-8.107-5.905-.168 3.604 1.395 15.931-5.69 9.634-3.173-2.82-5.143-11.623-8.795-5.299-2.713 4.699-.867 10.447-.866 15.797.003 9.029-.602 18.25 1.005 27.098 1.377 7.568 20.621 47.881 30.805 35.436l8.419-8.389z" fill="#688476"/><path d="M153.595 177.208v-4.555c-3.737.074-11.055-5.327-11.055-5.327l4.509-6.22s5.205 3.432 8.149 3.641c2.95.21 5.971-1.68 6.323-4.131.397-2.772-.692-5.351-5.972-8.401-7.139-4.123-12.797-7.407-12.797-13.935 0-6.23 4.443-10.958 11.371-12.085v-4.925h4.669v4.626c5.258.555 9.192 4.111 9.192 4.111l-3.864 6.176s-2.494-2.259-5.544-3.109c-3.168-.882-6.381 1.762-6.54 3.808-.14 1.821.404 4.789 6.956 7.491 7.757 3.152 11.248 8.617 11.248 15.296 0 5.929-4.142 11.483-11.898 12.76v4.78h-4.747v-.001z" fill="#fff"/><path d="M220.186 207h-40.449c-2.337 0-3.098-11.162 0-11.162h40.449c3.827.001 4.192 11.162 0 11.162z" fill="#EDCD49"/><path d="M182.924 197.722h-1.797v9.279h1.797v-9.279zm6.22 0h-1.797v9.279h1.797v-9.279zm6.221 0h-1.797v9.279h1.797v-9.279zm6.22 0h-1.797v9.279h1.797v-9.279zm6.22 0h-1.796v9.279h1.796v-9.279zm6.221 0h-1.797v9.279h1.797v-9.279zm6.22 0h-1.797v9.279h1.797v-9.279z" fill="#C7B28A"/><path d="M220.186 184.675h-40.449c-2.337 0-3.098-11.163 0-11.163h40.449c3.827.001 4.192 11.163 0 11.163z" fill="#EDCD49"/><path d="M182.924 175.396h-1.797v9.279h1.797v-9.279zm6.22 0h-1.797v9.279h1.797v-9.279zm6.221 0h-1.797v9.279h1.797v-9.279zm6.22 0h-1.797v9.279h1.797v-9.279zm6.22 0h-1.796v9.279h1.796v-9.279zm6.221 0h-1.797v9.279h1.797v-9.279zm6.22 0h-1.797v9.279h1.797v-9.279z" fill="#C7B28A"/><path d="M216.178 195.839h-40.449c-2.338 0-3.098-11.163 0-11.163h40.449c3.826 0 4.191 11.163 0 11.163z" fill="#FFE06E"/><path d="M179.444 186.336h-1.755v9.279h1.755v-9.279zm6.077 0h-1.755v9.279h1.755v-9.279zm6.079 0h-1.756v9.279h1.756v-9.279zm6.078 0h-1.756v9.279h1.756v-9.279zm6.076 0h-1.756v9.279h1.756v-9.279zm6.078 0h-1.756v9.279h1.756v-9.279zm6.078 0h-1.756v9.279h1.756v-9.279z" fill="#C7B28A"/><path d="M216.178 173.513h-40.449c-2.338 0-3.098-11.162 0-11.162h40.449c3.826-.001 4.191 11.162 0 11.162z" fill="#FFE06E"/><path d="M179.444 164.011h-1.755v9.279h1.755v-9.279zm6.077 0h-1.755v9.279h1.755v-9.279zm6.079 0h-1.756v9.279h1.756v-9.279zm6.078 0h-1.756v9.279h1.756v-9.279zm6.076 0h-1.756v9.279h1.756v-9.279zm6.078 0h-1.756v9.279h1.756v-9.279zm6.078 0h-1.756v9.279h1.756v-9.279z" fill="#C7B28A"/></g><defs><filter id="filter0_d" x="96" y="63" width="132.194" height="154.001" filterUnits="userSpaceOnUse" color-interpolation-filters="sRGB"><feFlood flood-opacity="0" result="BackgroundImageFix"/><feColorMatrix in="SourceAlpha" values="0 0 0 0 0 0 0 0 0 0 0 0 0 0 0 0 0 0 127 0" result="hardAlpha"/><feOffset dy="5"/><feGaussianBlur stdDeviation="2.5"/><feColorMatrix values="0 0 0 0 0 0 0 0 0 0 0 0 0 0 0 0 0 0 0.25 0"/><feBlend in2="BackgroundImageFix" result="effect1_dropShadow"/><feBlend in="SourceGraphic" in2="effect1_dropShadow" result="shape"/></filter></defs></svg>