<svg width="297" height="270" fill="none" xmlns="http://www.w3.org/2000/svg"><g filter="url(#filter0_d)" clip-path="url(#clip0)"><path d="M294.082 143.845v39.311l-261.557-.018V73.528c0-5.819 4.72-10.528 10.548-10.528h145.544a70.71 70.71 0 0122.971 3.842l2.579.89a70.485 70.485 0 0127.837 17.767l49.142 51.053a10.514 10.514 0 012.936 7.293z" fill="#92B69A"/><path opacity=".3" d="M292.721 151.582H31.164v31.574H292.72v-31.574z" fill="#45594F"/><path d="M118.397 182.945c0 .066 0 .123-.005.184v.018H68.554v-.018c-.005-.057-.005-.118-.005-.184 0-13.741 11.162-24.88 24.924-24.88 13.762-.005 24.924 11.135 24.924 24.88z" fill="#fff"/><path d="M116.783 182.945c0 .057 0 .123-.004.184.004.009.004.014 0 .018.004.013.004.022 0 .031-.124 12.75-10.514 23.044-23.306 23.044-12.806 0-23.2-10.312-23.302-23.075 0 0-.004 0 0-.004-.004-.005-.004-.009 0-.014-.004-.057-.004-.123-.004-.184 0-12.856 10.434-23.274 23.31-23.274 12.868 0 23.306 10.418 23.306 23.274z" fill="#484848"/><path d="M78.22 182.945c0 8.406 6.829 15.227 15.257 15.227 3.818 0 7.296-1.399 9.971-3.718a15.163 15.163 0 005.277-11.509c0-8.407-6.828-15.228-15.248-15.228a15.203 15.203 0 00-10.659 4.343 15.12 15.12 0 00-4.597 10.885z" fill="#D2D2D2"/><path d="M98.207 182.944c0 2.61-2.12 4.727-4.734 4.727a4.732 4.732 0 01-4.735-4.727 4.731 4.731 0 014.735-4.726 4.731 4.731 0 014.734 4.726z" fill="#484848"/><path d="M264.879 182.945c0 .066 0 .123-.004.184v.018h-49.843v-.018c-.005-.057-.005-.118-.005-.184 0-13.741 11.162-24.88 24.924-24.88 13.762-.005 24.928 11.135 24.928 24.88z" fill="#fff"/><path d="M263.266 182.945c0 .057 0 .123-.005.184.005.009.005.014 0 .018.005.013.005.022 0 .031-.123 12.75-10.513 23.044-23.306 23.044-12.805 0-23.2-10.312-23.301-23.075 0 0-.004 0 0-.004-.004-.005-.004-.009 0-.014-.004-.057-.004-.123-.004-.184 0-12.856 10.434-23.274 23.31-23.274 12.867 0 23.306 10.418 23.306 23.274z" fill="#484848"/><path d="M224.703 182.945c0 8.406 6.828 15.227 15.257 15.227 3.817 0 7.295-1.399 9.971-3.718a15.167 15.167 0 005.277-11.509c0-8.407-6.829-15.228-15.248-15.228a15.203 15.203 0 00-10.659 4.343 15.105 15.105 0 00-4.598 10.885z" fill="#D2D2D2"/><path d="M244.685 182.944c0 2.61-2.12 4.727-4.734 4.727a4.731 4.731 0 01-4.734-4.727 4.731 4.731 0 014.734-4.726 4.731 4.731 0 014.734 4.726zm49.552-15.945h-14.56c-.71 0-1.287.577-1.287 1.285v13.785c0 .708.577 1.285 1.287 1.285h14.56c.71 0 1.287-.577 1.287-1.285v-13.785a1.29 1.29 0 00-1.287-1.285zm-250.29 0h-14.56c-.71 0-1.287.577-1.287 1.285v13.785c0 .708.577 1.285 1.287 1.285h14.56c.71 0 1.287-.577 1.287-1.285v-13.785a1.29 1.29 0 00-1.287-1.285z" fill="#484848"/><path d="M292.721 154.086v12.143h-3.795a6.08 6.08 0 01-6.084-6.074 6.07 6.07 0 011.781-4.295 6.07 6.07 0 014.303-1.778h3.795v.004z" fill="#FFD785"/><path d="M198.726 71.362h-1.322v106.701h1.322v-106.7zm30.262 62.4a2.34 2.34 0 01-2.341 2.337h-14.419a2.341 2.341 0 01-2.341-2.337 2.34 2.34 0 012.341-2.337h14.419a2.334 2.334 0 012.341 2.337z" fill="#484848"/><path d="M41.673 139.268c.921 0 1.67.748 1.67 1.668v24.395a1.67 1.67 0 01-1.67 1.668h-10.51v-27.731h10.51z" fill="#C7B28A"/><path d="M41.673 139.268c.921 0 1.67.748 1.67 1.668v10.483h-12.18v-12.151h10.51z" fill="#FFD785"/><path d="M265.408 124.405l-14.847-16.073a.38.38 0 00-.414-.097.372.372 0 00-.238.348v18.709c0 .282.229.51.511.51h13.494c.806 0 1.534-.475 1.86-1.214a2.013 2.013 0 00-.366-2.183zm-33.612-36.389a21.494 21.494 0 00-15.79-6.905h-4.095c-1.12 0-2.028.906-2.028 2.024v42.643c0 1.118.908 2.024 2.028 2.024h34.855a.51.51 0 00.511-.51v-21.456c0-.677-.255-1.329-.714-1.826l-14.767-15.994zM182.305 82H47.389a1.26 1.26 0 00-1.26 1.259v23.075a1.26 1.26 0 001.26 1.259h134.916a1.26 1.26 0 001.261-1.259v-23.07c0-.696-.564-1.264-1.261-1.264z" fill="#D2D2D2"/><path d="M182.305 107.593H47.389a1.26 1.26 0 00-1.26 1.258v3.759a1.26 1.26 0 001.26 1.259h134.916a1.26 1.26 0 001.261-1.259v-3.759c0-.695-.564-1.258-1.261-1.258z" fill="#D2D2D2"/><path fill="#fff" d="M39.16 121h94.149v24H39.16z"/><path d="M75.379 133.524c0-.966-.43-1.728-1.29-2.285-.146-.097-.624-.351-1.435-.761-.742-.381-1.216-.772-1.42-1.172a1.811 1.811 0 01-.191-.821c0-.761.322-1.318.967-1.67a2.231 2.231 0 011.054-.263c.743 0 1.304.293 1.685.879.049.078.093.151.132.219l.527-.263c-.322-.742-.913-1.187-1.772-1.333a3.043 3.043 0 00-.513-.044c-.84 0-1.528.273-2.066.82a2.308 2.308 0 00-.659 1.655c0 .899.41 1.617 1.23 2.154.128.078.601.327 1.422.747.761.381 1.255.791 1.48 1.23.136.274.204.576.204.908 0 .889-.351 1.499-1.054 1.831a2.388 2.388 0 01-.997.206c-.712-.01-1.445-.269-2.197-.777l-.322.498c.781.547 1.606.821 2.475.821.997 0 1.749-.332 2.256-.997.323-.439.484-.966.484-1.582zm7.236 2.579c.069 0 .195-.01.381-.03l-.03-.454c-.068.01-.146.015-.234.015-.39 0-.625-.196-.703-.586a2.92 2.92 0 01-.044-.557v-5.815H81.4v4.306c0 1.075-.332 1.846-.996 2.315a1.724 1.724 0 01-1.025.337c-.742 0-1.236-.357-1.48-1.07a2.811 2.811 0 01-.132-.893v-4.995h-.586v5.039c0 1.221.455 1.977 1.363 2.27.244.078.512.118.805.118.88 0 1.534-.401 1.963-1.202l.088-.175c.05.732.288 1.167.718 1.303.146.049.313.074.498.074zm6.035-.601l-.205-.44c-.635.352-1.235.528-1.802.528-.947 0-1.587-.528-1.918-1.582-.147-.479-.22-1.03-.22-1.655 0-1.485.361-2.476 1.084-2.974.283-.195.6-.293.952-.293.752.01 1.343.42 1.772 1.23l.47-.234c-.333-.771-.875-1.25-1.627-1.436a2.272 2.272 0 00-.571-.073c-.996 0-1.738.479-2.227 1.436-.322.635-.483 1.411-.483 2.329 0 1.631.434 2.749 1.304 3.354.39.274.84.411 1.347.411.713-.01 1.421-.21 2.124-.601zm5.537 0l-.205-.44c-.635.352-1.235.528-1.802.528-.947 0-1.586-.528-1.918-1.582-.147-.479-.22-1.03-.22-1.655 0-1.485.361-2.476 1.084-2.974.283-.195.6-.293.952-.293.752.01 1.343.42 1.772 1.23l.47-.234c-.333-.771-.875-1.25-1.627-1.436a2.272 2.272 0 00-.571-.073c-.996 0-1.738.479-2.227 1.436-.322.635-.483 1.411-.483 2.329 0 1.631.435 2.749 1.304 3.354.39.274.84.411 1.347.411.713-.01 1.421-.21 2.124-.601zm6.827.601c.068 0 .195-.01.38-.03l-.029-.454c-.068.01-.146.015-.234.015-.391 0-.625-.196-.703-.586a2.864 2.864 0 01-.044-.557v-5.815h-.586v4.306c0 1.075-.332 1.846-.996 2.315a1.724 1.724 0 01-1.026.337c-.742 0-1.235-.357-1.48-1.07a2.811 2.811 0 01-.131-.893v-4.995h-.586v5.039c0 1.221.454 1.977 1.362 2.27.244.078.513.118.806.118.879 0 1.533-.401 1.963-1.202l.088-.175c.049.732.288 1.167.718 1.303.146.049.312.074.498.074zm3.061-.015c.244 0 .503-.059.776-.176l-.161-.439a1.398 1.398 0 01-.542.131c-.41-.019-.62-.312-.63-.878v-9.346h-.586v9.419c0 .654.25 1.064.748 1.23.127.039.258.059.395.059zm6.665-.513l-.19-.454c-.635.303-1.236.454-1.802.454-1.035 0-1.753-.483-2.153-1.45-.215-.498-.323-1.089-.323-1.772v-.03h4.629v-.293c0-2.07-.683-3.213-2.051-3.427a3.677 3.677 0 00-.468-.03c-1.006 0-1.758.489-2.256 1.465-.322.645-.484 1.411-.484 2.3 0 1.621.484 2.734 1.451 3.34.449.283.966.425 1.552.425.655-.01 1.353-.186 2.095-.528zm-2.358-6.489c.947 0 1.548.542 1.801 1.626.069.342.103.703.103 1.084l-3.999.015c.107-1.338.547-2.193 1.318-2.564.244-.107.503-.161.777-.161zm9.668 6.533c-.352.039-.567-.083-.645-.366a2.802 2.802 0 01-.044-.557v-3.735c0-1.201-.434-1.953-1.304-2.256a2.403 2.403 0 00-.82-.132c-.947.01-1.631.489-2.051 1.436l-.014-1.333h-.542V136h.586v-4.263c0-1.103.332-1.889.996-2.358.312-.215.644-.322.996-.322.762 0 1.25.385 1.465 1.157.068.254.102.532.102.835v3.735c0 .791.264 1.226.791 1.304.069.01.137.015.205.015.078 0 .181-.01.308-.03l-.029-.454zm4.731.147l-.19-.411c-.303.157-.572.235-.806.235-.615 0-.957-.401-1.025-1.201a3.335 3.335 0 01-.015-.308v-4.893h1.86v-.512h-1.86v-1.978h-.586v1.978h-1.26v.512h1.26v5.069c0 .898.303 1.474.908 1.728.186.078.386.118.601.118.351-.01.723-.123 1.113-.337z" fill="#484848"/><path d="M58.089 133.924v-.323c.145 0 .313-.045.313-.39 0-.317-.155-.775-.392-1.162-.231-.378-.503-.62-.69-.62v-.323c.437 0 .816.539.959.771.272.443.44.953.44 1.334 0 .445-.235.713-.63.713z" fill="#92B69A"/><path d="M58.252 133.79l-.193-.256c-.121.085-.289.152-.499-.124-.19-.25-.334-.702-.37-1.149-.033-.433.049-.788.203-.899l-.193-.256c-.364.26-.358.908-.338 1.177.04.51.203 1.013.433 1.314.269.354.626.424.957.193z" fill="#92B69A"/><path d="M61.532 137.447c-.08 0-.16-.003-.242-.007-2.16-.098-3.497-1.28-3.97-3.515l.321-.079c.166.784.665 3.134 3.666 3.268 1.478.062 2.762-.526 3.427-1.582.48-.764.546-1.66.169-2.333-.52-.928-1.244-1.065-1.631-1.065-.546 0-1.059.268-1.28.663-.318.569-1.04 1.072-1.797 1.258-.476.115-1.188.16-1.866-.281l.182-.271c.58.376 1.191.337 1.605.235.661-.16 1.313-.614 1.584-1.098.278-.496.91-.829 1.572-.829.78 0 1.482.45 1.918 1.235.437.777.368 1.8-.175 2.663-.695 1.097-1.985 1.738-3.483 1.738z" fill="#92B69A"/><path d="M60.7 133.924l-.161-.281c1.22-.636 1.465-1.777 1.29-2.633-.184-.908-.827-1.595-1.565-1.675-.788-.086-1.368.051-1.717.406-.419.425-.53 1.166-.335 2.211l-.328.058c-.215-1.147-.074-1.985.419-2.487.425-.431 1.1-.6 1.998-.505.892.1 1.64.876 1.854 1.934.201.965-.077 2.256-1.455 2.972zm-7.213 5.871a5.17 5.17 0 01-1.245-.149c-1.355-.331-2.272-1.14-2.52-2.219-.266-1.142.06-2.177.884-2.839.741-.595 1.761-.786 2.533-.474.802.325 1.626.003 2.424-.306.49-.191 1.2-.544 1.696-.588l.03.318c-.447.041-1.113.379-1.6.566-.86.335-1.752.678-2.679.306-.652-.264-1.553-.086-2.192.426-.428.344-1.096 1.127-.775 2.528.222.955 1.053 1.677 2.278 1.979 1.49.366 3.093.004 3.901-.881 1.55-1.7 1.464-3.463 1.464-3.479l.331-.019c.004.076.1 1.903-1.543 3.708-.659.713-1.791 1.123-2.987 1.123z" fill="#92B69A"/><path d="M55.513 134.159c-1.725 0-2.937-.994-3.271-2.709a2.888 2.888 0 01.65-2.391 2.231 2.231 0 011.762-.771c.918.016 1.355.4 1.563.718.297.459.307 1.117.023 1.674-.489.965.277 1.702 1.08 2.309l-.204.248c-1.187-.893-1.55-1.953-1.173-2.693.234-.462.23-1-.007-1.371-.235-.362-.677-.56-1.285-.57h-.037a1.92 1.92 0 00-1.467.661 2.572 2.572 0 00-.578 2.13c.152.786.77 2.598 3.222 2.441l.023.315a5.198 5.198 0 01-.3.009z" fill="#92B69A"/><path d="M61.365 129.697l-.29-.156c.653-1.103.76-2.486.267-3.525-.237-.499-.717-1.135-1.676-1.329-1.016-.207-2.016.025-2.74.636-.845.712-1.242 1.875-1.112 3.268l-.333.028c-.137-1.497.3-2.753 1.226-3.535.803-.677 1.91-.934 3.032-.709.866.175 1.526.7 1.91 1.51.529 1.126.419 2.623-.284 3.812zm-1.201 13.621a2.936 2.936 0 01-2.132-.869c-1.055-1.053-1.444-2.904-.992-4.716l.323.077c-.42 1.68-.056 3.453.908 4.412.675.675 1.59.911 2.648.688 1.045-.224 1.706-.931 1.86-1.991.202-1.41-.546-3.086-1.634-3.657l.156-.285c1.221.642 2.033 2.428 1.807 3.988-.173 1.205-.925 2.006-2.116 2.262a4.108 4.108 0 01-.828.091zm-6.925-8.689a4.652 4.652 0 01-2.823-2.251c-.587-1.078-.71-2.296-.349-3.429.447-1.392 1.721-1.86 2.683-1.834 1.007.025 1.812.526 2.007 1.253l-.316.084c-.156-.585-.838-.992-1.698-1.011-.89-.026-1.972.391-2.363 1.611-.336 1.05-.221 2.177.323 3.178a4.341 4.341 0 002.623 2.095l-.087.304z" fill="#92B69A"/><path d="M50.702 138.856c-2.188-.338-2.813-1.881-2.686-3.096.146-1.383 1.317-2.831 3.246-2.773l-.01.318c-1.72-.047-2.762 1.212-2.895 2.484-.113 1.081.447 2.449 2.403 2.751l-.058.316zm4.437 3.758c-.37 0-.731-.086-1.074-.258-1.029-.516-1.594-1.694-1.347-2.795l.332.069c-.217.959.277 1.981 1.171 2.428.982.493 2.103.165 3.082-.893l.25.221c-.741.807-1.591 1.228-2.414 1.228zm9.851-1.879c-.69 0-1.4-.259-2.077-.77l.2-.252c1.196.904 2.192.776 2.816.508.936-.403 1.478-1.281 1.531-1.942.072-.897-.151-1.699-.614-2.2-.388-.419-.937-.642-1.633-.661l.01-.32c.788.023 1.419.281 1.869.767.716.776.746 1.862.7 2.44-.072.881-.799 1.81-1.728 2.209a2.75 2.75 0 01-1.075.221z" fill="#92B69A"/><path d="M66.943 135.803l-.114-.298c.688-.237 1.178-.988 1.31-2.01.157-1.232-.263-2.429-1.018-2.91a3.826 3.826 0 00-3.04-.428c-.65.19-1.53.665-2.021 1.84l-.312-.117c.537-1.292 1.51-1.814 2.233-2.027 1.091-.319 2.367-.142 3.324.466 1.008.64 1.31 2.071 1.166 3.207-.148 1.15-.719 1.998-1.528 2.277z" fill="#92B69A"/><path d="M65.436 129.932l-.316-.079c.505-1.882.274-3.18-.655-3.653-.811-.413-1.932-.048-2.473.551l-.244-.208c.619-.687 1.893-1.122 2.87-.624.623.319 1.558 1.261.819 4.013z" fill="#92B69A"/></g><defs><clipPath id="clip0"><path fill="#fff" d="M0 0h297v270H0z"/></clipPath><filter id="filter0_d" x="23.1" y="63" width="277.424" height="153.222" filterUnits="userSpaceOnUse" color-interpolation-filters="sRGB"><feFlood flood-opacity="0" result="BackgroundImageFix"/><feColorMatrix in="SourceAlpha" values="0 0 0 0 0 0 0 0 0 0 0 0 0 0 0 0 0 0 127 0" result="hardAlpha"/><feOffset dy="5"/><feGaussianBlur stdDeviation="2.5"/><feColorMatrix values="0 0 0 0 0 0 0 0 0 0 0 0 0 0 0 0 0 0 0.25 0"/><feBlend in2="BackgroundImageFix" result="effect1_dropShadow"/><feBlend in="SourceGraphic" in2="effect1_dropShadow" result="shape"/></filter></defs></svg>