<svg width="297" height="270" viewBox="0 0 297 270" fill="none" xmlns="http://www.w3.org/2000/svg">
<g clip-path="url(#clip0)">
<g filter="url(#filter0_d)">
<path d="M294.082 143.845V183.156L32.5247 183.138V73.5275C32.5247 67.7092 37.2458 63 43.0734 63H188.617C196.437 63 204.195 64.3027 211.588 66.8422L214.167 67.7312C224.729 71.371 234.268 77.4578 242.004 85.4987L291.146 136.552C293.033 138.515 294.082 141.125 294.082 143.845Z" fill="#92B69A"/>
<path opacity="0.3" d="M292.721 151.582H31.1638V183.156H292.721V151.582Z" fill="#45594F"/>
<path d="M118.397 182.945C118.397 183.011 118.397 183.068 118.392 183.129V183.147H68.5537C68.5537 183.143 68.5537 183.143 68.5537 183.138C68.5537 183.134 68.5537 183.134 68.5537 183.129C68.5493 183.072 68.5493 183.011 68.5493 182.945C68.5493 169.204 79.7107 158.065 93.473 158.065C107.235 158.06 118.397 169.2 118.397 182.945Z" fill="white"/>
<path d="M116.783 182.945C116.783 183.002 116.783 183.068 116.779 183.129C116.783 183.138 116.783 183.143 116.779 183.147C116.783 183.16 116.783 183.169 116.779 183.178C116.655 195.928 106.265 206.222 93.4729 206.222C80.6672 206.222 70.2728 195.91 70.1714 183.147C70.1714 183.147 70.167 183.147 70.1714 183.143C70.167 183.138 70.167 183.134 70.1714 183.129C70.167 183.072 70.167 183.006 70.167 182.945C70.167 170.089 80.6011 159.671 93.4772 159.671C106.345 159.671 116.783 170.089 116.783 182.945Z" fill="#484848"/>
<path d="M78.2206 182.945C78.2206 191.351 85.0488 198.172 93.4772 198.172C97.2946 198.172 100.773 196.773 103.448 194.454C106.68 191.668 108.725 187.539 108.725 182.945C108.725 174.538 101.897 167.717 93.4772 167.717C89.3335 167.717 85.569 169.371 82.8183 172.06C79.9794 174.816 78.2206 178.675 78.2206 182.945Z" fill="#D2D2D2"/>
<path d="M98.2071 182.944C98.2071 185.554 96.0868 187.671 93.4728 187.671C90.8587 187.671 88.7384 185.554 88.7384 182.944C88.7384 180.335 90.8587 178.218 93.4728 178.218C96.0868 178.218 98.2071 180.335 98.2071 182.944Z" fill="#484848"/>
<path d="M264.879 182.945C264.879 183.011 264.879 183.068 264.875 183.129V183.147H215.032C215.032 183.143 215.032 183.143 215.032 183.138C215.032 183.134 215.032 183.134 215.032 183.129C215.027 183.072 215.027 183.011 215.027 182.945C215.027 169.204 226.189 158.065 239.951 158.065C253.713 158.06 264.879 169.2 264.879 182.945Z" fill="white"/>
<path d="M263.266 182.945C263.266 183.002 263.266 183.068 263.261 183.129C263.266 183.138 263.266 183.143 263.261 183.147C263.266 183.16 263.266 183.169 263.261 183.178C263.138 195.928 252.748 206.222 239.955 206.222C227.15 206.222 216.755 195.91 216.654 183.147C216.654 183.147 216.65 183.147 216.654 183.143C216.65 183.138 216.65 183.134 216.654 183.129C216.65 183.072 216.65 183.006 216.65 182.945C216.65 170.089 227.084 159.671 239.96 159.671C252.827 159.671 263.266 170.089 263.266 182.945Z" fill="#484848"/>
<path d="M224.703 182.945C224.703 191.351 231.531 198.172 239.96 198.172C243.777 198.172 247.255 196.773 249.931 194.454C253.162 191.668 255.208 187.539 255.208 182.945C255.208 174.538 248.379 167.717 239.96 167.717C235.816 167.717 232.052 169.371 229.301 172.06C226.458 174.816 224.703 178.675 224.703 182.945Z" fill="#D2D2D2"/>
<path d="M244.685 182.944C244.685 185.554 242.565 187.671 239.951 187.671C237.337 187.671 235.217 185.554 235.217 182.944C235.217 180.335 237.337 178.218 239.951 178.218C242.565 178.218 244.685 180.335 244.685 182.944Z" fill="#484848"/>
<path d="M294.237 166.999H279.677C278.967 166.999 278.39 167.576 278.39 168.284V182.069C278.39 182.777 278.967 183.354 279.677 183.354H294.237C294.947 183.354 295.524 182.777 295.524 182.069V168.284C295.52 167.576 294.947 166.999 294.237 166.999Z" fill="#484848"/>
<path d="M43.9472 166.999H29.3871C28.6774 166.999 28.1 167.576 28.1 168.284V182.069C28.1 182.777 28.6774 183.354 29.3871 183.354H43.9472C44.657 183.354 45.2344 182.777 45.2344 182.069V168.284C45.23 167.576 44.657 166.999 43.9472 166.999Z" fill="#484848"/>
<path d="M292.721 154.086V166.229H288.926C285.567 166.229 282.842 163.509 282.842 160.155C282.842 158.479 283.526 156.96 284.623 155.86C285.725 154.76 287.246 154.082 288.926 154.082H292.721V154.086Z" fill="#FFD785"/>
<path d="M198.726 71.3621H197.404V178.063H198.726V71.3621Z" fill="#484848"/>
<path d="M228.988 133.762C228.988 135.051 227.939 136.099 226.647 136.099H212.228C210.937 136.099 209.887 135.051 209.887 133.762C209.887 132.472 210.937 131.425 212.228 131.425H226.647C227.939 131.42 228.988 132.468 228.988 133.762Z" fill="#484848"/>
<path d="M41.6728 139.268C42.5941 139.268 43.3435 140.016 43.3435 140.936V165.331C43.3435 166.251 42.5941 166.999 41.6728 166.999H31.1638V139.268H41.6728Z" fill="#C7B28A"/>
<path d="M41.6728 139.268C42.5941 139.268 43.3435 140.016 43.3435 140.936V151.419H31.1638V139.268H41.6728Z" fill="#FFD785"/>
<path d="M265.408 124.405L250.561 108.332C250.456 108.217 250.293 108.182 250.147 108.235C250.002 108.292 249.909 108.429 249.909 108.583V127.292C249.909 127.574 250.138 127.802 250.42 127.802H263.914C264.72 127.802 265.448 127.327 265.774 126.588C266.1 125.857 265.955 124.995 265.408 124.405Z" fill="#D2D2D2"/>
<path d="M231.796 88.0161C227.732 83.615 222.005 81.1107 216.006 81.1107H211.911C210.791 81.1107 209.883 82.0174 209.883 83.1352V125.778C209.883 126.896 210.791 127.802 211.911 127.802H246.766C247.048 127.802 247.277 127.574 247.277 127.292V105.836C247.277 105.159 247.022 104.507 246.563 104.01L231.796 88.0161Z" fill="#D2D2D2"/>
<path d="M182.305 82H47.3894C46.6929 82 46.1287 82.5633 46.1287 83.2587V106.334C46.1287 107.029 46.6929 107.593 47.3894 107.593H182.305C183.002 107.593 183.566 107.029 183.566 106.334V83.2631C183.566 82.5677 183.002 82 182.305 82Z" fill="#D2D2D2"/>
<path d="M182.305 107.593H47.3894C46.6929 107.593 46.1287 108.156 46.1287 108.851V112.61C46.1287 113.305 46.6929 113.869 47.3894 113.869H182.305C183.002 113.869 183.566 113.305 183.566 112.61V108.851C183.566 108.156 183.002 107.593 182.305 107.593Z" fill="#D2D2D2"/>
<rect x="39.1605" y="121" width="94.1494" height="24" fill="white"/>
<path d="M75.3788 133.524C75.3788 132.558 74.9491 131.796 74.0897 131.239C73.9432 131.142 73.4647 130.888 72.6542 130.478C71.912 130.097 71.4384 129.706 71.2333 129.306C71.1063 129.052 71.0428 128.778 71.0428 128.485C71.0428 127.724 71.3651 127.167 72.0096 126.815C72.3417 126.64 72.6932 126.552 73.0643 126.552C73.8065 126.552 74.368 126.845 74.7489 127.431C74.7977 127.509 74.8417 127.582 74.8807 127.65L75.4081 127.387C75.0858 126.645 74.495 126.2 73.6356 126.054C73.4598 126.024 73.2889 126.01 73.1229 126.01C72.2831 126.01 71.5946 126.283 71.0575 126.83C70.618 127.289 70.3983 127.841 70.3983 128.485C70.3983 129.384 70.8085 130.102 71.6288 130.639C71.7557 130.717 72.2294 130.966 73.0497 131.386C73.8114 131.767 74.3046 132.177 74.5292 132.616C74.6659 132.89 74.7343 133.192 74.7343 133.524C74.7343 134.413 74.3827 135.023 73.6796 135.355C73.3768 135.492 73.0448 135.561 72.6835 135.561C71.9706 135.551 71.2382 135.292 70.4862 134.784L70.1639 135.282C70.9452 135.829 71.7704 136.103 72.6395 136.103C73.6356 136.103 74.3876 135.771 74.8954 135.106C75.2177 134.667 75.3788 134.14 75.3788 133.524ZM82.6151 136.103C82.6835 136.103 82.8104 136.093 82.996 136.073L82.9667 135.619C82.8983 135.629 82.8202 135.634 82.7323 135.634C82.3417 135.634 82.1073 135.438 82.0292 135.048C81.9999 134.901 81.9852 134.716 81.9852 134.491V128.676H81.3993V132.982C81.3993 134.057 81.0673 134.828 80.4032 135.297C80.0907 135.521 79.7489 135.634 79.3778 135.634C78.6356 135.634 78.1425 135.277 77.8983 134.564C77.8104 134.301 77.7665 134.003 77.7665 133.671V128.676H77.1805V133.715C77.1805 134.936 77.6346 135.692 78.5428 135.985C78.787 136.063 79.0555 136.103 79.3485 136.103C80.2274 136.103 80.8817 135.702 81.3114 134.901C81.3407 134.843 81.37 134.784 81.3993 134.726C81.4481 135.458 81.6874 135.893 82.1171 136.029C82.2635 136.078 82.4296 136.103 82.6151 136.103ZM88.6503 135.502L88.4452 135.062C87.8104 135.414 87.2098 135.59 86.6434 135.59C85.6962 135.59 85.0565 135.062 84.7245 134.008C84.578 133.529 84.5048 132.978 84.5048 132.353C84.5048 130.868 84.8661 129.877 85.5887 129.379C85.8719 129.184 86.1893 129.086 86.5409 129.086C87.2928 129.096 87.8837 129.506 88.3134 130.316L88.7821 130.082C88.4501 129.311 87.9081 128.832 87.1561 128.646C86.9706 128.598 86.7802 128.573 86.5848 128.573C85.5887 128.573 84.8466 129.052 84.3583 130.009C84.036 130.644 83.8749 131.42 83.8749 132.338C83.8749 133.969 84.3094 135.087 85.1786 135.692C85.5692 135.966 86.0184 136.103 86.5262 136.103C87.2391 136.093 87.9471 135.893 88.6503 135.502ZM94.1874 135.502L93.9823 135.062C93.3475 135.414 92.7469 135.59 92.1805 135.59C91.2333 135.59 90.5936 135.062 90.2616 134.008C90.1151 133.529 90.0419 132.978 90.0419 132.353C90.0419 130.868 90.4032 129.877 91.1259 129.379C91.4091 129.184 91.7264 129.086 92.078 129.086C92.83 129.096 93.4208 129.506 93.8505 130.316L94.3192 130.082C93.9872 129.311 93.4452 128.832 92.6932 128.646C92.5077 128.598 92.3173 128.573 92.1219 128.573C91.1259 128.573 90.3837 129.052 89.8954 130.009C89.5731 130.644 89.412 131.42 89.412 132.338C89.412 133.969 89.8466 135.087 90.7157 135.692C91.1063 135.966 91.5555 136.103 92.0634 136.103C92.7762 136.093 93.4843 135.893 94.1874 135.502ZM101.014 136.103C101.082 136.103 101.209 136.093 101.394 136.073L101.365 135.619C101.297 135.629 101.219 135.634 101.131 135.634C100.74 135.634 100.506 135.438 100.428 135.048C100.398 134.901 100.384 134.716 100.384 134.491V128.676H99.7977V132.982C99.7977 134.057 99.4657 134.828 98.8016 135.297C98.4891 135.521 98.1473 135.634 97.7762 135.634C97.0341 135.634 96.5409 135.277 96.2968 134.564C96.2089 134.301 96.1649 134.003 96.1649 133.671V128.676H95.579V133.715C95.579 134.936 96.0331 135.692 96.9413 135.985C97.1854 136.063 97.454 136.103 97.7469 136.103C98.6259 136.103 99.2802 135.702 99.7098 134.901C99.7391 134.843 99.7684 134.784 99.7977 134.726C99.8466 135.458 100.086 135.893 100.516 136.029C100.662 136.078 100.828 136.103 101.014 136.103ZM104.075 136.088C104.319 136.088 104.578 136.029 104.851 135.912L104.69 135.473C104.485 135.561 104.305 135.604 104.148 135.604C103.738 135.585 103.528 135.292 103.518 134.726V125.38H102.932V134.799C102.932 135.453 103.182 135.863 103.68 136.029C103.807 136.068 103.938 136.088 104.075 136.088ZM110.74 135.575L110.55 135.121C109.915 135.424 109.314 135.575 108.748 135.575C107.713 135.575 106.995 135.092 106.595 134.125C106.38 133.627 106.272 133.036 106.272 132.353V132.323H110.901V132.03C110.901 129.96 110.218 128.817 108.85 128.603C108.694 128.583 108.538 128.573 108.382 128.573C107.376 128.573 106.624 129.062 106.126 130.038C105.804 130.683 105.642 131.449 105.642 132.338C105.642 133.959 106.126 135.072 107.093 135.678C107.542 135.961 108.059 136.103 108.645 136.103C109.3 136.093 109.998 135.917 110.74 135.575ZM108.382 129.086C109.329 129.086 109.93 129.628 110.183 130.712C110.252 131.054 110.286 131.415 110.286 131.796L106.287 131.811C106.394 130.473 106.834 129.618 107.605 129.247C107.849 129.14 108.108 129.086 108.382 129.086ZM118.05 135.619C117.698 135.658 117.483 135.536 117.405 135.253C117.376 135.116 117.361 134.931 117.361 134.696V130.961C117.361 129.76 116.927 129.008 116.057 128.705C115.813 128.617 115.54 128.573 115.237 128.573C114.29 128.583 113.606 129.062 113.186 130.009L113.172 128.676H112.63V136H113.216V131.737C113.216 130.634 113.548 129.848 114.212 129.379C114.524 129.164 114.856 129.057 115.208 129.057C115.97 129.057 116.458 129.442 116.673 130.214C116.741 130.468 116.775 130.746 116.775 131.049V134.784C116.775 135.575 117.039 136.01 117.566 136.088C117.635 136.098 117.703 136.103 117.771 136.103C117.849 136.103 117.952 136.093 118.079 136.073L118.05 135.619ZM122.781 135.766L122.591 135.355C122.288 135.512 122.019 135.59 121.785 135.59C121.17 135.59 120.828 135.189 120.76 134.389C120.75 134.281 120.745 134.179 120.745 134.081V129.188H122.605V128.676H120.745V126.698H120.159V128.676H118.899V129.188H120.159V134.257C120.159 135.155 120.462 135.731 121.067 135.985C121.253 136.063 121.453 136.103 121.668 136.103C122.019 136.093 122.391 135.98 122.781 135.766Z" fill="#484848"/>
<path d="M58.0889 133.924V133.601C58.2344 133.601 58.4021 133.556 58.4021 133.211C58.4021 132.894 58.2471 132.436 58.0098 132.049C57.7789 131.671 57.5069 131.429 57.3203 131.429V131.106C57.7568 131.106 58.1364 131.645 58.2787 131.877C58.5507 132.32 58.7184 132.83 58.7184 133.211C58.7184 133.656 58.4843 133.924 58.0889 133.924Z" fill="#92B69A"/>
<path d="M58.2524 133.79L58.0589 133.534C57.9376 133.619 57.7703 133.686 57.5604 133.41C57.3701 133.16 57.2258 132.708 57.1897 132.261C57.1569 131.828 57.2389 131.473 57.3931 131.362L57.1996 131.106C56.8355 131.366 56.8421 132.014 56.8617 132.283C56.9011 132.793 57.0651 133.296 57.2947 133.597C57.5636 133.951 57.9212 134.021 58.2524 133.79Z" fill="#92B69A"/>
<path d="M61.5316 137.447C61.4522 137.447 61.3728 137.444 61.2901 137.44C59.1299 137.342 57.7934 136.16 57.3203 133.925L57.6412 133.846C57.8066 134.63 58.3061 136.98 61.3066 137.114C62.7853 137.176 64.0689 136.588 64.7338 135.532C65.2135 134.768 65.2797 133.872 64.9025 133.199C64.3832 132.271 63.6587 132.134 63.2716 132.134C62.7258 132.134 62.213 132.402 61.9914 132.797C61.6738 133.366 60.9526 133.869 60.1951 134.055C59.7187 134.17 59.0075 134.215 58.3293 133.774L58.5112 133.503C59.0902 133.879 59.7022 133.84 60.1157 133.738C60.7773 133.578 61.429 133.124 61.7003 132.64C61.9782 132.144 62.61 131.811 63.2716 131.811C64.0524 131.811 64.7537 132.261 65.1904 133.046C65.627 133.823 65.5576 134.846 65.015 135.709C64.3203 136.806 63.0301 137.447 61.5316 137.447Z" fill="#92B69A"/>
<path d="M60.6999 133.924L60.539 133.643C61.7594 133.007 62.0042 131.866 61.8298 131.01C61.6454 130.102 61.0017 129.415 60.2641 129.335C59.4762 129.249 58.8962 129.386 58.5475 129.741C58.1284 130.166 58.0177 130.907 58.2122 131.952L57.8836 132.01C57.6691 130.863 57.8099 130.025 58.3027 129.523C58.7285 129.092 59.4024 128.923 60.301 129.018C61.1928 129.118 61.9405 129.894 62.155 130.952C62.3562 131.917 62.0779 133.208 60.6999 133.924Z" fill="#92B69A"/>
<path d="M53.4869 139.795C53.0729 139.795 52.6523 139.748 52.2417 139.646C50.8872 139.315 49.9698 138.506 49.7215 137.427C49.4565 136.285 49.7811 135.25 50.6057 134.588C51.3475 133.993 52.3675 133.802 53.1392 134.114C53.9406 134.439 54.7652 134.117 55.5634 133.808C56.0535 133.617 56.7622 133.264 57.259 133.22L57.2888 133.538C56.8417 133.579 56.176 133.917 55.6892 134.104C54.8282 134.439 53.9373 134.782 53.01 134.41C52.3576 134.146 51.4568 134.324 50.8176 134.836C50.3904 135.18 49.7215 135.963 50.0427 137.364C50.2646 138.319 51.0958 139.041 52.3212 139.343C53.8115 139.709 55.4143 139.347 56.2224 138.462C57.7723 136.762 57.6862 134.999 57.6862 134.983L58.0174 134.964C58.0207 135.04 58.1167 136.867 56.4741 138.672C55.8151 139.385 54.6825 139.795 53.4869 139.795Z" fill="#92B69A"/>
<path d="M55.5131 134.159C53.7883 134.159 52.5757 133.165 52.242 131.45C52.0801 130.623 52.3378 129.685 52.8929 129.059C53.3522 128.543 53.9601 128.273 54.654 128.288C55.5725 128.304 56.0087 128.688 56.2168 129.006C56.5142 129.465 56.5241 130.123 56.24 130.68C55.751 131.645 56.5175 132.382 57.3204 132.989L57.1156 133.237C55.9294 132.344 55.5659 131.284 55.9426 130.544C56.1772 130.082 56.1739 129.544 55.936 129.173C55.7014 128.811 55.2586 128.613 54.6507 128.603C54.6375 128.603 54.6242 128.603 54.6143 128.603C53.8874 128.603 53.4182 128.962 53.1473 129.264C52.6517 129.821 52.427 130.654 52.5691 131.394C52.7211 132.18 53.3389 133.992 55.7906 133.835L55.8137 134.15C55.708 134.156 55.6122 134.159 55.5131 134.159Z" fill="#92B69A"/>
<path d="M61.3649 129.697L61.075 129.541C61.7281 128.438 61.8347 127.055 61.3416 126.016C61.105 125.517 60.6252 124.881 59.6657 124.687C58.6495 124.48 57.6499 124.712 56.9269 125.323C56.0806 126.035 55.6841 127.198 55.814 128.591L55.4809 128.619C55.3443 127.122 55.7807 125.866 56.707 125.084C57.51 124.407 58.6161 124.15 59.739 124.375C60.6053 124.55 61.265 125.075 61.6481 125.885C62.1779 127.011 62.0679 128.508 61.3649 129.697Z" fill="#92B69A"/>
<path d="M60.1639 143.318C59.3356 143.318 58.6071 143.023 58.0316 142.449C56.9771 141.396 56.5879 139.545 57.0403 137.733L57.363 137.81C56.9439 139.49 57.3065 141.263 58.2711 142.222C58.9464 142.897 59.8612 143.133 60.919 142.91C61.9635 142.686 62.6254 141.979 62.7785 140.919C62.9814 139.509 62.2329 137.833 61.1452 137.262L61.3015 136.977C62.5223 137.619 63.334 139.405 63.1078 140.965C62.9348 142.17 62.183 142.971 60.9922 143.227C60.7061 143.286 60.43 143.318 60.1639 143.318Z" fill="#92B69A"/>
<path d="M53.2385 134.629C52.0424 134.296 51.0125 133.476 50.4161 132.378C49.8294 131.3 49.7056 130.082 50.0673 128.949C50.5138 127.557 51.7881 127.089 52.7496 127.115C53.7566 127.14 54.5617 127.641 54.7572 128.368L54.4411 128.452C54.2846 127.867 53.6035 127.46 52.7431 127.441C51.8533 127.415 50.7713 127.832 50.3802 129.052C50.0445 130.102 50.1586 131.229 50.7029 132.23C51.2602 133.25 52.2151 134.015 53.3264 134.325L53.2385 134.629Z" fill="#92B69A"/>
<path d="M50.7022 138.856C48.5139 138.518 47.8892 136.975 48.0155 135.76C48.1623 134.377 49.3333 132.929 51.2621 132.987L51.2519 133.305C49.5313 133.258 48.49 134.517 48.3569 135.789C48.2442 136.87 48.8041 138.238 50.7603 138.54L50.7022 138.856Z" fill="#92B69A"/>
<path d="M55.139 142.614C54.7699 142.614 54.4076 142.528 54.0655 142.356C53.0361 141.84 52.4706 140.662 52.7178 139.561L53.0497 139.63C52.833 140.589 53.3274 141.611 54.2213 142.058C55.2033 142.551 56.3241 142.223 57.3028 141.165L57.5533 141.386C56.8118 142.193 55.9618 142.614 55.139 142.614Z" fill="#92B69A"/>
<path d="M64.9892 140.735C64.2992 140.735 63.5894 140.476 62.9126 139.965L63.113 139.713C64.309 140.617 65.3046 140.489 65.9289 140.221C66.8653 139.818 67.4074 138.94 67.46 138.279C67.5323 137.382 67.3089 136.58 66.8456 136.079C66.4579 135.66 65.9091 135.437 65.2126 135.418L65.2224 135.098C66.011 135.121 66.6419 135.379 67.092 135.865C67.8083 136.641 67.8378 137.727 67.7918 138.305C67.7196 139.186 66.9934 140.115 66.0636 140.514C65.7153 140.661 65.3539 140.735 64.9892 140.735Z" fill="#92B69A"/>
<path d="M66.9428 135.803L66.8286 135.505C67.5171 135.268 68.0074 134.517 68.1383 133.495C68.2962 132.263 67.8764 131.066 67.1208 130.585C66.2443 130.028 65.079 129.866 64.0816 130.157C63.4301 130.347 62.5502 130.822 62.0599 131.997L61.7476 131.88C62.2849 130.588 63.2588 130.066 63.9808 129.853C65.0722 129.534 66.3484 129.711 67.3055 130.319C68.313 130.959 68.6152 132.39 68.4708 133.526C68.3231 134.676 67.7521 135.524 66.9428 135.803Z" fill="#92B69A"/>
<path d="M65.4365 129.932L65.1204 129.853C65.6255 127.971 65.3941 126.673 64.4654 126.2C63.6539 125.787 62.5329 126.152 61.992 126.751L61.7476 126.543C62.3667 125.856 63.6409 125.421 64.6185 125.919C65.2409 126.238 66.1762 127.18 65.4365 129.932Z" fill="#92B69A"/>
</g>
</g>
<defs>
<filter id="filter0_d" x="23.1" y="63" width="277.424" height="153.222" filterUnits="userSpaceOnUse" color-interpolation-filters="sRGB">
<feFlood flood-opacity="0" result="BackgroundImageFix"/>
<feColorMatrix in="SourceAlpha" type="matrix" values="0 0 0 0 0 0 0 0 0 0 0 0 0 0 0 0 0 0 127 0" result="hardAlpha"/>
<feOffset dy="5"/>
<feGaussianBlur stdDeviation="2.5"/>
<feColorMatrix type="matrix" values="0 0 0 0 0 0 0 0 0 0 0 0 0 0 0 0 0 0 0.25 0"/>
<feBlend mode="normal" in2="BackgroundImageFix" result="effect1_dropShadow"/>
<feBlend mode="normal" in="SourceGraphic" in2="effect1_dropShadow" result="shape"/>
</filter>
<clipPath id="clip0">
<rect width="297" height="270" fill="white"/>
</clipPath>
</defs>
</svg>
