<svg width="44" height="41" fill="none" xmlns="http://www.w3.org/2000/svg"><path d="M16.295.191a1.347 1.347 0 01.642 1.35 1.34 1.34 0 01-.178.494L9.887 13.438h24.925L27.937 2.035A1.34 1.34 0 0128.4.19a1.355 1.355 0 011.852.462l7.706 12.785h3.285c.716 0 1.403.283 1.909.787s.79 1.188.79 1.9v2.688a2.68 2.68 0 01-.79 1.9 2.705 2.705 0 01-1.909.787v12.094a6.7 6.7 0 01-1.977 4.751 6.763 6.763 0 01-4.771 1.968H10.203a6.763 6.763 0 01-4.772-1.968 6.704 6.704 0 01-1.976-4.75V21.5a2.705 2.705 0 01-1.909-.787 2.682 2.682 0 01-.79-1.9v-2.688c0-.712.284-1.396.79-1.9a2.705 2.705 0 011.909-.787H6.74L14.44.653a1.347 1.347 0 011.356-.638c.176.025.344.085.496.176h.003zM6.154 21.501v12.093c0 1.07.426 2.095 1.186 2.85a4.055 4.055 0 002.863 1.181h24.293a4.058 4.058 0 002.863-1.18 4.022 4.022 0 001.186-2.85V21.5H6.154zm-2.7-5.376v2.688h37.79v-2.688H3.454zm8.098 8.063a1.341 1.341 0 011.35 1.343v8.063c0 .356-.142.698-.395.95a1.353 1.353 0 01-2.304-.95v-8.062a1.348 1.348 0 011.349-1.344zm5.399 0a1.341 1.341 0 011.349 1.343v8.063c0 .356-.142.698-.395.95a1.353 1.353 0 01-2.304-.95v-8.062c0-.357.142-.699.395-.95.254-.253.597-.394.955-.394zm5.398 0a1.341 1.341 0 011.35 1.343v8.063c0 .356-.142.698-.395.95a1.352 1.352 0 01-2.304-.95v-8.062a1.348 1.348 0 011.349-1.344zm5.399 0a1.341 1.341 0 011.349 1.343v8.063c0 .356-.142.698-.395.95a1.353 1.353 0 01-2.304-.95v-8.062a1.348 1.348 0 011.35-1.344zm5.398 0a1.341 1.341 0 011.35 1.343v8.063c0 .356-.142.698-.395.95a1.353 1.353 0 01-2.304-.95v-8.062a1.348 1.348 0 011.349-1.344z" fill="#92B69A"/></svg>