<svg width="88" height="81" fill="none" xmlns="http://www.w3.org/2000/svg"><path d="M43.299 41v-1.375c.624 0 1.343-.192 1.343-1.663 0-1.347-.665-3.299-1.683-4.948-.99-1.609-2.158-2.64-2.959-2.64V29c1.873 0 3.502 2.296 4.113 3.285C45.281 34.168 46 36.34 46 37.962 46 39.86 44.995 41 43.299 41z" fill="#92B69A"/><path d="M44 40.43l-.83-1.093c-.521.364-1.24.647-2.14-.525-.816-1.065-1.436-2.992-1.59-4.893-.142-1.846.21-3.356.872-3.827L39.482 29c-1.563 1.105-1.535 3.868-1.45 5.014.169 2.17.872 4.313 1.858 5.593 1.154 1.51 2.688 1.806 4.11.822z" fill="#92B69A"/><path d="M58.073 56c-.34 0-.681-.014-1.036-.028-9.271-.417-15.007-5.454-17.037-14.97l1.377-.334c.71 3.339 2.854 13.343 15.73 13.913 6.347.264 11.856-2.24 14.71-6.734 2.058-3.256 2.342-7.068.724-9.934-2.23-3.951-5.339-4.536-7-4.536-2.342 0-4.543 1.141-5.494 2.825-1.363 2.42-4.458 4.563-7.71 5.356-2.044.487-5.096.682-8.007-1.196l.781-1.155c2.485 1.6 5.111 1.433 6.886 1.002 2.84-.682 5.636-2.616 6.8-4.675C59.99 33.419 62.702 32 65.541 32c3.35 0 6.36 1.92 8.235 5.26 1.874 3.31 1.576 7.665-.753 11.338C70.042 53.273 64.505 56 58.073 56z" fill="#92B69A"/><path d="M54.504 41l-.69-1.198c5.237-2.708 6.287-7.566 5.54-11.213-.792-3.865-3.555-6.79-6.72-7.131-3.382-.367-5.871.218-7.368 1.728-1.798 1.81-2.273 4.967-1.438 9.417l-1.41.245c-.922-4.885-.317-8.45 1.798-10.587 1.827-1.837 4.72-2.558 8.576-2.15 3.827.422 7.036 3.729 7.957 8.233.863 4.11-.331 9.608-6.245 12.656zM23.548 66c-1.777 0-3.582-.203-5.344-.637-5.813-1.41-9.75-4.852-10.816-9.446-1.137-4.866.256-9.27 3.795-12.09 3.183-2.534 7.56-3.347 10.872-2.019 3.44 1.383 6.98.014 10.404-1.3 2.104-.814 5.145-2.318 7.277-2.508l.128 1.355c-1.918.177-4.775 1.613-6.864 2.413-3.696 1.423-7.52 2.886-11.499 1.3-2.8-1.124-6.666-.365-9.409 1.817-1.833 1.464-4.704 4.797-3.326 10.76.953 4.066 4.52 7.143 9.779 8.43 6.396 1.56 13.275.014 16.743-3.754 6.652-7.237 6.282-14.745 6.282-14.813l1.421-.081c.014.325.427 8.105-6.623 15.789C33.54 64.252 28.678 66 23.548 66z" fill="#92B69A"/><path d="M32.243 42c-7.402 0-12.606-4.233-14.038-11.534-.695-3.523.411-7.515 2.794-10.181 1.97-2.197 4.58-3.35 7.558-3.282 3.942.067 5.814 1.701 6.707 3.054 1.276 1.956 1.319 4.756.1 7.127-2.1 4.113 1.19 7.247 4.636 9.833l-.88 1.058c-5.09-3.805-6.65-8.32-5.033-11.467 1.007-1.97.992-4.26-.029-5.84-1.006-1.541-2.907-2.385-5.516-2.426h-.156c-3.12 0-5.133 1.527-6.296 2.814-2.127 2.37-3.09 5.92-2.481 9.069.652 3.349 3.304 11.065 13.826 10.395l.099 1.34c-.454.027-.865.04-1.29.04z" fill="#92B69A"/><path d="M57.358 23l-1.244-.663c2.803-4.697 3.26-10.586 1.144-15.012-1.015-2.125-3.075-4.832-7.193-5.658-4.361-.88-8.65.108-11.754 2.707-3.632 3.032-5.333 7.987-4.776 13.915l-1.43.122C31.52 12.036 33.392 6.69 37.368 3.36 40.814.476 45.56-.621 50.38.34c3.718.745 6.549 2.978 8.193 6.43 2.274 4.792 1.802 11.167-1.215 16.23zm-5.155 58c-3.554 0-6.68-1.256-9.15-3.7-4.526-4.486-6.196-12.367-4.255-20.084l1.385.332c-1.799 7.15-.243 14.7 3.897 18.786 2.898 2.871 6.824 3.88 11.364 2.927 4.483-.953 7.324-3.962 7.98-8.476.871-6.004-2.341-13.14-7.01-15.57L57.087 54c5.24 2.733 8.722 10.339 7.752 16.978-.743 5.136-3.97 8.545-9.08 9.636-1.228.248-2.413.386-3.555.386zM22.482 44a19.93 19.93 0 01-12.113-9.584C7.852 29.824 7.32 24.64 8.873 19.814c1.916-5.926 7.385-7.92 11.511-7.81 4.322.11 7.777 2.242 8.616 5.335l-1.357.358c-.671-2.489-3.594-4.221-7.287-4.304-3.819-.11-8.462 1.664-10.14 6.861-1.441 4.469-.952 9.267 1.384 13.53 2.392 4.345 6.49 7.604 11.26 8.924L22.482 44z" fill="#92B69A"/><path d="M11.597 62C2.206 60.561-.476 53.99.067 48.818.696 42.926 5.721 36.763 14 37.007l-.044 1.358C6.572 38.16 2.103 43.523 1.532 48.94c-.484 4.602 1.919 10.426 10.314 11.716L11.597 62zm19.041 16a10.25 10.25 0 01-4.607-1.099c-4.417-2.197-6.844-7.21-5.783-11.901l1.424.296c-.93 4.084 1.191 8.436 5.028 10.338 4.214 2.098 9.025.704 13.225-3.803l1.075.944C37.817 76.21 34.17 78 30.638 78zm42.274-8c-2.961 0-6.007-1.101-8.912-3.277l.86-1.074c5.133 3.848 9.406 3.304 12.085 2.162 4.019-1.714 6.345-5.453 6.571-8.268.31-3.82-.649-7.234-2.637-9.368-1.664-1.782-4.019-2.734-7.008-2.815l.042-1.36c3.384.095 6.092 1.197 8.024 3.263 3.074 3.305 3.2 7.928 3.003 10.39-.31 3.752-3.426 7.709-7.417 9.409a11.888 11.888 0 01-4.611.938z" fill="#92B69A"/><path d="M81.296 49l-.49-1.267c2.955-1.011 5.06-4.207 5.621-8.562.678-5.244-1.124-10.34-4.367-12.39-3.761-2.373-8.763-3.06-13.043-1.82-2.796.809-6.572 2.831-8.677 7.833L59 32.295c2.306-5.5 6.486-7.725 9.584-8.628 4.684-1.362 10.161-.607 14.269 1.982 4.324 2.723 5.62 8.817 5.001 13.657C87.22 44.2 84.77 47.814 81.296 49z" fill="#92B69A"/><path d="M74.832 24l-1.357-.335c2.168-8.013 1.175-13.543-2.811-15.556-3.483-1.759-8.294-.202-10.615 2.348L59 9.572c2.657-2.926 8.126-4.778 12.321-2.658 2.672 1.356 6.685 5.369 3.51 17.086z" fill="#92B69A"/></svg>