<svg width="30" height="30" fill="none" xmlns="http://www.w3.org/2000/svg"><path d="M6.852 2.99a1.26 1.26 0 00-.41-.33 1.312 1.312 0 00-1.493.217L3.01 4.74c-.905.872-1.24 2.105-.844 3.186C3.808 12.404 6.48 16.47 9.981 19.82c3.491 3.362 7.726 5.926 12.39 7.503 1.127.38 2.411.06 3.319-.81l1.938-1.862c.128-.122.227-.269.29-.43a1.176 1.176 0 00-.064-1.003 1.232 1.232 0 00-.344-.393l-4.326-3.23a1.324 1.324 0 00-1.087-.22l-4.106.985a3.403 3.403 0 01-1.667-.02 3.305 3.305 0 01-1.44-.806l-4.605-4.422a3.11 3.11 0 01-.84-1.382 3.02 3.02 0 01-.022-1.6l1.027-3.943a1.173 1.173 0 00-.228-1.044L6.852 2.991zM3.533 1.52A3.29 3.29 0 014.69.803a3.396 3.396 0 012.686.161c.41.208.77.498 1.055.85l3.363 4.15a3.04 3.04 0 01.59 2.69l-1.025 3.941c-.053.205-.05.418.009.621.058.203.17.388.325.537l4.607 4.422c.155.15.348.257.56.313.211.056.434.059.647.008l4.104-.985a3.403 3.403 0 011.47-.026c.484.098.94.3 1.332.593l4.323 3.23c1.555 1.16 1.697 3.365.306 4.699l-1.939 1.861c-1.387 1.332-3.461 1.917-5.394 1.264-4.948-1.672-9.44-4.39-13.143-7.956C4.852 17.62 2.019 13.309.278 8.56-.4 6.706.21 4.713 1.596 3.38l1.94-1.86h-.003z" fill="#45594F"/></svg>