<svg width="39" height="40" fill="none" xmlns="http://www.w3.org/2000/svg"><path d="M28.797 25.858c2.32-3.304 3.36-7.4 2.91-11.468-.45-4.069-2.355-7.81-5.336-10.476-2.98-2.666-6.815-4.06-10.738-3.902C11.711.17 7.99 1.867 5.215 4.764 2.44 7.661.816 11.544.668 15.638c-.149 4.092 1.19 8.093 3.747 11.2 2.557 3.108 6.144 5.093 10.045 5.56 3.9.466 7.825-.621 10.99-3.045h-.003c.072.1.148.195.235.288l9.226 9.626c.45.47 1.059.733 1.694.733.636 0 1.246-.263 1.695-.732.45-.469.703-1.105.703-1.768s-.252-1.3-.701-1.768l-9.226-9.626a2.45 2.45 0 00-.276-.25v.002zm.618-9.611c0 1.806-.34 3.594-1.003 5.262a13.807 13.807 0 01-2.857 4.462 13.159 13.159 0 01-4.276 2.98 12.705 12.705 0 01-5.044 1.047 12.71 12.71 0 01-5.044-1.046 13.159 13.159 0 01-4.276-2.981 13.807 13.807 0 01-2.857-4.462 14.27 14.27 0 01-1.003-5.262c0-3.647 1.389-7.145 3.86-9.724 2.472-2.579 5.825-4.027 9.32-4.027 3.496 0 6.848 1.448 9.32 4.027 2.472 2.58 3.86 6.077 3.86 9.724z" fill="#45594F"/></svg>