<svg width="400" height="400" fill="none" xmlns="http://www.w3.org/2000/svg"><path d="M252.561 76.99c2.981-21.053-10.979-40.607-31.182-43.674-20.203-3.068-38.998 11.511-41.98 32.564-2.982 21.053 10.979 40.607 31.182 43.675 20.203 3.068 38.998-11.512 41.98-32.565z" fill="#545251"/><path d="M278.436 253L299 234.235a336.005 336.005 0 00-25.119-64.011c-4.865-9.359-9.862-17.988-14.904-25.841-7.253-2.694-15.125-1.416-20.564 3.515-5.263 4.794-6.236 11.232-6.413 13.013 15.523 30.681 30.957 61.408 46.436 92.089zm-176.701 4c-6.23-6.809-12.504-13.618-18.735-20.473 6.889-18.385 16.541-39.357 30.275-61.101a316.749 316.749 0 0116.892-24.241c11.145-12.619 25.668-13.391 30.45-8.08 4.256 4.721 2.984 16.705-5.221 26.919-17.902 29.007-35.759 58.014-53.661 86.976z" fill="#E6BBA4"/><path d="M267 362.731c-.044.046-.132.046-.176.137-1.581 1.045-3.426 2.317-5.622 3.681a124.959 124.959 0 01-8.741 4.908 53.973 53.973 0 01-3.602 1.817c-4.919 2.363-10.542 4.726-16.867 6.726h-81.479c-8.082-2.59-14.627-5.59-19.371-7.953-.439-.227-.791-.454-1.142-.636.044-1.5.132-3.09.22-4.862.483-6.953 1.449-16.087 3.645-26.494 3.426-16.451 8.39-29.13 11.289-35.81 1.186-2.772 1.493-3.272 2.02-4.635a42.201 42.201 0 002.987-10.407c.879-5.771.703-11.588.044-17.95-.703-6.907-1.976-14.406-3.075-22.904-.307-2.499-.614-4.953-.834-7.498-.308-2.59-.527-5.317-.791-7.998-.527-6.271-1.01-12.543-1.581-18.814-.132-1.409-.176-2.863-.308-4.272-.131-1.045-.175-2.045-.219-3.09-.176-1.817-.351-3.59-.483-5.408-.791-8.452-1.626-16.405-2.68-23.221-.219-1.136-.439-2.182-.615-3.227-.351-1.636-.658-3.181-1.01-4.59a81.426 81.426 0 01-.878-5.998c-.703-6.726-.352-14.133 2.943-20.177.307-.546.658-1.182 1.098-1.727 8.741-6.044 20.161-3.272 28.814-10.361.132-.046.22-.182.308-.228 8.653-1.181 15.768-.681 20.6-.318 10.366.818 16.252 2.863 20.864 4.636 1.845.727 3.47 1.408 5.139 1.999.835.318 1.757.545 2.636.727 1.801.5 3.733.818 6.061.818 1.45 0 3.075-.045 4.876-.318.307 0 .527-.045.703-.045.527-.046 1.01-.137 1.493-.182 3.294-.455 6.105-.727 8.653-.864 1.801-.045 3.426 0 4.964.319 2.24.363 4.304 1.136 6.544 2.408.132.046.22.136.352.182.703.5 1.757 1.136 2.943 2.317.307.228.615.546.966.909 1.845 1.909 3.821 4.908 5.534 9.498a46.512 46.512 0 011.757 6.499c.044.181.044.227.132.363-.044.182-.132.455-.175.636a930.485 930.485 0 01-6.238 19.723 15.767 15.767 0 01-.483 1.545c-.703 2.227-1.449 4.408-2.152 6.635-.308.954-.615 1.863-.879 2.772a459.38 459.38 0 00-2.416 7.089c-.219.682-.483 1.363-.702 2.091-.044.136-.132.318-.176.499-.483 1.364-.966 2.773-1.493 4.227-.044.363-.176.681-.308 1-.703 2.044-1.449 4.18-2.24 6.225a877.586 877.586 0 01-9.488 25.949c-.527 1.499-1.098 2.908-1.625 4.362-.791 2-1.581 3.954-2.328 5.954-.22.727-.527 1.499-.834 2.226-.703 1.818-1.45 3.59-2.109 5.317-.132.227-.175.455-.307.636-.22.637-.483 1.227-.703 1.864-.308.727-.527 1.408-.835 2.09a290.972 290.972 0 01-3.074 7.498c-1.011 2.591-2.109 5.135-3.163 7.68-.22.546-.439 1.136-.703 1.682-.044.181-.131.363-.175.545a65.525 65.525 0 01-1.098 2.545c4.743 3.908 10.849 9.634 17.218 17.268 5.271 6.499 10.761 14.361 15.549 23.768 1.362 2.726 2.635 5.407 3.646 7.998 5.051 11.679 7.555 22.267 8.96 30.493.044.545.132 1.136.22 1.726z" fill="#E5BBA4"/><path d="M152.5 212c10.217 0 18.5-8.73 18.5-19.5s-8.283-19.5-18.5-19.5-18.5 8.73-18.5 19.5 8.283 19.5 18.5 19.5zm58 0c10.217 0 18.5-8.73 18.5-19.5s-8.283-19.5-18.5-19.5-18.5 8.73-18.5 19.5 8.283 19.5 18.5 19.5z" fill="#F78888"/><path d="M132 164c1.975-.046 3.907-.137 5.882-.182 42.358-1.321 84.76-2.642 127.118-3.917-.922-5.648-3.204-13.346-9.262-19.04-8.383-7.834-17.953-2.733-32.13-11.66-5.882-3.69-9.525-7.743-10.798-9.292-6.892-8.062-9.525-16.808-10.667-21.909-8.998 1.184-17.997 2.323-26.995 3.507-2.151 16.99-3.862 29.425-4.038 29.561-.132.091-.263.228-.439.365-8.603 7.06-20.016 4.327-28.751 10.385-1.361.911-2.634 2.095-3.863 3.507-5.091 6.012-5.969 13.756-6.057 18.675z" fill="#E6BBA4"/><path d="M194 137.59c-1.124 1.856-2.897 2.74-4.584 2.298-2.421-.663-3.33-3.667-3.416-3.888l8 1.59z" fill="#545251"/><path d="M221.459 281.255c-23.682 2.597-47.408 5.148-71.089 7.745-2.062-25.101-4.079-50.248-6.14-75.35-2.544-1.275-7.28-4.146-10.043-9.794-4.342-8.793-2.105-20.592 5.701-29.521 10.438-14.441 20.875-28.928 31.313-43.369 2.368 11.389 10.13 20.272 19.384 22.049 12.893 2.551 28.199-8.747 30.348-27.015A61396.91 61396.91 0 00254 206.452c-10.832 24.919-21.709 49.839-32.541 74.803z" fill="#545251"/><path d="M234.908 281.457a133.601 133.601 0 0119.271 30.014c11.325 24.239 12.905 46.75 12.818 59.892-47.014.228-93.983.455-140.997.637a298.737 298.737 0 0111.106-63.485 289.577 289.577 0 0110.623-30.469c-6.453-19.145-13.608-51.206-2.458-84.813 1.448-4.32 3.072-8.413 4.872-12.233 6.365 3.684 16.374 8.459 29.411 10.505 18.92 2.956 34.196-1.41 41.966-4.275 4.477 31.424 8.911 62.848 13.388 94.227z" fill="#fff"/><path d="M148.625 192a1.34 1.34 0 01-.609-.137c-.826-.366-1.218-1.371-.913-2.24l22.749-58.555c.348-.869 1.305-1.28 2.132-.96.826.366 1.218 1.371.913 2.24l-22.749 58.555c-.261.686-.87 1.097-1.523 1.097zm72.692 1c-.954 0-1.681-.772-1.726-1.681L219 124.726c0-.954.727-1.726 1.681-1.726.954 0 1.726.772 1.726 1.681l.591 66.593c.045.954-.681 1.726-1.681 1.726.045 0 .045 0 0 0z" fill="#fff"/><path d="M229 258.019c1.18 3.397 2.404 6.794 3.585 10.191 31.301 7.988 57.618 3.076 65.4-12.164 1.443-2.801 3.803-18.638 2.754-24.055-1.355-6.748-4.809-11.155-6.47-12.991a280.17 280.17 0 00-6.994 4.407c-22.165 14.46-28.242 23.641-44.286 30.343A73.47 73.47 0 01229 258.019z" fill="#E6BBA4"/><path d="M360.582 210.288c2.429 9.627-6.314 21.455-11.083 20.675-3.753-.641-.441-6.738-7.285-17.466-7.418-11.69-19.207-16.962-18.147-19.391 1.015-2.43 11.038-.504 18.456 2.384 7.948 3.071 16.116 6.234 18.059 13.798zm-32.036-91.289c-1.646.09-1.819-4.16-6.931-9.133-4.246-4.16-6.888-3.934-7.495-6.195-1.559-5.787 12.477-18.266 17.935-15.191 6.628 3.753.563 30.338-3.509 30.519zm-40.661 22.181c-1.359 22.474-14.998 46.087-24.646 44.767-9.516-1.274-14.69-26.615-14.208-44.767.57-21.292 9.385-48.089 19.427-48.18 9.823-.09 20.787 25.432 19.427 48.18z" fill="#92B69A"/><path d="M265.298 162.33c-2.887 10.994-7.174 19.036-9.449 22.943-.175.227-.35.5-.481.727-.831-1.136-1.663-2.226-2.45-3.271-2.494-3.271-4.593-6.452-6.474-9.359-3.806-5.907-7.219-11.222-10.106-17.492-.306-.681-.612-1.363-.875-2.09a117.825 117.825 0 01-1.925-5.225c-.875-2.726-1.968-6.088-2.668-10.04a16.078 16.078 0 01-.35-2.545 29.594 29.594 0 01-.307-2.089c-.612-6.724.132-13.539 1.75-19.718.175-.636.35-1.227.525-1.863.788-2.771 1.794-5.407 2.8-7.814.306-.546.612-1.136.831-1.636 3.062-6.043 6.825-10.359 10.499-11.495.7-.227 1.357-.363 2.013-.363.306 0 .656 0 1.006.136.831.137 1.837.455 2.931 1.227 2.931 4.089 7.043 10.813 10.281 19.672.306.818.612 1.636.831 2.408a86.86 86.86 0 012.275 8.269c.175.727.35 1.545.481 2.363.306 1.499.525 3.044.787 4.634 1.706 12.585.394 23.625-1.925 32.621zM374 158.532c-.22.045-.527.181-.791.226a530.79 530.79 0 01-27.895 8.469c-.703.227-1.362.453-2.109.544-4.261 1.223-8.478 2.31-12.608 3.351-.439.136-.791.227-1.142.317-1.318.363-2.592.68-3.91.997-2.108.498-4.217.996-6.238 1.494a142.09 142.09 0 00-5.93 1.132c-5.755.861-11.29 1.314-16.914.544-3.734-.498-7.38-1.404-11.158-2.989a51.033 51.033 0 01-2.943-1.404c-.527-.227-1.011-.498-1.362-.679.22-.544 1.142-2.356 2.636-4.892 2.152-3.396 5.579-8.152 10.455-12.726.132-.045.176-.136.22-.226.878-.861 1.933-1.721 2.987-2.582.044-.045.176-.136.22-.181 6.282-5.208 14.585-9.647 25.04-11.322 1.362-.181 2.767-.363 4.085-.499.659-.045 1.362-.135 2.021-.045 4.701-.226 9.05.181 13.091 1.132.615.046 1.143.227 1.67.363 3.47.86 6.677 2.038 9.532 3.396.615.227 1.187.544 1.758.816 7.512 3.759 13.003 8.469 16.21 11.548 1.801 1.721 2.811 2.989 3.075 3.216z" fill="#45594F"/><path d="M360.863 211.387c0 .045-.044.182-.132.228-.528.732-1.848.366-4.048-.64-3.343-1.555-8.754-4.664-16.629-7.865-.527-.229-1.143-.503-1.759-.686a75.224 75.224 0 00-8.667-2.927c-.528-.183-1.011-.366-1.583-.503-1.012-.32-2.112-.64-3.168-.869a129.853 129.853 0 00-4.971-1.235c-.528-.045-1.1-.182-1.584-.228-9.634-2.058-18.212-2.607-25.295-2.698-2.156 0-4.135.046-6.027.137.044-.137.132-.32.176-.503 1.188-3.613 3.959-10.929 8.886-17.011 3.124-3.796 7.083-7.134 12.01-8.689 3.916-1.189 7.875-1.143 11.834-.183a34.621 34.621 0 0110.294 4.39c3.608 2.195 6.951 4.893 10.162 7.82.484.457.924.823 1.32 1.326 2.684 2.607 5.235 5.442 7.523 8.231.484.549.88 1.144 1.32 1.692 7.082 9.1 11.306 17.835 10.338 20.213zM330.973 89.28c.175 4.943-.44 9.93-3.338 11.563-2.459 1.497-4.61-.453-7.245.318-1.186.317-2.24 1.043-3.074 2.176a5.75 5.75 0 00-.922 1.315c-1.098 1.859-1.844 4.217-2.503 6.893-.132.499-.22.997-.307 1.496-.703 3.174-1.186 6.575-1.669 9.659-.044.544-.132 1.043-.219 1.542-.308 1.813-.527 3.446-.879 4.897a32.378 32.378 0 01-2.283 6.756c-.22.544-.527 1.179-.878 1.814-2.02 4.036-5.094 8.298-9.661 12.652-.044.045-.176.136-.219.181-1.098.862-2.108 1.723-2.986 2.585-.044.136-.132.181-.22.226-5.401 4.535-12.471 9.024-21.736 13.423-.834.453-1.669.861-2.503 1.224l-.703-.726c-.483-.498-1.009-1.179-1.58-1.904a17.172 17.172 0 01-1.581-2.766c-4.391-8.979-2.415-21.131 1.976-32.513 2.635-6.983 6.104-13.558 9.616-19 .483-.725.966-1.496 1.449-2.176.22-.363.484-.68.703-1.043 1.273-1.814 2.591-3.719 4.128-5.714a38.84 38.84 0 012.02-2.72c6.103-7.664 14.271-15.055 25.776-16.28 7.157-.725 13.261 1.18 17.345 2.903l1.449.68c0 .816.044 1.677.044 2.54z" fill="#45594F"/><path d="M256.927 145.819a4492.05 4492.05 0 01-.662 39.312c-.221 9.114-.485 18.818-.794 28.929-.044.907-.044 1.905-.132 2.857 0 1.043 0 2.04-.045 3.083h-.706l-2.294-.136c.044-2.176.133-4.353.177-6.439.309-10.837.617-21.175.838-30.833.221-13.875.485-26.344.618-36.863.176-10.021.353-23.715-3.486-41.444A163.24 163.24 0 00247 91.363c.706-.227 1.368-.363 2.029-.363.309 0 .662 0 1.015.136 1.28 4.08 2.339 8.298 3.309 12.515 3.927 18.091 3.75 31.966 3.574 42.168z" fill="#92B69A"/><path d="M330 89.226c-1.667-.318-2.501.046-2.895.364-.527.363-.658 1-.966 1.908-.307 1.182-.658 2.59-2.018 3.726-2.676 2.318-6.229.818-9.651-.636-2.149-.909-4.431-1.863-6.492-1.863-2.106 0-4.563 1-8.072 5.771-3.466 4.726-8.029 13.223-14.258 28.173-6.405 15.541-10.792 29.4-13.863 40.169a1179.184 1179.184 0 00-3.071 11.224l-.965 3.862a5542.177 5542.177 0 00-9.3 34.717c-1.185 4.453-2.413 8.951-3.554 13.359l-2.895-.727c.79-2.863 1.492-5.771 2.281-8.634.22-.999.483-1.999.79-2.999.219-.999.483-1.863.702-2.726a6184.417 6184.417 0 019.037-33.808l.965-3.726c.79-2.862 1.667-6.225 2.764-9.951 3.071-11.042 7.545-25.583 14.301-41.896 12.328-29.809 18.776-35.807 25.05-35.807 2.676 0 5.352 1.136 7.677 2.09 2.808 1.182 5.264 2.181 6.668 1.046.614-.455.79-1.046 1.009-2.09.307-1.137.658-2.545 1.974-3.59A5.299 5.299 0 01328.377 86l1.447.682c.132.817.176 1.68.176 2.544z" fill="#92B69A"/><path d="M374 158.909c-.219.045-.526.181-.789.227-8.858-1.545-17.847-2.408-26.661-2.68-24.249-.818-49.462-1.545-64.02 15.126-.132.045-.175.182-.307.318-2.105 2.498-3.245 4.451-5.437 8.358-6.271 10.992-10.349 23.166-11.971 36.248-.132.863-.219 1.68-.307 2.544-.219 1.998-.351 3.951-.482 5.95l-1.272-.045-1.754-.046c.132-2.226.307-4.451.526-6.632 1.579-14.354 5.744-27.617 12.629-39.609 2.28-3.907 3.464-6.087 5.788-8.812a38.523 38.523 0 013.771-3.861c15.698-14.127 39.596-13.4 62.836-12.673 8.068.227 16.225.999 24.337 2.225 1.841 1.863 2.85 3.135 3.113 3.362z" fill="#92B69A"/><path d="M361 210.048c0 .045-.044.18-.132.225-.528.721-1.849.361-4.05-.631-18.4-24.243-32.354-35.013-41.554-32.084-2.421.811-4.578 2.524-7.528 5.002-3.389 2.839-7.703 6.444-14.614 10.274a73.618 73.618 0 01-4.974 2.569 145.731 145.731 0 01-4.622 2.073c-2.157.901-3.478 1.487-5.415 2.884-5.37 4.01-9.2 10.094-11.533 18.205-.66 2.343-1.189 4.821-1.629 7.435l-2.949-.496c.044-.45.132-.856.22-1.306a55.008 55.008 0 011.321-5.904c.176-.811.44-1.622.704-2.388 2.509-7.931 6.559-14.014 12.105-18.025 2.245-1.667 3.742-2.298 6.031-3.244 1.189-.541 2.641-1.127 4.49-2.028.132-.045.308-.135.44-.18 9.332-4.551 14.659-9.058 18.577-12.257 2.597-2.208 4.754-4.011 7.175-5.047.528-.225.88-.451 1.32-.541 1.453-.495 2.994-.676 4.622-.541 10.609.541 24.387 12.438 41.995 36.005zm-106-91.581l-.495 1.533c-.225-.046-.54-.186-.811-.325-2.971-1.022-5.718-2.555-8.239-4.366-4.412-3.252-7.429-7.107-9.455-10.637.315-.557.63-1.161.855-1.672 1.982 3.623 4.908 7.664 9.545 11.055 2.162 1.579 4.548 2.926 7.069 3.855.495.139 1.036.371 1.531.557zm0 7.965l-.131 1.568a18.986 18.986 0 01-1.611-.231c-3.529-.461-6.839-1.521-9.932-3.227-5.227-2.813-8.887-6.871-11.326-10.651.174-.646.348-1.245.523-1.891 2.396 3.919 6.011 8.208 11.413 11.159 2.875 1.521 5.967 2.582 9.147 3.043.654.092 1.307.138 1.917.23zm1 21.044l-.134 1.524c-.448-.045-.896-.045-1.344-.179a38.413 38.413 0 01-14.696-4.483 43.756 43.756 0 01-8.468-5.828A15.44 15.44 0 01231 136c2.733 2.824 6.004 5.066 9.498 6.993 4.391 2.286 9.14 3.81 14.068 4.304.538.134.941.134 1.434.179zm0 12.034l-.179 1.49c-.494-.045-1.032-.135-1.525-.181-3.677-.496-7.354-1.309-10.987-2.393-2.197-.678-4.349-1.491-6.412-2.349-.314-.677-.628-1.354-.897-2.077 2.511 1.129 5.157 2.077 7.848 2.981a66.888 66.888 0 0010.493 2.348c.493.045 1.121.09 1.659.181zm8-45.064c-.609 2.123-1.261 4.246-2 6.323-1.478 3.831-3.217 7.616-5.217 11.216-.174.323-.348.692-.522 1.015l-1.261-.831c.522-.969 1.13-1.938 1.609-2.954a68.688 68.688 0 004.043-9 93.83 93.83 0 002.565-8.215c.261.785.566 1.615.783 2.446zm3 10.935c-1.191 2.426-2.603 4.761-4.059 7.05-1.809 2.93-3.794 5.769-5.956 8.424-.22.367-.529.733-.838 1.145L255 140.993c.662-.87 1.324-1.694 1.985-2.61a88.202 88.202 0 004.721-6.822 84.301 84.301 0 004.809-8.561c.176.778.353 1.602.485 2.381zm21-4.078l-1.483.697c-.335-.697-.669-1.347-.909-2.044-1.434-3.346-2.296-6.877-2.535-10.409-.191-2.787 0-5.389.479-7.759a40.452 40.452 0 012.2-2.788c-.861 2.974-1.291 6.552-1.052 10.408.239 2.927.861 5.855 1.913 8.55.335 1.208.861 2.276 1.387 3.345zm-4 9.026l-1.368.671c-.176-.447-.353-.85-.529-1.297-1.632-3.89-2.779-7.959-3.485-12.073a63.096 63.096 0 01-.618-6.484c.485-.715.971-1.475 1.456-2.146 0 2.817.22 5.545.662 8.362.617 3.532 1.5 7.02 2.823 10.329.353.894.706 1.789 1.059 2.638zm33-27.638a5.75 5.75 0 00-.938 1.309c-2.324-2.528-4.379-3.701-6.166-3.43-.804.135-1.475.632-2.324 1.128-1.161.722-2.636 1.67-4.959 1.986-1.832.226-3.798.135-5.719-.542-.313 0-.626-.135-.894-.225l.536-1.399c.447.135.804.315 1.162.315 1.653.497 3.217.632 4.781.362 1.966-.226 3.172-1.039 4.334-1.716.893-.632 1.787-1.173 2.859-1.354 2.19-.541 4.692.677 7.328 3.566zm-4 8.763c-.131.549-.218 1.099-.305 1.648-3.615-.799-7.841-.199-12.458.5-3.224.5-6.36 1.249-9.453 2.248-.131.05-.218.05-.349.15l-.435-1.649c.523-.199 1.089-.349 1.612-.499 2.744-.899 5.575-1.549 8.45-1.999 4.618-.699 9.018-1.299 12.938-.399zM312 123c-.044.526-.133 1.007-.221 1.489-1.149.219-2.342.526-3.668.832l-1.944.482c-6.54 1.445-13.39 2.584-20.504 3.153-.177 0-.354.044-.53.044l-.133-1.489c.442-.044.884-.044 1.326-.131 6.717-.614 13.345-1.665 19.576-3.11l1.856-.438c1.37-.306 2.828-.657 4.242-.832zm-4 13a18.441 18.441 0 01-.892 1.925 51.63 51.63 0 00-3.209 1.107 45.364 45.364 0 00-4.324 1.973c-1.828.915-3.522 1.781-6.107 2.551a34.323 34.323 0 01-9.94 1.444c-1.471 0-2.987-.048-4.503-.241-.356-.048-.668-.048-1.025-.144l.223-1.636c.446.048.891.144 1.337.144 4.636.529 9.183.144 13.462-1.107 2.497-.77 4.146-1.588 5.84-2.503a51.675 51.675 0 014.502-2.021c1.516-.674 3.031-1.203 4.636-1.492zm38 31.451c-.721.229-1.396.457-2.162.549a128.833 128.833 0 01-4.189-2.562 129.306 129.306 0 01-12.793-9.516c-.315-.183-.541-.458-.856-.687l.991-1.235a33.037 33.037 0 002.342 1.922 124.098 124.098 0 0011.217 8.189c1.756 1.144 3.603 2.242 5.45 3.34zm9-23.663l-15.142 8.803-4.07 2.409-.788-1.314 1.838-1.095L353.206 143c.656.263 1.269.569 1.794.788zm-12-4.381l-11.617 13.192-1.277 1.401-1.106-1.039.298-.362L341.383 139c.596.136 1.106.316 1.617.407zm-14-1.368l-12.493 15.251-1.363 1.71-1.144-.99.44-.495 12.581-15.432c.615-.045 1.319-.134 1.979-.044zM330.294 172L303 158.392l.661-1.392L331 170.608l-.706 1.392z" fill="#92B69A"/><path d="M320 196c-.527-.046-1.099-.183-1.582-.229l-2.286-18.444-.132-1.144 1.494-.183.132 1.144L320 196zm10 3c-.558-.182-1.07-.364-1.674-.501l-4.186-19.679-.14-.501 1.581-.319.326 1.549L330 199zm10 3c-.514-.225-1.114-.495-1.714-.675l-4.157-16.515-.129-.45 1.414-.36.643 2.52L340 202zm2-21.682l-6.806 1.318-1.97.364-.224-1.5.537-.136 7.075-1.364c.492.455.94.818 1.388 1.318zm9 9.682l-6.93-.449-2.07-.163.135-1.388h.225l7.335.49c.45.53.9 1.02 1.305 1.51zm-85.215-25c-.551-.092-.826-.46-.78-.921a187.817 187.817 0 001.742-15.099 222.81 222.81 0 00.688-19.197c0-.415.367-.783.78-.783.413 0 .779.368.779.783a227.098 227.098 0 01-.688 19.381 213.481 213.481 0 01-1.788 15.192c0 .368-.321.644-.733.644zm26.917-9a.637.637 0 01-.539-.29c-.248-.338-.207-.869.083-1.159l5.596-5.361c.29-.289.746-.241.995.097.248.338.207.869-.083 1.159l-5.596 5.361c-.166.145-.29.193-.456.193zm4.018 20a.727.727 0 01-.527-.219c-.264-.306-.264-.787.044-1.049 2.77-2.58 7.476-5.946 14.117-7.214 9.588-1.88 17.372 1.836 20.275 3.541.351.219.483.656.263 1.006-.219.35-.659.481-1.011.262-2.727-1.617-10.115-5.115-19.263-3.366-6.289 1.224-10.731 4.416-13.37 6.864a.85.85 0 01-.528.175zm-40.558 39a190.492 190.492 0 00-18.579-36.704c-14.387-21.986-27.274-31.48-24.096-38.794 2.647-6.087 15.357-8.404 24.096-4.77 16.99 7.087 24.096 39.067 18.579 80.268z" fill="#92B69A"/><path d="M257.399 274.726c-.481.549-1.224 1.281-2.273 1.738-3.454 1.601-6.951-.732-10.929-2.47-9.749-4.209-11.279-2.333-17.312-4.849-3.891-1.647-6.339-5.765-5.814-10.111.612-5.169.612-8.967.48-11.757-.043-1.007-.131-2.196.088-3.843.437-2.974 1.53-4.712 5.421-11.483 2.317-3.98 2.885-5.032 3.016-6.771.219-2.516-.481-3.751-.699-5.489-.306-2.425.481-5.765 2.404-6.908 1.006-.595 1.705-.229 2.754-1.053 1.093-.869 1.53-2.15 1.705-3.111 2.886-.914 5.115-.731 6.864 0 2.798 1.19 2.841 3.203 6.033 4.758 2.973 1.464 3.585.046 6.951 1.419 3.759 1.555 3.497 3.522 6.951 4.437 2.492.641 3.322-.183 5.596.824 1.792.777 1.967 1.601 3.978 3.339 4.415 3.706 7.738 3.294 8.306 5.719.175.732.175 1.967-1.137 3.797.394 2.013.612 4.529-.699 5.718-1.049.961-2.142.321-3.41.961-2.448 1.281-1.618 5.49-2.754 10.019-1.705 6.908-5.552 5.261-8.875 13.862-.874 2.196-1.923 5.673-4.94 9.378-.743.869-1.311 1.51-1.705 1.876z" fill="#855249"/><path d="M276.692 249.458c2.016 5.405-6.048 14.702-18.89 23.542a30.199 30.199 0 01-15.341-4.489 31.472 31.472 0 01-8.809-8.198c-.219-1.924-.439-3.847-.614-5.771-.307-.229-1.139-.916-1.359-2.107-.306-1.466.395-3.069 1.797-3.985-1.753-.183-3.155-1.374-3.418-2.794-.395-1.923 1.271-4.259 3.857-4.442-.219-.092-.921-.413-1.228-1.191-.394-.962-.087-2.199.833-3.023 10.125 3.206 18.715 4.855 24.895 6.183 12.448 2.748 17.094 3.16 18.277 6.275z" fill="#E5BBA4"/><path d="M278.784 251.339c-1.047 1.648-6.239-.183-8.944-1.19-6.501-2.334-14.572-7.459-13.787-10.159.655-2.197 7.243-2.746 12.391-.778 6.85 2.654 11.649 10.068 10.34 12.127z" fill="#E5BBA4"/><path d="M278.591 225a.64.64 0 01-.497-.254.48.48 0 01.181-.72l8.862-4.957c.272-.127.633-.084.769.17a.48.48 0 01-.181.72l-8.862 4.956a.667.667 0 01-.272.085zm1.868 25a.518.518 0 01-.382-.171l-6.918-6.897a.547.547 0 010-.771.533.533 0 01.764 0l6.918 6.897a.547.547 0 010 .771c-.127.085-.255.171-.382.171zm-26.023 0c-.179-.044-20.051-6.916-20.051-6.916-.313-.088-.447-.396-.358-.705.09-.308.448-.44.716-.352l19.872 6.872c.313.088.447.396.358.705-.09.22-.313.396-.537.396zm10.009 2c-.046 0-6.89-.611-6.89-.611-.324-.056-.555-.389-.555-.722a.752.752 0 01.601-.667l6.844.611c.324.056.555.389.555.722 0 .389-.231.667-.555.667zm-16.029 3c-.179-.046-15.057-5.901-15.057-5.901-.268-.092-.448-.458-.313-.732.089-.275.448-.458.717-.32l14.878 5.855c.268.092.448.458.313.732a.582.582 0 01-.538.366zm12.07 1h-7.977a.511.511 0 01-.509-.5c0-.292.255-.5.509-.5h7.977c.297 0 .509.25.509.5.043.25-.212.5-.509.5z" fill="#545251"/><path d="M240.001 270.208c.347 3.916.651 7.877.999 11.792-8.734-1.75-17.468-3.454-26.202-5.205a32.272 32.272 0 01-5.432-10.502c-2.172-7.277-1.26-13.541-.608-16.535.391-1.935.739-3.823 1.13-5.758 1.868.322 3.693.599 5.562.921a37.336 37.336 0 0110.993 6.034c8.343 6.587 12.037 15.108 13.558 19.253z" fill="#E8E8E8"/><path d="M191.921 224.473c-3.051 3.787-7.078 5.549-8.943 3.919-1.907-1.629-.932-6.033 2.119-9.865 3.052-3.787 7.079-5.549 8.944-3.919 1.865 1.673.932 6.077-2.12 9.865z" fill="#E5BBA4"/><path d="M210.313 227.586a98.525 98.525 0 019.556 18.742c2.312 4.766.829 10.036-2.182 11.869-3.447 2.108-9.599.046-11.649-5.957a78.72 78.72 0 01-10.079-16.818c-4.712-10.54-9.119-26.304-5.803-28.228 3.447-1.971 14.354 11.548 20.157 20.392z" fill="#545251"/><path d="M200.194 216c1.841.724 14.515 5.789 17.278 17.819.439 1.854.702 4.297.395 7.236-2.894 1.538-8.157 3.935-15.174 4.342-6.446.407-11.621-1.04-14.603-2.126-21.621 6.558-46.267 12.211-73.545 15.513-8.464.995-16.665 1.764-24.602 2.216-1.491-1.221-5.22-4.658-7.017-10.583-2.061-6.92-.132-12.754.526-14.472 8.727-4.432 16.183-6.739 21.27-8.051 29.251-7.417 45.565 2.533 75.123-4.703 8.946-2.126 15.963-5.065 20.349-7.191z" fill="#E6BBA4"/><path d="M186 126c6.627 0 12-9.85 12-22s-5.373-22-12-22-12 9.85-12 22 5.373 22 12 22z" fill="#545251"/><path d="M206.548 89.628c-6.031 14.864-18.529 23.655-20.19 24.607-1.398.861-2.84 1.495-4.414 2.039 0 0-2.359.68-4.85.725-7.08.091-16.694-9.108-17.524-9.969-4.501-4.396-7.997-7.795-10.095-13.596-1.573-4.622-1.005-6.933-3.408-14.41-1.311-4.034-2.273-5.756-3.322-8.43a.95.95 0 00-.087-.271c-.393-.952-.83-1.994-1.267-3.218a.347.347 0 00-.088-.181c-.393-1.042-.743-2.13-1.136-3.308-2.01-6.39-3.496-14.683-.349-22.25 0 0 3.277-7.886 12.498-13.777 2.534-1.586 5.506-2.9 5.506-2.9a23.44 23.44 0 012.054-.907c5.681-1.903 20.364-5.936 33.125 1.677 20.757 12.235 20.976 45.725 13.547 64.169z" fill="#E6BBA4"/><path d="M214.689 61.878c1.21 5.708-1.211 11.104-5.47 11.996-4.259.892-8.697-3.033-9.908-8.74-1.21-5.708 1.211-11.104 5.47-11.996 4.259-.936 8.697 2.988 9.908 8.74z" fill="#E6BBA4"/><path d="M207.946 74a6.83 6.83 0 01-2.609-.52c-.265-.13-.398-.434-.31-.694.133-.26.443-.433.708-.303a5.68 5.68 0 003.272.303c2.3-.476 4.157-2.47 4.909-5.374.088-.303.398-.476.663-.39.31.087.487.39.398.65-.884 3.294-3.007 5.591-5.749 6.155-.398.13-.84.173-1.282.173z" fill="#E6BBA4"/><path d="M214.458 67c-.279-.045-.454-.318-.419-.636.14-1.226.105-2.451-.035-3.723-.034-.317.14-.59.384-.635.244-.046.453.181.488.5.14 1.361.175 2.723.035 4.04-.07.227-.244.454-.453.454zm-.012-6.045c-.221 0-.442-.181-.53-.407-1.415-4.971-5.218-8.135-8.844-7.321a5.868 5.868 0 00-2.211 1.04.544.544 0 01-.752-.091.572.572 0 01.089-.768 6.574 6.574 0 012.653-1.266c4.156-.903 8.534 2.576 10.126 8.135.088.316-.089.633-.354.723-.088-.045-.132-.045-.177-.045zM206.558 70c-.413-.047-.597-.375-.551-.703l1.883-10.821a.564.564 0 01.644-.469c.321.047.505.375.459.656l-1.883 10.822c0 .328-.276.515-.552.515z" fill="#E6BBA4"/><path d="M207.379 63c-.15 0-.351-.048-.451-.191l-2.758-2.77c-.251-.239-.201-.621 0-.86a.657.657 0 01.902 0l2.758 2.77c.251.24.201.621 0 .86a.627.627 0 01-.451.191z" fill="#E6BBA4"/><path d="M179.226 71.606c.773 2.052 3.319 2.938 5.684 2.052 2.364-.887 3.637-3.265 2.864-5.27-.773-2.006-3.319-2.939-5.684-2.053-2.364.887-3.637 3.265-2.864 5.27z" fill="#545251"/><path d="M175.889 71c-.177-.043-4.533-1.675-4.533-1.675-.266-.086-.444-.43-.311-.687.089-.258.445-.43.711-.3l3.867 1.417a8.335 8.335 0 011.377-1.89c4.089-4.166 11.199-2.663 12.577-2.319.311.086.489.386.4.644-.089.3-.355.473-.666.387-.8-.215-7.778-1.804-11.511 2.018a7.82 7.82 0 00-1.377 2.019c-.089.3-.311.386-.534.386zm-23.642 9.606c.771 2.052 3.311 2.938 5.67 2.052 2.359-.886 3.629-3.265 2.858-5.27-.771-2.006-3.312-2.939-5.67-2.053-2.404.887-3.674 3.218-2.858 5.27z" fill="#545251"/><path d="M146.903 81c-.089 0-.178 0-.267-.044l-2.353-1.224c-.266-.132-.355-.481-.222-.744.133-.262.489-.35.755-.219l1.865.963c.355-.7.799-1.313 1.332-1.837 4.173-4.33 11.721-2.58 12.565-2.362.31.087.488.394.399.656-.089.306-.355.481-.666.394-.799-.22-7.77-1.837-11.499 2.055-.577.612-1.021 1.312-1.377 2.056a.53.53 0 01-.31.306h-.222zM196 57.403c-3.394-.364-8.05-.5-13.533.364A52.08 52.08 0 00171.065 61c-.087-.637-.087-1.411 0-2.276a10.617 10.617 0 011.654-4.645c3.742-.546 6.875-.82 9.182-.956 5.57-.319 7.18.046 8.224.364 2.916.957 4.831 2.732 5.875 3.916zm-26.086-3.049c-.272.62-.589 1.551-.77 2.703-.317 1.994-.045 3.943.181 3.943.227 0 .589-2.392.679-3.101.136-1.064.227-1.95.679-3.19.136-.31.226-.576.317-.709l-1.086.354zM153 67.476c-2.657.524-6.111 1.429-9.919 3.19-.177.096-.443.191-.62.334 0-.048-.044-.19-.088-.286-.399-1-.842-2.095-1.284-3.38a.376.376 0 00-.089-.191c.133-.095.266-.19.443-.286 1.815-1.047 4.251-2.428 7.306-3.857.886.476 2.17 1.286 3.277 2.762.443.524.753 1.143.974 1.714zM150.843 62c.442.384 1.044.96 1.646 1.776 1.044 1.44 1.646 3.12 1.485 3.216-.16.144-1.365-1.632-1.726-2.112-.522-.768-.923-1.44-1.766-2.208-.201-.192-.402-.336-.482-.432l.843-.24zM168 86.1c-1.2-.226-2.235-.038-3.228.262-.993.338-1.944.75-2.772 1.539 1.2.225 2.235.037 3.228-.263 1.034-.338 1.986-.75 2.772-1.539z" fill="#545251"/><path d="M163.038 99.268c.557 1.266 4.669.723 7.796-.362 3.983-1.402 7.409-4.16 7.152-4.747-.085-.226-.556.045-1.584 0-3.298-.09-4.755-2.758-6.382-2.035-.3.136-1.028.588-1.885.814-.343.09-.728.18-.728.18-1.371.272-1.499.046-1.97.272-.857.678-1.585 3.255-1.585 3.255-.557 2.125-.985 2.216-.814 2.623z" fill="#BF3333"/><path d="M170.509 105c-.252 0-.504-.213-.504-.469a.528.528 0 01.462-.597c.714-.086 1.469-.214 2.183-.427 1.595-.469 3.106-1.279 4.491-2.388a.532.532 0 01.755.085c.168.213.126.555-.084.768a13.94 13.94 0 01-4.827 2.559c-.755.213-1.553.384-2.35.469h-.126z" fill="#545251"/><path d="M177.037 101.871c-2.135 2.376-5.247 2.148-5.781 2.102-3.068-.32-5.424-1.783-5.247-3.245.089-.96 2.224-.594 5.781-2.102 4.313-1.783 5.647-4.16 6.625-3.52 1.067.64.712 4.434-1.378 6.765z" fill="#BF3333"/><path d="M204.327 33.865c6.187 7.652 9.872 19.38 6.23 23.137-4.212 4.302-13.689-6.52-31.021-6.067-16.015.407-19.57 9.916-31.855 7.742-12.242-2.173-24.265-14.534-22.51-23.408 2.019-10.188 21.501-13.13 29.925-14.217 7.371-.951 34.971-4.936 49.231 12.813zM163.793 100c-.764 0-1.529-.046-2.293-.092a.57.57 0 01-.494-.645c.045-.322.314-.598.629-.506a23.422 23.422 0 0010.52-1.474 23.606 23.606 0 007.867-5.11.56.56 0 01.809 0 .593.593 0 010 .828c-2.337 2.303-5.17 4.19-8.227 5.387a25.1 25.1 0 01-8.811 1.612zM361 372.5c0 3.557-2.941 6.5-6.54 6.5H44.496C40.94 379 38 376.057 38 372.5c0-3.601 2.94-6.5 6.496-6.5H354.46c3.599 0 6.54 2.899 6.54 6.5z" fill="#545251"/><path d="M285.973 271c.176 14.143-.484 30.697-2.906 48.887A336.325 336.325 0 01273.686 366h-70.332c-3.963-13.234-7.707-29.196-10.041-47.659-.836-6.64-1.365-13.006-1.761-19.055-.661-10.323-.661-19.736-.353-28.286h94.774z" fill="#C7B28A"/><path d="M289.542 292H185.094c-.788-1.584-1.577-3.35-2.234-5.387-2.147-6.609-2.059-12.584-1.577-16.613h113.428c.351 2.58.614 6.926-.657 11.996-1.183 4.572-3.11 7.967-4.512 10.004zm-25.313 74h-60.497c-3.94-13.228-7.661-29.184-9.981-47.641-.832-6.637-1.357-13.001-1.751-19.047 2.233-3.091 5.603-6.728 9.105-6.273 8.099 1.091 10.375 23.502 16.066 23.275 3.721-.137 4.728-9.683 8.58-9.683 4.377 0 4.596 13.001 13.089 15.91 4.552 1.546 6.084-.863 11.162.364 9.325 2.364 14.096 12.91 14.971 14.774 3.678 8.092 4.641 19.638-.744 28.321z" fill="#B692B2"/><path d="M283.901 293h-92.802c-.615 0-1.099-.44-1.099-1s.484-1 1.099-1h92.802c.615 0 1.099.44 1.099 1s-.484 1-1.099 1z" fill="#916B06"/><path d="M107.784 151.561c7.849 39.136-6.808 84.712-18.125 84.438-11.23-.274-23.068-45.941-15.003-84.438C75.133 149.369 81.68 119 91.22 119c7.892 0 14.179 20.87 16.564 32.561zm-43.468 71.562c9.711 7.535 10.586 10.304 28.39 27.008 17.412 16.25 20.911 17.702 20.211 19.609-2.537 6.899-54.726 5.084-76.73-27.734-8.574-12.8-13.299-31.365-7.874-35.859 6.78-5.719 28.96 11.529 36.003 16.976z" fill="#C7B28A"/><path d="M141.184 251.635c-5.316 15.354-16.391 33.98-22.327 32.253-6.557-1.908-6.291-28.392-.311-49.561 5.006-17.626 16.259-39.795 22.683-38.251 6.955 1.681 8.417 31.164-.045 55.559z" fill="#C7B28A"/><path d="M118.102 304l-2.05-.863c1.738-4.225 2.63-8.587 2.63-12.858.044-11.403-6.063-19.036-12.571-27.123-3.298-4.088-6.73-8.359-9.539-13.311-5.394-9.496-5.26-15.629-4.77-38.436.134-6.906.312-15.538.401-26.214.134-21.581-.267-43.797-1.203-66.104l2.229-.091a1383.814 1383.814 0 011.203 66.24 1187.503 1187.503 0 01-.4 26.26c-.447 22.307-.58 28.304 4.501 37.254 2.72 4.816 6.107 8.996 9.361 13.039 6.776 8.405 13.15 16.311 13.106 28.577-.134 4.498-1.07 9.087-2.898 13.63z" fill="#92B69A"/><path d="M111.647 270c-13.542-2.031-26.334-6.455-38.067-13.135-25.23-14.4-39.258-35.615-46.58-50.872l1.985-.993c7.19 14.986 20.952 35.795 45.698 49.879 11.513 6.545 24.04 10.878 37.317 12.864l-.353 2.257zm5.384 9l-2.031-.777c2.765-7.817 5.531-15.908 8.253-23.998 6.222-18.559 12.142-37.483 17.673-56.225l2.074.686a1627.807 1627.807 0 01-17.716 56.316A1654.187 1654.187 0 01117.031 279z" fill="#92B69A"/><path d="M86.342 214.419c7.602 13.68 15.858 35.107 11.402 38.187-4.892 3.398-25.207-15.673-36.958-38.187-6.903-13.182-13.761-33.204-9.437-36.058 4.893-3.216 23.635 15.583 34.993 36.058zm36.892 16.824c-2.561 15.359-12.198 29.948-16.669 28.68-3.993-1.133-3.646-14.498-3.472-21.657.434-19.12 5.99-44.401 11.937-44.265 5.165.181 11.112 19.754 8.204 37.242zm-6.258 47.748c-.838 6.788-24.66 8.496-28.498 8.765-14.822 1.034-37.188-1.123-38.423-8.36-.97-5.664 11.16-13.62 22.101-16.272 21.616-5.169 45.703 8.765 44.82 15.867z" fill="#92B69A"/><path d="M152.478 366H93.002c.131-1.945.044-4.795-1.444-7.509-1.357-2.442-2.539-2.533-3.195-4.704-.788-2.578.656-3.438.788-8.278.087-3.121-.525-2.985-.263-5.518.394-3.935 1.794-4.704 1.313-6.876-.613-2.804-3.151-2.306-3.982-4.975-1.226-3.709 3.15-6.378 2.1-11.625-.306-1.448-.656-1.357-1.006-3.031-.744-3.392.175-6.468 1.05-8.549 1.926-1.9 5.033-4.478 9.322-5.518 5.208-1.267 6.477.995 11.729.542 9.847-.859 13.348-9.589 19.913-7.689 1.925.588 2.057 1.447 4.639 3.256 3.588 2.488 9.278 4.931 18.512 4.433 4.377 7.238 5.383 13.209 5.515 17.37.219 9.816-4.596 13.887-3.195 25.376.438 3.709 1.181 5.292 1.05 9.363-.131 5.926-1.838 10.72-3.37 13.932z" fill="#855249"/><path d="M101 315.5c0 1.375-1.125 2.5-2.5 2.5a2.507 2.507 0 01-2.5-2.5c0-1.375 1.125-2.5 2.5-2.5s2.5 1.125 2.5 2.5zm5 10a2.499 2.499 0 11-5 0c0-1.36 1.14-2.5 2.5-2.5s2.5 1.14 2.5 2.5zm7-5a3.51 3.51 0 01-3.5 3.5 3.51 3.51 0 01-3.5-3.5 3.51 3.51 0 013.5-3.5 3.51 3.51 0 013.5 3.5zm-2-11a3.501 3.501 0 01-7 0c0-1.908 1.591-3.499 3.5-3.499 1.955-.045 3.5 1.545 3.5 3.499zm-13 13a1.5 1.5 0 11-3.001-.001A1.5 1.5 0 0198 322.5zm3 8.501A2.997 2.997 0 0198 334c-1.682 0-3-1.363-3-2.999 0-1.637 1.364-3 3-3 1.636-.045 3 1.318 3 3z" fill="#C7B28A"/><path d="M107 320.5a3.51 3.51 0 01-3.5 3.5 3.51 3.51 0 01-3.5-3.5 3.51 3.51 0 013.5-3.5 3.51 3.51 0 013.5 3.5zm18-4c0 1.966-1.356 3.5-3 3.5-1.685 0-3-1.582-3-3.5 0-1.965 1.356-3.499 3-3.499 1.644-.048 3 1.534 3 3.499zm-6.5 25.5a4.5 4.5 0 100-9 4.5 4.5 0 000 9zm-5.5 2.5c0 1.4-.88 2.5-2 2.5s-2-1.1-2-2.5.88-2.5 2-2.5c1.08 0 2 1.1 2 2.5zm-7 2c0 1.398-1.102 2.5-2.5 2.5a2.478 2.478 0 01-2.5-2.5c0-1.398 1.102-2.5 2.5-2.5s2.5 1.102 2.5 2.5zm-2-6c0 1.939-1.561 3.5-3.5 3.5-1.94 0-3.5-1.561-3.5-3.5s1.56-3.5 3.5-3.5c1.939 0 3.5 1.561 3.5 3.5zm-5 6.5c0 1.111-.889 2-2 2s-2-.889-2-2 .889-2 2-2 2 .889 2 2zm-8-1.5c0 .833-.667 1.5-1.5 1.5s-1.5-.667-1.5-1.5.667-1.5 1.5-1.5 1.5.667 1.5 1.5zm53 7.5c0 2.212-1.565 4-3.5 4s-3.5-1.788-3.5-4c0-2.212 1.565-4 3.5-4s3.5 1.788 3.5 4zm-10 2c0 1.116-.884 2-2 2s-2-.884-2-2 .884-2 2-2 2 .884 2 2zm-9.5 1a1.5 1.5 0 10-.001-3.001A1.5 1.5 0 00124.5 356zm5.5-8a2 2 0 10.001-3.999A2 2 0 00130 348zm9-4.5c0 1.373-.902 2.5-2 2.5-1.098 0-2-1.127-2-2.5s.902-2.5 2-2.5c1.098 0 2 1.127 2 2.5zm9-3.5c0 1.645-1.129 3-2.5 3s-2.5-1.355-2.5-3 1.129-3 2.5-3 2.5 1.306 2.5 3z" fill="#C7B28A"/><path d="M140 350c0 1.662-1.338 3-3 3-1.661 0-3-1.338-3-3s1.339-3 3-3c1.662 0 3 1.338 3 3zm8 .5c0 1.944-1.333 3.5-3 3.5s-3-1.556-3-3.5 1.333-3.5 3-3.5 3 1.556 3 3.5zm1 10c0 1.368-1.132 2.5-2.5 2.5a2.516 2.516 0 01-2.5-2.5c0-1.368 1.132-2.5 2.5-2.5s2.5 1.132 2.5 2.5zm-13 1.5c0 .577-.461 1-1 1-.538 0-1-.462-1-1 0-.577.462-1 1-1 .539 0 1 .462 1 1zm-14-1.999c0 1.128-.692 1.999-1.5 1.999-.846 0-1.5-.923-1.5-1.999 0-1.128.692-1.999 1.5-1.999.846-.051 1.5.871 1.5 1.999zM113 359a2 2 0 10.001-3.999A2 2 0 00113 359zm37-39.5c0 2.48-2.02 4.5-4.5 4.5s-4.5-2.02-4.5-4.5 2.02-4.5 4.5-4.5 4.5 2.02 4.5 4.5zm-9-.5c0 1.1-.9 2-2 2s-2-.9-2-2 .9-2 2-2 2 .9 2 2zm4-5c1.105 0 2-1.119 2-2.5s-.895-2.5-2-2.5-2 1.119-2 2.5.895 2.5 2 2.5zm-4-5a2 2 0 11-2-2c1.083 0 2 .917 2 2zm-8.5 2a2.5 2.5 0 100-5 2.5 2.5 0 000 5zm3-5c1.381 0 2.5-1.343 2.5-3s-1.119-3-2.5-3-2.5 1.343-2.5 3 1.119 3 2.5 3zm-6.5-.5c0 1.356-1.102 2.5-2.5 2.5a2.505 2.505 0 01-2.5-2.5c0-1.356 1.102-2.5 2.5-2.5s2.5 1.144 2.5 2.5z" fill="#C7B28A"/><path d="M98.635 327c-8.229 0-16.196-1.117-17.465-5.272-.788-2.502.788-7.283 12.826-15.728l.612.938c-12.519 8.802-12.825 13.047-12.388 14.477 1.576 5.094 18.035 5.094 31.649 3.485l.131 1.117c-3.765.447-9.586.983-15.365.983zm16.452 22l-.087-1.142c7.062-.594 12.824-5.758 13.777-12.246.91-6.169-3.033-10.967-3.812-11.835l.779-.777c.867.96 5.069 6.123 4.116 12.794-1.04 6.992-7.235 12.566-14.773 13.206zm22.379-7l-.873-.679c1.572-2.216 3.449-3.573 5.502-4.116 1.178-.317 2.139-.272 2.838-.272.349 0 .873.046.96-.045.087-.316-1.091-1.538-1.834-2.216-1.79-1.765-4.235-4.253-4.41-7.193-.174-3.076 2.096-4.931 4.541-6.876 2.314-1.855 4.891-3.936 6.069-7.419 1.441-4.388.524-10.495-2.357-15.245-2.009-3.347-4.629-5.383-7.379-5.745-4.105-.543-7.859 2.895-9.737 4.976l-.786-.769c2.008-2.262 5.982-5.926 10.654-5.338 3.056.407 5.981 2.624 8.165 6.288 3.012 5.021 4.017 11.535 2.445 16.195-1.267 3.8-4.017 6.016-6.419 7.962-2.401 1.9-4.279 3.438-4.104 5.88.175 2.534 2.358 4.705 4.061 6.469 1.528 1.493 2.619 2.624 2.008 3.619-.393.634-1.092.588-1.921.588-.699 0-1.528-.045-2.532.227-1.834.497-3.493 1.719-4.891 3.709z" fill="#484848"/><path d="M241 223c0 1.111-.889 2-2 2s-2-.889-2-2 .889-2 2-2c1.067 0 2 .889 2 2zm5-1a2 2 0 10.001-3.999A2 2 0 00246 222zm-2 10c0 1.111-.889 2-2 2s-2-.889-2-2 .889-2 2-2 2 .889 2 2zm-4-5.5c0 .838-.662 1.5-1.5 1.5s-1.5-.662-1.5-1.5.662-1.5 1.5-1.5 1.5.662 1.5 1.5z" fill="#C7B28A"/><path d="M236 223a3 3 0 100-6 3 3 0 000 6zm-3 8c0 .522-.435 1-1 1s-1-.435-1-1c0-.522.435-1 1-1s1 .435 1 1zm16.5-2c.828 0 1.5-.895 1.5-2s-.672-2-1.5-2-1.5.895-1.5 2 .672 2 1.5 2zm8.5-4c0 .542-.458 1-1 1s-1-.458-1-1 .458-1 1-1 1 .458 1 1zm-6-6c0 1.111-.889 2-2 2s-2-.889-2-2 .889-2 2-2 2 .889 2 2z" fill="#C7B28A"/><path d="M250 223.5c0 1.368-1.132 2.5-2.5 2.5a2.516 2.516 0 01-2.5-2.5c0-1.368 1.132-2.5 2.5-2.5s2.5 1.085 2.5 2.5z" fill="#C7B28A"/><path d="M246 225c0 1.13-.913 2-2 2-1.13 0-2-.913-2-2 0-1.13.913-2 2-2s2 .87 2 2zm-6-12.5c0 .838-.662 1.5-1.5 1.5s-1.5-.662-1.5-1.5.662-1.5 1.5-1.5 1.5.662 1.5 1.5z" fill="#C7B28A"/><path d="M196.901 322.274c.473-1.763 1.031-3.623 2.278-4.91 1.59-1.668 5.2-1.859 4.856 1.669-.129 1.382 1.806 1.335 1.935 0 .343-3.194-2.278-5.482-5.029-4.958-3.395.62-4.986 4.338-5.888 7.627-.387 1.288 1.461 1.86 1.848.572z" fill="#8AAAC7"/><path d="M205.93 319.356c.913-1.677 2.055-3.784 4.384-3.311 2.101.43 3.014 2.58 3.654 4.3.456 1.162 2.42.646 1.964-.516-.959-2.494-2.421-5.289-5.526-5.762-3.152-.516-5.024 2.064-6.303 4.343-.548 1.075 1.233 2.064 1.827.946z" fill="#8AAAC7"/><path d="M216.937 321.29c.528-2.094 1.938-4.143 4.316-4.277 2.247-.133 3.92 1.604 3.744 3.876-.088 1.292 1.894 1.292 1.982 0 .265-3.029-2.026-5.702-5.065-5.881-3.48-.178-6.034 2.495-6.871 5.747-.353 1.248 1.585 1.782 1.894.535z" fill="#8AAAC7"/><path d="M228.013 321.062c.446-4.185 6.242-4.099 7.045-.13.223 1.208 2.185.691 1.917-.517-1.248-6.342-10.3-5.609-10.969.647-.133 1.251 1.873 1.251 2.007 0z" fill="#8AAAC7"/><path d="M237.872 322.483c.89-1.632 1.958-3.119 3.65-3.886 2.403-1.056 5.475 0 5.475 3.262 0 1.391 2.003 1.391 2.003 0-.045-3.262-2.359-5.709-5.386-5.853-3.339-.144-5.921 2.399-7.479 5.373-.623 1.2 1.069 2.303 1.737 1.104z" fill="#8AAAC7"/><path d="M249.902 322.268c.789-4.335 6.356-4.38 7.189-.044.219 1.251 2.147.715 1.884-.537-1.183-6.257-9.862-6.257-10.957.045-.219 1.251 1.665 1.832 1.884.536z" fill="#8AAAC7"/><path d="M259.02 323.959c.045-2.011.942-4.07 2.917-4.644 1.975-.575 3.906.813 4.04 3.016.09 1.388 2.11 1.388 2.02 0-.179-3.16-2.513-5.554-5.566-5.314-3.411.287-5.386 3.542-5.431 6.942 0 1.388 2.02 1.388 2.02 0z" fill="#8AAAC7"/><path d="M269.15 322.071c-.459-3.627 4.873-3.976 4.781-.349-.046 1.267 2.022 1.267 2.068 0 .046-2.447-1.93-4.807-4.688-4.72-2.712.088-4.597 2.622-4.275 5.025.184 1.268 2.252 1.311 2.114.044z" fill="#8AAAC7"/><path d="M277.101 322.357c.139-.423.324-.846.555-1.226.324-.761 1.11-.93 2.311-.55-.231 1.184 1.803 1.691 1.988.507.277-1.606-.74-3.001-2.589-3.086-2.403-.084-3.559 2.072-4.298 3.847-.462 1.142 1.571 1.649 2.033.508zM200 323.934c0 1.399 2 1.399 2 .132 0-1.399-2-1.399-2-.132zm12 1.187v-.242c0-1.172-2-1.172-2 0v.242c0 1.172 2 1.172 2 0zM230.926 327c1.409 0 1.409-2 .132-2-1.365 0-1.409 2-.132 2zm22 1c1.409 0 1.409-2 .132-2-1.365 0-1.409 2-.132 2zm19.008 0c1.399 0 1.399-2 .132-2-1.399 0-1.399 2-.132 2z" fill="#8AAAC7"/><path d="M199.172 345.819c2.068-1.992 4.135-3.939 6.203-5.931.764-.752.854-1.062 1.977-.885 1.124.177 1.169.575 1.753 1.461.854 1.283 1.753 2.611 2.607 3.894.494.709 1.663.045 1.169-.664-1.259-1.858-2.338-4.071-3.866-5.753-.494-.576-1.033-1.018-1.887-.93-1.574.133-2.832 2.08-3.821 3.01a522.137 522.137 0 01-5.124 4.869c-.584.575.36 1.504.989.929z" fill="#545251"/><path d="M213.108 345.693c.721-.854 1.398-1.707 2.119-2.561.451-.539 1.217-1.976 1.848-2.245.316-.584.631-.45.947.404.315.494.586.988.901 1.482.586.988 1.217 1.932 1.804 2.92.45.718 1.622.045 1.172-.674-.992-1.572-1.894-3.189-2.93-4.761-.361-.539-.767-1.258-1.533-1.258-.721 0-1.172.764-1.578 1.258-1.262 1.482-2.479 3.009-3.696 4.491-.541.674.405 1.618.946.944z" fill="#545251"/><path d="M222.095 345.333l2.777-2.92c.47-.494 2.136-2.831 2.777-2.876 1.025-.134 3.503 5.122 4.144 6.156.427.719 1.538.045 1.111-.674-1.111-1.842-2.222-3.685-3.333-5.482-.341-.584-.726-1.437-1.495-1.527-.983-.135-1.837 1.168-2.435 1.797-1.496 1.527-2.948 3.1-4.444 4.628-.598.584.299 1.527.898.898z" fill="#545251"/><path d="M233.256 346.687c.79-1.236 1.579-2.472 2.412-3.663.789-1.19 1.534-2.93 2.63-3.845-.263.045-.526.091-.789.091.789.366 1.798 2.793 2.192 3.525.702 1.145 1.359 2.289 2.061 3.434.438.733 1.578.046 1.139-.687-1.008-1.648-1.972-3.296-2.981-4.99-.438-.778-.877-2.06-1.753-2.472-.307-.137-.526-.092-.789.091-1.009.825-1.666 2.244-2.368 3.388-.964 1.465-1.929 2.93-2.893 4.441-.483.733.657 1.419 1.139.687z" fill="#545251"/><path d="M243.321 346.27c1.522-2.428 3.044-4.856 4.565-7.239h-1.199a52.307 52.307 0 014.058 7.606c.369.825 1.521.092 1.199-.687a52.307 52.307 0 00-4.058-7.606.694.694 0 00-1.199 0 995.026 995.026 0 01-4.564 7.239c-.508.733.691 1.421 1.198.687z" fill="#545251"/><path d="M251.267 346.7a55.644 55.644 0 011.976-3.127c.687-1 1.804-3.041 2.878-3.65 1.418-.781 2.062 1.391 2.62 2.52a318.953 318.953 0 012.062 3.953c.387.739 1.503.087 1.117-.651-1.074-2.042-2.062-4.084-3.179-6.082-.429-.826-.988-1.781-2.061-1.651-1.332.13-2.449 2.129-3.179 3.041a45.585 45.585 0 00-3.436 5.083c-.344.608.773 1.259 1.202.564z" fill="#545251"/><path d="M262.273 346.938a65.4 65.4 0 011.915-2.863c.609-.867 1.566-2.819 2.654-3.036.958-.217.784.043 1.175.911.305.65.61 1.258.914 1.908.61 1.258 1.219 2.56 1.872 3.818.348.737 1.479.086 1.131-.651-1.001-2.039-1.915-4.121-2.959-6.116-.435-.825-.783-1.909-1.915-1.909-1.132 0-1.871 1.431-2.437 2.212a104.913 104.913 0 00-3.525 5.075c-.435.695.696 1.389 1.175.651z" fill="#545251"/><path d="M272.116 348.813a59.751 59.751 0 006.749-7.845c.523-.685-.609-1.369-1.132-.685a55.799 55.799 0 01-6.532 7.572c-.61.593.305 1.551.915.958z" fill="#545251"/><path d="M346.344 290.164c-.442 1.315-.839 2.494-1.325 3.718-3.489 9.34-8.613 16.232-12.853 20.947-.088.136-.22.272-.353.363-.972 1.133-1.943 2.085-2.782 2.947-.265.272-.619.589-.928.861-.088-.091-.088-.136-.133-.227-.353-.453-.75-.997-1.192-1.723-.353-.634-.751-1.224-1.104-1.949 0 0-.133-.227-.265-.59-.088-.226-.133-.362-.221-.498-.486-.952 0-7.255 1.104-15.733.442-3.174.928-6.529 1.458-9.974a325.12 325.12 0 013.489-18.317c3.445-14.736 7.773-27.431 12.322-26.977a3.22 3.22 0 011.811.952c4.991 4.987 6.846 27.611.972 46.2z" fill="#6A7A5A"/><path d="M334.954 296.767c0 .363 0 .726-.085 1.089a49.178 49.178 0 01-1.239 9.078 13.83 13.83 0 01-.427 1.588c-.555 2.224-1.153 4.176-1.879 6.037-.341.999-.683 1.952-1.068 2.814a57.23 57.23 0 01-3.331 6.627c-.128-.091-.213-.227-.342-.272-.469-.454-.811-.727-1.238-1.135-.342-.363-.726-.726-1.068-1.135-.085 0-.213-.227-.427-.454l-.256-.272c-1.837-2.179-8.029-52.47-2.05-59.868.427-.499.94-.772 1.495-.862 2.349-.091 5.125 3.812 7.388 9.758 2.819 7.081 4.912 17.293 4.527 27.007z" fill="#6A7A5A"/><path d="M350.941 311.514c-6.715 7.197-14.085 11.048-19.493 13.065-.741.367-1.439.596-2.137.779-.261.138-.61.229-.915.275a9.459 9.459 0 01-1.047.367c-.087-.504-.131-1.1-.218-1.742v-.458a10.14 10.14 0 01-.131-1.651v-1.008c0-.275.262-1.009.829-2.109a78.894 78.894 0 011.875-3.255 193.177 193.177 0 013.881-6.234c.131-.138.218-.275.262-.413 3.183-4.813 6.89-10.177 10.858-15.265 8.286-10.91 17.051-20.4 20.627-18.658.131.092.262.138.436.23.436.275.698.779.916 1.375 1.875 5.593-4.753 23.15-15.743 34.702z" fill="#6A7A5A"/><path d="M327.987 295.26c.089 7.409-.269 14.681-1.301 21.998-.225 1.967-.494 3.842-.763 5.808-.718 4.254-1.571 8.552-2.647 12.76a114.162 114.162 0 01-1.571 6.174l-.359-.091-1.346-.458a180.151 180.151 0 004.352-19.985c.359-2.241.628-4.574.943-6.815.583-5.442.852-10.884.942-16.281v-3.11a155.492 155.492 0 00-4.263-34.391 2.6 2.6 0 011.571-.869c2.333 9.284 3.679 18.751 4.173 28.263.179 2.378.269 4.711.269 6.997z" fill="#45594F"/><path d="M344.407 274.255c-1.466 8.872-3.598 14.968-7.728 27.07a223.516 223.516 0 01-2.132 6.142c-.267.728-.489 1.456-.755 2.138-.578 1.82-1.288 3.731-1.955 5.824-.222.773-.488 1.592-.755 2.457-.844 2.456-1.599 4.959-2.532 7.688-.222.728-.488 1.456-.71 2.23-2.265 7.006-3.997 12.602-5.152 16.196l-1.688-.591c.133-.501.355-1.092.489-1.638a92.376 92.376 0 001.821-5.824c.088-.091.088-.136.088-.227a476.691 476.691 0 002.754-8.508c.355-1.092.711-2.138.977-3.185.089-.136.134-.227.134-.272.621-1.957 1.199-3.686 1.776-5.414.267-.956.578-1.82.844-2.594a600.703 600.703 0 015.152-15.059c.267-.773.578-1.592.844-2.365 3.598-10.601 5.419-16.333 6.84-24.432 1.688-9.872 2.043-20.245.977-30.891a3.24 3.24 0 011.821.955c.933 10.464.489 20.655-1.11 30.3zM367 277.552c-4.475 10.41-10.324 19.221-17.413 26.252-1.418 1.37-2.969 2.739-4.475 4.2-5.406 4.931-10.856 9.908-13.913 17.121-.753 1.735-1.329 3.561-1.772 5.57-.488 2.329-.709 4.794-.709 7.214l-1.684.091c-.133-2.602.133-5.205.62-7.716.355-1.506.754-2.967 1.33-4.337 3.013-8.446 9.26-14.245 14.931-19.312 1.463-1.37 3.013-2.74 4.343-4.109 7.178-7.077 12.982-15.98 17.324-26.526.133.091.266.137.443.228.488.229.753.776.975 1.324z" fill="#45594F"/><path d="M340.062 367h-31.698c-1.144-1.5-2.506-3.865-2.77-6.911-.132-1.682.176-2.455.264-3.865.175-4.728-3.122-6.683-3.737-9.821-.528-2.546.483-6.365 6.946-12.094-.044-1.182.088-2.773 1.143-3.864 1.231-1.319 2.902-.955 7.122-.955 5.935 0 5.936-.728 10.684-.409 2.154.136 3.605.409 6.023.772 5.144.864 7.782 1.274 9.364 2.592 1.847 1.501 4.045 4.456 3.517 7.229-.527 2.637-3.121 2.774-3.737 5.456-.967 4.047 4.441 6.593 3.518 10.867-.396 1.773-1.407 1.728-3.737 5.456-1.495 2.182-2.375 4.228-2.902 5.547z" fill="#855249"/><path d="M311 346.5c0 .85-.7 1.5-1.5 1.5-.85 0-1.5-.7-1.5-1.5 0-.85.7-1.5 1.5-1.5s1.5.65 1.5 1.5zm6-3.5c0 .538-.423 1-1 1-.538 0-1-.423-1-1 0-.538.423-1 1-1 .577.038 1 .462 1 1z" fill="#C7B28A"/><path d="M314 343c0 1.652-1.348 3-3 3s-3-1.348-3-3 1.348-3 3-3 3 1.348 3 3zm-4-5.5c0 .844-.656 1.5-1.5 1.5a1.48 1.48 0 01-1.5-1.5c0-.844.656-1.5 1.5-1.5.797 0 1.5.703 1.5 1.5zm9-1a1.5 1.5 0 11-3.001-.001 1.5 1.5 0 013.001.001zm9 5.5c0 1.077-.654 2-1.5 2-.808 0-1.5-.872-1.5-2 0-1.077.654-2 1.5-2 .808 0 1.5.872 1.5 2zm-3 7.5a2.49 2.49 0 01-2.5 2.5 2.49 2.49 0 01-2.5-2.5 2.49 2.49 0 012.5-2.5c1.389.046 2.5 1.157 2.5 2.5zm-11 4.5c0 1.122-.878 2-2 2-1.122 0-2-.878-2-2 0-1.122.878-2 2-2 1.122 0 2 .878 2 2zm-3-5c0 1.641-1.359 3-3 3a3.02 3.02 0 01-3-3c0-1.641 1.359-3 3-3s3 1.359 3 3z" fill="#C7B28A"/><path d="M309 348a4 4 0 100-8 4 4 0 000 8zm31 11c0 1.116-.884 2-2 2s-2-.884-2-2 .884-2 2-2 2 .884 2 2zm-7 3c0 .556-.444 1-1 1-.555 0-1-.444-1-1s.445-1 1-1c.556 0 1 .481 1 1zm-5-2c0 .56-.44 1-1 1s-1-.44-1-1 .44-1 1-1c.52 0 1 .44 1 1z" fill="#C7B28A"/><path d="M338 356c0 1.629-1.329 3-3 3-1.672 0-3-1.329-3-3s1.328-3 3-3c1.671.043 3 1.371 3 3z" fill="#C7B28A"/><path d="M345 352.5c0 2.495-2.005 4.5-4.5 4.5a4.488 4.488 0 01-4.5-4.5c0-2.495 2.005-4.5 4.5-4.5 2.495.045 4.5 2.05 4.5 4.5zm-8-6.5c0 .538-.462 1-1 1s-1-.462-1-1 .462-1 1-1 1 .462 1 1z" fill="#C7B28A"/></svg>