<svg width="400" height="400" viewBox="0 0 400 400" fill="none" xmlns="http://www.w3.org/2000/svg">
<path d="M252.561 76.9898C255.542 55.937 241.582 36.3834 221.379 33.3156C201.176 30.2479 182.381 44.8275 179.399 65.8804C176.417 86.9332 190.378 106.487 210.581 109.555C230.784 112.623 249.579 98.0427 252.561 76.9898Z" fill="#545251"/>
<path d="M278.436 253C285.29 246.745 292.145 240.49 299 234.235C293.693 215.151 285.777 193.281 273.881 170.224C269.016 160.865 264.019 152.236 258.977 144.383C251.724 141.689 243.852 142.967 238.413 147.898C233.15 152.692 232.177 159.13 232 160.911C247.523 191.592 262.957 222.319 278.436 253Z" fill="#E6BBA4"/>
<path d="M101.735 257C95.5047 250.191 89.2305 243.382 83 236.527C89.8886 218.142 99.5414 197.17 113.275 175.426C118.847 166.574 124.551 158.494 130.167 151.185C141.312 138.566 155.835 137.794 160.617 143.105C164.873 147.826 163.601 159.81 155.396 170.024C137.494 199.031 119.637 228.038 101.735 257Z" fill="#E6BBA4"/>
<path d="M267 362.731C266.956 362.777 266.868 362.777 266.824 362.868C265.243 363.913 263.398 365.185 261.202 366.549C258.698 368.094 255.755 369.775 252.461 371.457C251.319 372.093 250.133 372.684 248.859 373.274C243.94 375.637 238.317 378 231.992 380H150.513C142.431 377.41 135.886 374.41 131.142 372.047C130.703 371.82 130.351 371.593 130 371.411C130.044 369.911 130.132 368.321 130.22 366.549C130.703 359.596 131.669 350.462 133.865 340.055C137.291 323.604 142.255 310.925 145.154 304.245C146.34 301.473 146.647 300.973 147.174 299.61C148.668 296.156 149.634 292.657 150.161 289.203C151.04 283.432 150.864 277.615 150.205 271.253C149.502 264.346 148.229 256.847 147.13 248.349C146.823 245.85 146.516 243.396 146.296 240.851C145.988 238.261 145.769 235.534 145.505 232.853C144.978 226.582 144.495 220.31 143.924 214.039C143.792 212.63 143.748 211.176 143.616 209.767C143.485 208.722 143.441 207.722 143.397 206.677C143.221 204.86 143.046 203.087 142.914 201.269C142.123 192.817 141.288 184.864 140.234 178.048C140.015 176.912 139.795 175.866 139.619 174.821C139.268 173.185 138.961 171.64 138.609 170.231C138.258 168.323 137.95 166.278 137.731 164.233C137.028 157.507 137.379 150.1 140.674 144.056C140.981 143.51 141.332 142.874 141.772 142.329C150.513 136.285 161.933 139.057 170.586 131.968C170.718 131.922 170.806 131.786 170.894 131.74C179.547 130.559 186.662 131.059 191.494 131.422C201.86 132.24 207.746 134.285 212.358 136.058C214.203 136.785 215.828 137.466 217.497 138.057C218.332 138.375 219.254 138.602 220.133 138.784C221.934 139.284 223.866 139.602 226.194 139.602C227.644 139.602 229.269 139.557 231.07 139.284C231.377 139.284 231.597 139.239 231.773 139.239C232.3 139.193 232.783 139.102 233.266 139.057C236.56 138.602 239.371 138.33 241.919 138.193C243.72 138.148 245.345 138.193 246.883 138.512C249.123 138.875 251.187 139.648 253.427 140.92C253.559 140.966 253.647 141.056 253.779 141.102C254.482 141.602 255.536 142.238 256.722 143.419C257.029 143.647 257.337 143.965 257.688 144.328C259.533 146.237 261.509 149.236 263.222 153.826C263.881 155.689 264.496 157.871 264.979 160.325C265.023 160.506 265.023 160.552 265.111 160.688C265.067 160.87 264.979 161.143 264.936 161.324C262.915 167.959 260.851 174.503 258.698 181.047C258.566 181.592 258.391 182.092 258.215 182.592C257.512 184.819 256.766 187 256.063 189.227C255.755 190.181 255.448 191.09 255.184 191.999C254.35 194.362 253.559 196.725 252.768 199.088C252.549 199.77 252.285 200.451 252.066 201.179C252.022 201.315 251.934 201.497 251.89 201.678C251.407 203.042 250.924 204.451 250.397 205.905C250.353 206.268 250.221 206.586 250.089 206.905C249.386 208.949 248.64 211.085 247.849 213.13C244.774 221.946 241.612 230.626 238.361 239.079C237.834 240.578 237.263 241.987 236.736 243.441C235.945 245.441 235.155 247.395 234.408 249.395C234.188 250.122 233.881 250.894 233.574 251.621C232.871 253.439 232.124 255.211 231.465 256.938C231.333 257.165 231.29 257.393 231.158 257.574C230.938 258.211 230.675 258.801 230.455 259.438C230.147 260.165 229.928 260.846 229.62 261.528C228.61 264.073 227.6 266.572 226.546 269.026C225.535 271.617 224.437 274.161 223.383 276.706C223.163 277.252 222.944 277.842 222.68 278.388C222.636 278.569 222.549 278.751 222.505 278.933C222.153 279.796 221.802 280.614 221.407 281.478C226.15 285.386 232.256 291.112 238.625 298.746C243.896 305.245 249.386 313.107 254.174 322.514C255.536 325.24 256.809 327.921 257.82 330.512C262.871 342.191 265.375 352.779 266.78 361.005C266.824 361.55 266.912 362.141 267 362.731Z" fill="#E5BBA4"/>
<path d="M152.5 212C162.717 212 171 203.27 171 192.5C171 181.73 162.717 173 152.5 173C142.283 173 134 181.73 134 192.5C134 203.27 142.283 212 152.5 212Z" fill="#F78888"/>
<path d="M210.5 212C220.717 212 229 203.27 229 192.5C229 181.73 220.717 173 210.5 173C200.283 173 192 181.73 192 192.5C192 203.27 200.283 212 210.5 212Z" fill="#F78888"/>
<path d="M132 164C133.975 163.954 135.907 163.863 137.882 163.818C180.24 162.497 222.642 161.176 265 159.901C264.078 154.253 261.796 146.555 255.738 140.861C247.355 133.027 237.785 138.128 223.608 129.201C217.726 125.511 214.083 121.458 212.81 119.909C205.918 111.847 203.285 103.101 202.143 98C193.145 99.1843 184.146 100.323 175.148 101.507C172.997 118.497 171.286 130.932 171.11 131.068C170.978 131.159 170.847 131.296 170.671 131.433C162.068 138.493 150.655 135.76 141.92 141.818C140.559 142.729 139.286 143.913 138.057 145.325C132.966 151.337 132.088 159.081 132 164Z" fill="#E6BBA4"/>
<path d="M194 137.59C192.876 139.446 191.103 140.33 189.416 139.888C186.995 139.225 186.086 136.221 186 136L194 137.59Z" fill="#545251"/>
<path d="M221.459 281.255C197.777 283.852 174.051 286.403 150.37 289C148.308 263.899 146.291 238.752 144.23 213.65C141.686 212.375 136.95 209.504 134.187 203.856C129.845 195.063 132.082 183.264 139.888 174.335C150.326 159.894 160.763 145.407 171.201 130.966C173.569 142.355 181.331 151.238 190.585 153.015C203.478 155.566 218.784 144.268 220.933 126C231.941 152.833 242.948 179.62 254 206.452C243.168 231.371 232.291 256.291 221.459 281.255Z" fill="#545251"/>
<path d="M234.908 281.457C241.054 288.688 248.165 298.601 254.179 311.471C265.504 335.71 267.084 358.221 266.997 371.363C219.983 371.591 173.014 371.818 126 372C127.185 353.855 130.258 332.208 137.106 308.515C140.31 297.374 143.954 287.187 147.729 278.046C141.276 258.901 134.121 226.84 145.271 193.233C146.719 188.913 148.343 184.82 150.143 181C156.508 184.684 166.517 189.459 179.554 191.505C198.474 194.461 213.75 190.095 221.52 187.23C225.997 218.654 230.431 250.078 234.908 281.457Z" fill="white"/>
<path d="M148.625 192C148.408 192 148.19 191.954 148.016 191.863C147.19 191.497 146.798 190.492 147.103 189.623L169.852 131.068C170.2 130.199 171.157 129.788 171.984 130.108C172.81 130.474 173.202 131.479 172.897 132.348L150.148 190.903C149.887 191.589 149.278 192 148.625 192Z" fill="white"/>
<path d="M221.317 193C220.363 193 219.636 192.228 219.591 191.319L219 124.726C219 123.772 219.727 123 220.681 123C221.635 123 222.407 123.772 222.407 124.681L222.998 191.274C223.043 192.228 222.317 193 221.317 193C221.362 193 221.362 193 221.317 193Z" fill="white"/>
<path d="M229 258.019C230.18 261.416 231.404 264.813 232.585 268.21C263.886 276.198 290.203 271.286 297.985 256.046C299.428 253.245 301.788 237.408 300.739 231.991C299.384 225.243 295.93 220.836 294.269 219C292.914 219.826 290.378 221.387 287.275 223.407C265.11 237.867 259.033 247.048 242.989 253.75C240.235 254.898 235.426 256.734 229 258.019Z" fill="#E6BBA4"/>
<path d="M360.582 210.288C363.011 219.915 354.268 231.743 349.499 230.963C345.746 230.322 349.058 224.225 342.214 213.497C334.796 201.807 323.007 196.535 324.067 194.106C325.082 191.676 335.105 193.602 342.523 196.49C350.471 199.561 358.639 202.724 360.582 210.288Z" fill="#92B69A"/>
<path d="M328.546 118.999C326.9 119.089 326.727 114.839 321.615 109.866C317.369 105.706 314.727 105.932 314.12 103.671C312.561 97.8842 326.597 85.4055 332.055 88.4799C338.683 92.2326 332.618 118.818 328.546 118.999Z" fill="#92B69A"/>
<path d="M287.885 141.18C286.526 163.654 272.887 187.267 263.239 185.947C253.723 184.673 248.549 159.332 249.031 141.18C249.601 119.888 258.416 93.0912 268.458 93.0002C278.281 92.9093 289.245 118.432 287.885 141.18Z" fill="#92B69A"/>
<path d="M265.298 162.33C262.411 173.324 258.124 181.366 255.849 185.273C255.674 185.5 255.499 185.773 255.368 186C254.537 184.864 253.705 183.774 252.918 182.729C250.424 179.458 248.325 176.277 246.444 173.37C242.638 167.463 239.225 162.148 236.338 155.878C236.032 155.197 235.726 154.515 235.463 153.788C234.807 152.107 234.151 150.381 233.538 148.563C232.663 145.837 231.57 142.475 230.87 138.523C230.695 137.705 230.563 136.842 230.52 135.978C230.388 135.297 230.301 134.616 230.213 133.889C229.601 127.165 230.345 120.35 231.963 114.171C232.138 113.535 232.313 112.944 232.488 112.308C233.276 109.537 234.282 106.901 235.288 104.494C235.594 103.948 235.9 103.358 236.119 102.858C239.181 96.8154 242.944 92.4993 246.618 91.3635C247.318 91.1363 247.975 91 248.631 91C248.937 91 249.287 91 249.637 91.1363C250.468 91.2726 251.474 91.5906 252.568 92.363C255.499 96.452 259.611 103.176 262.849 112.035C263.155 112.853 263.461 113.671 263.68 114.443C264.555 117.124 265.298 119.759 265.955 122.712C266.13 123.439 266.305 124.257 266.436 125.075C266.742 126.574 266.961 128.119 267.223 129.709C268.929 142.294 267.617 153.334 265.298 162.33Z" fill="#45594F"/>
<path d="M374 158.532C373.78 158.577 373.473 158.713 373.209 158.758C363.589 161.974 354.231 164.782 345.314 167.227C344.611 167.454 343.952 167.68 343.205 167.771C338.944 168.994 334.727 170.081 330.597 171.122C330.158 171.258 329.806 171.349 329.455 171.439C328.137 171.802 326.863 172.119 325.545 172.436C323.437 172.934 321.328 173.432 319.307 173.93C317.198 174.292 315.266 174.655 313.377 175.062C307.622 175.923 302.087 176.376 296.463 175.606C292.729 175.108 289.083 174.202 285.305 172.617C284.163 172.119 283.153 171.62 282.362 171.213C281.835 170.986 281.351 170.715 281 170.534C281.22 169.99 282.142 168.178 283.636 165.642C285.788 162.246 289.215 157.49 294.091 152.916C294.223 152.871 294.267 152.78 294.311 152.69C295.189 151.829 296.244 150.969 297.298 150.108C297.342 150.063 297.474 149.972 297.518 149.927C303.8 144.719 312.103 140.28 322.558 138.605C323.92 138.424 325.325 138.242 326.643 138.106C327.302 138.061 328.005 137.971 328.664 138.061C333.365 137.835 337.714 138.242 341.755 139.193C342.37 139.239 342.898 139.42 343.425 139.556C346.895 140.416 350.102 141.594 352.957 142.952C353.572 143.179 354.144 143.496 354.715 143.768C362.227 147.527 367.718 152.237 370.925 155.316C372.726 157.037 373.736 158.305 374 158.532Z" fill="#45594F"/>
<path d="M360.863 211.387C360.863 211.432 360.819 211.569 360.731 211.615C360.203 212.347 358.883 211.981 356.683 210.975C353.34 209.42 347.929 206.311 340.054 203.11C339.527 202.881 338.911 202.607 338.295 202.424C335.699 201.372 332.84 200.366 329.628 199.497C329.1 199.314 328.617 199.131 328.045 198.994C327.033 198.674 325.933 198.354 324.877 198.125C323.206 197.668 321.49 197.256 319.906 196.89C319.378 196.845 318.806 196.708 318.322 196.662C308.688 194.604 300.11 194.055 293.027 193.964C290.871 193.964 288.892 194.01 287 194.101C287.044 193.964 287.132 193.781 287.176 193.598C288.364 189.985 291.135 182.669 296.062 176.587C299.186 172.791 303.145 169.453 308.072 167.898C311.988 166.709 315.947 166.755 319.906 167.715C323.469 168.584 326.945 170.048 330.2 172.105C333.808 174.3 337.151 176.998 340.362 179.925C340.846 180.382 341.286 180.748 341.682 181.251C344.366 183.858 346.917 186.693 349.205 189.482C349.689 190.031 350.085 190.626 350.525 191.174C357.607 200.274 361.831 209.009 360.863 211.387Z" fill="#45594F"/>
<path d="M330.973 89.2801C331.148 94.2228 330.533 99.2108 327.635 100.843C325.176 102.34 323.025 100.39 320.39 101.161C319.204 101.478 318.15 102.204 317.316 103.337C316.965 103.7 316.657 104.153 316.394 104.652C315.296 106.511 314.55 108.869 313.891 111.545C313.759 112.044 313.671 112.542 313.584 113.041C312.881 116.215 312.398 119.616 311.915 122.7C311.871 123.244 311.783 123.743 311.696 124.242C311.388 126.055 311.169 127.688 310.817 129.139C310.334 131.315 309.632 133.537 308.534 135.895C308.314 136.439 308.007 137.074 307.656 137.709C305.636 141.745 302.562 146.007 297.995 150.361C297.951 150.406 297.819 150.497 297.776 150.542C296.678 151.404 295.668 152.265 294.79 153.127C294.746 153.263 294.658 153.308 294.57 153.353C289.169 157.888 282.099 162.377 272.834 166.776C272 167.229 271.165 167.637 270.331 168L269.628 167.274C269.145 166.776 268.619 166.095 268.048 165.37C267.433 164.508 266.906 163.556 266.467 162.604C262.076 153.625 264.052 141.473 268.443 130.091C271.078 123.108 274.547 116.533 278.059 111.091C278.542 110.366 279.025 109.595 279.508 108.915C279.728 108.552 279.992 108.235 280.211 107.872C281.484 106.058 282.802 104.153 284.339 102.158C284.953 101.251 285.656 100.299 286.359 99.4375C292.462 91.7741 300.63 84.3828 312.135 83.1584C319.292 82.4329 325.396 84.3374 329.48 86.0606C329.963 86.2873 330.446 86.514 330.929 86.7408C330.929 87.557 330.973 88.4185 330.973 89.2801Z" fill="#45594F"/>
<path d="M256.927 145.819C256.794 156.974 256.574 170.304 256.265 185.131C256.044 194.245 255.78 203.949 255.471 214.06C255.427 214.967 255.427 215.965 255.339 216.917C255.339 217.96 255.339 218.957 255.294 220H254.588L252.294 219.864C252.338 217.688 252.427 215.511 252.471 213.425C252.78 202.588 253.088 192.25 253.309 182.592C253.53 168.717 253.794 156.248 253.927 145.729C254.103 135.708 254.28 122.014 250.441 104.285C249.471 99.9325 248.324 95.6249 247 91.3627C247.706 91.136 248.368 91 249.029 91C249.338 91 249.691 91 250.044 91.136C251.324 95.2169 252.383 99.4337 253.353 103.651C257.28 121.742 257.103 135.617 256.927 145.819Z" fill="#92B69A"/>
<path d="M330 89.2262C328.333 88.9082 327.499 89.2717 327.105 89.5898C326.578 89.9533 326.447 90.5895 326.139 91.4983C325.832 92.6797 325.481 94.0883 324.121 95.2244C321.445 97.5418 317.892 96.0423 314.47 94.5882C312.321 93.6794 310.039 92.7252 307.978 92.7252C305.872 92.7252 303.415 93.7248 299.906 98.4961C296.44 103.222 291.877 111.719 285.648 126.669C279.243 142.21 274.856 156.069 271.785 166.838C270.601 171.109 269.548 174.926 268.714 178.062L267.749 181.924C264.634 193.421 261.52 205.008 258.449 216.641C257.264 221.094 256.036 225.592 254.895 230L252 229.273C252.79 226.41 253.492 223.502 254.281 220.639C254.501 219.64 254.764 218.64 255.071 217.64C255.29 216.641 255.554 215.777 255.773 214.914C258.756 203.599 261.783 192.33 264.81 181.106L265.775 177.38C266.565 174.518 267.442 171.155 268.539 167.429C271.61 156.387 276.084 141.846 282.84 125.533C295.168 95.7242 301.616 89.7261 307.89 89.7261C310.566 89.7261 313.242 90.8621 315.567 91.8163C318.375 92.9978 320.831 93.9975 322.235 92.8615C322.849 92.4071 323.025 91.8164 323.244 90.7712C323.551 89.6352 323.902 88.2266 325.218 87.1815C326.052 86.4999 327.149 86.0454 328.377 86C328.859 86.2272 329.342 86.4544 329.824 86.6816C329.956 87.4995 330 88.3629 330 89.2262Z" fill="#92B69A"/>
<path d="M374 158.909C373.781 158.954 373.474 159.09 373.211 159.136C364.353 157.591 355.364 156.728 346.55 156.456C322.301 155.638 297.088 154.911 282.53 171.582C282.398 171.627 282.355 171.764 282.223 171.9C280.118 174.398 278.978 176.351 276.786 180.258C270.515 191.25 266.437 203.424 264.815 216.506C264.683 217.369 264.596 218.186 264.508 219.05C264.289 221.048 264.157 223.001 264.026 225L262.754 224.955L261 224.909C261.132 222.683 261.307 220.458 261.526 218.277C263.105 203.923 267.27 190.66 274.155 178.668C276.435 174.761 277.619 172.581 279.943 169.856C281.127 168.448 282.399 167.176 283.714 165.995C299.412 151.868 323.31 152.595 346.55 153.322C354.618 153.549 362.775 154.321 370.887 155.547C372.728 157.41 373.737 158.682 374 158.909Z" fill="#92B69A"/>
<path d="M361 210.048C361 210.093 360.956 210.228 360.868 210.273C360.34 210.994 359.019 210.634 356.818 209.642C338.418 185.399 324.464 174.629 315.264 177.558C312.843 178.369 310.686 180.082 307.736 182.56C304.347 185.399 300.033 189.004 293.122 192.834C291.625 193.691 289.952 194.547 288.148 195.403C286.211 196.304 284.802 196.935 283.526 197.476C281.369 198.377 280.048 198.963 278.111 200.36C272.741 204.37 268.911 210.454 266.578 218.565C265.918 220.908 265.389 223.386 264.949 226L262 225.504C262.044 225.054 262.132 224.648 262.22 224.198C262.572 222.125 263.012 220.142 263.541 218.294C263.717 217.483 263.981 216.672 264.245 215.906C266.754 207.975 270.804 201.892 276.35 197.881C278.595 196.214 280.092 195.583 282.381 194.637C283.57 194.096 285.022 193.51 286.871 192.609C287.003 192.564 287.179 192.474 287.311 192.429C296.643 187.878 301.97 183.371 305.888 180.172C308.485 177.964 310.642 176.161 313.063 175.125C313.591 174.9 313.943 174.674 314.383 174.584C315.836 174.089 317.377 173.908 319.005 174.043C329.614 174.584 343.392 186.481 361 210.048Z" fill="#92B69A"/>
<path d="M255 118.467L254.505 120C254.28 119.954 253.965 119.814 253.694 119.675C250.723 118.653 247.976 117.12 245.455 115.309C241.043 112.057 238.026 108.202 236 104.672C236.315 104.115 236.63 103.511 236.855 103C238.837 106.623 241.763 110.664 246.4 114.055C248.562 115.634 250.948 116.981 253.469 117.91C253.964 118.049 254.505 118.281 255 118.467Z" fill="#92B69A"/>
<path d="M255 126.432L254.869 128C254.347 127.954 253.78 127.862 253.258 127.769C249.729 127.308 246.419 126.248 243.326 124.542C238.099 121.729 234.439 117.671 232 113.891C232.174 113.245 232.348 112.646 232.523 112C234.919 115.919 238.534 120.208 243.936 123.159C246.811 124.68 249.903 125.741 253.083 126.202C253.737 126.294 254.39 126.34 255 126.432Z" fill="#92B69A"/>
<path d="M256 147.476L255.866 149C255.418 148.955 254.97 148.955 254.522 148.821C249.369 148.328 244.351 146.803 239.826 144.338C236.78 142.724 233.957 140.797 231.358 138.51C231.179 137.703 231.045 136.852 231 136C233.733 138.824 237.004 141.066 240.498 142.993C244.889 145.279 249.638 146.803 254.566 147.297C255.104 147.431 255.507 147.431 256 147.476Z" fill="#92B69A"/>
<path d="M256 159.51L255.821 161C255.327 160.955 254.789 160.865 254.296 160.819C250.619 160.323 246.942 159.51 243.309 158.426C241.112 157.748 238.96 156.935 236.897 156.077C236.583 155.4 236.269 154.723 236 154C238.511 155.129 241.157 156.077 243.848 156.981C247.211 158.019 250.753 158.832 254.341 159.329C254.834 159.374 255.462 159.419 256 159.51Z" fill="#92B69A"/>
<path d="M264 114.446C263.391 116.569 262.739 118.692 262 120.769C260.522 124.6 258.783 128.385 256.783 131.985C256.609 132.308 256.435 132.677 256.261 133L255 132.169C255.522 131.2 256.13 130.231 256.609 129.215C258.174 126.308 259.522 123.308 260.652 120.215C261.609 117.585 262.478 114.815 263.217 112C263.478 112.785 263.783 113.615 264 114.446Z" fill="#92B69A"/>
<path d="M267 125.381C265.809 127.807 264.397 130.142 262.941 132.431C261.132 135.361 259.147 138.2 256.985 140.855C256.765 141.222 256.456 141.588 256.147 142L255 140.993C255.662 140.123 256.324 139.299 256.985 138.383C258.662 136.186 260.25 133.896 261.706 131.561C263.471 128.814 265.059 125.976 266.515 123C266.691 123.778 266.868 124.602 267 125.381Z" fill="#92B69A"/>
<path d="M288 121.303L286.517 122C286.182 121.303 285.848 120.653 285.608 119.956C284.174 116.61 283.312 113.079 283.073 109.547C282.882 106.76 283.073 104.158 283.552 101.788C284.221 100.859 284.987 99.8828 285.752 99C284.891 101.974 284.461 105.552 284.7 109.408C284.939 112.335 285.561 115.263 286.613 117.958C286.948 119.166 287.474 120.234 288 121.303Z" fill="#92B69A"/>
<path d="M284 130.329L282.632 131C282.456 130.553 282.279 130.15 282.103 129.703C280.471 125.813 279.324 121.744 278.618 117.63C278.309 115.484 278.088 113.337 278 111.146C278.485 110.431 278.971 109.671 279.456 109C279.456 111.817 279.676 114.545 280.118 117.362C280.735 120.894 281.618 124.382 282.941 127.691C283.294 128.585 283.647 129.48 284 130.329Z" fill="#92B69A"/>
<path d="M317 102.691C316.643 103.052 316.33 103.504 316.062 104C313.738 101.472 311.683 100.299 309.896 100.57C309.092 100.705 308.421 101.202 307.572 101.698C306.411 102.42 304.936 103.368 302.613 103.684C300.781 103.91 298.815 103.819 296.894 103.142C296.581 103.142 296.268 103.007 296 102.917L296.536 101.518C296.983 101.653 297.34 101.833 297.698 101.833C299.351 102.33 300.915 102.465 302.479 102.195C304.445 101.969 305.651 101.156 306.813 100.479C307.706 99.8475 308.6 99.3059 309.672 99.1253C311.862 98.5837 314.364 99.8023 317 102.691Z" fill="#92B69A"/>
<path d="M313 111.454C312.869 112.003 312.782 112.553 312.695 113.102C309.08 112.303 304.854 112.903 300.237 113.602C297.013 114.102 293.877 114.851 290.784 115.85C290.653 115.9 290.566 115.9 290.435 116L290 114.351C290.523 114.152 291.089 114.002 291.612 113.852C294.356 112.953 297.187 112.303 300.062 111.853C304.68 111.154 309.08 110.554 313 111.454Z" fill="#92B69A"/>
<path d="M312 123C311.956 123.526 311.867 124.007 311.779 124.489C310.63 124.708 309.437 125.015 308.111 125.321L306.167 125.803C299.627 127.248 292.777 128.387 285.663 128.956C285.486 128.956 285.309 129 285.133 129L285 127.511C285.442 127.467 285.884 127.467 286.326 127.38C293.043 126.766 299.671 125.715 305.902 124.27L307.758 123.832C309.128 123.526 310.586 123.175 312 123Z" fill="#92B69A"/>
<path d="M308 136C307.777 136.578 307.465 137.251 307.108 137.925C305.994 138.262 304.924 138.647 303.899 139.032C302.205 139.706 300.868 140.332 299.575 141.005C297.747 141.92 296.053 142.786 293.468 143.556C290.259 144.519 286.96 145 283.528 145C282.057 145 280.541 144.952 279.025 144.759C278.669 144.711 278.357 144.711 278 144.615L278.223 142.979C278.669 143.027 279.114 143.123 279.56 143.123C284.196 143.652 288.743 143.267 293.022 142.016C295.519 141.246 297.168 140.428 298.862 139.513C300.199 138.84 301.536 138.214 303.364 137.492C304.88 136.818 306.395 136.289 308 136Z" fill="#92B69A"/>
<path d="M346 167.451C345.279 167.68 344.604 167.908 343.838 168C342.441 167.176 341 166.307 339.649 165.438C335.234 162.556 330.91 159.353 326.856 155.922C326.541 155.739 326.315 155.464 326 155.235L326.991 154C327.712 154.641 328.522 155.327 329.333 155.922C332.892 158.85 336.676 161.595 340.55 164.111C342.306 165.255 344.153 166.353 346 167.451Z" fill="#92B69A"/>
<path d="M355 143.788L339.858 152.591L335.788 155L335 153.686L336.838 152.591L353.206 143C353.862 143.263 354.475 143.569 355 143.788Z" fill="#92B69A"/>
<path d="M343 139.407L331.383 152.599L330.106 154L329 152.961L329.298 152.599L341.383 139C341.979 139.136 342.489 139.316 343 139.407Z" fill="#92B69A"/>
<path d="M329 138.039L316.507 153.29L315.144 155L314 154.01L314.44 153.515L327.021 138.083C327.636 138.038 328.34 137.949 329 138.039Z" fill="#92B69A"/>
<path d="M330.294 172L303 158.392L303.661 157L331 170.608L330.294 172Z" fill="#92B69A"/>
<path d="M320 196C319.473 195.954 318.901 195.817 318.418 195.771L316.132 177.327L316 176.183L317.494 176L317.626 177.144L320 196Z" fill="#92B69A"/>
<path d="M330 199C329.442 198.818 328.93 198.636 328.326 198.499L324.14 178.82L324 178.319L325.581 178L325.907 179.549L330 199Z" fill="#92B69A"/>
<path d="M340 202C339.486 201.775 338.886 201.505 338.286 201.325L334.129 184.81L334 184.36L335.414 184L336.057 186.52L340 202Z" fill="#92B69A"/>
<path d="M342 180.318L335.194 181.636L333.224 182L333 180.5L333.537 180.364L340.612 179C341.104 179.455 341.552 179.818 342 180.318Z" fill="#92B69A"/>
<path d="M351 190L344.07 189.551L342 189.388L342.135 188H342.36L349.695 188.49C350.145 189.02 350.595 189.51 351 190Z" fill="#92B69A"/>
<path d="M265.785 165C265.234 164.908 264.959 164.54 265.005 164.079C265.784 159.061 266.381 153.997 266.747 148.98C267.252 142.627 267.481 136.182 267.435 129.783C267.435 129.368 267.802 129 268.215 129C268.628 129 268.994 129.368 268.994 129.783C269.04 136.228 268.811 142.765 268.306 149.164C267.894 154.182 267.298 159.338 266.518 164.356C266.518 164.724 266.197 165 265.785 165Z" fill="#92B69A"/>
<path d="M292.702 156C292.495 156 292.288 155.903 292.163 155.71C291.915 155.372 291.956 154.841 292.246 154.551L297.842 149.19C298.132 148.901 298.588 148.949 298.837 149.287C299.085 149.625 299.044 150.156 298.754 150.446L293.158 155.807C292.992 155.952 292.868 156 292.702 156Z" fill="#92B69A"/>
<path d="M296.72 176C296.501 176 296.325 175.913 296.193 175.781C295.929 175.475 295.929 174.994 296.237 174.732C299.007 172.152 303.713 168.786 310.354 167.518C319.942 165.638 327.726 169.354 330.629 171.059C330.98 171.278 331.112 171.715 330.892 172.065C330.673 172.415 330.233 172.546 329.881 172.327C327.154 170.71 319.766 167.212 310.618 168.961C304.329 170.185 299.887 173.377 297.248 175.825C297.072 175.956 296.896 176 296.72 176Z" fill="#92B69A"/>
<path d="M256.162 215C252.676 205.733 246.894 192.605 237.583 178.296C223.196 156.31 210.309 146.816 213.487 139.502C216.134 133.415 228.844 131.098 237.583 134.732C254.573 141.819 261.679 173.799 256.162 215Z" fill="#92B69A"/>
<path d="M257.399 274.726C256.918 275.275 256.175 276.007 255.126 276.464C251.672 278.065 248.175 275.732 244.197 273.994C234.448 269.785 232.918 271.661 226.885 269.145C222.994 267.498 220.546 263.38 221.071 259.034C221.683 253.865 221.683 250.067 221.551 247.277C221.508 246.27 221.42 245.081 221.639 243.434C222.076 240.46 223.169 238.722 227.06 231.951C229.377 227.971 229.945 226.919 230.076 225.18C230.295 222.664 229.595 221.429 229.377 219.691C229.071 217.266 229.858 213.926 231.781 212.783C232.787 212.188 233.486 212.554 234.535 211.73C235.628 210.861 236.065 209.58 236.24 208.619C239.126 207.705 241.355 207.888 243.104 208.619C245.902 209.809 245.945 211.822 249.137 213.377C252.11 214.841 252.722 213.423 256.088 214.796C259.847 216.351 259.585 218.318 263.039 219.233C265.531 219.874 266.361 219.05 268.635 220.057C270.427 220.834 270.602 221.658 272.613 223.396C277.028 227.102 280.351 226.69 280.919 229.115C281.094 229.847 281.094 231.082 279.782 232.912C280.176 234.925 280.394 237.441 279.083 238.63C278.034 239.591 276.941 238.951 275.673 239.591C273.225 240.872 274.055 245.081 272.919 249.61C271.214 256.518 267.367 254.871 264.044 263.472C263.17 265.668 262.121 269.145 259.104 272.85C258.361 273.719 257.793 274.36 257.399 274.726Z" fill="#855249"/>
<path d="M276.692 249.458C278.708 254.863 270.644 264.16 257.802 273C254.821 272.954 248.773 272.405 242.461 268.511C238.122 265.809 235.273 262.557 233.652 260.313C233.433 258.389 233.213 256.466 233.038 254.542C232.731 254.313 231.899 253.626 231.679 252.435C231.373 250.969 232.074 249.366 233.476 248.45C231.723 248.267 230.321 247.076 230.058 245.656C229.663 243.733 231.329 241.397 233.915 241.214C233.696 241.122 232.994 240.801 232.687 240.023C232.293 239.061 232.6 237.824 233.52 237C243.645 240.206 252.235 241.855 258.415 243.183C270.863 245.931 275.509 246.343 276.692 249.458Z" fill="#E5BBA4"/>
<path d="M278.784 251.339C277.737 252.987 272.545 251.156 269.84 250.149C263.339 247.815 255.268 242.69 256.053 239.99C256.708 237.793 263.296 237.244 268.444 239.212C275.294 241.866 280.093 249.28 278.784 251.339Z" fill="#E5BBA4"/>
<path d="M278.591 225C278.411 225 278.23 224.915 278.094 224.746C277.913 224.492 278.004 224.153 278.275 224.026L287.137 219.069C287.409 218.942 287.77 218.985 287.906 219.239C288.087 219.493 287.996 219.832 287.725 219.959L278.863 224.915C278.772 224.958 278.682 225 278.591 225Z" fill="#545251"/>
<path d="M280.459 250C280.332 250 280.204 249.957 280.077 249.829L273.159 242.932C272.947 242.718 272.947 242.375 273.159 242.161C273.371 241.946 273.711 241.946 273.923 242.161L280.841 249.058C281.053 249.272 281.053 249.614 280.841 249.829C280.714 249.914 280.586 250 280.459 250Z" fill="#545251"/>
<path d="M254.436 250C254.257 249.956 234.385 243.084 234.385 243.084C234.072 242.996 233.938 242.688 234.027 242.379C234.117 242.071 234.475 241.939 234.743 242.027L254.615 248.899C254.928 248.987 255.062 249.295 254.973 249.604C254.883 249.824 254.66 250 254.436 250Z" fill="#545251"/>
<path d="M264.445 252C264.399 252 257.555 251.389 257.555 251.389C257.231 251.333 257 251 257 250.667C257.046 250.278 257.324 250.056 257.601 250L264.445 250.611C264.769 250.667 265 251 265 251.333C265 251.722 264.769 252 264.445 252Z" fill="#545251"/>
<path d="M248.416 255C248.237 254.954 233.359 249.099 233.359 249.099C233.091 249.007 232.911 248.641 233.046 248.367C233.135 248.092 233.494 247.909 233.763 248.047L248.641 253.902C248.909 253.994 249.089 254.36 248.954 254.634C248.865 254.863 248.64 255 248.416 255Z" fill="#545251"/>
<path d="M260.486 256H252.509C252.212 256 252 255.75 252 255.5C252 255.208 252.255 255 252.509 255H260.486C260.783 255 260.995 255.25 260.995 255.5C261.038 255.75 260.783 256 260.486 256Z" fill="#545251"/>
<path d="M240.001 270.208C240.348 274.124 240.652 278.085 241 282C232.266 280.25 223.532 278.546 214.798 276.795C213.147 274.676 210.844 271.176 209.366 266.293C207.194 259.016 208.106 252.752 208.758 249.758C209.149 247.823 209.497 245.935 209.888 244C211.756 244.322 213.581 244.599 215.45 244.921C218.491 245.981 222.446 247.777 226.443 250.955C234.786 257.542 238.48 266.063 240.001 270.208Z" fill="#E8E8E8"/>
<path d="M191.921 224.473C188.87 228.26 184.843 230.022 182.978 228.392C181.071 226.763 182.046 222.359 185.097 218.527C188.149 214.74 192.176 212.978 194.041 214.608C195.906 216.281 194.973 220.685 191.921 224.473Z" fill="#E5BBA4"/>
<path d="M210.313 227.586C215.113 234.918 218.08 241.654 219.869 246.328C222.181 251.094 220.698 256.364 217.687 258.197C214.24 260.305 208.088 258.243 206.038 252.24C203.158 248.574 199.275 242.937 195.959 235.422C191.247 224.882 186.84 209.118 190.156 207.194C193.603 205.223 204.51 218.742 210.313 227.586Z" fill="#545251"/>
<path d="M200.194 216C202.035 216.724 214.709 221.789 217.472 233.819C217.911 235.673 218.174 238.116 217.867 241.055C214.973 242.593 209.71 244.99 202.693 245.397C196.247 245.804 191.072 244.357 188.09 243.271C166.469 249.829 141.823 255.482 114.545 258.784C106.081 259.779 97.8804 260.548 89.9427 261C88.4516 259.779 84.7239 256.342 82.9259 250.417C80.8647 243.497 82.7944 237.663 83.4522 235.945C92.1793 231.513 99.6345 229.206 104.722 227.894C133.973 220.477 150.287 230.427 179.845 223.191C188.791 221.065 195.808 218.126 200.194 216Z" fill="#E6BBA4"/>
<path d="M186 126C192.627 126 198 116.15 198 104C198 91.8497 192.627 82 186 82C179.373 82 174 91.8497 174 104C174 116.15 179.373 126 186 126Z" fill="#545251"/>
<path d="M206.548 89.6278C200.517 104.492 188.019 113.283 186.358 114.235C184.96 115.096 183.518 115.73 181.944 116.274C181.944 116.274 179.585 116.954 177.094 116.999C170.014 117.09 160.4 107.891 159.57 107.03C155.069 102.634 151.573 99.2351 149.475 93.4345C147.902 88.8121 148.47 86.501 146.067 79.0236C144.756 74.9904 143.794 73.2684 142.745 70.5947C142.745 70.5494 142.702 70.4134 142.658 70.3228C142.265 69.3711 141.828 68.3288 141.391 67.1052C141.391 67.0599 141.347 66.9693 141.303 66.924C140.91 65.8817 140.56 64.7941 140.167 63.6158C138.157 57.2261 136.671 48.9331 139.818 41.3652C139.818 41.3652 143.095 33.48 152.316 27.5888C154.85 26.0027 157.822 24.6885 157.822 24.6885C158.565 24.326 159.264 24.0087 159.876 23.7822C165.557 21.8788 180.24 17.8456 193.001 25.4589C213.758 37.6945 213.977 71.1838 206.548 89.6278Z" fill="#E6BBA4"/>
<path d="M214.689 61.8783C215.899 67.5861 213.478 72.9818 209.219 73.8736C204.96 74.7655 200.522 70.8413 199.311 65.1335C198.101 59.4257 200.522 54.03 204.781 53.1382C209.04 52.2017 213.478 56.1258 214.689 61.8783Z" fill="#E6BBA4"/>
<path d="M207.946 74C207.062 74 206.177 73.8267 205.337 73.4799C205.072 73.3499 204.939 73.0465 205.027 72.7865C205.16 72.5265 205.47 72.3531 205.735 72.4831C206.796 72.9165 207.946 73.0032 209.007 72.7865C211.307 72.3098 213.164 70.3161 213.916 67.4124C214.004 67.109 214.314 66.9356 214.579 67.0223C214.889 67.109 215.066 67.4124 214.977 67.6724C214.093 70.9662 211.97 73.2632 209.228 73.8266C208.83 73.9567 208.388 74 207.946 74Z" fill="#E6BBA4"/>
<path d="M214.458 67C214.179 66.9546 214.004 66.6822 214.039 66.3644C214.179 65.1385 214.144 63.9127 214.004 62.6414C213.97 62.3236 214.144 62.0512 214.388 62.0058C214.632 61.9604 214.841 62.1874 214.876 62.5052C215.016 63.8673 215.051 65.2293 214.911 66.546C214.841 66.773 214.667 67 214.458 67Z" fill="#E6BBA4"/>
<path d="M214.446 60.9548C214.225 60.9548 214.004 60.774 213.916 60.5481C212.501 55.577 208.698 52.4135 205.072 53.227C204.276 53.4078 203.524 53.7693 202.861 54.2664C202.64 54.4472 202.286 54.402 202.109 54.176C201.932 53.9501 201.976 53.5885 202.198 53.4078C202.993 52.7751 203.878 52.3684 204.851 52.1424C209.007 51.2386 213.385 54.7184 214.977 60.2769C215.065 60.5933 214.888 60.9096 214.623 61C214.535 60.9548 214.491 60.9548 214.446 60.9548Z" fill="#E6BBA4"/>
<path d="M206.558 70C206.145 69.9532 205.961 69.6252 206.007 69.2973L207.89 58.4756C207.936 58.1477 208.258 57.9603 208.534 58.0071C208.855 58.054 209.039 58.3819 208.993 58.663L207.11 69.4847C207.11 69.8126 206.834 70 206.558 70Z" fill="#E6BBA4"/>
<path d="M207.379 63C207.229 63 207.028 62.9522 206.928 62.809L204.17 60.0388C203.919 59.8 203.969 59.4179 204.17 59.1791C204.42 58.9403 204.822 58.9403 205.072 59.1791L207.83 61.9493C208.081 62.1881 208.031 62.5701 207.83 62.809C207.68 62.9522 207.529 63 207.379 63Z" fill="#E6BBA4"/>
<path d="M179.226 71.6055C179.999 73.6576 182.545 74.5437 184.91 73.6576C187.274 72.7714 188.547 70.3929 187.774 68.3875C187.001 66.3821 184.455 65.4493 182.09 66.3355C179.726 67.2216 178.453 69.6001 179.226 71.6055Z" fill="#545251"/>
<path d="M175.889 71C175.712 70.9571 171.356 69.3252 171.356 69.3252C171.09 69.2393 170.912 68.8957 171.045 68.638C171.134 68.3804 171.49 68.2086 171.756 68.3374L175.623 69.7546C175.978 69.0675 176.467 68.4233 177 67.865C181.089 63.6994 188.199 65.2024 189.577 65.546C189.888 65.6319 190.066 65.9325 189.977 66.1902C189.888 66.4908 189.622 66.6626 189.311 66.5767C188.511 66.362 181.533 64.773 177.8 68.5951C177.223 69.1963 176.778 69.8834 176.423 70.6135C176.334 70.9141 176.112 71 175.889 71Z" fill="#545251"/>
<path d="M152.247 80.6055C153.018 82.6576 155.558 83.5437 157.917 82.6576C160.276 81.7715 161.546 79.3929 160.775 77.3875C160.004 75.3821 157.463 74.4493 155.105 75.3355C152.701 76.2216 151.431 78.5534 152.247 80.6055Z" fill="#545251"/>
<path d="M146.903 81C146.814 81 146.725 81 146.636 80.9563L144.283 79.7316C144.017 79.6004 143.928 79.2505 144.061 78.9881C144.194 78.7257 144.55 78.6382 144.816 78.7694L146.681 79.7316C147.036 79.0318 147.48 78.4195 148.013 77.8947C152.186 73.5647 159.734 75.3142 160.578 75.5329C160.888 75.6204 161.066 75.9265 160.977 76.1889C160.888 76.4951 160.622 76.67 160.311 76.5826C159.512 76.3639 152.541 74.7456 148.812 78.6382C148.235 79.2505 147.791 79.9503 147.435 80.6938C147.391 80.8251 147.258 80.9563 147.125 81C147.036 81 146.947 81 146.903 81Z" fill="#545251"/>
<path d="M196 57.4031C192.606 57.0388 187.95 56.9022 182.467 57.7673C177.767 58.5413 173.937 59.8162 171.065 61C170.978 60.3626 170.978 59.5885 171.065 58.7235C171.283 56.6746 172.066 55.081 172.719 54.0793C176.461 53.5329 179.594 53.2597 181.901 53.1231C187.471 52.8044 189.081 53.1687 190.125 53.4874C193.041 54.4436 194.956 56.2193 196 57.4031Z" fill="#545251"/>
<path d="M169.914 54.3544C169.642 54.9747 169.325 55.9051 169.144 57.057C168.827 59.0506 169.099 61 169.325 61C169.552 61 169.914 58.6076 170.004 57.8987C170.14 56.8354 170.231 55.9494 170.683 54.7089C170.819 54.3987 170.909 54.1329 171 54L169.914 54.3544Z" fill="#545251"/>
<path d="M153 67.4762C150.343 68 146.889 68.9048 143.081 70.6667C142.904 70.7619 142.638 70.8571 142.461 71C142.461 70.9524 142.417 70.8095 142.373 70.7143C141.974 69.7143 141.531 68.619 141.089 67.3333C141.089 67.2857 141.044 67.1905 141 67.1428C141.133 67.0476 141.266 66.9524 141.443 66.8571C143.258 65.8095 145.694 64.4286 148.749 63C149.635 63.4762 150.919 64.2857 152.026 65.7619C152.469 66.2857 152.779 66.9047 153 67.4762Z" fill="#545251"/>
<path d="M150.843 62C151.285 62.384 151.887 62.96 152.489 63.7759C153.533 65.2158 154.135 66.8957 153.974 66.9917C153.814 67.1357 152.609 65.3598 152.248 64.8798C151.726 64.1119 151.325 63.4399 150.482 62.672C150.281 62.48 150.08 62.336 150 62.24L150.843 62Z" fill="#545251"/>
<path d="M168 86.0993C166.8 85.8742 165.765 86.0618 164.772 86.362C163.779 86.6998 162.828 87.1126 162 87.9007C163.2 88.1258 164.235 87.9382 165.228 87.638C166.262 87.3002 167.214 86.8874 168 86.0993Z" fill="#545251"/>
<path d="M163.038 99.2677C163.595 100.534 167.707 99.9911 170.834 98.906C174.817 97.5044 178.243 94.7465 177.986 94.1588C177.901 93.9327 177.43 94.204 176.402 94.1588C173.104 94.0683 171.647 91.4009 170.02 92.1243C169.72 92.2599 168.992 92.712 168.135 92.9381C167.792 93.0285 167.407 93.1189 167.407 93.1189C166.036 93.3902 165.908 93.1641 165.437 93.3902C164.58 94.0683 163.852 96.6454 163.852 96.6454C163.295 98.7704 162.867 98.8607 163.038 99.2677Z" fill="#BF3333"/>
<path d="M170.509 105C170.257 105 170.005 104.787 170.005 104.531C169.963 104.232 170.173 103.976 170.467 103.934C171.181 103.848 171.936 103.72 172.65 103.507C174.245 103.038 175.756 102.228 177.141 101.119C177.351 100.948 177.687 100.948 177.896 101.204C178.064 101.417 178.022 101.759 177.812 101.972C176.343 103.166 174.706 104.019 172.985 104.531C172.23 104.744 171.432 104.915 170.635 105C170.551 105 170.509 105 170.509 105Z" fill="#545251"/>
<path d="M177.037 101.871C174.902 104.247 171.79 104.019 171.256 103.973C168.188 103.653 165.832 102.19 166.009 100.728C166.098 99.7682 168.233 100.134 171.79 98.6256C176.103 96.8432 177.437 94.4667 178.415 95.1066C179.482 95.7464 179.127 99.5397 177.037 101.871Z" fill="#BF3333"/>
<path d="M204.327 33.8652C210.514 41.5172 214.199 53.2442 210.557 57.0023C206.345 61.3037 196.868 50.4822 179.536 50.935C163.521 51.3425 159.966 60.8509 147.681 58.6775C135.439 56.5042 123.416 44.1433 125.171 35.2688C127.19 25.0813 146.672 22.1382 155.096 21.0516C162.467 20.1007 190.067 16.1163 204.327 33.8652Z" fill="#545251"/>
<path d="M163.793 100C163.029 100 162.264 99.9539 161.5 99.9079C161.185 99.8619 160.961 99.5856 161.006 99.2633C161.051 98.941 161.32 98.6647 161.635 98.7568C165.187 99.0791 168.828 98.5726 172.155 97.2834C175.077 96.1324 177.774 94.3827 180.022 92.1727C180.247 91.9424 180.607 91.9424 180.831 92.1727C181.056 92.4029 181.056 92.7712 180.831 93.0014C178.494 95.3036 175.661 97.1914 172.604 98.3885C169.772 99.4475 166.805 100 163.793 100Z" fill="#545251"/>
<path d="M361 372.5C361 376.057 358.059 379 354.46 379H44.4959C40.9407 379 38 376.057 38 372.5C38 368.899 40.9407 366 44.4959 366H354.46C358.059 366 361 368.899 361 372.5Z" fill="#545251"/>
<path d="M285.973 271C286.149 285.143 285.489 301.697 283.067 319.887C280.776 337.35 277.341 352.812 273.686 366H203.354C199.391 352.766 195.647 336.804 193.313 318.341C192.477 311.701 191.948 305.335 191.552 299.286C190.891 288.963 190.891 279.55 191.199 271H285.973Z" fill="#C7B28A"/>
<path d="M289.542 292C254.711 292 219.925 292 185.094 292C184.306 290.416 183.517 288.65 182.86 286.613C180.713 280.004 180.801 274.029 181.283 270C219.092 270 256.902 270 294.711 270C295.062 272.58 295.325 276.926 294.054 281.996C292.871 286.568 290.944 289.963 289.542 292Z" fill="#B692B2"/>
<path d="M264.229 366H203.732C199.792 352.772 196.071 336.816 193.751 318.359C192.919 311.722 192.394 305.358 192 299.312C194.233 296.221 197.603 292.584 201.105 293.039C209.204 294.13 211.48 316.541 217.171 316.314C220.892 316.177 221.899 306.631 225.751 306.631C230.128 306.631 230.347 319.632 238.84 322.541C243.392 324.087 244.924 321.678 250.002 322.905C259.327 325.269 264.098 335.815 264.973 337.679C268.651 345.771 269.614 357.317 264.229 366Z" fill="#B692B2"/>
<path d="M283.901 293H191.099C190.484 293 190 292.56 190 292C190 291.44 190.484 291 191.099 291H283.901C284.516 291 285 291.44 285 292C285 292.56 284.516 293 283.901 293Z" fill="#916B06"/>
<path d="M107.784 151.561C115.633 190.697 100.976 236.273 89.659 235.999C78.4284 235.725 66.5907 190.058 74.656 151.561C75.133 149.369 81.6804 119 91.22 119C99.1118 119 105.399 139.87 107.784 151.561Z" fill="#C7B28A"/>
<path d="M64.3156 223.123C74.0272 230.658 74.9022 233.427 92.7068 250.131C110.118 266.381 113.617 267.833 112.917 269.74C110.38 276.639 58.1912 274.824 36.187 242.006C27.6128 229.206 22.8883 210.641 28.3128 206.147C35.0934 200.428 57.2725 217.676 64.3156 223.123Z" fill="#C7B28A"/>
<path d="M141.184 251.635C135.868 266.989 124.793 285.615 118.857 283.888C112.3 281.98 112.566 255.496 118.546 234.327C123.552 216.701 134.805 194.532 141.229 196.076C148.184 197.757 149.646 227.24 141.184 251.635Z" fill="#C7B28A"/>
<path d="M118.102 304L116.052 303.137C117.79 298.912 118.682 294.55 118.682 290.279C118.726 278.876 112.619 271.243 106.111 263.156C102.813 259.068 99.3803 254.797 96.572 249.845C91.1783 240.349 91.312 234.216 91.8023 211.409C91.9361 204.503 92.1144 195.871 92.2035 185.195C92.3372 163.614 91.9361 141.398 91 119.091L93.2288 119C94.1649 141.307 94.5661 163.614 94.4323 185.24C94.3878 195.962 94.2095 204.549 94.0312 211.5C93.5854 233.807 93.4517 239.804 98.5334 248.754C101.253 253.57 104.64 257.75 107.894 261.793C114.67 270.198 121.044 278.104 121 290.37C120.866 294.868 119.93 299.457 118.102 304Z" fill="#92B69A"/>
<path d="M111.647 270C98.1054 267.969 85.3135 263.545 73.5802 256.865C48.3492 242.465 34.3223 221.25 27 205.993L28.985 205C36.1749 219.986 49.9372 240.795 74.6829 254.879C86.1957 261.424 98.7229 265.757 112 267.743L111.647 270Z" fill="#92B69A"/>
<path d="M117.031 279L115 278.223C117.765 270.406 120.531 262.315 123.253 254.225C129.475 235.666 135.395 216.742 140.926 198L143 198.686C137.469 217.473 131.506 236.397 125.284 255.002C122.562 263.093 119.796 271.183 117.031 279Z" fill="#92B69A"/>
<path d="M86.3421 214.419C93.9435 228.099 102.2 249.526 97.7443 252.606C92.8515 256.004 72.5374 236.933 60.7857 214.419C53.8833 201.237 47.0245 181.215 51.3495 178.361C56.2424 175.145 74.9837 193.944 86.3421 214.419Z" fill="#92B69A"/>
<path d="M123.234 231.243C120.673 246.602 111.036 261.191 106.565 259.923C102.572 258.79 102.919 245.425 103.093 238.266C103.527 219.146 109.083 193.865 115.03 194.001C120.195 194.182 126.142 213.755 123.234 231.243Z" fill="#92B69A"/>
<path d="M116.976 278.991C116.138 285.779 92.3163 287.487 88.4784 287.756C73.6559 288.79 51.2899 286.633 50.0547 279.396C49.0841 273.732 61.2157 265.776 72.1561 263.124C93.7722 257.955 117.859 271.889 116.976 278.991Z" fill="#92B69A"/>
<path d="M152.478 366H93.002C93.1333 364.055 93.0458 361.205 91.5578 358.491C90.2011 356.049 89.0194 355.958 88.3629 353.787C87.5752 351.209 89.0194 350.349 89.1507 345.509C89.2382 342.388 88.6255 342.524 88.8881 339.991C89.282 336.056 90.6824 335.287 90.201 333.115C89.5883 330.311 87.05 330.809 86.2185 328.14C84.9931 324.431 89.3695 321.762 88.3191 316.515C88.0128 315.067 87.6627 315.158 87.3126 313.484C86.5686 310.092 87.4876 307.016 88.3629 304.935C90.2886 303.035 93.3959 300.457 97.6848 299.417C102.893 298.15 104.162 300.412 109.414 299.959C119.261 299.1 122.762 290.37 129.327 292.27C131.252 292.858 131.384 293.717 133.966 295.526C137.554 298.014 143.244 300.457 152.478 299.959C156.855 307.197 157.861 313.168 157.993 317.329C158.212 327.145 153.397 331.216 154.798 342.705C155.236 346.414 155.979 347.997 155.848 352.068C155.717 357.994 154.01 362.788 152.478 366Z" fill="#855249"/>
<path d="M101 315.5C101 316.875 99.875 318 98.5 318C97.125 318 96 316.875 96 315.5C96 314.125 97.125 313 98.5 313C99.875 313 101 314.125 101 315.5Z" fill="#C7B28A"/>
<path d="M106 325.5C106 326.903 104.86 328 103.5 328C102.097 328 101 326.86 101 325.5C101 324.14 102.14 323 103.5 323C104.86 323 106 324.14 106 325.5Z" fill="#C7B28A"/>
<path d="M113 320.5C113 322.425 111.425 324 109.5 324C107.575 324 106 322.425 106 320.5C106 318.575 107.575 317 109.5 317C111.425 317 113 318.575 113 320.5Z" fill="#C7B28A"/>
<path d="M111 309.5C111 311.455 109.409 313 107.5 313C105.546 313 104 311.409 104 309.5C104 307.592 105.591 306.001 107.5 306.001C109.455 305.956 111 307.546 111 309.5Z" fill="#C7B28A"/>
<path d="M98 322.5C98 323.328 97.3277 324 96.5001 324C95.6725 324 95 323.328 95 322.5C95 321.672 95.6725 321 96.5001 321C97.3277 321 98 321.672 98 322.5Z" fill="#C7B28A"/>
<path d="M101 331.001C101 332.682 99.6363 334 97.9999 334C96.3181 334 95 332.637 95 331.001C95 329.364 96.3635 328.001 97.9999 328.001C99.6363 327.956 101 329.319 101 331.001Z" fill="#C7B28A"/>
<path d="M107 320.5C107 322.425 105.425 324 103.5 324C101.575 324 100 322.425 100 320.5C100 318.575 101.575 317 103.5 317C105.425 317 107 318.575 107 320.5Z" fill="#C7B28A"/>
<path d="M125 316.5C125 318.466 123.644 320 122 320C120.315 320 119 318.418 119 316.5C119 314.535 120.356 313.001 122 313.001C123.644 312.953 125 314.535 125 316.5Z" fill="#C7B28A"/>
<path d="M118.5 342C120.985 342 123 339.985 123 337.5C123 335.015 120.985 333 118.5 333C116.015 333 114 335.015 114 337.5C114 339.985 116.015 342 118.5 342Z" fill="#C7B28A"/>
<path d="M113 344.5C113 345.9 112.12 347 111 347C109.88 347 109 345.9 109 344.5C109 343.1 109.88 342 111 342C112.08 342 113 343.1 113 344.5Z" fill="#C7B28A"/>
<path d="M106 346.5C106 347.898 104.898 349 103.5 349C102.102 349 101 347.898 101 346.5C101 345.102 102.102 344 103.5 344C104.898 344 106 345.102 106 346.5Z" fill="#C7B28A"/>
<path d="M104 340.5C104 342.439 102.439 344 100.5 344C98.5609 344 97 342.439 97 340.5C97 338.561 98.5609 337 100.5 337C102.439 337 104 338.561 104 340.5Z" fill="#C7B28A"/>
<path d="M99 347C99 348.111 98.1111 349 96.9999 349C95.8888 349 95 348.111 95 347C95 345.889 95.8888 345 96.9999 345C98.1111 345 99 345.889 99 347Z" fill="#C7B28A"/>
<path d="M91 345.5C91 346.333 90.3333 347 89.4999 347C88.6666 347 88 346.333 88 345.5C88 344.667 88.6666 344 89.4999 344C90.3333 344 91 344.667 91 345.5Z" fill="#C7B28A"/>
<path d="M144 353C144 355.212 142.435 357 140.5 357C138.565 357 137 355.212 137 353C137 350.788 138.565 349 140.5 349C142.435 349 144 350.788 144 353Z" fill="#C7B28A"/>
<path d="M134 355C134 356.116 133.116 357 132 357C130.884 357 130 356.116 130 355C130 353.884 130.884 353 132 353C133.116 353 134 353.884 134 355Z" fill="#C7B28A"/>
<path d="M124.5 356C125.328 356 126 355.328 126 354.5C126 353.672 125.328 353 124.5 353C123.672 353 123 353.672 123 354.5C123 355.328 123.672 356 124.5 356Z" fill="#C7B28A"/>
<path d="M130 348C131.105 348 132 347.105 132 346C132 344.895 131.105 344 130 344C128.895 344 128 344.895 128 346C128 347.105 128.895 348 130 348Z" fill="#C7B28A"/>
<path d="M139 343.5C139 344.873 138.098 346 137 346C135.902 346 135 344.873 135 343.5C135 342.127 135.902 341 137 341C138.098 341 139 342.127 139 343.5Z" fill="#C7B28A"/>
<path d="M148 340C148 341.645 146.871 343 145.5 343C144.129 343 143 341.645 143 340C143 338.355 144.129 337 145.5 337C146.871 337 148 338.306 148 340Z" fill="#C7B28A"/>
<path d="M140 350C140 351.662 138.662 353 137 353C135.339 353 134 351.662 134 350C134 348.338 135.339 347 137 347C138.662 347 140 348.338 140 350Z" fill="#C7B28A"/>
<path d="M148 350.5C148 352.444 146.667 354 145 354C143.333 354 142 352.444 142 350.5C142 348.556 143.333 347 145 347C146.667 347 148 348.556 148 350.5Z" fill="#C7B28A"/>
<path d="M149 360.5C149 361.868 147.868 363 146.5 363C145.132 363 144 361.868 144 360.5C144 359.132 145.132 358 146.5 358C147.868 358 149 359.132 149 360.5Z" fill="#C7B28A"/>
<path d="M136 362C136 362.577 135.539 363 135 363C134.462 363 134 362.538 134 362C134 361.423 134.462 361 135 361C135.539 361 136 361.462 136 362Z" fill="#C7B28A"/>
<path d="M122 360.001C122 361.129 121.308 362 120.5 362C119.654 362 119 361.077 119 360.001C119 358.873 119.692 358.002 120.5 358.002C121.346 357.951 122 358.873 122 360.001Z" fill="#C7B28A"/>
<path d="M113 359C114.105 359 115 358.105 115 357C115 355.895 114.105 355 113 355C111.896 355 111 355.895 111 357C111 358.105 111.896 359 113 359Z" fill="#C7B28A"/>
<path d="M150 319.5C150 321.98 147.98 324 145.5 324C143.02 324 141 321.98 141 319.5C141 317.02 143.02 315 145.5 315C147.98 315 150 317.02 150 319.5Z" fill="#C7B28A"/>
<path d="M141 319C141 320.1 140.1 321 139 321C137.9 321 137 320.1 137 319C137 317.9 137.9 317 139 317C140.1 317 141 317.9 141 319Z" fill="#C7B28A"/>
<path d="M145 314C146.105 314 147 312.881 147 311.5C147 310.119 146.105 309 145 309C143.895 309 143 310.119 143 311.5C143 312.881 143.895 314 145 314Z" fill="#C7B28A"/>
<path d="M141 309C141 310.083 140.125 311 139 311C137.917 311 137 310.125 137 309C137 307.917 137.875 307 139 307C140.083 307 141 307.917 141 309Z" fill="#C7B28A"/>
<path d="M132.5 311C133.881 311 135 309.881 135 308.5C135 307.119 133.881 306 132.5 306C131.119 306 130 307.119 130 308.5C130 309.881 131.119 311 132.5 311Z" fill="#C7B28A"/>
<path d="M135.5 306C136.881 306 138 304.657 138 303C138 301.343 136.881 300 135.5 300C134.119 300 133 301.343 133 303C133 304.657 134.119 306 135.5 306Z" fill="#C7B28A"/>
<path d="M129 305.5C129 306.856 127.898 308 126.5 308C125.144 308 124 306.898 124 305.5C124 304.144 125.102 303 126.5 303C127.898 303 129 304.144 129 305.5Z" fill="#C7B28A"/>
<path d="M98.6355 327C90.4061 327 82.4394 325.883 81.1699 321.728C80.382 319.226 81.9578 314.445 93.9955 306L94.6084 306.938C82.0892 315.74 81.7827 319.985 82.2205 321.415C83.7963 326.509 100.255 326.509 113.869 324.9L114 326.017C110.235 326.464 104.414 327 98.6355 327Z" fill="#484848"/>
<path d="M115.087 349L115 347.858C122.062 347.264 127.824 342.1 128.777 335.612C129.687 329.443 125.744 324.645 124.965 323.777L125.744 323C126.611 323.96 130.813 329.123 129.86 335.794C128.82 342.786 122.625 348.36 115.087 349Z" fill="#484848"/>
<path d="M137.466 342L136.593 341.321C138.165 339.105 140.042 337.748 142.095 337.205C143.273 336.888 144.234 336.933 144.933 336.933C145.282 336.933 145.806 336.979 145.893 336.888C145.98 336.572 144.802 335.35 144.059 334.672C142.269 332.907 139.824 330.419 139.649 327.479C139.475 324.403 141.745 322.548 144.19 320.603C146.504 318.748 149.081 316.667 150.259 313.184C151.7 308.796 150.783 302.689 147.902 297.939C145.893 294.592 143.273 292.556 140.523 292.194C136.418 291.651 132.664 295.089 130.786 297.17L130 296.401C132.008 294.139 135.982 290.475 140.654 291.063C143.71 291.47 146.635 293.687 148.819 297.351C151.831 302.372 152.836 308.886 151.264 313.546C149.997 317.346 147.247 319.562 144.845 321.508C142.444 323.408 140.566 324.946 140.741 327.388C140.916 329.922 143.099 332.093 144.802 333.857C146.33 335.35 147.421 336.481 146.81 337.476C146.417 338.11 145.718 338.064 144.889 338.064C144.19 338.064 143.361 338.019 142.357 338.291C140.523 338.788 138.864 340.01 137.466 342Z" fill="#484848"/>
<path d="M241 223C241 224.111 240.111 225 239 225C237.889 225 237 224.111 237 223C237 221.889 237.889 221 239 221C240.067 221 241 221.889 241 223Z" fill="#C7B28A"/>
<path d="M246 222C247.105 222 248 221.105 248 220C248 218.895 247.105 218 246 218C244.895 218 244 218.895 244 220C244 221.105 244.895 222 246 222Z" fill="#C7B28A"/>
<path d="M244 232C244 233.111 243.111 234 242 234C240.889 234 240 233.111 240 232C240 230.889 240.889 230 242 230C243.111 230 244 230.889 244 232Z" fill="#C7B28A"/>
<path d="M240 226.5C240 227.338 239.338 228 238.5 228C237.662 228 237 227.338 237 226.5C237 225.662 237.662 225 238.5 225C239.338 225 240 225.662 240 226.5Z" fill="#C7B28A"/>
<path d="M236 223C237.657 223 239 221.657 239 220C239 218.343 237.657 217 236 217C234.343 217 233 218.343 233 220C233 221.657 234.343 223 236 223Z" fill="#C7B28A"/>
<path d="M233 231C233 231.522 232.565 232 232 232C231.435 232 231 231.565 231 231C231 230.478 231.435 230 232 230C232.565 230 233 230.435 233 231Z" fill="#C7B28A"/>
<path d="M249.5 229C250.328 229 251 228.105 251 227C251 225.895 250.328 225 249.5 225C248.672 225 248 225.895 248 227C248 228.105 248.672 229 249.5 229Z" fill="#C7B28A"/>
<path d="M258 225C258 225.542 257.542 226 257 226C256.458 226 256 225.542 256 225C256 224.458 256.458 224 257 224C257.542 224 258 224.458 258 225Z" fill="#C7B28A"/>
<path d="M252 219C252 220.111 251.111 221 250 221C248.889 221 248 220.111 248 219C248 217.889 248.889 217 250 217C251.111 217 252 217.889 252 219Z" fill="#C7B28A"/>
<path d="M250 223.5C250 224.868 248.868 226 247.5 226C246.132 226 245 224.868 245 223.5C245 222.132 246.132 221 247.5 221C248.868 221 250 222.085 250 223.5Z" fill="#C7B28A"/>
<path d="M246 225C246 226.13 245.087 227 244 227C242.87 227 242 226.087 242 225C242 223.87 242.913 223 244 223C245.087 223 246 223.87 246 225Z" fill="#C7B28A"/>
<path d="M240 212.5C240 213.338 239.338 214 238.5 214C237.662 214 237 213.338 237 212.5C237 211.662 237.662 211 238.5 211C239.338 211 240 211.662 240 212.5Z" fill="#C7B28A"/>
<path d="M196.901 322.274C197.374 320.511 197.932 318.651 199.179 317.364C200.769 315.696 204.379 315.505 204.035 319.033C203.906 320.415 205.841 320.368 205.97 319.033C206.313 315.839 203.692 313.551 200.941 314.075C197.546 314.695 195.955 318.413 195.053 321.702C194.666 322.99 196.514 323.562 196.901 322.274Z" fill="#8AAAC7"/>
<path d="M205.93 319.356C206.843 317.679 207.985 315.572 210.314 316.045C212.415 316.475 213.328 318.625 213.968 320.345C214.424 321.507 216.388 320.991 215.932 319.829C214.973 317.335 213.511 314.54 210.406 314.067C207.254 313.551 205.382 316.131 204.103 318.41C203.555 319.485 205.336 320.474 205.93 319.356Z" fill="#8AAAC7"/>
<path d="M216.937 321.29C217.465 319.196 218.875 317.147 221.253 317.013C223.5 316.88 225.173 318.617 224.997 320.889C224.909 322.181 226.891 322.181 226.979 320.889C227.244 317.86 224.953 315.187 221.914 315.008C218.434 314.83 215.88 317.503 215.043 320.755C214.69 322.003 216.628 322.537 216.937 321.29Z" fill="#8AAAC7"/>
<path d="M228.013 321.062C228.459 316.877 234.255 316.963 235.058 320.932C235.281 322.14 237.243 321.623 236.975 320.415C235.727 314.073 226.675 314.806 226.006 321.062C225.873 322.313 227.879 322.313 228.013 321.062Z" fill="#8AAAC7"/>
<path d="M237.872 322.483C238.762 320.851 239.83 319.364 241.522 318.597C243.925 317.541 246.997 318.597 246.997 321.859C246.997 323.25 249 323.25 249 321.859C248.955 318.597 246.641 316.15 243.614 316.006C240.275 315.862 237.693 318.405 236.135 321.379C235.512 322.579 237.204 323.682 237.872 322.483Z" fill="#8AAAC7"/>
<path d="M249.902 322.268C250.691 317.933 256.258 317.888 257.091 322.224C257.31 323.475 259.238 322.939 258.975 321.687C257.792 315.43 249.113 315.43 248.018 321.732C247.799 322.983 249.683 323.564 249.902 322.268Z" fill="#8AAAC7"/>
<path d="M259.02 323.959C259.065 321.948 259.962 319.889 261.937 319.315C263.912 318.74 265.843 320.128 265.977 322.331C266.067 323.719 268.087 323.719 267.997 322.331C267.818 319.171 265.484 316.777 262.431 317.017C259.02 317.304 257.045 320.559 257 323.959C257 325.347 259.02 325.347 259.02 323.959Z" fill="#8AAAC7"/>
<path d="M269.15 322.071C268.691 318.444 274.023 318.095 273.931 321.722C273.885 322.989 275.953 322.989 275.999 321.722C276.045 319.275 274.069 316.915 271.311 317.002C268.599 317.09 266.714 319.624 267.036 322.027C267.22 323.295 269.288 323.338 269.15 322.071Z" fill="#8AAAC7"/>
<path d="M277.101 322.357C277.24 321.934 277.425 321.511 277.656 321.131C277.98 320.37 278.766 320.201 279.967 320.581C279.736 321.765 281.77 322.272 281.955 321.088C282.232 319.482 281.215 318.087 279.366 318.002C276.963 317.918 275.807 320.074 275.068 321.849C274.606 322.991 276.639 323.498 277.101 322.357Z" fill="#8AAAC7"/>
<path d="M200 323.934C200 325.333 202 325.333 202 324.066C202 322.667 200 322.667 200 323.934Z" fill="#8AAAC7"/>
<path d="M212 325.121C212 325.04 212 324.96 212 324.879C212 323.707 210 323.707 210 324.879C210 324.96 210 325.04 210 325.121C210 326.293 212 326.293 212 325.121Z" fill="#8AAAC7"/>
<path d="M230.926 327C232.335 327 232.335 325 231.058 325C229.693 325 229.649 327 230.926 327Z" fill="#8AAAC7"/>
<path d="M252.926 328C254.335 328 254.335 326 253.058 326C251.693 326 251.649 328 252.926 328Z" fill="#8AAAC7"/>
<path d="M271.934 328C273.333 328 273.333 326 272.066 326C270.667 326 270.667 328 271.934 328Z" fill="#8AAAC7"/>
<path d="M199.172 345.819C201.24 343.827 203.307 341.88 205.375 339.888C206.139 339.136 206.229 338.826 207.352 339.003C208.476 339.18 208.521 339.578 209.105 340.464C209.959 341.747 210.858 343.075 211.712 344.358C212.206 345.067 213.375 344.403 212.881 343.694C211.622 341.836 210.543 339.623 209.015 337.941C208.521 337.365 207.982 336.923 207.128 337.011C205.554 337.144 204.296 339.091 203.307 340.021C201.599 341.659 199.891 343.296 198.183 344.89C197.599 345.465 198.543 346.394 199.172 345.819Z" fill="#545251"/>
<path d="M213.108 345.693C213.829 344.839 214.506 343.986 215.227 343.132C215.678 342.593 216.444 341.156 217.075 340.887C217.391 340.303 217.706 340.437 218.022 341.291C218.337 341.785 218.608 342.279 218.923 342.773C219.509 343.761 220.14 344.705 220.727 345.693C221.177 346.411 222.349 345.738 221.899 345.019C220.907 343.447 220.005 341.83 218.969 340.258C218.608 339.719 218.202 339 217.436 339C216.715 339 216.264 339.764 215.858 340.258C214.596 341.74 213.379 343.267 212.162 344.749C211.621 345.423 212.567 346.367 213.108 345.693Z" fill="#545251"/>
<path d="M222.095 345.333C223.035 344.345 223.932 343.401 224.872 342.413C225.342 341.919 227.008 339.582 227.649 339.537C228.674 339.403 231.152 344.659 231.793 345.693C232.22 346.412 233.331 345.738 232.904 345.019C231.793 343.177 230.682 341.334 229.571 339.537C229.23 338.953 228.845 338.1 228.076 338.01C227.093 337.875 226.239 339.178 225.641 339.807C224.145 341.334 222.693 342.907 221.197 344.435C220.599 345.019 221.496 345.962 222.095 345.333Z" fill="#545251"/>
<path d="M233.256 346.687C234.046 345.451 234.835 344.215 235.668 343.024C236.457 341.834 237.202 340.094 238.298 339.179C238.035 339.224 237.772 339.27 237.509 339.27C238.298 339.636 239.307 342.063 239.701 342.795C240.403 343.94 241.06 345.084 241.762 346.229C242.2 346.962 243.34 346.275 242.901 345.542C241.893 343.894 240.929 342.246 239.92 340.552C239.482 339.774 239.043 338.492 238.167 338.08C237.86 337.943 237.641 337.988 237.378 338.171C236.369 338.996 235.712 340.415 235.01 341.559C234.046 343.024 233.081 344.489 232.117 346C231.634 346.733 232.774 347.419 233.256 346.687Z" fill="#545251"/>
<path d="M243.321 346.27C244.843 343.842 246.365 341.414 247.886 339.031C247.471 339.031 247.102 339.031 246.687 339.031C248.255 341.459 249.592 343.979 250.745 346.637C251.114 347.462 252.266 346.729 251.944 345.95C250.791 343.292 249.454 340.772 247.886 338.344C247.609 337.885 246.964 337.885 246.687 338.344C245.166 340.772 243.644 343.201 242.123 345.583C241.615 346.316 242.814 347.004 243.321 346.27Z" fill="#545251"/>
<path d="M251.267 346.7C251.912 345.614 252.556 344.572 253.243 343.573C253.93 342.573 255.047 340.532 256.121 339.923C257.539 339.142 258.183 341.314 258.741 342.443C259.429 343.746 260.116 345.05 260.803 346.396C261.19 347.135 262.306 346.483 261.92 345.745C260.846 343.703 259.858 341.661 258.741 339.663C258.312 338.837 257.753 337.882 256.68 338.012C255.348 338.142 254.231 340.141 253.501 341.053C252.255 342.66 251.096 344.355 250.065 346.136C249.721 346.744 250.838 347.395 251.267 346.7Z" fill="#545251"/>
<path d="M262.273 346.938C262.882 345.984 263.535 344.986 264.188 344.075C264.797 343.208 265.754 341.256 266.842 341.039C267.8 340.822 267.626 341.082 268.017 341.95C268.322 342.6 268.627 343.208 268.931 343.858C269.541 345.116 270.15 346.418 270.803 347.676C271.151 348.413 272.282 347.762 271.934 347.025C270.933 344.986 270.019 342.904 268.975 340.909C268.54 340.084 268.192 339 267.06 339C265.928 339 265.189 340.431 264.623 341.212C263.404 342.861 262.229 344.552 261.098 346.287C260.663 346.982 261.794 347.676 262.273 346.938Z" fill="#545251"/>
<path d="M272.116 348.813C274.598 346.396 276.819 343.796 278.865 340.968C279.388 340.283 278.256 339.599 277.733 340.283C275.774 343.02 273.596 345.529 271.201 347.855C270.591 348.448 271.506 349.406 272.116 348.813Z" fill="#545251"/>
<path d="M346.344 290.164C345.902 291.479 345.505 292.658 345.019 293.882C341.53 303.222 336.406 310.114 332.166 314.829C332.078 314.965 331.946 315.101 331.813 315.192C330.841 316.325 329.87 317.277 329.031 318.139C328.766 318.411 328.412 318.728 328.103 319C328.015 318.909 328.015 318.864 327.97 318.773C327.617 318.32 327.22 317.776 326.778 317.05C326.425 316.416 326.027 315.826 325.674 315.101C325.674 315.101 325.541 314.874 325.409 314.511C325.321 314.285 325.276 314.149 325.188 314.013C324.702 313.061 325.188 306.758 326.292 298.28C326.734 295.106 327.22 291.751 327.75 288.306C328.721 282.275 329.914 275.973 331.239 269.989C334.684 255.253 339.012 242.558 343.561 243.012C344.312 243.148 344.886 243.465 345.372 243.964C350.363 248.951 352.218 271.575 346.344 290.164Z" fill="#6A7A5A"/>
<path d="M334.954 296.767C334.954 297.13 334.954 297.493 334.869 297.856C334.741 301.079 334.271 304.165 333.63 306.934C333.502 307.524 333.374 308.023 333.203 308.522C332.648 310.746 332.05 312.698 331.324 314.559C330.983 315.558 330.641 316.511 330.256 317.373C329.103 320.097 327.908 322.321 326.925 324C326.797 323.909 326.712 323.773 326.583 323.728C326.114 323.274 325.772 323.001 325.345 322.593C325.003 322.23 324.619 321.867 324.277 321.458C324.192 321.458 324.064 321.231 323.85 321.004L323.594 320.732C321.757 318.553 315.565 268.262 321.544 260.864C321.971 260.365 322.484 260.092 323.039 260.002C325.388 259.911 328.164 263.814 330.427 269.76C333.246 276.841 335.339 287.053 334.954 296.767Z" fill="#6A7A5A"/>
<path d="M350.941 311.514C344.226 318.711 336.856 322.562 331.448 324.579C330.707 324.946 330.009 325.175 329.311 325.358C329.05 325.496 328.701 325.587 328.396 325.633C328.047 325.771 327.698 325.908 327.349 326C327.262 325.496 327.218 324.9 327.131 324.258V323.8C327.044 323.295 327 322.699 327 322.149C327 322.149 327 321.645 327 321.141C327 320.866 327.262 320.132 327.829 319.032C328.308 318.161 328.919 317.061 329.704 315.777C330.75 314.035 332.059 311.881 333.585 309.543C333.716 309.405 333.803 309.268 333.847 309.13C337.03 304.317 340.737 298.953 344.705 293.865C352.991 282.955 361.756 273.465 365.332 275.207C365.463 275.299 365.594 275.345 365.768 275.437C366.204 275.712 366.466 276.216 366.684 276.812C368.559 282.405 361.931 299.962 350.941 311.514Z" fill="#6A7A5A"/>
<path d="M327.987 295.26C328.076 302.669 327.718 309.941 326.686 317.258C326.461 319.225 326.192 321.1 325.923 323.066C325.205 327.32 324.352 331.618 323.276 335.826C322.827 337.838 322.288 339.942 321.705 342L321.346 341.909L320 341.451C321.84 334.866 323.275 328.188 324.352 321.466C324.711 319.225 324.98 316.892 325.295 314.651C325.878 309.209 326.147 303.767 326.237 298.37V295.26C326.102 283.69 324.666 272.074 321.974 260.869C322.423 260.366 322.961 260.091 323.545 260C325.878 269.284 327.224 278.751 327.718 288.263C327.897 290.641 327.987 292.974 327.987 295.26Z" fill="#45594F"/>
<path d="M344.407 274.255C342.941 283.127 340.809 289.223 336.679 301.325C336.057 303.191 335.346 305.283 334.547 307.467C334.28 308.195 334.058 308.923 333.792 309.605C333.214 311.425 332.504 313.336 331.837 315.429C331.615 316.202 331.349 317.021 331.082 317.886C330.238 320.342 329.483 322.845 328.55 325.574C328.328 326.302 328.062 327.03 327.84 327.804C325.575 334.81 323.843 340.406 322.688 344L321 343.409C321.133 342.908 321.355 342.317 321.489 341.771C322.066 340.133 322.688 338.177 323.31 335.947C323.398 335.856 323.398 335.811 323.398 335.72C324.242 333.218 325.175 330.306 326.152 327.212C326.507 326.12 326.863 325.074 327.129 324.027C327.218 323.891 327.263 323.8 327.263 323.755C327.884 321.798 328.462 320.069 329.039 318.341C329.306 317.385 329.617 316.521 329.883 315.747C331.837 309.787 333.525 304.919 335.035 300.688C335.302 299.915 335.613 299.096 335.879 298.323C339.477 287.722 341.298 281.99 342.719 273.891C344.407 264.019 344.762 253.646 343.696 243C344.451 243.136 345.029 243.455 345.517 243.955C346.45 254.419 346.006 264.61 344.407 274.255Z" fill="#45594F"/>
<path d="M367 277.552C362.525 287.962 356.676 296.773 349.587 303.804C348.169 305.174 346.618 306.543 345.112 308.004C339.706 312.935 334.256 317.912 331.199 325.125C330.446 326.86 329.87 328.686 329.427 330.695C328.939 333.024 328.718 335.489 328.718 337.909L327.034 338C326.901 335.398 327.167 332.795 327.654 330.284C328.009 328.778 328.408 327.317 328.984 325.947C331.997 317.501 338.244 311.702 343.915 306.635C345.378 305.265 346.928 303.895 348.258 302.526C355.436 295.449 361.24 286.546 365.582 276C365.715 276.091 365.848 276.137 366.025 276.228C366.513 276.457 366.778 277.004 367 277.552Z" fill="#45594F"/>
<path d="M340.062 367H308.364C307.22 365.5 305.858 363.135 305.594 360.089C305.462 358.407 305.77 357.634 305.858 356.224C306.033 351.496 302.736 349.541 302.121 346.403C301.593 343.857 302.604 340.038 309.067 334.309C309.023 333.127 309.155 331.536 310.21 330.445C311.441 329.126 313.112 329.49 317.332 329.49C323.267 329.49 323.268 328.762 328.016 329.081C330.17 329.217 331.621 329.49 334.039 329.853C339.183 330.717 341.821 331.127 343.403 332.445C345.25 333.946 347.448 336.901 346.92 339.674C346.393 342.311 343.799 342.448 343.183 345.13C342.216 349.177 347.624 351.723 346.701 355.997C346.305 357.77 345.294 357.725 342.964 361.453C341.469 363.635 340.589 365.681 340.062 367Z" fill="#855249"/>
<path d="M311 346.5C311 347.35 310.3 348 309.5 348C308.65 348 308 347.3 308 346.5C308 345.65 308.7 345 309.5 345C310.3 345 311 345.65 311 346.5Z" fill="#C7B28A"/>
<path d="M317 343C317 343.538 316.577 344 316 344C315.462 344 315 343.577 315 343C315 342.462 315.423 342 316 342C316.577 342.038 317 342.462 317 343Z" fill="#C7B28A"/>
<path d="M314 343C314 344.652 312.652 346 311 346C309.348 346 308 344.652 308 343C308 341.348 309.348 340 311 340C312.652 340 314 341.348 314 343Z" fill="#C7B28A"/>
<path d="M310 337.5C310 338.344 309.344 339 308.5 339C307.656 339 307 338.344 307 337.5C307 336.656 307.656 336 308.5 336C309.297 336 310 336.703 310 337.5Z" fill="#C7B28A"/>
<path d="M319 336.5C319 337.328 318.328 338 317.5 338C316.672 338 316 337.328 316 336.5C316 335.672 316.672 335 317.5 335C318.328 335 319 335.672 319 336.5Z" fill="#C7B28A"/>
<path d="M328 342C328 343.077 327.346 344 326.5 344C325.692 344 325 343.128 325 342C325 340.923 325.654 340 326.5 340C327.308 340 328 340.872 328 342Z" fill="#C7B28A"/>
<path d="M325 349.5C325 350.889 323.889 352 322.5 352C321.111 352 320 350.889 320 349.5C320 348.111 321.111 347 322.5 347C323.889 347.046 325 348.157 325 349.5Z" fill="#C7B28A"/>
<path d="M314 354C314 355.122 313.122 356 312 356C310.878 356 310 355.122 310 354C310 352.878 310.878 352 312 352C313.122 352 314 352.878 314 354Z" fill="#C7B28A"/>
<path d="M311 349C311 350.641 309.641 352 308 352C306.359 352 305 350.641 305 349C305 347.359 306.359 346 308 346C309.641 346 311 347.359 311 349Z" fill="#C7B28A"/>
<path d="M309 348C311.209 348 313 346.209 313 344C313 341.791 311.209 340 309 340C306.791 340 305 341.791 305 344C305 346.209 306.791 348 309 348Z" fill="#C7B28A"/>
<path d="M340 359C340 360.116 339.116 361 338 361C336.884 361 336 360.116 336 359C336 357.884 336.884 357 338 357C339.116 357 340 357.884 340 359Z" fill="#C7B28A"/>
<path d="M333 362C333 362.556 332.556 363 332 363C331.445 363 331 362.556 331 362C331 361.444 331.445 361 332 361C332.556 361 333 361.481 333 362Z" fill="#C7B28A"/>
<path d="M328 360C328 360.56 327.56 361 327 361C326.44 361 326 360.56 326 360C326 359.44 326.44 359 327 359C327.52 359 328 359.44 328 360Z" fill="#C7B28A"/>
<path d="M338 356C338 357.629 336.671 359 335 359C333.328 359 332 357.671 332 356C332 354.329 333.328 353 335 353C336.671 353.043 338 354.371 338 356Z" fill="#C7B28A"/>
<path d="M345 352.5C345 354.995 342.995 357 340.5 357C338.005 357 336 354.995 336 352.5C336 350.005 338.005 348 340.5 348C342.995 348.045 345 350.05 345 352.5Z" fill="#C7B28A"/>
<path d="M337 346C337 346.538 336.538 347 336 347C335.462 347 335 346.538 335 346C335 345.462 335.462 345 336 345C336.538 345 337 345.462 337 346Z" fill="#C7B28A"/>
</svg>
