<svg width="400" height="400" fill="none" xmlns="http://www.w3.org/2000/svg"><path d="M299.322 286.18c50.055-52.621 46.378-134.109-8.213-182.008-54.59-47.9-139.422-44.072-189.477 8.549-50.055 52.621-46.378 134.109 8.213 182.008 54.59 47.899 139.422 44.072 189.477-8.549z" fill="#8AAAC7"/><path d="M201 313c65.17 0 118-50.592 118-113S266.17 87 201 87 83 137.592 83 200s52.83 113 118 113z" fill="#484848"/><path d="M172 260c0 2.771-3.593 5-8 5s-8-2.229-8-5 3.593-5 8-5 8 2.229 8 5zm-21-15c0 6.638-2.69 12-6 12s-6-5.362-6-12 2.69-12 6-12 6 5.362 6 12zm13 5c6.075 0 11-2.239 11-5s-4.925-5-11-5-11 2.239-11 5 4.925 5 11 5z" fill="#C7B28A"/><path d="M158 251.5c0 3.048-1.569 5.5-3.5 5.5s-3.5-2.452-3.5-5.5 1.569-5.5 3.5-5.5 3.5 2.452 3.5 5.5zm17 22.5c0 2.176-2.918 4-6.5 4s-6.5-1.765-6.5-4c0-2.176 2.918-4 6.5-4 3.582.059 6.5 1.824 6.5 4zm10-17.5c0 3.618-4.51 6.5-10 6.5s-10-2.882-10-6.5 4.51-6.5 10-6.5 10 2.943 10 6.5zm10 12.5c0 3.836-3.778 7-8.5 7-4.655 0-8.5-3.096-8.5-7 0-3.837 3.778-7 8.5-7 4.722 0 8.5 3.163 8.5 7zm34-13c0 5.556-4.037 10-9 10s-9-4.506-9-10 4.037-10 9-10 9 4.445 9 10zm-84-27.5c0 5.833-4.037 10.5-9 10.5s-9-4.731-9-10.5c0-5.768 4.037-10.499 9-10.499 4.963-.065 9 4.666 9 10.499zm20-3c0 5.833-4.037 10.5-9 10.5s-9-4.731-9-10.5c0-5.768 4.037-10.5 9-10.5s9 4.667 9 10.5z" fill="#C7B28A"/><path d="M171 239.5c0 5.833-3.813 10.5-8.5 10.5-4.687 0-8.5-4.731-8.5-10.5 0-5.768 3.813-10.499 8.5-10.499 4.625-.065 8.5 4.666 8.5 10.499zm50 31c0 3.048-5.126 5.5-11.5 5.5s-11.5-2.452-11.5-5.5 5.126-5.5 11.5-5.5 11.5 2.452 11.5 5.5zm-13 15c0 1.931-2.903 3.5-6.5 3.5s-6.5-1.569-6.5-3.5 2.903-3.5 6.5-3.5 6.5 1.569 6.5 3.5z" fill="#C7B28A"/><path d="M203 273c4.418 0 8-3.358 8-7.5 0-4.142-3.582-7.5-8-7.5s-8 3.358-8 7.5c0 4.142 3.582 7.5 8 7.5zm44-.5c0 3.604-4.056 6.5-9 6.5s-9-2.896-9-6.5 4.056-6.5 9-6.5 9 2.96 9 6.5zm-19 4c0 1.402-3.126 2.5-7 2.5s-7-1.159-7-2.5 3.126-2.5 7-2.5 7 1.098 7 2.5zm9.5-10.5c3.59 0 6.5-3.806 6.5-8.5s-2.91-8.5-6.5-8.5-6.5 3.806-6.5 8.5 2.91 8.5 6.5 8.5zm-94-83c4.142 0 7.5-4.925 7.5-11s-3.358-11-7.5-11c-4.142 0-7.5 4.925-7.5 11s3.358 11 7.5 11zm-20.5-4c0 5.541-2.2 10-5 10-2.733 0-5-4.459-5-10s2.2-10 5-10 5 4.522 5 10zm21.197 9.82c2.132 2.12 2.398 5.233.666 7.022-1.798 1.789-4.929 1.457-7.06-.662-2.132-2.12-2.398-5.233-.666-7.022 1.732-1.789 4.929-1.457 7.06.662zM141 250c0 2.77-2.896 5-6.5 5s-6.5-2.23-6.5-5 2.896-5 6.5-5c3.54 0 6.5 2.23 6.5 5z" fill="#C7B28A"/><path d="M128.5 188c4.694 0 8.5-5.373 8.5-12s-3.806-12-8.5-12-8.5 5.373-8.5 12 3.806 12 8.5 12zm3.5 28a5 5 0 10-.001-10.001A5 5 0 00132 216zm136 24c6.075 0 11-4.925 11-11s-4.925-11-11-11-11 4.925-11 11 4.925 11 11 11zm-21 3a7 7 0 100-14 7 7 0 000 14zm-18-6c4.971 0 9-3.806 9-8.5s-4.029-8.5-9-8.5-9 3.806-9 8.5 4.029 8.5 9 8.5zm35 19.5c0 3.584-3.14 6.5-7 6.5s-7-2.916-7-6.5 3.14-6.5 7-6.5 7 2.916 7 6.5zm-26 8.5c2.761 0 5-2.015 5-4.5s-2.239-4.5-5-4.5-5 2.015-5 4.5 2.239 4.5 5 4.5zm16.5-97c5.799 0 10.5-4.701 10.5-10.5s-4.701-10.5-10.5-10.5-10.5 4.701-10.5 10.5 4.701 10.5 10.5 10.5z" fill="#C7B28A"/><path d="M242.5 166c3.038 0 5.5-2.239 5.5-5s-2.462-5-5.5-5-5.5 2.239-5.5 5 2.462 5 5.5 5zm-6.5-19a8 8 0 100-16 8 8 0 000 16zm-22-8.999c0 3.859-2.916 6.999-6.5 6.999s-6.5-3.14-6.5-6.999c0-3.86 2.916-7 6.5-7 3.584-.065 6.5 3.075 6.5 7z" fill="#C7B28A"/><path d="M199 133c4.971 0 9-3.806 9-8.5s-4.029-8.5-9-8.5-9 3.806-9 8.5 4.029 8.5 9 8.5zm-17 5a7 7 0 100-14 7 7 0 000 14zm-34-1.5c0 1.915-1.585 3.5-3.5 3.5s-3.5-1.585-3.5-3.5 1.585-3.5 3.5-3.5 3.5 1.585 3.5 3.5z" fill="#C7B28A"/><path d="M158 127.5c0 4.145-3.355 7.5-7.5 7.5a7.496 7.496 0 01-7.5-7.5c0-4.145 3.355-7.5 7.5-7.5s7.5 3.355 7.5 7.5zm5 15.5c0 1.103-3.562 2-8 2-4.438 0-8-.897-8-2s3.562-2 8-2c4.438.069 8 .966 8 2zm-22 .5c0 1.938-2.942 3.5-6.5 3.5-3.626 0-6.5-1.562-6.5-3.5s2.942-3.5 6.5-3.5c3.558.063 6.5 1.625 6.5 3.5zm37-29.5c0 3.313-3.577 6-8 6s-8-2.687-8-6 3.577-6 8-6 8 2.687 8 6z" fill="#C7B28A"/><path d="M175 129.5c0 4.665-4.716 8.5-10.5 8.5s-10.5-3.771-10.5-8.5c0-4.665 4.716-8.5 10.5-8.5s10.5 3.835 10.5 8.5zm43-15c0 3.562-5.14 6.5-11.5 6.5s-11.5-2.875-11.5-6.5c0-3.562 5.14-6.5 11.5-6.5s11.5 2.938 11.5 6.5zm.5 30.5c5.799 0 10.5-4.477 10.5-10s-4.701-10-10.5-10-10.5 4.477-10.5 10 4.701 10 10.5 10zm59.5 33c0 4.937-2.267 9-5 9-2.8 0-5-4-5-9 0-4.937 2.267-9 5-9s5 4.063 5 9zm-27-31.5c0 4.694-2.925 8.5-6.5 8.5s-6.5-3.806-6.5-8.5 2.925-8.5 6.5-8.5c3.575.063 6.5 3.869 6.5 8.5z" fill="#C7B28A"/><path d="M164 150c8.284 0 15-3.806 15-8.5s-6.716-8.5-15-8.5c-8.284 0-15 3.806-15 8.5s6.716 8.5 15 8.5zm50-18c0 3.896-4.215 7-9.5 7s-9.5-3.104-9.5-7 4.215-7 9.5-7 9.5 3.104 9.5 7zm33 3.5c0 4.107-3.778 7.5-8.5 7.5-4.655 0-8.5-3.333-8.5-7.5 0-4.107 3.778-7.5 8.5-7.5 4.722 0 8.5 3.333 8.5 7.5zm18 44.5c0 4.409-6.28 8-14 8s-14-3.591-14-8 6.28-8 14-8 14 3.591 14 8zm-15 30c3.314 0 6-2.91 6-6.5s-2.686-6.5-6-6.5-6 2.91-6 6.5 2.686 6.5 6 6.5z" fill="#C7B28A"/><path d="M236 225c8.284 0 15-4.925 15-11s-6.716-11-15-11c-8.284 0-15 4.925-15 11s6.716 11 15 11zm-76-114c0 1.688-2.415 3-5.5 3-3.018 0-5.5-1.312-5.5-3 0-1.687 2.415-3 5.5-3 3.018 0 5.5 1.375 5.5 3zm22 179c0 2.756-5.57 5-12.5 5s-12.5-2.244-12.5-5 5.57-5 12.5-5 12.5 2.244 12.5 5zm37 3c0 2.235-4.023 4-9 4s-9-1.824-9-4c0-2.235 4.023-4 9-4s9 1.765 9 4zm20-7a4 4 0 11-8 0 4 4 0 018 0zm-44-48c0 2.756-3.341 5-7.5 5s-7.5-2.244-7.5-5 3.341-5 7.5-5 7.5 2.244 7.5 5zm-29-31c0 1.63-1.304 3-3 3-1.63 0-3-1.304-3-3 0-1.63 1.304-3 3-3 1.63 0 3 1.304 3 3zm-18-1c3.866 0 7-1.343 7-3s-3.134-3-7-3-7 1.343-7 3 3.134 3 7 3zm14.5-32c6.351 0 11.5-2.91 11.5-6.5s-5.149-6.5-11.5-6.5-11.5 2.91-11.5 6.5 5.149 6.5 11.5 6.5zM144 154c0 2.722-4.481 5-10 5s-10-2.215-10-5c0-2.721 4.481-5 10-5s10 2.215 10 5z" fill="#C7B28A"/><path d="M230.745 189.063c2.455 17.015-13.182 32.546-30.564 33.845-14.604 1.114-29.918-7.982-33.408-21.161-4.781-17.881 13.376-38.113 33.408-37.742 13.957.309 28.431 10.58 30.564 25.058z" fill="#D2D2D2"/><path d="M190.497 139.109c4.239 11.522 3.532 28.65-5.524 33.455-10.919 5.792-33.207-6.654-39.308-24.521-6.166-17.991 6.679-34.256 8.092-36.043 1.67.308 28.647 5.299 36.74 27.109z" fill="#92B69A"/><path d="M178.673 175c-2.848 0-6.019-.621-9.32-1.862-9.255-3.477-20.516-12.54-24.658-24.769-6.278-18.374 6.796-35.196 8.284-37.059.194-.248.518-.31.777-.31 1.165.186 29.383 5.276 37.667 27.81 4.595 12.477 3.301 29.734-5.954 34.638-1.942 1.055-4.272 1.552-6.796 1.552zm-24.723-62.386c-2.395 3.042-13.462 18.498-7.767 35.197 4.013 11.794 14.821 20.423 23.753 23.837 5.825 2.235 11.067 2.359 14.756.434 8.543-4.531 9.579-20.857 5.242-32.776-7.507-20.36-32.101-25.947-35.984-26.692z" fill="#45594F"/><path d="M184.232 172c-.261 0-.457-.124-.652-.309a153.108 153.108 0 01-17.272-24.45c-6.258-11.141-11.081-22.963-14.274-35.281-.131-.433.13-.804.586-.928.456-.124.847.124.978.557 3.128 12.132 7.886 23.892 14.078 34.91a146.886 146.886 0 0017.142 24.263.768.768 0 01-.13 1.114c-.13.062-.326.124-.456.124z" fill="#45594F"/><path d="M222.579 145.685c-3.53 11.816-14.439 25.364-24.77 24.251-12.385-1.423-23.038-24.003-17.134-42.005 5.904-18.126 26.182-24.251 28.428-24.931 1.219 1.175 20.15 20.291 13.476 42.685z" fill="#92B69A"/><path d="M199.002 170c-.453 0-.842 0-1.295-.061-4.662-.492-9.259-3.746-12.949-9.15-5.439-7.921-9.065-21.369-5.05-33.528 6.021-18.299 26.869-24.563 29.2-25.238.259-.061.583 0 .777.184.842.799 20.783 20.326 13.856 43.169C219.85 157.35 209.102 170 199.002 170zm9.906-66.442c-3.755 1.105-22.143 7.43-27.646 24.072-3.885 11.667-.324 24.623 4.855 32.238 3.432 4.974 7.576 7.983 11.719 8.474 9.648 1.044 20.46-11.544 24.086-23.519 6.345-20.571-10.295-38.502-13.014-41.265z" fill="#45594F"/><path d="M198.17 169c-.462 0-.792-.308-.792-.74a140.425 140.425 0 01.925-29.346 141.58 141.58 0 0110.11-36.437c.198-.432.661-.555 1.057-.432.397.185.661.617.463.987a141.44 141.44 0 00-10.044 36.066c-1.322 9.618-1.652 19.359-.926 29.039.066.493-.264.863-.793.863.067 0 .067 0 0 0z" fill="#45594F"/><path d="M250.374 157.541c-6.699 10.35-21.053 20.453-30.558 16.634-11.42-4.621-15.184-29.078-4.466-44.788 10.782-15.833 31.898-16.325 34.195-16.387.893 1.54 13.524 24.889.829 44.541z" fill="#92B69A"/><path d="M225.166 177c-1.673 0-3.283-.249-4.764-.87-4.313-1.74-7.725-6.089-9.72-12.303-2.897-9.134-2.511-23.177 4.828-33.988C226.325 114.056 246.733 113 250.724 113c.322 0 .58.186.708.435.58.994 13.97 25.289.773 45.608-6.116 9.444-17.704 17.957-27.039 17.957zm25.107-62.447c-3.927.125-23.368 1.43-33.411 16.156-7.082 10.376-7.404 23.86-4.635 32.683 1.802 5.779 4.957 9.818 8.755 11.309 8.948 3.604 22.918-5.779 29.806-16.466 12.039-18.454 1.288-40.326-.515-43.682z" fill="#45594F"/><path d="M221.808 175c-.585-.124-.91-.496-.78-.93 2.146-9.612 5.331-19.1 9.361-28.154 5.2-11.597 12.025-22.573 20.151-32.619.26-.372.78-.372 1.17-.124.325.248.39.744.13 1.054a147.092 147.092 0 00-19.956 32.309 145.193 145.193 0 00-9.296 27.844c-.065.372-.389.62-.78.62z" fill="#45594F"/><path d="M152.542 161.256c12.016 4.362 25.258 16.014 23.256 25.858-2.39 11.839-26.809 20.375-45.09 13.334-18.411-7.103-23.256-27.229-23.708-29.472 1.357-1.121 22.803-17.944 45.542-9.72z" fill="#92B69A"/><path d="M144.648 203c-4.869 0-9.866-.739-14.607-2.587-18.515-7.145-23.512-27.409-24.024-29.688-.064-.308.064-.554.256-.739.897-.739 22.807-18.047 45.935-9.732 12.749 4.62 25.626 16.569 23.576 26.424-.897 4.373-4.613 8.438-10.507 11.518-5.317 2.833-12.813 4.804-20.629 4.804zm-36.966-32.09c.897 3.696 6.087 21.619 22.936 28.086 11.852 4.62 25.562 2.218 33.954-2.094 5.446-2.833 8.905-6.59 9.738-10.471 1.858-9.115-10.378-20.325-22.551-24.698-21.013-7.576-41.001 6.837-44.077 9.177z" fill="#45594F"/><path d="M174.219 187a158.199 158.199 0 01-30.558-3.162c-12.894-2.604-25.401-6.697-37.198-12.339-.387-.186-.581-.682-.387-1.054.193-.372.709-.558 1.096-.372 11.733 5.518 24.111 9.672 36.811 12.215a159.244 159.244 0 0030.236 3.1c.452 0 .774.372.774.806.064.434-.322.806-.774.806z" fill="#45594F"/><path d="M138.274 205.844c11.9-4.421 29.782-4.234 35.057 4.483 6.304 10.399-5.982 32.38-24.508 38.794-18.59 6.414-35.958-5.542-37.823-6.85.257-1.681 4.696-28.021 27.274-36.427z" fill="#92B69A"/><path d="M137.319 251c-13.522 0-24.456-7.088-26.979-8.813-.259-.185-.388-.432-.324-.74.195-1.109 4.594-28.042 27.95-36.608 12.875-4.684 30.925-3.883 36.23 4.745 2.394 3.821 2.394 9.307.065 15.346-3.364 8.937-12.486 19.845-25.167 24.159-4.011 1.356-7.958 1.911-11.775 1.911zm-25.62-9.799c3.946 2.65 19.797 12.264 36.942 6.409 12.163-4.129 20.897-14.668 24.197-23.234 2.135-5.609 2.135-10.601.065-14.052-4.917-8.012-21.998-8.567-34.29-4.068-21.221 7.766-26.267 31.247-26.914 34.945z" fill="#45594F"/><path d="M110.81 243c-.388 0-.712-.248-.777-.558-.129-.435.13-.869.583-.931 12.629-3.35 24.804-8.19 36.137-14.394a158.995 158.995 0 0024.868-16.938.92.92 0 011.166.062c.324.31.259.807-.065 1.117-7.771 6.452-16.19 12.222-25.127 17.124A162.126 162.126 0 01111.069 243h-.259z" fill="#45594F"/><path d="M165.503 236.601c2.331-15.064 13.533-33.413 26.485-33.599 15.541-.248 32.571 25.85 28.362 48.911-4.209 23.185-28.168 33.909-30.888 35.087-1.684-1.364-28.427-21.883-23.959-50.399z" fill="#92B69A"/><path d="M189.055 287c-.193 0-.321-.062-.513-.185-1.155-.863-28.534-21.697-24.045-50.729 2.5-15.964 14.17-33.901 26.994-34.086 5.835 0 11.798 3.267 17.056 9.184 7.887 8.876 14.619 24.779 11.798 40.312-4.104 22.745-26.546 33.531-31.034 35.442 0 .062-.128.062-.256.062zM166.1 236.333c-4.168 26.689 19.62 46.291 23.083 49.003 4.168-1.849 25.776-12.575 29.687-34.087 2.693-15.039-3.783-30.449-11.477-39.079-5.066-5.67-10.708-8.691-15.838-8.629-11.99.185-23.019 17.444-25.455 32.792z" fill="#45594F"/><path d="M188.851 288c-.681-.124-.953-.559-.817-.993 4.152-15.082 6.263-30.598 6.195-46.051a169.361 169.361 0 00-4.085-35.997c-.068-.435.204-.807.681-.931.476-.125.885.186 1.021.62 2.655 11.916 4.084 24.143 4.152 36.308.068 15.578-2.042 31.218-6.194 46.423-.204.435-.545.621-.953.621z" fill="#45594F"/><path d="M215.592 244.364c-6.212-10.593-8.453-27.493-.385-33.678 9.733-7.409 33.81 1.163 42.902 17.696 9.157 16.656-.576 34.659-1.665 36.618-1.792 0-29.199-.551-40.852-20.636z" fill="#92B69A"/><path d="M256.563 266c-1.225 0-29.732-.432-41.857-21.242-6.708-11.485-8.385-28.652-.194-34.889 3.612-2.778 9.288-3.581 15.866-2.223 9.739 1.976 22.316 9.016 28.572 20.378 9.158 16.672.193 34.271-1.742 37.667-.064.124-.387.309-.645.309zm-32.119-57.489c-3.676 0-6.707.864-8.965 2.532-7.61 5.804-5.804 21.983.581 32.974 10.964 18.834 35.989 20.316 39.987 20.439 1.806-3.334 9.997-20.315 1.484-35.753-5.998-10.93-18.123-17.66-27.475-19.575a26.072 26.072 0 00-5.612-.617z" fill="#45594F"/><path d="M257.078 266c-.325 0-.585-.185-.715-.493-5.2-11.465-11.961-22.252-20.022-32.053-6.241-7.643-13.391-14.731-21.062-21.08-.325-.308-.39-.74-.065-1.11.325-.308.78-.37 1.17-.061a157.245 157.245 0 0121.322 21.265c8.126 9.924 14.952 20.834 20.217 32.361.196.37.001.863-.39.986-.26.185-.39.185-.455.185z" fill="#45594F"/><path d="M250.152 225.352c-11.72-4.423-24.341-15.54-21.83-24.323 3.027-10.626 27.754-17.198 45.591-10.011 17.966 7.247 21.701 25.612 22.087 27.639-1.417.86-23.632 15.109-45.848 6.695z" fill="#92B69A"/><path d="M264.377 229c-4.853 0-9.897-.745-14.941-2.732-12.515-4.844-24.647-16.519-22.093-25.523 1.022-3.726 4.534-7.141 9.897-9.687 8.684-4.099 23.753-6.148 36.396-.994 17.687 7.266 21.709 25.026 22.348 28.503.064.311-.064.621-.32.746-.766.558-14.558 9.687-31.287 9.687zm-14.366-4.161c20.432 7.887 40.992-4.347 44.249-6.458-.766-3.54-5.045-20.12-21.327-26.827-12.131-5.03-26.69-3.042-35.054.932-4.917 2.36-8.173 5.402-9.067 8.694-2.171 8.01 9.386 19.064 21.199 23.659z" fill="#45594F"/><path d="M296.303 220c-.129 0-.258 0-.386-.063a167.576 167.576 0 00-36.131-13.067 176.267 176.267 0 00-30.013-4.292c-.451 0-.773-.379-.773-.821 0-.441.386-.757.837-.757 10.241.568 20.417 2.02 30.271 4.356 12.687 2.966 24.989 7.385 36.453 13.192.386.19.579.695.322 1.073 0 .253-.322.379-.58.379z" fill="#45594F"/><path d="M256.172 196.491c-12.501 1.906-29.255-1.537-31.833-10.389-3.028-10.574 14.692-28.341 33.895-30.8 19.332-2.52 32.348 11.496 33.766 13.033-.644 1.476-12.179 24.59-35.828 28.156z" fill="#92B69A"/><path d="M248.791 198c-11.569 0-23.329-4.04-25.438-11.562-1.023-3.729.192-8.391 3.451-13.239 5.305-7.833 17.257-17.094 30.807-18.897 19.43-2.548 32.725 11.81 34.195 13.489.191.248.255.559.127.808-.511 1.057-12.143 25.174-36.175 28.842-2.173.435-4.538.559-6.967.559zm13.486-42.392c-1.406 0-2.876.062-4.41.31-13.103 1.741-24.543 10.63-29.72 18.213-3.004 4.475-4.155 8.702-3.26 11.997 2.237 8.018 18.088 11.81 30.679 9.883 21.731-3.357 32.98-24.118 34.77-27.537-2.301-2.486-12.847-12.866-28.059-12.866z" fill="#45594F"/><path d="M225.8 187c-.259 0-.582-.121-.711-.424-.194-.363-.065-.847.323-1.028a184.022 184.022 0 0128.366-10.952c12.471-3.631 25.394-5.809 38.382-6.596.388 0 .84.303.84.726a.772.772 0 01-.775.787c-12.794.726-25.588 2.965-37.994 6.535a174.754 174.754 0 00-28.108 10.831c-.129.06-.194.121-.323.121z" fill="#45594F"/><path d="M156.939 179.586c12.575-2.098 30.026 1.419 33.426 10.859 4.106 11.292-12.318 30.358-31.693 33.196-19.504 2.838-34.068-12.032-35.672-13.698.642-1.604 10.201-26.347 33.939-30.357z" fill="#92B69A"/><path d="M153.637 225c-16.839 0-28.968-11.844-31.419-14.462-.194-.187-.258-.499-.194-.81.387-1.123 10.194-26.992 34.774-31.106 13.548-2.307 31.032 1.87 34.516 11.469 1.548 4.239.451 9.663-3.033 15.273-5.096 8.228-16.257 17.392-29.483 19.262a38.097 38.097 0 01-5.161.374zm-29.935-15.148c2.709 2.743 16.709 15.896 34.838 13.216 12.709-1.808 23.419-10.66 28.322-18.577 3.226-5.174 4.258-10.098 2.903-13.901-3.226-8.852-19.806-12.592-32.709-10.41-22.258 3.678-31.935 26.057-33.354 29.672z" fill="#45594F"/><path d="M122.782 211c-.452 0-.775-.309-.775-.742-.065-.432.323-.803.775-.803a163.299 163.299 0 0038.249-7.354 156.678 156.678 0 0027.782-11.988c.387-.248.904-.062 1.098.309.194.37.065.865-.323 1.05a164.34 164.34 0 01-28.04 12.112A167.031 167.031 0 01122.782 211c.065 0 .065 0 0 0z" fill="#45594F"/><path d="M186.806 225.104c-2.5-12.03.769-28.872 10.447-32.389 11.664-4.257 31.853 11.105 35.25 29.675 3.397 18.693-11.665 33.068-13.331 34.61-1.731-.555-27.687-9.131-32.366-31.896z" fill="#92B69A"/><path d="M219.155 260c-1.42-.373-28.471-9.198-33.312-32.753-2.712-12.989 1.162-29.893 11.039-33.498 4.326-1.554 10.007-.684 15.882 2.548 8.651 4.723 18.399 15.227 20.723 27.905 3.486 19.08-11.879 33.934-13.686 35.549-.259.187-.452.249-.646.249zm-17.754-65.443c-1.42 0-2.776.249-4.002.684-9.103 3.293-12.589 19.39-10.007 31.758 4.39 21.317 27.825 30.08 31.569 31.385 2.776-2.672 16.011-16.469 12.848-33.871-2.195-12.244-11.621-22.25-19.885-26.849-3.744-2.051-7.359-3.107-10.523-3.107z" fill="#45594F"/><path d="M219.234 259c-.379 0-.758-.306-.758-.674-1.263-12.321-4.104-24.519-8.462-36.105-3.41-9.011-7.767-17.776-12.883-26.051-.252-.368-.126-.859.253-1.042.379-.246.884-.123 1.074.245a144.258 144.258 0 0113.009 26.297 145.481 145.481 0 018.525 36.472c.063.429-.253.797-.695.858h-.063z" fill="#45594F"/><path d="M229.236 168.216c11.569-5.31 29.472-6.483 35.483 1.667 7.174 9.817-3.297 32.478-21.264 40.258-18.096 7.78-36.451-2.655-38.455-3.828.065-1.729 2.327-28.033 24.236-38.097z" fill="#92B69A"/><path d="M228.803 213c-12.593 0-22.949-5.875-24.419-6.731-.256-.123-.384-.429-.384-.674.064-1.162 2.173-28.149 24.484-38.369 12.273-5.63 30.109-6.242 36.118 1.897 2.621 3.611 3.132 8.996 1.342 15.177-2.621 9.056-10.611 20.622-22.757 25.824-4.859 2.081-9.781 2.876-14.384 2.876zm-23.141-7.833c3.388 1.897 20.329 10.709 36.885 3.549 11.635-5.018 19.37-16.094 21.863-24.845 1.662-5.752 1.215-10.648-1.151-13.891-5.497-7.527-22.374-6.793-34.072-1.408-20.137 9.18-23.205 32.862-23.525 36.595z" fill="#45594F"/><path d="M204.814 206.937a.84.84 0 01-.775-.5c-.129-.437.065-.875.517-1a158.226 158.226 0 0034.733-17.257c8.329-5.565 16.205-11.943 23.307-18.946a.838.838 0 011.162 0 .775.775 0 010 1.126c-7.166 7.128-15.107 13.568-23.565 19.195-10.846 7.191-22.661 13.068-35.056 17.445-.129-.063-.258-.063-.323-.063z" fill="#45594F"/><path d="M181.935 155.315c6.972 8.807 13.24 25.182 5.501 33.679-7.484 8.188-23.539 3.97-25.202 3.536-11.833-3.288-17.91-12.157-19.893-15.196-10.618-15.941-4.925-33.99-3.902-36.905 1.727-.311 28.848-3.66 43.496 14.886z" fill="#92B69A"/><path d="M175.069 196c-.642 0-1.285 0-1.992-.062-9.901-.56-23.401-5.846-31.245-16.293-11.829-15.609-4.886-35.509-4.05-37.748.129-.249.322-.435.643-.498 1.157-.186 29.316-3.855 44.488 15.299 8.357 10.509 12.6 27.362 5.464 34.762-2.764 2.923-7.457 4.54-13.308 4.54zm-35.872-53.108c-1.286 3.607-6.751 21.641 3.985 35.82 7.586 10.012 20.573 15.049 30.023 15.609 6.172.373 11.251-1.057 14.079-3.98 6.622-6.841 2.379-22.761-5.593-32.773-13.693-17.226-38.637-15.111-42.494-14.676z" fill="#45594F"/><path d="M187.163 190c-.128 0-.32-.062-.448-.124a154.08 154.08 0 01-24.003-18.257c-9.409-8.756-17.73-18.629-24.579-29.434-.256-.373-.128-.869.256-1.056.384-.248.896-.124 1.088.249a149.548 149.548 0 0024.387 29.123c7.233 6.707 15.234 12.792 23.747 18.071.384.248.512.683.256 1.055-.192.249-.448.373-.704.373z" fill="#45594F"/><path d="M229.186 169.519c-4.926 11.217-17.502 23.475-27.679 21.208-12.251-2.697-20.289-26.112-12.316-43.213 8.038-17.223 29.105-21.085 31.439-21.514 1.102 1.348 17.891 22.25 8.556 43.519z" fill="#92B69A"/><path d="M203.576 192a12.59 12.59 0 01-2.623-.247c-4.48-.988-8.639-4.755-11.646-10.559-4.415-8.522-6.463-22.354-1.088-34.087 7.87-17.229 27.707-21.428 31.61-22.107.32 0 .576.062.768.309.768.926 18.044 22.539 8.574 44.584C224.436 181.008 213.238 192 203.576 192zm16.125-65.394c-3.839.741-22.652 5.125-29.946 21.118-5.183 11.301-3.2 24.577 1.024 32.729 2.751 5.372 6.526 8.83 10.557 9.694 9.343 2.1 21.436-9.324 26.427-20.933 8.575-19.884-5.695-39.583-8.062-42.608z" fill="#45594F"/><path d="M202.785 191c-.454 0-.843-.373-.778-.808.454-9.887 1.88-19.775 4.344-29.351 3.112-12.312 7.909-24.251 14.133-35.444.195-.373.713-.498 1.102-.311.389.186.519.684.325 1.057a145.45 145.45 0 00-14.004 35.071 146.864 146.864 0 00-4.279 29.04.882.882 0 01-.843.746z" fill="#45594F"/><path d="M177.002 177.077c-2.967-7.063-3.031-17.781 2.515-21.003 6.641-3.903 20.893 3.284 25.149 14.25 4.32 11.028-3.16 21.561-3.999 22.676-1.096-.124-18.055-2.54-23.665-15.923z" fill="#D2D2D2"/><path d="M200.779 193c-.849-.122-18.789-2.383-24.726-16.191-3.262-7.576-2.871-18.329 2.87-21.628 2.545-1.467 6.263-1.589 10.374-.245 5.936 1.894 13.308 7.21 16.309 14.664 4.502 11.18-3.262 21.873-4.175 23.094-.131.184-.392.306-.652.306zm-16.963-37.453c-1.565 0-2.935.306-4.044.917-4.893 2.81-5.22 12.769-2.219 19.795 5.154 11.914 19.898 14.725 22.834 15.152 1.566-2.199 7.568-11.608 3.653-21.262-2.805-6.965-9.72-11.975-15.331-13.746-1.696-.55-3.392-.856-4.893-.856z" fill="#45594F"/><path d="M201.114 194c-.328 0-.656-.25-.787-.562-2.295-7.497-5.573-14.743-9.769-21.428a99.108 99.108 0 00-11.342-14.68c-.328-.313-.263-.812.065-1.125.328-.312.852-.249 1.18.063A99.237 99.237 0 01192 171.198 91.921 91.921 0 01201.966 193a.81.81 0 01-.525 1h-.327z" fill="#45594F"/><path d="M184.609 208.089c-7.242 2.868-18.233 2.868-21.537-2.494-3.939-6.421 3.431-20.199 14.676-24.313 11.372-4.177 22.108 3.117 23.252 3.99-.127 1.06-2.605 17.455-16.391 22.817z" fill="#D2D2D2"/><path d="M174.31 210c-5.253 0-10.057-1.477-12.107-4.676-1.537-2.4-1.601-5.907-.192-9.721 2.05-5.6 7.623-12.552 15.438-15.321 11.787-4.184 22.933 3.138 24.214 3.999.257.185.385.431.321.739-.128.738-2.627 17.597-17.04 23.134-3.331 1.169-7.11 1.846-10.634 1.846zm10.698-29.533c-2.242 0-4.612.369-7.046 1.23-7.367 2.646-12.556 9.106-14.478 14.398-1.217 3.384-1.217 6.399.064 8.429 2.947 4.676 13.325 4.984 20.691 2.153 12.492-4.799 15.503-18.704 16.015-21.473-1.73-1.169-7.879-4.737-15.246-4.737z" fill="#45594F"/><path d="M163.788 205c-.192 0-.449-.06-.577-.242-.321-.302-.257-.785.064-1.087 4.684-3.989 9.882-7.554 15.336-10.576 6.994-3.927 14.565-6.949 22.394-9.064.449-.121.898.121.962.544.128.423-.128.786-.578.906-7.699 2.115-15.143 5.076-22.008 8.944a98.768 98.768 0 00-15.079 10.394.756.756 0 01-.514.181z" fill="#45594F"/><path d="M219.038 199.007c2.974 7.045 2.91 17.737-2.587 20.951-6.66 3.831-20.951-3.338-25.155-14.339-4.268-11.062 3.298-21.445 4.139-22.619 1.035.124 18.041 2.596 23.603 16.007z" fill="#D2D2D2"/><path d="M213.079 221c-1.696 0-3.523-.305-5.48-.976-5.938-1.952-13.311-7.26-16.247-14.703-4.437-11.226 3.393-21.841 4.306-23 .196-.244.457-.366.783-.305.783.122 18.661 2.501 24.534 16.289 3.262 7.626 2.805 18.363-3.002 21.597a11.449 11.449 0 01-4.894 1.098zm-16.442-37.459c-1.566 2.196-7.634 11.53-3.785 21.231 2.806 7.016 9.657 11.957 15.269 13.788 3.588 1.159 6.785 1.159 8.939-.061 4.959-2.807 5.285-12.69 2.283-19.706-5.024-11.897-19.77-14.764-22.706-15.252z" fill="#45594F"/><path d="M216.221 220c-.191 0-.445-.062-.571-.25-4.187-4.621-7.93-9.617-11.102-14.987-4.06-6.807-7.295-14.176-9.515-21.794-.127-.437.127-.874.571-.937.444-.125.888.125.951.562 2.157 7.494 5.329 14.738 9.325 21.42 3.109 5.245 6.788 10.178 10.911 14.737.318.312.254.812-.063 1.124a1.201 1.201 0 01-.507.125z" fill="#45594F"/><path d="M207.517 167.237c5.936-5.013 16.339-8.48 21.254-4.518 5.935 4.766 3.51 19.993-5.808 27.483-9.383 7.49-22.02 4.085-23.424 3.652-.191-.99-3.319-17.146 7.978-26.617z" fill="#D2D2D2"/><path d="M207.925 195c-4.588 0-8.078-.916-8.789-1.16-.258-.062-.517-.306-.582-.55-.129-.733-3.554-17.285 8.337-26.996 6.527-5.375 17.449-8.49 22.555-4.459 2.326 1.771 3.554 5.008 3.554 9.1 0 5.925-2.973 14.109-9.435 19.179-5.041 3.909-10.857 4.886-15.64 4.886zm-7.884-2.443c2.714.672 13.959 2.993 22.49-3.604 6.074-4.764 8.853-12.46 8.853-18.018 0-3.603-1.034-6.413-2.972-7.94-4.395-3.481-14.412-.488-20.487 4.459-10.275 8.368-8.337 22.354-7.884 25.103z" fill="#45594F"/><path d="M199.79 194c-.255 0-.51-.123-.637-.308-.255-.37-.191-.801.191-1.047a94.598 94.598 0 0017.588-15.527 92.47 92.47 0 0010.578-14.725c.191-.37.701-.493 1.084-.308.382.185.509.678.318 1.047-3.059 5.299-6.691 10.351-10.769 15.034-5.226 5.976-11.279 11.275-17.907 15.772-.127 0-.255.062-.446.062z" fill="#45594F"/><path d="M214.916 186.138c1.012 8.792-7.273 15.691-14.799 16.729-5.249.672-12.016-1.221-13.787-5.251-1.075-2.564.759-3.846 1.455-11.417.506-5.555-.38-6.41.822-8.425 2.277-3.785 8.221-5.251 12.712-4.64 6.514.794 12.775 6.044 13.597 13.004z" fill="#92B69A"/><path d="M197.841 204c-5.127 0-10.767-2.046-12.434-5.952-.705-1.674-.384-2.852.129-4.774.384-1.55.961-3.72 1.281-7.192.193-2.294.193-3.844.193-4.898 0-1.612-.064-2.604.769-3.906 2.499-4.217 8.78-5.767 13.716-5.147 7.434.93 13.587 6.945 14.42 13.951 1.026 9.114-7.434 16.74-15.638 17.856-.833 0-1.602.062-2.436.062zm1.474-30.505c-3.909 0-8.396 1.427-10.19 4.465-.577.992-.577 1.612-.513 3.162 0 1.116.064 2.666-.192 5.084-.321 3.658-.897 5.828-1.346 7.502-.449 1.798-.705 2.604-.192 3.782 1.602 3.72 8.075 5.58 13.074 4.898 7.499-.992 15.19-7.874 14.293-16.12-.705-6.324-6.345-11.719-13.011-12.587-.641-.186-1.282-.186-1.923-.186z" fill="#45594F"/><path d="M210.288 185c-.313 0-.564-.122-.689-.428-2.503-4.767-6.384-7.7-9.201-6.967-.688.183-1.377.611-2.003 1.283-.313.306-.751.367-1.127.062-.313-.306-.375-.734-.062-1.1.813-.917 1.752-1.467 2.754-1.712 3.568-.855 8.074 2.323 10.954 7.762.188.367.062.856-.313 1.039-.063 0-.188.061-.313.061zm-11.994 14c-.885 0-1.77-.117-2.719-.467-4.553-1.575-5.565-6.474-5.565-6.708-.064-.408.189-.758.632-.816.443-.058.822.175.885.583 0 .058.823 4.258 4.617 5.6 2.972 1.05 5.945-.525 7.21-1.167a10.275 10.275 0 003.225-2.566c.253-.292.759-.35 1.138-.117.317.233.38.7.127 1.05-1.012 1.225-2.277 2.158-3.668 2.916-1.139.525-3.289 1.692-5.882 1.692zm-3.363-8c-.208 0-.347-.064-.555-.191-2.705-1.911-3.953-5.032-3.121-7.77.694-2.166 2.497-3.44 3.468-3.949.416-.191.971-.064 1.179.255.208.382.07.891-.277 1.082-.763.446-2.15 1.338-2.705 2.994-.694 2.102.346 4.522 2.497 6.05.347.255.416.765.138 1.147-.069.255-.346.382-.624.382z" fill="#45594F"/><path d="M206.033 192c-.684-.25-.871-.687-.747-1.062.125-.25.249-.625.374-1.063.435-1.25.87-2.625.746-3.562-.249-1.687-3.109-2.75-4.042-3.125-2.487-.937-4.849-.687-6.404-.312-.435.125-.808-.188-.932-.563-.125-.437.186-.812.559-.937 1.803-.438 4.477-.687 7.337.375 1.243.5 4.601 1.75 5.036 4.312.186 1.312-.311 2.875-.808 4.25-.187.5-.311.937-.436 1.187-.062.313-.373.5-.683.5z" fill="#45594F"/><path d="M198.068 193c-.448 0-.767-.295-.767-.709 0-.413.319-.767.767-.767.767 0 2.173-.236 3.259-1.299.384-.414 1.47-1.772 1.023-2.717-.064-.118-.192-.472-1.406-.944-2.109-.886-4.538-1.122-5.241-.945.191.413 1.022 1.181 2.045 1.417.511.118.959.118 1.278.059.448-.059.831.236.895.59.064.414-.256.768-.639.827a4.775 4.775 0 01-1.981-.118c-1.471-.354-2.621-1.417-3.068-2.244-.32-.59-.256-1.004-.128-1.24s.319-.531.831-.708c1.47-.532 4.538.059 6.583.944 1.214.532 1.854 1.004 2.237 1.713.959 2.008-1.214 4.192-1.278 4.31-1.087 1.181-2.621 1.772-4.41 1.831z" fill="#45594F"/><path d="M313 253.555a202.596 202.596 0 01-.647 9.282 220.244 220.244 0 01-6.147 34.838c-4.012 15.098-7.377 28.279-12.747 37.375-.971.804-2.524 1.918-4.594 2.351-3.559.743-5.306-.99-9.189-1.052-3.947-.061-4.011 1.733-8.67 2.476-2.588.433-4.141.123-12.877-1.609-2.264-.433-7.57-1.485-11.129-2.166a153.648 153.648 0 016.018-38.922c6.017-21.101 15.464-37.128 22.841-47.585l-.777-33.106c-3.235-14.913-.064-28.464 9.124-34.529.518-.371 1.1-.68 1.747-1.052a21.023 21.023 0 015.435-1.856c3.624 8.973 7.183 18.626 10.353 28.898 2.265 7.24 4.4 14.789 6.277 22.648l.064.371.389 1.485A361.731 361.731 0 01313 253.555z" fill="#E5BBA4"/><path d="M358 223.765c-1.673 23.039-6.884 41.212-11.324 53.41-7.398 20.39-16.792 45.155-40.34 55.997-.965.431-1.801.8-2.316.985-1.158.616-2.702 1.171-4.568 1.54-5.276.986-9.586-.677-11.452-1.54 1.158-14.784 2.252-29.569 3.41-44.354 1.158-14.785 2.316-29.569 3.41-44.354 4.375-5.421 8.75-10.842 13.125-16.325 3.667-4.558 7.399-9.117 11.066-13.737a359.56 359.56 0 00-1.094-37.948c-.9-10.349-2.123-19.589-3.281-27.906-2.895-20.144-5.211-34.436-.708-44.231.065-.184.193-.369.322-.554a19.658 19.658 0 014.375-5.852c.965-.863 1.673-1.54 2.445-2.033.772-.555 1.608-.801 2.509-.863 5.211-.061 10.165 9.241 14.798 24.149 7.785 25.072 14.476 65.73 19.623 103.616z" fill="#E5BBA4"/><path d="M298.411 123.141c6.477 7.877 14.38 19.691 21.051 36.859 1.036-3.015 2.397-7.384 3.239-12.799 1.166-7.199 3.433-21.906-3.563-35.443-8.161-15.814-27.075-26.644-32.386-23.075-.842.553-1.814 1.784-1.749 6.276.13 12.984 8.809 22.583 13.408 28.182z" fill="#E5BBA4"/><path d="M314.206 253c-.381 0-.699-.242-.762-.545l-6.411-23.515c-.127-.424.127-.788.571-.909.444-.121.825.121.952.546l6.411 23.514c.127.424-.127.788-.571.909h-.19z" fill="#484848"/><path d="M306.794 285c-.574-.123-.894-.491-.766-.921l7.407-31.495c.127-.43.511-.675.957-.552.447.122.703.491.575.921l-7.407 31.494c-.063.307-.383.553-.766.553zm7.377-135a.731.731 0 01-.74-.614c-1.294-5.279-2.342-10.742-3.143-16.082-1.973-13.075-1.295-17.495-.493-20.626.739-2.885 1.911-5.647 3.39-8.286.185-.369.678-.492 1.048-.307.37.184.493.675.308 1.043-1.418 2.517-2.527 5.156-3.267 7.919-.801 3.008-1.418 7.243.555 20.011a178.096 178.096 0 003.143 15.96c.124.43-.185.798-.554.921-.124.061-.185.061-.247.061z" fill="#484848"/><path d="M287.103 203.514c.939.798 3.318 2.701 7.011 3.314 3.13.491 5.697-.184 6.886-.613-.313-3.498-.751-8.592-1.315-14.729-1.064-10.924-1.627-14.606-4.632-16.385-1.627-.982-4.194-1.535-6.072-.675-7.386 3.313-2.316 27.125-1.878 29.088zm40.715-84.274c1.509.807 4.211 1.926 7.605 1.739.943-.062 1.823-.186 2.577-.372-.126-6.835-.943-12.427-1.823-16.465-1.634-7.642-2.828-13.172-6.913-14.725-1.886-.684-4.463-.56-6.097.62-6.536 4.91 3.708 27.277 4.651 29.203zm-17.632-16.3c.916.06 1.636.06 2.029.06.131 0 .327 0 .523-.12.131-.061.197-.181.262-.181-1.243-1.745-3.01-3.912-5.432-6.26-.589-.601-1.243-1.203-4.908-4.153-8.246-6.62-10.864-7.222-12.173-7.282-.327 0-2.487-.12-2.487 1.023 0 .963 1.505 2.588 3.861 3.912 6.152 4.274 12.238 8.667 18.325 13.001z" fill="#B692B2"/><path d="M153 335.024c-9.508 4.269-16.144 4.393-20.547 3.589-2.935-.495-5.487-1.485-10.145-1.423-3.893.062-5.998.804-9.636.247-2.935-.495-5.296-1.546-6.763-2.413-6.254-14.23-10.21-27.036-12.954-37.369-3.573-13.425-5.36-25.304-6.253-34.832-.32-3.465-.51-6.496-.702-9.281a371.046 371.046 0 014.658-22.149c.128-.618.32-1.237.51-1.856 1.915-7.857 4.02-15.467 6.381-22.644 3.255-10.27 6.764-19.922 10.465-28.893 2.234.433 4.084 1.176 5.616 1.856.638.371 1.212.681 1.722 1.052 9.253 6.001 12.507 19.612 9.253 34.523-.255 11.013-.511 22.025-.766 33.1 7.466 10.456 17.037 26.48 23.163 47.578 4.275 14.91 5.743 28.274 5.998 38.915z" fill="#E5BBA4"/><path d="M112 334.83c-1.221.68-3.857 2.101-7.585 2.163-4.178.124-7.264-1.483-8.42-2.163-10.992-9.145-31.883-27.188-42.682-57.158-7.778-21.628-10.349-42.699-11.313-53.575 5.207-38.002 11.827-78.786 19.605-103.874C66.233 105.269 71.12 95.939 76.39 96c.965.062 1.672.31 2.507.865.707.495 1.479 1.175 2.379 2.04 1.864 1.73 3.342 3.707 4.37 5.87 5.014 9.887 2.572 24.346-.32 44.738-1.222 8.342-2.443 17.673-3.343 28.116-.707 8.713-1.543 21.875-1.157 38.064 3.663 4.573 7.392 9.146 11.056 13.78a1648.02 1648.02 0 0013.177 16.375c2.378 29.661 4.628 59.384 6.942 88.982z" fill="#E5BBA4"/><path d="M101.589 123.141c-6.477 7.877-14.38 19.691-21.051 36.859-1.037-3.015-2.397-7.384-3.239-12.799-1.166-7.199-3.433-21.906 3.563-35.443 8.161-15.814 27.075-26.644 32.386-23.075.842.553 1.814 1.784 1.749 6.276-.13 12.984-8.809 22.583-13.408 28.182z" fill="#E5BBA4"/><path d="M84.794 254c-.635-.126-.89-.566-.762-1.006l6.412-24.396c.127-.44.508-.691.952-.566.444.126.698.566.571.944l-6.412 24.395a.753.753 0 01-.761.629z" fill="#484848"/><path d="M92.205 285c-.383 0-.703-.245-.767-.613l-7.41-31.44c-.127-.429.192-.797.575-.92.448-.122.83.184.959.552l7.41 31.44c.127.429-.192.797-.575.92-.064.061-.128.061-.192.061zm-7.43-135c-.62-.123-.868-.553-.744-.921a177.393 177.393 0 003.162-15.972c1.984-12.778 1.302-17.078.496-20.026-.682-2.765-1.798-5.406-3.286-7.925-.186-.368-.062-.86.31-1.044.372-.246.868-.062 1.054.307a32.117 32.117 0 013.41 8.293c.805 3.133 1.55 7.556-.496 20.641-.806 5.344-1.922 10.75-3.162 16.094-.062.369-.434.553-.744.553zm-5.918 70c-.138 0-.277-.061-.415-.121a.73.73 0 01-.346-1.032l2.285-3.46c.208-.364.762-.485 1.177-.303a.73.73 0 01.346 1.031l-2.285 3.46c-.208.243-.485.425-.762.425z" fill="#484848"/><path d="M111.897 203.514c-.939.798-3.318 2.701-7.011 3.314-3.13.491-5.697-.184-6.886-.613.313-3.498.751-8.592 1.314-14.729 1.065-10.924 1.628-14.606 4.633-16.385 1.627-.982 4.194-1.535 6.072-.675 7.386 3.313 2.316 27.125 1.878 29.088zM71.203 119.24c-1.512.807-4.22 1.926-7.62 1.739-.946-.062-1.827-.186-2.583-.372.126-6.835.945-12.427 1.826-16.465 1.638-7.642 2.834-13.172 6.928-14.725 1.89-.684 4.471-.56 6.109.62 6.487 4.91-3.779 27.277-4.66 29.203zm18.611-16.3c-.916.06-1.636.06-2.029.06-.13 0-.327 0-.523-.12-.131-.061-.197-.181-.262-.181 1.243-1.745 3.01-3.912 5.432-6.26.589-.601 1.243-1.203 4.908-4.153 8.246-6.62 10.864-7.222 12.173-7.282.327 0 2.487-.12 2.487 1.023 0 .963-1.505 2.588-3.861 3.912-6.152 4.274-12.239 8.667-18.325 13.001z" fill="#B692B2"/><path d="M227 189.562c0-3.062-3.35-5.635-8.118-6.86 1.804-4.777 1.868-10.535-.773-11.883-1.933-.98-5.606.245-8.956 2.512-.838-2.818-2.835-8.33-5.734-8.33-2.513-.062-4.961 4.165-5.863 8.269-2.32-1.715-7.667-5.146-10.051-3.492-2.062 1.47-1.289 6.37.708 10.168-5.412 1.102-9.213 3.614-9.213 6.554 0 2.266 2.319 4.287 5.928 5.635-1.482 2.144-2.32 4.471-1.869 6.676.709 3.369 4.381 6.799 8.311 6.738 1.354 0 2.578-.49 3.609-1.164 1.417 3.92 4.059 6.615 7.087 6.615 3.157 0 5.927-2.879 7.28-7.105 4.382 2.205 8.892 2.756 10.245 1.225 1.288-1.409.064-4.839-2.32-8.33 5.67-1.041 9.729-3.859 9.729-7.228z" fill="#E5BBA4"/><path d="M214.918 198.411c1.204-1.623.507-4.308-1.458-6.743 2.852-1.873 5.197-4.994 4.373-6.68-.57-1.249-2.979-1.998-5.64-1.998.697-1.81 1.838-5.556.38-6.618-1.331-.936-4.246.375-6.337 2.248-.571-1.811-1.902-5.682-3.866-5.619-1.648 0-3.232 2.934-3.676 5.744-3.295-1.436-6.274-1.499-7.415.062-.887 1.249-.507 3.184.824 5.244-1.647.625-2.978 1.561-3.612 2.872-1.014 2.061-.444 5.307 1.584 6.743.697.5 1.521.687 2.345.687-.824 2.622-.507 5.057 1.077 6.243 1.648 1.187 4.246.625 6.655-1.123 1.394 2.809 3.485 4.807 4.816 4.495 1.268-.25 1.965-2.56 2.155-5.369 3.232 1.623 6.464 1.623 7.795-.188z" fill="#B692B2"/><path d="M81.808 185H47.192c-1.225 0-2.192-.882-2.192-2 0-1.118.967-2 2.192-2h34.616c1.225 0 2.192.882 2.192 2 0 1.118-1.031 2-2.192 2zm0 11H47.192c-1.225 0-2.192-1.103-2.192-2.5s.967-2.5 2.192-2.5h34.616c1.225 0 2.192 1.103 2.192 2.5s-1.031 2.5-2.192 2.5zm269.688-18h-32.992c-1.917 0-3.504-1.59-3.504-3.512v-3.976c0-1.922 1.587-3.512 3.504-3.512h32.992c1.917 0 3.504 1.59 3.504 3.512v3.976a3.489 3.489 0 01-3.504 3.512zM127.78 222.978L92 219l-1.077 8.935 35.78 3.978 1.077-8.935z" fill="#D2D2D2"/><path d="M273 143.5c0 1.413-2.472 2.5-5.5 2.5s-5.5-1.141-5.5-2.5c0-1.413 2.472-2.5 5.5-2.5 3.09 0 5.5 1.087 5.5 2.5zm2 10.5c2.761 0 5-.895 5-2s-2.239-2-5-2-5 .895-5 2 2.239 2 5 2z" fill="#C7B28A"/></svg>