<svg width="400" height="400" viewBox="0 0 400 400" fill="none" xmlns="http://www.w3.org/2000/svg">
<path d="M299.322 286.18C349.377 233.559 345.7 152.071 291.109 104.172C236.519 56.2725 151.687 60.1003 101.632 112.721C51.5774 165.342 55.2544 246.83 109.845 294.729C164.435 342.628 249.267 338.801 299.322 286.18Z" fill="#8AAAC7"/>
<path d="M201 313C266.17 313 319 262.408 319 200C319 137.592 266.17 87 201 87C135.83 87 83 137.592 83 200C83 262.408 135.83 313 201 313Z" fill="#484848"/>
<path d="M172 260C172 262.771 168.407 265 164 265C159.593 265 156 262.771 156 260C156 257.229 159.593 255 164 255C168.407 255 172 257.229 172 260Z" fill="#C7B28A"/>
<path d="M151 245C151 251.638 148.31 257 145 257C141.69 257 139 251.638 139 245C139 238.362 141.69 233 145 233C148.31 233 151 238.362 151 245Z" fill="#C7B28A"/>
<path d="M164 250C170.075 250 175 247.761 175 245C175 242.239 170.075 240 164 240C157.925 240 153 242.239 153 245C153 247.761 157.925 250 164 250Z" fill="#C7B28A"/>
<path d="M158 251.5C158 254.548 156.431 257 154.5 257C152.569 257 151 254.548 151 251.5C151 248.452 152.569 246 154.5 246C156.431 246 158 248.452 158 251.5Z" fill="#C7B28A"/>
<path d="M175 274C175 276.176 172.082 278 168.5 278C164.918 278 162 276.235 162 274C162 271.824 164.918 270 168.5 270C172.082 270.059 175 271.824 175 274Z" fill="#C7B28A"/>
<path d="M185 256.5C185 260.118 180.49 263 175 263C169.51 263 165 260.118 165 256.5C165 252.882 169.51 250 175 250C180.49 250 185 252.943 185 256.5Z" fill="#C7B28A"/>
<path d="M195 269C195 272.836 191.222 276 186.5 276C181.845 276 178 272.904 178 269C178 265.163 181.778 262 186.5 262C191.222 262 195 265.163 195 269Z" fill="#C7B28A"/>
<path d="M229 256C229 261.556 224.963 266 220 266C215.037 266 211 261.494 211 256C211 250.506 215.037 246 220 246C224.963 246 229 250.445 229 256Z" fill="#C7B28A"/>
<path d="M145 228.5C145 234.333 140.963 239 136 239C131.037 239 127 234.269 127 228.5C127 222.732 131.037 218.001 136 218.001C140.963 217.936 145 222.667 145 228.5Z" fill="#C7B28A"/>
<path d="M165 225.5C165 231.333 160.963 236 156 236C151.037 236 147 231.269 147 225.5C147 219.732 151.037 215 156 215C160.963 215 165 219.667 165 225.5Z" fill="#C7B28A"/>
<path d="M171 239.5C171 245.333 167.187 250 162.5 250C157.813 250 154 245.269 154 239.5C154 233.732 157.813 229.001 162.5 229.001C167.125 228.936 171 233.667 171 239.5Z" fill="#C7B28A"/>
<path d="M221 270.5C221 273.548 215.874 276 209.5 276C203.126 276 198 273.548 198 270.5C198 267.452 203.126 265 209.5 265C215.874 265 221 267.452 221 270.5Z" fill="#C7B28A"/>
<path d="M208 285.5C208 287.431 205.097 289 201.5 289C197.903 289 195 287.431 195 285.5C195 283.569 197.903 282 201.5 282C205.097 282 208 283.569 208 285.5Z" fill="#C7B28A"/>
<path d="M203 273C207.418 273 211 269.642 211 265.5C211 261.358 207.418 258 203 258C198.582 258 195 261.358 195 265.5C195 269.642 198.582 273 203 273Z" fill="#C7B28A"/>
<path d="M247 272.5C247 276.104 242.944 279 238 279C233.056 279 229 276.104 229 272.5C229 268.896 233.056 266 238 266C242.944 266 247 268.96 247 272.5Z" fill="#C7B28A"/>
<path d="M228 276.5C228 277.902 224.874 279 221 279C217.126 279 214 277.841 214 276.5C214 275.159 217.126 274 221 274C224.874 274 228 275.098 228 276.5Z" fill="#C7B28A"/>
<path d="M237.5 266C241.09 266 244 262.194 244 257.5C244 252.806 241.09 249 237.5 249C233.91 249 231 252.806 231 257.5C231 262.194 233.91 266 237.5 266Z" fill="#C7B28A"/>
<path d="M143.5 183C147.642 183 151 178.075 151 172C151 165.925 147.642 161 143.5 161C139.358 161 136 165.925 136 172C136 178.075 139.358 183 143.5 183Z" fill="#C7B28A"/>
<path d="M123 179C123 184.541 120.8 189 118 189C115.267 189 113 184.541 113 179C113 173.459 115.2 169 118 169C120.8 169 123 173.522 123 179Z" fill="#C7B28A"/>
<path d="M144.197 188.82C146.329 190.94 146.595 194.053 144.863 195.842C143.065 197.631 139.934 197.299 137.803 195.18C135.671 193.06 135.405 189.947 137.137 188.158C138.869 186.369 142.066 186.701 144.197 188.82Z" fill="#C7B28A"/>
<path d="M141 250C141 252.77 138.104 255 134.5 255C130.896 255 128 252.77 128 250C128 247.23 130.896 245 134.5 245C138.04 245 141 247.23 141 250Z" fill="#C7B28A"/>
<path d="M128.5 188C133.194 188 137 182.627 137 176C137 169.373 133.194 164 128.5 164C123.806 164 120 169.373 120 176C120 182.627 123.806 188 128.5 188Z" fill="#C7B28A"/>
<path d="M132 216C134.761 216 137 213.761 137 211C137 208.239 134.761 206 132 206C129.239 206 127 208.239 127 211C127 213.761 129.239 216 132 216Z" fill="#C7B28A"/>
<path d="M268 240C274.075 240 279 235.075 279 229C279 222.925 274.075 218 268 218C261.925 218 257 222.925 257 229C257 235.075 261.925 240 268 240Z" fill="#C7B28A"/>
<path d="M247 243C250.866 243 254 239.866 254 236C254 232.134 250.866 229 247 229C243.134 229 240 232.134 240 236C240 239.866 243.134 243 247 243Z" fill="#C7B28A"/>
<path d="M229 237C233.971 237 238 233.194 238 228.5C238 223.806 233.971 220 229 220C224.029 220 220 223.806 220 228.5C220 233.194 224.029 237 229 237Z" fill="#C7B28A"/>
<path d="M264 256.5C264 260.084 260.86 263 257 263C253.14 263 250 260.084 250 256.5C250 252.916 253.14 250 257 250C260.86 250 264 252.916 264 256.5Z" fill="#C7B28A"/>
<path d="M238 265C240.761 265 243 262.985 243 260.5C243 258.015 240.761 256 238 256C235.239 256 233 258.015 233 260.5C233 262.985 235.239 265 238 265Z" fill="#C7B28A"/>
<path d="M254.5 168C260.299 168 265 163.299 265 157.5C265 151.701 260.299 147 254.5 147C248.701 147 244 151.701 244 157.5C244 163.299 248.701 168 254.5 168Z" fill="#C7B28A"/>
<path d="M242.5 166C245.538 166 248 163.761 248 161C248 158.239 245.538 156 242.5 156C239.462 156 237 158.239 237 161C237 163.761 239.462 166 242.5 166Z" fill="#C7B28A"/>
<path d="M236 147C240.418 147 244 143.418 244 139C244 134.582 240.418 131 236 131C231.582 131 228 134.582 228 139C228 143.418 231.582 147 236 147Z" fill="#C7B28A"/>
<path d="M214 138.001C214 141.86 211.084 145 207.5 145C203.916 145 201 141.86 201 138.001C201 134.141 203.916 131.001 207.5 131.001C211.084 130.936 214 134.076 214 138.001Z" fill="#C7B28A"/>
<path d="M199 133C203.971 133 208 129.194 208 124.5C208 119.806 203.971 116 199 116C194.029 116 190 119.806 190 124.5C190 129.194 194.029 133 199 133Z" fill="#C7B28A"/>
<path d="M182 138C185.866 138 189 134.866 189 131C189 127.134 185.866 124 182 124C178.134 124 175 127.134 175 131C175 134.866 178.134 138 182 138Z" fill="#C7B28A"/>
<path d="M148 136.5C148 138.415 146.415 140 144.5 140C142.585 140 141 138.415 141 136.5C141 134.585 142.585 133 144.5 133C146.415 133 148 134.585 148 136.5Z" fill="#C7B28A"/>
<path d="M158 127.5C158 131.645 154.645 135 150.5 135C146.355 135 143 131.645 143 127.5C143 123.355 146.355 120 150.5 120C154.645 120 158 123.355 158 127.5Z" fill="#C7B28A"/>
<path d="M163 143C163 144.103 159.438 145 155 145C150.562 145 147 144.103 147 143C147 141.897 150.562 141 155 141C159.438 141.069 163 141.966 163 143Z" fill="#C7B28A"/>
<path d="M141 143.5C141 145.438 138.058 147 134.5 147C130.874 147 128 145.438 128 143.5C128 141.562 130.942 140 134.5 140C138.058 140.063 141 141.625 141 143.5Z" fill="#C7B28A"/>
<path d="M178 114C178 117.313 174.423 120 170 120C165.577 120 162 117.313 162 114C162 110.687 165.577 108 170 108C174.423 108 178 110.687 178 114Z" fill="#C7B28A"/>
<path d="M175 129.5C175 134.165 170.284 138 164.5 138C158.716 138 154 134.229 154 129.5C154 124.835 158.716 121 164.5 121C170.284 121 175 124.835 175 129.5Z" fill="#C7B28A"/>
<path d="M218 114.5C218 118.062 212.86 121 206.5 121C200.14 121 195 118.125 195 114.5C195 110.938 200.14 108 206.5 108C212.86 108 218 110.938 218 114.5Z" fill="#C7B28A"/>
<path d="M218.5 145C224.299 145 229 140.523 229 135C229 129.477 224.299 125 218.5 125C212.701 125 208 129.477 208 135C208 140.523 212.701 145 218.5 145Z" fill="#C7B28A"/>
<path d="M278 178C278 182.937 275.733 187 273 187C270.2 187 268 183 268 178C268 173.063 270.267 169 273 169C275.733 169 278 173.063 278 178Z" fill="#C7B28A"/>
<path d="M251 146.5C251 151.194 248.075 155 244.5 155C240.925 155 238 151.194 238 146.5C238 141.806 240.925 138 244.5 138C248.075 138.063 251 141.869 251 146.5Z" fill="#C7B28A"/>
<path d="M164 150C172.284 150 179 146.194 179 141.5C179 136.806 172.284 133 164 133C155.716 133 149 136.806 149 141.5C149 146.194 155.716 150 164 150Z" fill="#C7B28A"/>
<path d="M214 132C214 135.896 209.785 139 204.5 139C199.215 139 195 135.896 195 132C195 128.104 199.215 125 204.5 125C209.785 125 214 128.104 214 132Z" fill="#C7B28A"/>
<path d="M247 135.5C247 139.607 243.222 143 238.5 143C233.845 143 230 139.667 230 135.5C230 131.393 233.778 128 238.5 128C243.222 128 247 131.333 247 135.5Z" fill="#C7B28A"/>
<path d="M265 180C265 184.409 258.72 188 251 188C243.28 188 237 184.409 237 180C237 175.591 243.28 172 251 172C258.72 172 265 175.591 265 180Z" fill="#C7B28A"/>
<path d="M250 210C253.314 210 256 207.09 256 203.5C256 199.91 253.314 197 250 197C246.686 197 244 199.91 244 203.5C244 207.09 246.686 210 250 210Z" fill="#C7B28A"/>
<path d="M236 225C244.284 225 251 220.075 251 214C251 207.925 244.284 203 236 203C227.716 203 221 207.925 221 214C221 220.075 227.716 225 236 225Z" fill="#C7B28A"/>
<path d="M160 111C160 112.688 157.585 114 154.5 114C151.482 114 149 112.688 149 111C149 109.313 151.415 108 154.5 108C157.518 108 160 109.375 160 111Z" fill="#C7B28A"/>
<path d="M182 290C182 292.756 176.43 295 169.5 295C162.57 295 157 292.756 157 290C157 287.244 162.57 285 169.5 285C176.43 285 182 287.244 182 290Z" fill="#C7B28A"/>
<path d="M219 293C219 295.235 214.977 297 210 297C205.023 297 201 295.176 201 293C201 290.765 205.023 289 210 289C214.977 289 219 290.765 219 293Z" fill="#C7B28A"/>
<path d="M239 286C239 288.209 237.209 290 235 290C232.791 290 231 288.209 231 286C231 283.791 232.791 282 235 282C237.209 282 239 283.791 239 286Z" fill="#C7B28A"/>
<path d="M195 238C195 240.756 191.659 243 187.5 243C183.341 243 180 240.756 180 238C180 235.244 183.341 233 187.5 233C191.659 233 195 235.244 195 238Z" fill="#C7B28A"/>
<path d="M166 207C166 208.63 164.696 210 163 210C161.37 210 160 208.696 160 207C160 205.37 161.304 204 163 204C164.63 204 166 205.304 166 207Z" fill="#C7B28A"/>
<path d="M148 206C151.866 206 155 204.657 155 203C155 201.343 151.866 200 148 200C144.134 200 141 201.343 141 203C141 204.657 144.134 206 148 206Z" fill="#C7B28A"/>
<path d="M162.5 174C168.851 174 174 171.09 174 167.5C174 163.91 168.851 161 162.5 161C156.149 161 151 163.91 151 167.5C151 171.09 156.149 174 162.5 174Z" fill="#C7B28A"/>
<path d="M144 154C144 156.722 139.519 159 134 159C128.481 159 124 156.785 124 154C124 151.279 128.481 149 134 149C139.519 149 144 151.215 144 154Z" fill="#C7B28A"/>
<path d="M230.745 189.063C233.2 206.078 217.563 221.609 200.181 222.908C185.577 224.022 170.263 214.926 166.773 201.747C161.992 183.866 180.149 163.634 200.181 164.005C214.138 164.314 228.612 174.585 230.745 189.063Z" fill="#D2D2D2"/>
<path d="M190.497 139.109C194.736 150.631 194.029 167.759 184.973 172.564C174.054 178.356 151.766 165.91 145.665 148.043C139.499 130.052 152.344 113.787 153.757 112C155.427 112.308 182.404 117.299 190.497 139.109Z" fill="#92B69A"/>
<path d="M178.673 175C175.825 175 172.654 174.379 169.353 173.138C160.098 169.661 148.837 160.598 144.695 148.369C138.417 129.995 151.491 113.173 152.979 111.31C153.173 111.062 153.497 111 153.756 111C154.921 111.186 183.139 116.276 191.423 138.81C196.018 151.287 194.724 168.544 185.469 173.448C183.527 174.503 181.197 175 178.673 175ZM153.95 112.614C151.555 115.656 140.488 131.112 146.183 147.811C150.196 159.605 161.004 168.234 169.936 171.648C175.761 173.883 181.003 174.007 184.692 172.082C193.235 167.551 194.271 151.225 189.934 139.306C182.427 118.946 157.833 113.359 153.95 112.614Z" fill="#45594F"/>
<path d="M184.232 172C183.971 172 183.775 171.876 183.58 171.691C176.997 164.077 171.196 155.845 166.308 147.241C160.05 136.1 155.227 124.278 152.034 111.96C151.903 111.527 152.164 111.156 152.62 111.032C153.076 110.908 153.467 111.156 153.598 111.589C156.726 123.721 161.484 135.481 167.676 146.499C172.5 155.04 178.235 163.211 184.818 170.762C185.079 171.072 185.079 171.567 184.688 171.876C184.558 171.938 184.362 172 184.232 172Z" fill="#45594F"/>
<path d="M222.579 145.685C219.049 157.501 208.14 171.049 197.809 169.936C185.424 168.513 174.771 145.933 180.675 127.931C186.579 109.805 206.857 103.68 209.103 103C210.322 104.175 229.253 123.291 222.579 145.685Z" fill="#92B69A"/>
<path d="M199.002 170C198.549 170 198.16 170 197.707 169.939C193.045 169.447 188.448 166.193 184.758 160.789C179.319 152.868 175.693 139.42 179.708 127.261C185.729 108.962 206.577 102.698 208.908 102.023C209.167 101.962 209.491 102.023 209.685 102.207C210.527 103.006 230.468 122.533 223.541 145.376C219.85 157.35 209.102 170 199.002 170ZM208.908 103.558C205.153 104.663 186.765 110.988 181.262 127.63C177.377 139.297 180.938 152.253 186.117 159.868C189.549 164.842 193.693 167.851 197.836 168.342C207.484 169.386 218.296 156.798 221.922 144.823C228.267 124.252 211.627 106.321 208.908 103.558Z" fill="#45594F"/>
<path d="M198.17 169C197.708 169 197.378 168.692 197.378 168.26C196.651 158.457 196.981 148.593 198.303 138.914C200.021 126.46 203.391 114.191 208.413 102.477C208.611 102.045 209.074 101.922 209.47 102.045C209.867 102.23 210.131 102.662 209.933 103.032C204.977 114.622 201.607 126.768 199.889 139.098C198.567 148.716 198.237 158.457 198.963 168.137C199.029 168.63 198.699 169 198.17 169C198.237 169 198.237 169 198.17 169Z" fill="#45594F"/>
<path d="M250.374 157.541C243.675 167.891 229.321 177.994 219.816 174.175C208.396 169.554 204.632 145.097 215.35 129.387C226.132 113.554 247.248 113.062 249.545 113C250.438 114.54 263.069 137.889 250.374 157.541Z" fill="#92B69A"/>
<path d="M225.166 177C223.493 177 221.883 176.751 220.402 176.13C216.089 174.39 212.677 170.041 210.682 163.827C207.785 154.693 208.171 140.65 215.51 129.839C226.325 114.056 246.733 113 250.724 113C251.046 113 251.304 113.186 251.432 113.435C252.012 114.429 265.402 138.724 252.205 159.043C246.089 168.487 234.501 177 225.166 177ZM250.273 114.553C246.346 114.678 226.905 115.983 216.862 130.709C209.78 141.085 209.458 154.569 212.227 163.392C214.029 169.171 217.184 173.21 220.982 174.701C229.93 178.305 243.9 168.922 250.788 158.235C262.827 139.781 252.076 117.909 250.273 114.553Z" fill="#45594F"/>
<path d="M221.808 175C221.223 174.876 220.898 174.504 221.028 174.07C223.174 164.458 226.359 154.97 230.389 145.916C235.589 134.319 242.414 123.343 250.54 113.297C250.8 112.925 251.32 112.925 251.71 113.173C252.035 113.421 252.1 113.917 251.84 114.227C243.779 124.149 237.084 135.001 231.884 146.536C227.854 155.466 224.734 164.83 222.588 174.38C222.523 174.752 222.199 175 221.808 175Z" fill="#45594F"/>
<path d="M152.542 161.256C164.558 165.618 177.8 177.27 175.798 187.114C173.408 198.953 148.989 207.489 130.708 200.448C112.297 193.345 107.452 173.219 107 170.976C108.357 169.855 129.803 153.032 152.542 161.256Z" fill="#92B69A"/>
<path d="M144.648 203C139.779 203 134.782 202.261 130.041 200.413C111.526 193.268 106.529 173.004 106.017 170.725C105.953 170.417 106.081 170.171 106.273 169.986C107.17 169.247 129.08 151.939 152.208 160.254C164.957 164.874 177.834 176.823 175.784 186.678C174.887 191.051 171.171 195.116 165.277 198.196C159.96 201.029 152.464 203 144.648 203ZM107.682 170.91C108.579 174.606 113.769 192.529 130.618 198.996C142.47 203.616 156.18 201.214 164.572 196.902C170.018 194.069 173.477 190.312 174.31 186.431C176.168 177.316 163.932 166.106 151.759 161.733C130.746 154.157 110.758 168.57 107.682 170.91Z" fill="#45594F"/>
<path d="M174.219 187C163.969 186.938 153.718 185.884 143.661 183.838C130.767 181.234 118.26 177.141 106.463 171.499C106.076 171.313 105.882 170.817 106.076 170.445C106.269 170.073 106.785 169.887 107.172 170.073C118.905 175.591 131.283 179.745 143.983 182.288C153.912 184.272 164.033 185.326 174.219 185.388C174.671 185.388 174.993 185.76 174.993 186.194C175.057 186.628 174.671 187 174.219 187Z" fill="#45594F"/>
<path d="M138.274 205.844C150.174 201.423 168.056 201.61 173.331 210.327C179.635 220.726 167.349 242.707 148.823 249.121C130.233 255.535 112.865 243.579 111 242.271C111.257 240.59 115.696 214.25 138.274 205.844Z" fill="#92B69A"/>
<path d="M137.319 251C123.797 251 112.863 243.912 110.34 242.187C110.081 242.002 109.952 241.755 110.016 241.447C110.211 240.338 114.61 213.405 137.966 204.839C150.841 200.155 168.891 200.956 174.196 209.584C176.59 213.405 176.59 218.891 174.261 224.93C170.897 233.867 161.775 244.775 149.094 249.089C145.083 250.445 141.136 251 137.319 251ZM111.699 241.201C115.645 243.851 131.496 253.465 148.641 247.61C160.804 243.481 169.538 232.942 172.838 224.376C174.973 218.767 174.973 213.775 172.903 210.324C167.986 202.312 150.905 201.757 138.613 206.256C117.392 214.022 112.346 237.503 111.699 241.201Z" fill="#45594F"/>
<path d="M110.81 243C110.422 243 110.098 242.752 110.033 242.442C109.904 242.007 110.163 241.573 110.616 241.511C123.245 238.161 135.42 233.321 146.753 227.117C155.561 222.277 163.915 216.57 171.621 210.179C171.945 209.931 172.463 209.931 172.787 210.241C173.111 210.551 173.046 211.048 172.722 211.358C164.951 217.81 156.532 223.58 147.595 228.482C136.132 234.748 123.827 239.65 111.069 243C110.94 243 110.875 243 110.81 243Z" fill="#45594F"/>
<path d="M165.503 236.601C167.834 221.537 179.036 203.188 191.988 203.002C207.529 202.754 224.559 228.852 220.35 251.913C216.141 275.098 192.182 285.822 189.462 287C187.778 285.636 161.035 265.117 165.503 236.601Z" fill="#92B69A"/>
<path d="M189.055 287C188.862 287 188.734 286.938 188.542 286.815C187.387 285.952 160.008 265.118 164.497 236.086C166.997 220.122 178.667 202.185 191.491 202C197.326 202 203.289 205.267 208.547 211.184C216.434 220.06 223.166 235.963 220.345 251.496C216.241 274.241 193.799 285.027 189.311 286.938C189.311 287 189.183 287 189.055 287ZM166.1 236.333C161.932 263.022 185.72 282.624 189.183 285.336C193.351 283.487 214.959 272.761 218.87 251.249C221.563 236.21 215.087 220.8 207.393 212.17C202.327 206.5 196.685 203.479 191.555 203.541C179.565 203.726 168.536 220.985 166.1 236.333Z" fill="#45594F"/>
<path d="M188.851 288C188.17 287.876 187.898 287.441 188.034 287.007C192.186 271.925 194.297 256.409 194.229 240.956C194.16 228.915 192.799 216.813 190.144 204.959C190.076 204.524 190.348 204.152 190.825 204.028C191.301 203.903 191.71 204.214 191.846 204.648C194.501 216.564 195.93 228.791 195.998 240.956C196.066 256.534 193.956 272.174 189.804 287.379C189.6 287.814 189.259 288 188.851 288Z" fill="#45594F"/>
<path d="M215.592 244.364C209.38 233.771 207.139 216.871 215.207 210.686C224.94 203.277 249.017 211.849 258.109 228.382C267.266 245.038 257.533 263.041 256.444 265C254.652 265 227.245 264.449 215.592 244.364Z" fill="#92B69A"/>
<path d="M256.563 266C255.338 266 226.831 265.568 214.706 244.758C207.998 233.273 206.321 216.106 214.512 209.869C218.124 207.091 223.8 206.288 230.378 207.646C240.117 209.622 252.694 216.662 258.95 228.024C268.108 244.696 259.143 262.295 257.208 265.691C257.144 265.815 256.821 266 256.563 266ZM224.444 208.511C220.768 208.511 217.737 209.375 215.479 211.043C207.869 216.847 209.675 233.026 216.06 244.017C227.024 262.851 252.049 264.333 256.047 264.456C257.853 261.122 266.044 244.141 257.531 228.703C251.533 217.773 239.408 211.043 230.056 209.128C228.121 208.696 226.186 208.511 224.444 208.511Z" fill="#45594F"/>
<path d="M257.078 266C256.753 266 256.493 265.815 256.363 265.507C251.163 254.042 244.402 243.255 236.341 233.454C230.1 225.811 222.95 218.723 215.279 212.374C214.954 212.066 214.889 211.634 215.214 211.264C215.539 210.956 215.994 210.894 216.384 211.203C224.185 217.613 231.335 224.763 237.706 232.468C245.832 242.392 252.658 253.302 257.923 264.829C258.119 265.199 257.924 265.692 257.533 265.815C257.273 266 257.143 266 257.078 266Z" fill="#45594F"/>
<path d="M250.152 225.352C238.432 220.929 225.811 209.812 228.322 201.029C231.349 190.403 256.076 183.831 273.913 191.018C291.879 198.265 295.614 216.63 296 218.657C294.583 219.517 272.368 233.766 250.152 225.352Z" fill="#92B69A"/>
<path d="M264.377 229C259.524 229 254.48 228.255 249.436 226.268C236.921 221.424 224.789 209.749 227.343 200.745C228.365 197.019 231.877 193.604 237.24 191.058C245.924 186.959 260.993 184.91 273.636 190.064C291.323 197.33 295.345 215.09 295.984 218.567C296.048 218.878 295.92 219.188 295.664 219.313C294.898 219.871 281.106 229 264.377 229ZM250.011 224.839C270.443 232.726 291.003 220.492 294.26 218.381C293.494 214.841 289.215 198.261 272.933 191.554C260.802 186.524 246.243 188.512 237.879 192.486C232.962 194.846 229.706 197.888 228.812 201.18C226.641 209.19 238.198 220.244 250.011 224.839Z" fill="#45594F"/>
<path d="M296.303 220C296.174 220 296.045 220 295.917 219.937C284.517 214.256 272.344 209.837 259.786 206.87C249.996 204.598 239.949 203.146 229.773 202.578C229.322 202.578 229 202.199 229 201.757C229 201.316 229.386 201 229.837 201C240.078 201.568 250.254 203.02 260.108 205.356C272.795 208.322 285.097 212.741 296.561 218.548C296.947 218.738 297.14 219.243 296.883 219.621C296.883 219.874 296.561 220 296.303 220Z" fill="#45594F"/>
<path d="M256.172 196.491C243.671 198.397 226.917 194.954 224.339 186.102C221.311 175.528 239.031 157.761 258.234 155.302C277.566 152.782 290.582 166.798 292 168.335C291.356 169.811 279.821 192.925 256.172 196.491Z" fill="#92B69A"/>
<path d="M248.791 198C237.222 198 225.462 193.96 223.353 186.438C222.33 182.709 223.545 178.047 226.804 173.199C232.109 165.366 244.061 156.105 257.611 154.302C277.041 151.754 290.336 166.112 291.806 167.791C291.997 168.039 292.061 168.35 291.933 168.599C291.422 169.656 279.79 193.773 255.758 197.441C253.585 197.876 251.22 198 248.791 198ZM262.277 155.608C260.871 155.608 259.401 155.67 257.867 155.918C244.764 157.659 233.324 166.548 228.147 174.131C225.143 178.606 223.992 182.833 224.887 186.128C227.124 194.146 242.975 197.938 255.566 196.011C277.297 192.654 288.546 171.893 290.336 168.474C288.035 165.988 277.489 155.608 262.277 155.608Z" fill="#45594F"/>
<path d="M225.8 187C225.541 187 225.218 186.879 225.089 186.576C224.895 186.213 225.024 185.729 225.412 185.548C234.523 181.131 244.086 177.439 253.778 174.596C266.249 170.965 279.172 168.787 292.16 168C292.548 168 293 168.303 293 168.726C293 169.15 292.677 169.513 292.225 169.513C279.431 170.239 266.637 172.478 254.231 176.048C244.603 178.831 235.169 182.462 226.123 186.879C225.994 186.939 225.929 187 225.8 187Z" fill="#45594F"/>
<path d="M156.939 179.586C169.514 177.488 186.965 181.005 190.365 190.445C194.471 201.737 178.047 220.803 158.672 223.641C139.168 226.479 124.604 211.609 123 209.943C123.642 208.339 133.201 183.596 156.939 179.586Z" fill="#92B69A"/>
<path d="M153.637 225C136.798 225 124.669 213.156 122.218 210.538C122.024 210.351 121.96 210.039 122.024 209.728C122.411 208.605 132.218 182.736 156.798 178.622C170.346 176.315 187.83 180.492 191.314 190.091C192.862 194.33 191.765 199.754 188.281 205.364C183.185 213.592 172.024 222.756 158.798 224.626C156.991 224.875 155.25 225 153.637 225ZM123.702 209.852C126.411 212.595 140.411 225.748 158.54 223.068C171.249 221.26 181.959 212.408 186.862 204.491C190.088 199.317 191.12 194.393 189.765 190.59C186.539 181.738 169.959 177.998 157.056 180.18C134.798 183.858 125.121 206.237 123.702 209.852Z" fill="#45594F"/>
<path d="M122.782 211C122.33 211 122.007 210.691 122.007 210.258C121.942 209.826 122.33 209.455 122.782 209.455C135.833 208.528 148.691 206.056 161.031 202.101C170.658 199.011 179.961 194.995 188.813 190.113C189.2 189.865 189.717 190.051 189.911 190.422C190.105 190.792 189.976 191.287 189.588 191.472C180.672 196.354 171.239 200.433 161.548 203.584C149.078 207.539 136.027 210.073 122.782 211C122.847 211 122.847 211 122.782 211Z" fill="#45594F"/>
<path d="M186.806 225.104C184.306 213.074 187.575 196.232 197.253 192.715C208.917 188.458 229.106 203.82 232.503 222.39C235.9 241.083 220.838 255.458 219.172 257C217.441 256.445 191.485 247.869 186.806 225.104Z" fill="#92B69A"/>
<path d="M219.155 260C217.735 259.627 190.684 250.802 185.843 227.247C183.131 214.258 187.005 197.354 196.882 193.749C201.208 192.195 206.889 193.065 212.764 196.297C221.415 201.02 231.163 211.524 233.487 224.202C236.973 243.282 221.608 258.136 219.801 259.751C219.542 259.938 219.349 260 219.155 260ZM201.401 194.557C199.981 194.557 198.625 194.806 197.399 195.241C188.296 198.534 184.81 214.631 187.392 226.999C191.782 248.316 215.217 257.079 218.961 258.384C221.737 255.712 234.972 241.915 231.809 224.513C229.614 212.269 220.188 202.263 211.924 197.664C208.18 195.613 204.565 194.557 201.401 194.557Z" fill="#45594F"/>
<path d="M219.234 259C218.855 259 218.476 258.694 218.476 258.326C217.213 246.005 214.372 233.807 210.014 222.221C206.604 213.21 202.247 204.445 197.131 196.17C196.879 195.802 197.005 195.311 197.384 195.128C197.763 194.882 198.268 195.005 198.458 195.373C203.699 203.709 208.056 212.536 211.467 221.67C215.887 233.439 218.729 245.698 219.992 258.142C220.055 258.571 219.739 258.939 219.297 259H219.234Z" fill="#45594F"/>
<path d="M229.236 168.216C240.805 162.906 258.708 161.733 264.719 169.883C271.893 179.7 261.422 202.361 243.455 210.141C225.359 217.921 207.004 207.486 205 206.313C205.065 204.584 207.327 178.28 229.236 168.216Z" fill="#92B69A"/>
<path d="M228.803 213C216.21 213 205.854 207.125 204.384 206.269C204.128 206.146 204 205.84 204 205.595C204.064 204.433 206.173 177.446 228.484 167.226C240.757 161.596 258.593 160.984 264.602 169.123C267.223 172.734 267.734 178.119 265.944 184.3C263.323 193.356 255.333 204.922 243.187 210.124C238.328 212.205 233.406 213 228.803 213ZM205.662 205.167C209.05 207.064 225.991 215.876 242.547 208.716C254.182 203.698 261.917 192.622 264.41 183.871C266.072 178.119 265.625 173.223 263.259 169.98C257.762 162.453 240.885 163.187 229.187 168.572C209.05 177.752 205.982 201.434 205.662 205.167Z" fill="#45594F"/>
<path d="M204.814 206.937C204.491 206.937 204.168 206.75 204.039 206.437C203.91 206 204.104 205.562 204.556 205.437C216.822 201.123 228.508 195.308 239.289 188.18C247.618 182.615 255.494 176.237 262.596 169.234C262.919 168.922 263.435 168.922 263.758 169.234C264.081 169.547 264.081 170.047 263.758 170.36C256.592 177.488 248.651 183.928 240.193 189.555C229.347 196.746 217.532 202.623 205.137 207C205.008 206.937 204.879 206.937 204.814 206.937Z" fill="#45594F"/>
<path d="M181.935 155.315C188.907 164.122 195.175 180.497 187.436 188.994C179.952 197.182 163.897 192.964 162.234 192.53C150.401 189.242 144.324 180.373 142.341 177.334C131.723 161.393 137.416 143.344 138.439 140.429C140.166 140.118 167.287 136.769 181.935 155.315Z" fill="#92B69A"/>
<path d="M175.069 196C174.427 196 173.784 196 173.077 195.938C163.176 195.378 149.676 190.092 141.832 179.645C130.003 164.036 136.946 144.136 137.782 141.897C137.911 141.648 138.104 141.462 138.425 141.399C139.582 141.213 167.741 137.544 182.913 156.698C191.27 167.207 195.513 184.06 188.377 191.46C185.613 194.383 180.92 196 175.069 196ZM139.197 142.892C137.911 146.499 132.446 164.533 143.182 178.712C150.768 188.724 163.755 193.761 173.205 194.321C179.377 194.694 184.456 193.264 187.284 190.341C193.906 183.5 189.663 167.58 181.691 157.568C167.998 140.342 143.054 142.457 139.197 142.892Z" fill="#45594F"/>
<path d="M187.163 190C187.035 190 186.843 189.938 186.715 189.876C178.138 184.598 170.073 178.45 162.712 171.619C153.303 162.863 144.982 152.99 138.133 142.185C137.877 141.812 138.005 141.316 138.389 141.129C138.773 140.881 139.285 141.005 139.477 141.378C146.326 152.058 154.519 161.87 163.864 170.501C171.097 177.208 179.098 183.293 187.611 188.572C187.995 188.82 188.123 189.255 187.867 189.627C187.675 189.876 187.419 190 187.163 190Z" fill="#45594F"/>
<path d="M229.186 169.519C224.26 180.736 211.684 192.994 201.507 190.727C189.256 188.03 181.218 164.615 189.191 147.514C197.229 130.291 218.296 126.429 220.63 126C221.732 127.348 238.521 148.25 229.186 169.519Z" fill="#92B69A"/>
<path d="M203.576 192C202.68 192 201.848 191.938 200.953 191.753C196.473 190.765 192.314 186.998 189.307 181.194C184.892 172.672 182.844 158.84 188.219 147.107C196.089 129.878 215.926 125.679 219.829 125C220.149 125 220.405 125.062 220.597 125.309C221.365 126.235 238.641 147.848 229.171 169.893C224.436 181.008 213.238 192 203.576 192ZM219.701 126.606C215.862 127.347 197.049 131.731 189.755 147.724C184.572 159.025 186.555 172.301 190.779 180.453C193.53 185.825 197.305 189.283 201.336 190.147C210.679 192.247 222.772 180.823 227.763 169.214C236.338 149.33 222.068 129.631 219.701 126.606Z" fill="#45594F"/>
<path d="M202.785 191C202.331 191 201.942 190.627 202.007 190.192C202.461 180.305 203.887 170.417 206.351 160.841C209.463 148.529 214.26 136.59 220.484 125.397C220.679 125.024 221.197 124.899 221.586 125.086C221.975 125.272 222.105 125.77 221.911 126.143C215.687 137.274 211.019 149.026 207.907 161.214C205.508 170.728 204.082 180.491 203.628 190.254C203.563 190.689 203.174 191 202.785 191Z" fill="#45594F"/>
<path d="M177.002 177.077C174.035 170.014 173.971 159.296 179.517 156.074C186.158 152.171 200.41 159.358 204.666 170.324C208.986 181.352 201.506 191.885 200.667 193C199.571 192.876 182.612 190.46 177.002 177.077Z" fill="#D2D2D2"/>
<path d="M200.779 193C199.93 192.878 181.99 190.617 176.053 176.809C172.791 169.233 173.182 158.48 178.923 155.181C181.468 153.714 185.186 153.592 189.297 154.936C195.233 156.83 202.605 162.146 205.606 169.6C210.108 180.78 202.344 191.473 201.431 192.694C201.3 192.878 201.039 193 200.779 193ZM183.816 155.547C182.251 155.547 180.881 155.853 179.772 156.464C174.879 159.274 174.552 169.233 177.553 176.259C182.707 188.173 197.451 190.984 200.387 191.411C201.953 189.212 207.955 179.803 204.04 170.149C201.235 163.184 194.32 158.174 188.709 156.403C187.013 155.853 185.317 155.547 183.816 155.547Z" fill="#45594F"/>
<path d="M201.114 194C200.786 194 200.458 193.75 200.327 193.438C198.032 185.941 194.754 178.695 190.558 172.01C187.28 166.825 183.477 161.89 179.216 157.33C178.888 157.017 178.953 156.518 179.281 156.205C179.609 155.893 180.133 155.956 180.461 156.268C184.788 160.891 188.657 165.888 192 171.198C196.262 178.008 199.606 185.317 201.966 193C202.097 193.438 201.835 193.875 201.441 194C201.245 194 201.179 194 201.114 194Z" fill="#45594F"/>
<path d="M184.609 208.089C177.367 210.957 166.376 210.957 163.072 205.595C159.133 199.174 166.503 185.396 177.748 181.282C189.12 177.105 199.856 184.399 201 185.272C200.873 186.332 198.395 202.727 184.609 208.089Z" fill="#D2D2D2"/>
<path d="M174.31 210C169.057 210 164.253 208.523 162.203 205.324C160.666 202.924 160.602 199.417 162.011 195.603C164.061 190.003 169.634 183.051 177.449 180.282C189.236 176.098 200.382 183.42 201.663 184.281C201.92 184.466 202.048 184.712 201.984 185.02C201.856 185.758 199.357 202.617 184.944 208.154C181.613 209.323 177.834 210 174.31 210ZM185.008 180.467C182.766 180.467 180.396 180.836 177.962 181.697C170.595 184.343 165.406 190.803 163.484 196.095C162.267 199.479 162.267 202.494 163.548 204.524C166.495 209.2 176.873 209.508 184.239 206.677C196.731 201.878 199.742 187.973 200.254 185.204C198.524 184.035 192.375 180.467 185.008 180.467Z" fill="#45594F"/>
<path d="M163.788 205C163.596 205 163.339 204.94 163.211 204.758C162.89 204.456 162.954 203.973 163.275 203.671C167.959 199.682 173.157 196.117 178.611 193.095C185.605 189.168 193.176 186.146 201.005 184.031C201.454 183.91 201.903 184.152 201.967 184.575C202.095 184.998 201.839 185.361 201.389 185.481C193.69 187.596 186.246 190.557 179.381 194.425C173.991 197.446 168.922 200.951 164.302 204.819C164.173 204.94 163.981 205 163.788 205Z" fill="#45594F"/>
<path d="M219.038 199.007C222.012 206.052 221.948 216.744 216.451 219.958C209.791 223.789 195.5 216.62 191.296 205.619C187.028 194.557 194.594 184.174 195.435 183C196.47 183.124 213.476 185.596 219.038 199.007Z" fill="#D2D2D2"/>
<path d="M213.079 221C211.383 221 209.556 220.695 207.599 220.024C201.661 218.072 194.288 212.764 191.352 205.321C186.915 194.095 194.745 183.48 195.658 182.321C195.854 182.077 196.115 181.955 196.441 182.016C197.224 182.138 215.102 184.517 220.975 198.305C224.237 205.931 223.78 216.668 217.973 219.902C216.538 220.573 214.906 221 213.079 221ZM196.637 183.541C195.071 185.737 189.003 195.071 192.852 204.772C195.658 211.788 202.509 216.729 208.121 218.56C211.709 219.719 214.906 219.719 217.06 218.499C222.019 215.692 222.345 205.809 219.343 198.793C214.319 186.896 199.573 184.029 196.637 183.541Z" fill="#45594F"/>
<path d="M216.221 220C216.03 220 215.776 219.938 215.65 219.75C211.463 215.129 207.72 210.133 204.548 204.763C200.488 197.956 197.253 190.587 195.033 182.969C194.906 182.532 195.16 182.095 195.604 182.032C196.048 181.907 196.492 182.157 196.555 182.594C198.712 190.088 201.884 197.332 205.88 204.014C208.989 209.259 212.668 214.192 216.791 218.751C217.109 219.063 217.045 219.563 216.728 219.875C216.601 219.938 216.411 220 216.221 220Z" fill="#45594F"/>
<path d="M207.517 167.237C213.453 162.224 223.856 158.757 228.771 162.719C234.706 167.485 232.281 182.712 222.963 190.202C213.58 197.692 200.943 194.287 199.539 193.854C199.348 192.864 196.22 176.708 207.517 167.237Z" fill="#D2D2D2"/>
<path d="M207.925 195C203.337 195 199.847 194.084 199.136 193.84C198.878 193.778 198.619 193.534 198.554 193.29C198.425 192.557 195 176.005 206.891 166.294C213.418 160.919 224.34 157.804 229.446 161.835C231.772 163.606 233 166.843 233 170.935C233 176.86 230.027 185.044 223.565 190.114C218.524 194.023 212.708 195 207.925 195ZM200.041 192.557C202.755 193.229 214 195.55 222.531 188.953C228.605 184.189 231.384 176.493 231.384 170.935C231.384 167.332 230.35 164.522 228.412 162.995C224.017 159.514 214 162.507 207.925 167.454C197.65 175.822 199.588 189.808 200.041 192.557Z" fill="#45594F"/>
<path d="M199.79 194C199.535 194 199.28 193.877 199.153 193.692C198.898 193.322 198.962 192.891 199.344 192.645C205.844 188.208 211.77 182.971 216.932 177.118C220.947 172.559 224.515 167.568 227.51 162.393C227.701 162.023 228.211 161.9 228.594 162.085C228.976 162.27 229.103 162.763 228.912 163.132C225.853 168.431 222.221 173.483 218.143 178.166C212.917 184.142 206.864 189.441 200.236 193.938C200.109 193.938 199.981 194 199.79 194Z" fill="#45594F"/>
<path d="M214.916 186.138C215.928 194.93 207.643 201.829 200.117 202.867C194.868 203.539 188.101 201.646 186.33 197.616C185.255 195.052 187.089 193.77 187.785 186.199C188.291 180.644 187.405 179.789 188.607 177.774C190.884 173.989 196.828 172.523 201.319 173.134C207.833 173.928 214.094 179.178 214.916 186.138Z" fill="#92B69A"/>
<path d="M197.841 204C192.714 204 187.074 201.954 185.407 198.048C184.702 196.374 185.023 195.196 185.536 193.274C185.92 191.724 186.497 189.554 186.817 186.082C187.01 183.788 187.01 182.238 187.01 181.184C187.01 179.572 186.946 178.58 187.779 177.278C190.278 173.061 196.559 171.511 201.495 172.131C208.929 173.061 215.082 179.076 215.915 186.082C216.941 195.196 208.481 202.822 200.277 203.938C199.444 203.938 198.675 204 197.841 204ZM199.315 173.495C195.406 173.495 190.919 174.922 189.125 177.96C188.548 178.952 188.548 179.572 188.612 181.122C188.612 182.238 188.676 183.788 188.42 186.206C188.099 189.864 187.523 192.034 187.074 193.708C186.625 195.506 186.369 196.312 186.882 197.49C188.484 201.21 194.957 203.07 199.956 202.388C207.455 201.396 215.146 194.514 214.249 186.268C213.544 179.944 207.904 174.549 201.238 173.681C200.597 173.495 199.956 173.495 199.315 173.495Z" fill="#45594F"/>
<path d="M210.288 185C209.975 185 209.724 184.878 209.599 184.572C207.096 179.805 203.215 176.872 200.398 177.605C199.71 177.788 199.021 178.216 198.395 178.888C198.082 179.194 197.644 179.255 197.268 178.95C196.955 178.644 196.893 178.216 197.206 177.85C198.019 176.933 198.958 176.383 199.96 176.138C203.528 175.283 208.034 178.461 210.914 183.9C211.102 184.267 210.976 184.756 210.601 184.939C210.538 184.939 210.413 185 210.288 185Z" fill="#45594F"/>
<path d="M198.294 199C197.409 199 196.524 198.883 195.575 198.533C191.022 196.958 190.01 192.059 190.01 191.825C189.946 191.417 190.199 191.067 190.642 191.009C191.085 190.951 191.464 191.184 191.527 191.592C191.527 191.65 192.35 195.85 196.144 197.192C199.116 198.242 202.089 196.667 203.354 196.025C204.619 195.384 205.694 194.509 206.579 193.459C206.832 193.167 207.338 193.109 207.717 193.342C208.034 193.575 208.097 194.042 207.844 194.392C206.832 195.617 205.567 196.55 204.176 197.308C203.037 197.833 200.887 199 198.294 199Z" fill="#45594F"/>
<path d="M194.931 191C194.723 191 194.584 190.936 194.376 190.809C191.671 188.898 190.423 185.777 191.255 183.039C191.949 180.873 193.752 179.599 194.723 179.09C195.139 178.899 195.694 179.026 195.902 179.345C196.11 179.727 195.972 180.236 195.625 180.427C194.862 180.873 193.475 181.765 192.92 183.421C192.226 185.523 193.266 187.943 195.417 189.471C195.764 189.726 195.833 190.236 195.555 190.618C195.486 190.873 195.209 191 194.931 191Z" fill="#45594F"/>
<path d="M206.033 192C205.349 191.75 205.162 191.313 205.286 190.938C205.411 190.688 205.535 190.313 205.66 189.875C206.095 188.625 206.53 187.25 206.406 186.313C206.157 184.626 203.297 183.563 202.364 183.188C199.877 182.251 197.515 182.501 195.96 182.876C195.525 183.001 195.152 182.688 195.028 182.313C194.903 181.876 195.214 181.501 195.587 181.376C197.39 180.938 200.064 180.689 202.924 181.751C204.167 182.251 207.525 183.501 207.96 186.063C208.146 187.375 207.649 188.938 207.152 190.313C206.965 190.813 206.841 191.25 206.716 191.5C206.654 191.813 206.343 192 206.033 192Z" fill="#45594F"/>
<path d="M198.068 193C197.62 193 197.301 192.705 197.301 192.291C197.301 191.878 197.62 191.524 198.068 191.524C198.835 191.524 200.241 191.288 201.327 190.225C201.711 189.811 202.797 188.453 202.35 187.508C202.286 187.39 202.158 187.036 200.944 186.564C198.835 185.678 196.406 185.442 195.703 185.619C195.894 186.032 196.725 186.8 197.748 187.036C198.259 187.154 198.707 187.154 199.026 187.095C199.474 187.036 199.857 187.331 199.921 187.685C199.985 188.099 199.665 188.453 199.282 188.512C198.835 188.571 198.131 188.63 197.301 188.394C195.83 188.04 194.68 186.977 194.233 186.15C193.913 185.56 193.977 185.146 194.105 184.91C194.233 184.674 194.424 184.379 194.936 184.202C196.406 183.67 199.474 184.261 201.519 185.146C202.733 185.678 203.373 186.15 203.756 186.859C204.715 188.867 202.542 191.051 202.478 191.169C201.391 192.35 199.857 192.941 198.068 193Z" fill="#45594F"/>
<path d="M313 253.555C312.871 256.278 312.676 259.372 312.353 262.837C311.447 272.366 309.7 284.309 306.206 297.675C302.194 312.773 298.829 325.954 293.459 335.05C292.488 335.854 290.935 336.968 288.865 337.401C285.306 338.144 283.559 336.411 279.676 336.349C275.729 336.288 275.665 338.082 271.006 338.825C268.418 339.258 266.865 338.948 258.129 337.216C255.865 336.783 250.559 335.731 247 335.05C247.259 324.531 248.682 311.103 253.018 296.128C259.035 275.027 268.482 259 275.859 248.543C275.6 237.528 275.341 226.514 275.082 215.437C271.847 200.524 275.018 186.973 284.206 180.908C284.724 180.537 285.306 180.228 285.953 179.856C287.441 179.114 289.188 178.433 291.388 178C295.012 186.973 298.571 196.626 301.741 206.898C304.006 214.138 306.141 221.687 308.018 229.546L308.082 229.917C308.212 230.412 308.341 230.907 308.471 231.402C310.282 239.013 311.771 246.439 313 253.555Z" fill="#E5BBA4"/>
<path d="M358 223.765C356.327 246.804 351.116 264.977 346.676 277.175C339.278 297.565 329.884 322.33 306.336 333.172C305.371 333.603 304.535 333.972 304.02 334.157C302.862 334.773 301.318 335.328 299.452 335.697C294.176 336.683 289.866 335.02 288 334.157C289.158 319.373 290.252 304.588 291.41 289.803C292.568 275.018 293.726 260.234 294.82 245.449C299.195 240.028 303.57 234.607 307.945 229.124C311.612 224.566 315.344 220.007 319.011 215.387C319.397 199.247 318.625 186.125 317.917 177.439C317.017 167.09 315.794 157.85 314.636 149.533C311.741 129.389 309.425 115.097 313.928 105.302C313.993 105.118 314.121 104.933 314.25 104.748C315.344 102.53 316.759 100.621 318.625 98.8956C319.59 98.0332 320.298 97.3556 321.07 96.8627C321.842 96.3083 322.678 96.0619 323.579 96.0003C328.79 95.9387 333.744 105.241 338.377 120.149C346.162 145.221 352.853 185.879 358 223.765Z" fill="#E5BBA4"/>
<path d="M298.411 123.141C304.888 131.018 312.791 142.832 319.462 160C320.498 156.985 321.859 152.616 322.701 147.201C323.867 140.002 326.134 125.295 319.138 111.758C310.977 95.9435 292.063 85.1136 286.752 88.6826C285.91 89.2364 284.938 90.467 285.003 94.959C285.133 107.943 293.812 117.542 298.411 123.141Z" fill="#E5BBA4"/>
<path d="M314.206 253C313.825 253 313.507 252.758 313.444 252.455L307.033 228.94C306.906 228.516 307.16 228.152 307.604 228.031C308.048 227.91 308.429 228.152 308.556 228.577L314.967 252.091C315.094 252.515 314.84 252.879 314.396 253C314.333 253 314.269 253 314.206 253Z" fill="#484848"/>
<path d="M306.794 285C306.22 284.877 305.9 284.509 306.028 284.079L313.435 252.584C313.562 252.154 313.946 251.909 314.392 252.032C314.839 252.154 315.095 252.523 314.967 252.953L307.56 284.447C307.497 284.754 307.177 285 306.794 285Z" fill="#484848"/>
<path d="M314.171 150C313.801 150 313.493 149.755 313.431 149.386C312.137 144.107 311.089 138.644 310.288 133.304C308.315 120.229 308.993 115.809 309.795 112.678C310.534 109.793 311.706 107.031 313.185 104.392C313.37 104.023 313.863 103.9 314.233 104.085C314.603 104.269 314.726 104.76 314.541 105.128C313.123 107.645 312.014 110.284 311.274 113.047C310.473 116.055 309.856 120.29 311.829 133.058C312.63 138.398 313.678 143.739 314.972 149.018C315.096 149.448 314.787 149.816 314.418 149.939C314.294 150 314.233 150 314.171 150Z" fill="#484848"/>
<path d="M287.103 203.514C288.042 204.312 290.421 206.215 294.114 206.828C297.244 207.319 299.811 206.644 301 206.215C300.687 202.717 300.249 197.623 299.685 191.486C298.621 180.562 298.058 176.88 295.053 175.101C293.426 174.119 290.859 173.566 288.981 174.426C281.595 177.739 286.665 201.551 287.103 203.514Z" fill="#B692B2"/>
<path d="M327.818 119.24C329.327 120.047 332.029 121.166 335.423 120.979C336.366 120.917 337.246 120.793 338 120.607C337.874 113.772 337.057 108.18 336.177 104.142C334.543 96.4995 333.349 90.9698 329.264 89.4165C327.378 88.7331 324.801 88.8573 323.167 90.0378C316.631 94.9462 326.875 117.314 327.818 119.24Z" fill="#B692B2"/>
<path d="M310.186 102.94C311.102 103 311.822 103 312.215 103C312.346 103 312.542 103 312.738 102.88C312.869 102.819 312.935 102.699 313 102.699C311.757 100.954 309.99 98.7868 307.568 96.4394C306.979 95.8376 306.325 95.2357 302.66 92.2864C294.414 85.6657 291.796 85.0638 290.487 85.0036C290.16 85.0036 288 84.8833 288 86.0269C288 86.9899 289.505 88.6149 291.861 89.9391C298.013 94.2125 304.099 98.6062 310.186 102.94Z" fill="#B692B2"/>
<path d="M153 335.024C143.492 339.293 136.856 339.417 132.453 338.613C129.518 338.118 126.966 337.128 122.308 337.19C118.415 337.252 116.31 337.994 112.672 337.437C109.737 336.942 107.376 335.891 105.909 335.024C99.6553 320.794 95.6991 307.988 92.9553 297.655C89.3819 284.23 87.5952 272.351 86.7019 262.823C86.3829 259.358 86.1914 256.327 86 253.542C87.2762 246.427 88.8076 239.003 90.6581 231.393C90.7857 230.775 90.9771 230.156 91.1686 229.537C93.0828 221.68 95.1886 214.07 97.5495 206.893C100.804 196.623 104.313 186.971 108.014 178C110.248 178.433 112.098 179.176 113.63 179.856C114.268 180.227 114.842 180.537 115.352 180.908C124.605 186.909 127.859 200.52 124.605 215.431C124.35 226.444 124.094 237.456 123.839 248.531C131.305 258.987 140.876 275.011 147.002 296.109C151.277 311.019 152.745 324.383 153 335.024Z" fill="#E5BBA4"/>
<path d="M112 334.83C110.779 335.51 108.143 336.931 104.415 336.993C100.237 337.117 97.1515 335.51 95.9945 334.83C85.0028 325.685 64.112 307.642 53.3131 277.672C45.5354 256.044 42.9642 234.973 42 224.097C47.2066 186.095 53.8274 145.311 61.6052 120.223C66.2333 105.269 71.1185 95.9385 76.3893 96.0003C77.3535 96.0621 78.0606 96.3093 78.8963 96.8654C79.6033 97.3597 80.3747 98.0395 81.2746 98.9046C83.1387 100.635 84.6171 102.612 85.6456 104.775C90.6593 114.662 88.2168 129.121 85.3242 149.513C84.1029 157.855 82.8816 167.186 81.9816 177.629C81.2746 186.342 80.4389 199.504 80.8246 215.693C84.4885 220.266 88.2167 224.839 91.8806 229.473C96.2516 234.973 100.623 240.411 105.058 245.848C107.436 275.509 109.686 305.232 112 334.83Z" fill="#E5BBA4"/>
<path d="M101.589 123.141C95.1117 131.018 87.2095 142.832 80.5379 160C79.5015 156.985 78.1413 152.616 77.2993 147.201C76.1333 140.002 73.8663 125.295 80.8617 111.758C89.0231 95.9435 107.937 85.1136 113.248 88.6826C114.09 89.2364 115.062 90.467 114.997 94.959C114.867 107.943 106.188 117.542 101.589 123.141Z" fill="#E5BBA4"/>
<path d="M84.7936 254C84.1587 253.874 83.9048 253.434 84.0317 252.994L90.4437 228.598C90.5707 228.158 90.9516 227.907 91.396 228.032C91.8404 228.158 92.0943 228.598 91.9673 228.976L85.5554 253.371C85.4919 253.748 85.1745 254 84.7936 254Z" fill="#484848"/>
<path d="M92.2049 285C91.8216 285 91.5022 284.755 91.4384 284.387L84.0286 252.947C83.9009 252.518 84.2203 252.15 84.6035 252.027C85.0507 251.905 85.4339 252.211 85.5616 252.579L92.9714 284.019C93.0991 284.448 92.7797 284.816 92.3965 284.939C92.3326 285 92.2687 285 92.2049 285Z" fill="#484848"/>
<path d="M84.775 150C84.155 149.877 83.907 149.447 84.031 149.079C85.3329 143.796 86.3868 138.451 87.1927 133.107C89.1766 120.329 88.4946 116.029 87.6887 113.081C87.0068 110.316 85.8909 107.675 84.403 105.156C84.217 104.788 84.341 104.296 84.7129 104.112C85.0849 103.866 85.5809 104.05 85.7668 104.419C87.3167 107.061 88.4326 109.825 89.1766 112.712C89.9825 115.845 90.7264 120.268 88.6806 133.353C87.8747 138.697 86.7588 144.103 85.5189 149.447C85.4569 149.816 85.0849 150 84.775 150Z" fill="#484848"/>
<path d="M78.8573 220C78.7188 220 78.5802 219.939 78.4417 219.879C78.0262 219.696 77.8877 219.211 78.0955 218.847L80.3809 215.387C80.5887 215.023 81.1427 214.902 81.5583 215.084C81.9738 215.266 82.1123 215.751 81.9045 216.115L79.6191 219.575C79.4113 219.818 79.1343 220 78.8573 220Z" fill="#484848"/>
<path d="M111.897 203.514C110.958 204.312 108.579 206.215 104.886 206.828C101.756 207.319 99.1893 206.644 98 206.215C98.313 202.717 98.7512 197.623 99.3145 191.486C100.379 180.562 100.942 176.88 103.947 175.101C105.574 174.119 108.141 173.566 110.019 174.426C117.405 177.739 112.335 201.551 111.897 203.514Z" fill="#B692B2"/>
<path d="M71.2025 119.24C69.691 120.047 66.9829 121.166 63.5821 120.979C62.6374 120.917 61.7557 120.793 61 120.607C61.126 113.772 61.9446 108.18 62.8263 104.142C64.4638 96.4995 65.6604 90.9698 69.754 89.4165C71.6433 88.7331 74.2254 88.8573 75.8628 90.0378C82.3496 94.9462 72.0842 117.314 71.2025 119.24Z" fill="#B692B2"/>
<path d="M89.8141 102.94C88.8979 103 88.178 103 87.7854 103C87.6545 103 87.4581 103 87.2618 102.88C87.1309 102.819 87.0654 102.699 87 102.699C88.2435 100.954 90.0105 98.7868 92.4319 96.4394C93.021 95.8376 93.6754 95.2357 97.3403 92.2864C105.586 85.6657 108.204 85.0638 109.513 85.0036C109.84 85.0036 112 84.8833 112 86.0269C112 86.9899 110.495 88.6149 108.139 89.9391C101.987 94.2125 95.9005 98.6062 89.8141 102.94Z" fill="#B692B2"/>
<path d="M227 189.562C227 186.5 223.65 183.927 218.882 182.702C220.686 177.925 220.75 172.167 218.109 170.819C216.176 169.839 212.503 171.064 209.153 173.331C208.315 170.513 206.318 165.001 203.419 165.001C200.906 164.939 198.458 169.166 197.556 173.27C195.236 171.555 189.889 168.124 187.505 169.778C185.443 171.248 186.216 176.148 188.213 179.946C182.801 181.048 179 183.56 179 186.5C179 188.766 181.319 190.787 184.928 192.135C183.446 194.279 182.608 196.606 183.059 198.811C183.768 202.18 187.44 205.61 191.37 205.549C192.724 205.549 193.948 205.059 194.979 204.385C196.396 208.305 199.038 211 202.066 211C205.223 211 207.993 208.121 209.346 203.895C213.728 206.1 218.238 206.651 219.591 205.12C220.879 203.711 219.655 200.281 217.271 196.79C222.941 195.749 227 192.931 227 189.562Z" fill="#E5BBA4"/>
<path d="M214.918 198.411C216.122 196.788 215.425 194.103 213.46 191.668C216.312 189.795 218.657 186.674 217.833 184.988C217.263 183.739 214.854 182.99 212.193 182.99C212.89 181.18 214.031 177.434 212.573 176.372C211.242 175.436 208.327 176.747 206.236 178.62C205.665 176.809 204.334 172.938 202.37 173.001C200.722 173.001 199.138 175.935 198.694 178.745C195.399 177.309 192.42 177.246 191.279 178.807C190.392 180.056 190.772 181.991 192.103 184.051C190.456 184.676 189.125 185.612 188.491 186.923C187.477 188.984 188.047 192.23 190.075 193.666C190.772 194.166 191.596 194.353 192.42 194.353C191.596 196.975 191.913 199.41 193.497 200.596C195.145 201.783 197.743 201.221 200.152 199.473C201.546 202.282 203.637 204.28 204.968 203.968C206.236 203.718 206.933 201.408 207.123 198.599C210.355 200.222 213.587 200.222 214.918 198.411Z" fill="#B692B2"/>
<path d="M81.8083 185H47.1917C45.9669 185 45 184.118 45 183C45 181.882 45.9669 181 47.1917 181H81.8083C83.0331 181 84 181.882 84 183C84 184.118 82.9686 185 81.8083 185Z" fill="#D2D2D2"/>
<path d="M81.8083 196H47.1917C45.9669 196 45 194.897 45 193.5C45 192.103 45.9669 191 47.1917 191H81.8083C83.0331 191 84 192.103 84 193.5C84 194.897 82.9686 196 81.8083 196Z" fill="#D2D2D2"/>
<path d="M351.496 178H318.504C316.587 178 315 176.41 315 174.488V170.512C315 168.59 316.587 167 318.504 167H351.496C353.413 167 355 168.59 355 170.512V174.488C355 176.476 353.413 178 351.496 178Z" fill="#D2D2D2"/>
<path d="M127.78 222.978L92 219L90.923 227.935L126.703 231.913L127.78 222.978Z" fill="#D2D2D2"/>
<path d="M273 143.5C273 144.913 270.528 146 267.5 146C264.472 146 262 144.859 262 143.5C262 142.087 264.472 141 267.5 141C270.59 141 273 142.087 273 143.5Z" fill="#C7B28A"/>
<path d="M275 154C277.761 154 280 153.105 280 152C280 150.895 277.761 150 275 150C272.239 150 270 150.895 270 152C270 153.105 272.239 154 275 154Z" fill="#C7B28A"/>
</svg>
