<svg width="400" height="400" fill="none" xmlns="http://www.w3.org/2000/svg"><path d="M88.456 100.419c1.396 5.516 2.568 15.147.14 15.567-2.317.392-8.4-7.559-7.507-15.567.363-3.36 2.037-7.419 3.683-7.419 1.814.028 3.07 5.04 3.684 7.419z" fill="#92B69A"/><path d="M85.934 99.076c-.196 1.622-1.01 3.924-1.965 3.924-.927 0-1.91-2.093-1.966-3.924-.084-2.485 1.46-5.128 2.5-5.075 1.066.052 1.712 2.851 1.431 5.075z" fill="#D2D2D2"/><path d="M81.497 108.683c3.655 10.888 3.681 11.168 3.394 11.279-1.462.587-6.71-5.779-9.007-11.279-1.096-2.624-1.2-4.271-.156-5.109.496-.39 1.279-.642 2.01-.558 1.906.251 2.793 2.82 3.76 5.667zM100 110c0 4.958-1.579 9-3.5 9-1.947 0-3.5-4.042-3.5-9s1.579-9 3.5-9 3.5 4.042 3.5 9z" fill="#92B69A"/><path d="M97.813 92.884c-4.492 9.589-4.381 13.252-5.657 13.112-2.107-.224-2.606-7.716-1.774-13.112.416-2.684.97-8.472 3.715-8.863 1.58-.224 3.522 1.398 4.353 2.824 1.22 2.18.139 4.361-.637 6.039z" fill="#92B69A"/><path d="M97 113c0 4.985-2.021 9-4.5 9s-4.5-4.043-4.5-9 2.021-9 4.5-9 4.5 4.043 4.5 9zm-17.072 2.234c2.237 3.308 2.858 7.95.89 8.67-2.265.8-8.087-3.521-10.46-8.323-.862-1.787-2.264-5.629-.538-6.429 1.94-.88 7.493 2.187 10.108 6.082z" fill="#92B69A"/><path d="M73 106c0 2.754-1.343 5-3 5s-3-2.246-3-5 1.343-5 3-5 3 2.246 3 5zm38 5.5c0 6.349-1.559 11.5-3.5 11.5s-3.5-5.151-3.5-11.5 1.559-11.5 3.5-11.5c1.914 0 3.5 5.151 3.5 11.5z" fill="#92B69A"/><path d="M110 95c0 3.86-1.136 7-2.5 7-1.392 0-2.5-3.14-2.5-7s1.136-7 2.5-7c1.392 0 2.5 3.14 2.5 7z" fill="#92B69A"/><path d="M103.5 111c1.933 0 3.5-3.358 3.5-7.5 0-4.142-1.567-7.5-3.5-7.5s-3.5 3.358-3.5 7.5c0 4.142 1.567 7.5 3.5 7.5zm17.5 3c1.657 0 3-3.806 3-8.5s-1.343-8.5-3-8.5-3 3.806-3 8.5 1.343 8.5 3 8.5zm-10 4c1.657 0 3-3.806 3-8.5s-1.343-8.5-3-8.5-3 3.806-3 8.5 1.343 8.5 3 8.5z" fill="#92B69A"/><path d="M113 126c1.657 0 3-3.806 3-8.5s-1.343-8.5-3-8.5-3 3.806-3 8.5 1.343 8.5 3 8.5zm3-28.5c0 3.587-1.351 6.5-3 6.5-1.676 0-3-2.913-3-6.5s1.351-6.5 3-6.5 3 2.913 3 6.5zM101 95c0 2.78-1.333 5-3 5s-3-2.246-3-5c0-2.78 1.333-5 3-5s3 2.246 3 5z" fill="#92B69A"/><path d="M118.988 113.491c-.26 6.372-6.128 11.906-7.631 11.487-.925-.252.029-3.997 1.908-11.487 1.792-7.1 2.457-7.463 2.862-7.491 1.271-.028 3.035 3.801 2.861 7.491z" fill="#92B69A"/><path d="M113.992 115.491c-.261 6.372-6.131 11.906-7.635 11.487-.925-.252.029-3.997 1.909-11.487 1.793-7.1 2.458-7.463 2.863-7.491 1.243-.028 3.007 3.801 2.863 7.491zM101.5 127c1.933 0 3.5-4.029 3.5-9s-1.567-9-3.5-9-3.5 4.029-3.5 9 1.567 9 3.5 9z" fill="#92B69A"/><path d="M106.5 128c1.933 0 3.5-4.029 3.5-9s-1.567-9-3.5-9-3.5 4.029-3.5 9 1.567 9 3.5 9z" fill="#92B69A"/><path d="M110.5 128c1.933 0 3.5-4.029 3.5-9s-1.567-9-3.5-9-3.5 4.029-3.5 9 1.567 9 3.5 9z" fill="#92B69A"/><path d="M114.5 130c1.933 0 3.5-4.029 3.5-9s-1.567-9-3.5-9-3.5 4.029-3.5 9 1.567 9 3.5 9zm-20-1c1.933 0 3.5-4.029 3.5-9s-1.567-9-3.5-9-3.5 4.029-3.5 9 1.567 9 3.5 9z" fill="#92B69A"/><path d="M94 119.5c0 5.259-2.472 9.5-5.5 9.5s-5.5-4.241-5.5-9.5 2.472-9.5 5.5-9.5 5.5 4.268 5.5 9.5z" fill="#92B69A"/><path d="M87 121.5c0 5.259-2.472 9.5-5.5 9.5s-5.5-4.241-5.5-9.5 2.472-9.5 5.5-9.5 5.5 4.268 5.5 9.5z" fill="#92B69A"/><path d="M100 121.5c0 4.139-1.342 7.5-3 7.5s-3-3.361-3-7.5c0-4.139 1.342-7.5 3-7.5 1.632 0 3 3.361 3 7.5zm-15-11c0 4.139-1.342 7.5-3 7.5s-3-3.361-3-7.5c0-4.139 1.342-7.5 3-7.5 1.658-.028 3 3.333 3 7.5zm6-1c0 4.139-1.342 7.5-3 7.5s-3-3.361-3-7.5c0-4.139 1.342-7.5 3-7.5s3 3.361 3 7.5z" fill="#45594F"/><path d="M87 118.5c0 4.139-1.342 7.5-3 7.5s-3-3.361-3-7.5c0-4.139 1.342-7.5 3-7.5s3 3.361 3 7.5zm-9-12c0 4.139-1.342 7.5-3 7.5s-3-3.361-3-7.5c0-4.139 1.342-7.5 3-7.5s3 3.361 3 7.5zm21-4c0 4.139-1.342 7.5-3 7.5s-3-3.361-3-7.5c0-4.139 1.342-7.5 3-7.5s3 3.361 3 7.5z" fill="#45594F"/><path d="M101 102c0 2.751-.9 5-2 5s-2-2.249-2-5 .9-5 2-5 2 2.249 2 5zm10-1c0 2.751-.9 5-2 5s-2-2.249-2-5 .9-5 2-5 2 2.249 2 5zm-30 24.5c0 4.139-1.342 7.5-3 7.5s-3-3.361-3-7.5c0-4.139 1.342-7.5 3-7.5s3 3.361 3 7.5z" fill="#45594F"/><path d="M76.214 121.973c2.416 2.966 4.695 7.27 3.42 7.938-1.52.775-7.735-3.635-11.78-7.805-2.767-2.859-6.947-8.125-5.59-8.98 1.466-.909 9.336 3.207 13.95 8.847z" fill="#45594F"/><path d="M129 120c0 4.97-1.356 9-3 9-1.673 0-3-4.03-3-9s1.356-9 3-9c1.673 0 3 4.03 3 9zm-8 1.5c0 4.145-1.572 7.5-3.5 7.5s-3.5-3.355-3.5-7.5 1.572-7.5 3.5-7.5 3.5 3.355 3.5 7.5z" fill="#92B69A"/><path d="M127 120.5c0 4.145-1.572 7.5-3.5 7.5s-3.5-3.355-3.5-7.5 1.572-7.5 3.5-7.5c1.928.027 3.5 3.355 3.5 7.5z" fill="#92B69A"/><path d="M125 115.5c0 4.145-1.572 7.5-3.5 7.5s-3.5-3.355-3.5-7.5 1.572-7.5 3.5-7.5 3.5 3.355 3.5 7.5z" fill="#92B69A"/><path d="M131.52 105.512c-2.711 4.413-9.234 7.083-10.364 6.375-.48-.3.057-1.145 2.881-5.639 6.015-9.48 6.523-10.325 7.201-10.243 1.582.218 2.881 5.285.282 9.507zm11.193 1.768c1.215.996-1.567 4.903-5.645 7.193-3.484 1.967-8.804 3.206-9.857 2.128-1.297-1.32 3.564-6.277 9.857-8.513 1.107-.377 4.645-1.644 5.645-.808zm-.258 12.799c-1.039 1.416-3.254 1.656-7.657 2.483-8.996 1.682-11.266 2.857-11.731 2.296-.82-.987 6.016-4.912 11.731-7.235 4.84-1.975 6.235-1.735 6.946-1.388 1.367.667 1.64 2.563.711 3.844zM114 110c1.105 0 2-2.462 2-5.5s-.895-5.5-2-5.5-2 2.462-2 5.5.895 5.5 2 5.5z" fill="#92B69A"/><path d="M103 110c0 2.199-.907 4-2 4s-2-1.801-2-4 .907-4 2-4c1.093.026 2 1.801 2 4zm0-8c.552 0 1-.895 1-2s-.448-2-1-2-1 .895-1 2 .448 2 1 2zm7 4c0 2.211-.892 4-2 4s-2-1.789-2-4c0-2.211.892-4 2-4s2 1.789 2 4zm-4 6c0 1.104-.452 2-1 2s-1-.896-1-2 .452-2 1-2 1 .896 1 2zm-11-3c0 2.222-.889 4-2 4s-2-1.806-2-4c0-2.222.889-4 2-4s2 1.806 2 4zm3-5c0 .559-.214 1-.5 1-.286 0-.5-.441-.5-1 0-.559.214-1 .5-1 .286 0 .5.441.5 1zm2-10.5c0 1.386-.672 2.5-1.5 2.5S97 94.886 97 93.5s.672-2.5 1.5-2.5 1.5 1.114 1.5 2.5zm-4-5c0 1.37-.667 2.5-1.5 2.5S93 89.87 93 88.5c0-1.371.667-2.5 1.5-2.5s1.5 1.129 1.5 2.5zm11.5 6.5c.828 0 1.5-1.343 1.5-3s-.672-3-1.5-3-1.5 1.343-1.5 3 .672 3 1.5 3zm6 3c.828 0 1.5-1.12 1.5-2.5s-.672-2.5-1.5-2.5-1.5 1.12-1.5 2.5.672 2.5 1.5 2.5zm2.5 12.5c0 .814-.214 1.5-.5 1.5-.286 0-.5-.661-.5-1.5 0-.814.214-1.5.5-1.5.286 0 .5.661.5 1.5zm1.5 9.5c.828 0 1.5-1.119 1.5-2.5s-.672-2.5-1.5-2.5-1.5 1.119-1.5 2.5.672 2.5 1.5 2.5zm10.5-3c0 1.649-.912 3-2 3-1.118 0-2-1.351-2-3s.912-3 2-3 2 1.351 2 3zm-5-15c0 1.657-.886 3-2 3-1.114 0-2-1.343-2-3s.886-3 2-3c1.114 0 2 1.343 2 3zm9-2c0 2.203-.686 4-1.5 4s-1.5-1.797-1.5-4c0-2.203.686-4 1.5-4s1.5 1.768 1.5 4zm-59.5 16c1.38 0 2.5-1.567 2.5-3.5s-1.12-3.5-2.5-3.5-2.5 1.567-2.5 3.5 1.12 3.5 2.5 3.5zm6.5-9c0 1.663-.667 3-1.5 3s-1.5-1.337-1.5-3 .667-3 1.5-3 1.5 1.337 1.5 3zm-7.5-1c.828 0 1.5-.895 1.5-2s-.672-2-1.5-2-1.5.895-1.5 2 .672 2 1.5 2zm18.5 9.5c0 1.921-.892 3.5-2 3.5s-2-1.579-2-3.5.892-3.5 2-3.5 2 1.579 2 3.5zM77 121c1.105 0 2-1.119 2-2.5s-.895-2.5-2-2.5-2 1.119-2 2.5.895 2.5 2 2.5z" fill="#D2D2D2"/><path d="M80 113c0 1.663-1.12 3-2.5 3s-2.5-1.337-2.5-3 1.12-3 2.5-3c1.38-.029 2.5 1.307 2.5 3zm60.018-2.593c-1.258 1.543-3.72 2.931-4.611 2.52-.813-.386-.393-2.417 1.126-3.625 1.337-1.08 3.669-1.62 4.297-1.106.603.489-.576 1.954-.812 2.211z" fill="#D2D2D2"/><path d="M107.725 109.976c1.281 6.846-2.23 14.186-4.049 14.021-1.82-.165-2.256-7.972-.821-14.021.257-1.127 1.179-4.976 2.435-4.976 1.128-.027 2.076 3.052 2.435 4.976zm10.994-5.192c2.233 4.272 1.065 9.159.104 9.215-.389.028-.467-.81-1.713-2.904-2.258-3.77-3.945-4.273-4.101-6.423-.104-1.62.675-3.491 1.817-3.658 1.402-.224 3.141 2.318 3.893 3.77zM112.5 123c1.381 0 2.5-2.015 2.5-4.5s-1.119-4.5-2.5-4.5-2.5 2.015-2.5 4.5 1.119 4.5 2.5 4.5zm10.719-3.734c-1.357 5.327-1.303 7.707-2.009 7.734-.922.027-2.686-3.786-2.089-7.734.814-5.354 5.808-9.573 6.73-9.248.652.216-.949 2.623-2.632 9.248zm9.536 4.849c-2.135 2.136-5.73 4.408-7.136 3.778-1-.465-.594-2.245-.135-4.271.595-2.573 1.595-6.489 6.028-9.637 1.676-1.178 3.243-2.273 4.297-1.917 2.163.739 1.514 7.447-3.054 12.047z" fill="#45594F"/><path d="M135 126.028v10.724c0 1.718-.218 3.409-.683 5.016-3.03 10.974-15.89 19.232-31.29 19.232-14.007 0-25.938-6.817-30.252-16.322-1.147-2.494-1.775-5.182-1.775-7.954V126h64v.028z" fill="#B692B2"/><path d="M136.475 129h-66.95A1.51 1.51 0 0168 127.5c0-.83.68-1.5 1.525-1.5h66.95c.844 0 1.525.67 1.525 1.5s-.681 1.5-1.525 1.5z" fill="#B692B2"/><path d="M71.587 128.916c20.933.13 41.893.112 62.826-.075.783 0 .783-.841 0-.841a4699.04 4699.04 0 01-62.826.075c-.783 0-.783.841 0 .841zM134 142c-3.004 10.841-15.751 19-31.014 19-13.883 0-25.71-6.735-29.986-16.125.514.191 1.137.356 1.786.219 1.11-.192 1.38-.876 2.192-1.342 2.138-1.177 6.008.63 8.58 1.342 7.117 1.971 10.662 2.929 12.827 3.039 7.605.273 9.716-3.614 16.211-2.328 1.921.384 3.491 1.096 5.71.63 2.382-.493 3.491-1.916 5.602-1.642 1.272.136 1.272.739 2.328.848 2.354.219 3.572-2.847 5.764-3.641z" fill="#8AAAC7"/><path d="M107 113c0 1.647-.676 3-1.5 3s-1.5-1.353-1.5-3 .676-3 1.5-3 1.5 1.353 1.5 3z" fill="#D2D2D2"/><path d="M74.611 147.679c2.05-2.324 4.099-4.648 6.122-6.946.845-.935-.512-2.377-1.358-1.416l-6.121 6.946c-.82.962.538 2.378 1.357 1.416z" fill="#484848"/><path d="M80.44 140.955c3.128 2.286 6.451 4.246 9.97 5.933 1.202.571 2.263-1.198 1.062-1.769-3.52-1.687-6.843-3.647-9.971-5.932-1.061-.762-2.123 1.006-1.061 1.768z" fill="#484848"/><path d="M92.818 147.684c3.135-3.146 6.722-5.629 10.648-7.678 1.215-.635.141-2.512-1.073-1.877-4.067 2.108-7.796 4.763-11.072 8.025-.989.982.536 2.512 1.497 1.53z" fill="#484848"/><path d="M101.309 139.692c2.991 2.837 6.406 5.201 10.103 7.171 1.186.63 2.258-1.077 1.073-1.708-3.556-1.891-6.802-4.15-9.68-6.882-.96-.866-2.456.526-1.496 1.419z" fill="#484848"/><path d="M113.645 147.685a2684.23 2684.23 0 018.082-8.961c.864-.955-.523-2.36-1.386-1.406-2.694 2.996-5.388 5.992-8.082 8.962-.837.928.549 2.359 1.386 1.405z" fill="#484848"/><path d="M120.184 138.549l6.774 9.968c.772 1.136 2.63.057 1.858-1.079l-6.774-9.968c-.772-1.108-2.63-.057-1.858 1.079z" fill="#484848"/><path d="M128.871 147.563a113.524 113.524 0 015.884-7.834c.807-.976-.573-2.374-1.38-1.398a118.36 118.36 0 00-6.196 8.23c-.73 1.055.963 2.031 1.692 1.002zM76 148.001c-.056-3.718-1.659-6.991-4.217-9.683-.928-.971-2.418.5-1.49 1.471 2.193 2.303 3.542 5.022 3.598 8.212.028 1.332 2.137 1.332 2.109 0z" fill="#484848"/><path d="M73.26 148.802c5.465 6.554 13.222 10.354 21.448 12.172 1.297.275 1.85-1.708.552-1.983-7.922-1.762-15.265-5.37-20.538-11.649-.855-1.019-2.318.468-1.462 1.46zm37.005 12.181c11.333-2.009 23.041-8.971 24.726-21.683.16-1.294-1.765-1.871-1.925-.551-1.577 12.053-12.644 18.354-23.309 20.253-1.31.22-.776 2.201.508 1.981z" fill="#484848"/><path d="M93.74 161.038c5.822 1.146 11.643 1.258 17.519.391 1.306-.195.735-2.207-.544-2.012a48.4 48.4 0 01-16.43-.391c-1.279-.279-1.85 1.761-.544 2.012zm-3.73-14.11c.159 1.29.53 2.424 1.142 3.585.585 1.108 2.314.129 1.729-.98a7.568 7.568 0 01-.878-2.605c-.16-1.237-2.153-1.237-1.994 0zm21.99.046v3.072c0 1.272 2 1.272 2 0v-3.072c0-1.299-2-1.299-2 0zm14-.063v2.178c0 1.215 2 1.215 2 0v-2.178c0-1.215-2-1.215-2 0z" fill="#484848"/><path d="M91.234 151.842c3.132 4.018 6.951 7.311 11.238 9.99 1.126.725 2.17-1.088 1.044-1.814-4.122-2.595-7.804-5.776-10.799-9.683-.851-1.005-2.28.474-1.483 1.507z" fill="#484848"/><path d="M112.05 150.508c-2.128 3.59-4.732 6.79-7.729 9.712-.98.947.504 2.422 1.484 1.475 3.109-3.033 5.825-6.4 8.037-10.129.701-1.169-1.12-2.227-1.792-1.058zm-31.795-19.205c-.183.166-.396.332-.58.525-.609.526-.334 1.549.519 1.742.06-.387.06-.746.06-1.078-1.279.332-1.005 1.963.275 2.019-.06-.056-.122-.083-.183-.139v-1.05c-.61.248-1.066.94-.64 1.548.183.277.366.443.67.609.458.193.763.359.519-.111v-1.051c-.274.332-1.036.415-1.371.885-.366.553-.03 1.383.67 1.521.823.166.853-1.217-.213-.636-.366.194-.61.387-.823.747-.396.581 0 1.327.67 1.521l1.737.498-.274-1.909c-1.371.719-2.164 1.936-1.646 3.347.458 1.244 2.682.719 2.195-.553-.183-.498 0-.83.61-.996.883-.443.639-1.632-.275-1.908l-1.737-.498c.213.498.457 1.023.67 1.521.122-.166.792-.277 1.036-.498.305-.249.58-.636.58-1.023.03-.996-1.067-1.466-1.951-1.632.213.498.457 1.024.67 1.521 0 0 .793-.304.793-.276.243-.166.396-.36.579-.609.244-.304.183-.719 0-1.051-.244-.442-1.646-1.133-1.189-.497-.213.497-.457 1.023-.67 1.521 2.042-.664 1.737-2.821-.457-2.904.091.691.213 1.355.305 2.046.73-.193 1.005-.359 1.401-.94.183-.304.214-.747 0-1.051-.426-.581-.67-.746-1.432-.912.183.58.335 1.161.518 1.742.183-.166.396-.332.579-.526 1.036-.94-.579-2.406-1.615-1.465zm21.561 1.792c-.091-.407-.183-.734-.274-1.087 0 .027-.793.435-.884.598-.183.272-.275.68-.214.979.153.87 1.067 1.278 1.951 1.414l-.274-1.876c-.884.353-1.524.843-1.982 1.604-.396.652.092 1.577.976 1.523.274.081.457.054.549-.136.03-.272.091-.517.122-.789l-.183.245c.213-.163.457-.299.671-.462-.549.163-.946.271-1.372.625-.397.326-.397.816-.183 1.224.305.625.853.652 1.463.924-.183-.19-.335-.408-.518-.598.122.272-.488 1.196-.61 1.495-.549 1.224 1.646 1.74 2.195.544.336-.734.976-1.604.671-2.42a1.4 1.4 0 00-.488-.68c-.091-.081-.793-.326-.762-.272l-.183 1.224c.244-.19.671-.19.945-.462.396-.381.488-.789.335-1.278-.335-1.088-1.615-1.251-2.713-1.224.335.517.671 1.034.976 1.523.274-.489.609-.653 1.158-.87.884-.354.671-1.713-.274-1.876-.153-.027-.305-.082-.458-.109.031.272.092.517.122.788.031-.19.793-.516.946-.788.182-.354.213-.816 0-1.169-.488-.789-1.555-.762-2.409-.653-1.372.272-.732 2.23.701 2.039zm19.687 4.808a3.416 3.416 0 001.191-.782c.519-.531.397-1.621-.519-1.76a10.527 10.527 0 00-2.108-.14c.183.643.397 1.313.58 1.955.336-.223.673-.447 1.009-.642.763-.503.733-1.676-.275-1.928-.061.224-.031.503 0 .783.122-.755 1.069-1.229 1.191-2.04.031-.335-.153-.614-.153-.893-.03-.559-.427-.168.214-.699 1.1-.894-.519-2.374-1.619-1.48-.55.447-1.069.95-1.13 1.62-.031.335.091.559.152.866.123.642.184.363-.305.978-.978 1.201-.519 2.514 1.069 2.877l-.275-1.928c-.336.224-.672.447-1.008.643-.855.558-.641 1.983.581 1.955.519-.028.977 0 1.496.084-.183-.587-.336-1.173-.519-1.76a1.417 1.417 0 01-.733.475c-1.344.559-.183 2.346 1.161 1.816zm14.138 2.095h.175c.38.029.76-.23.935-.546.03-.029.059-.086.088-.115.263-.402.175-.977-.175-1.293-.351-.345-.731-.431-1.198-.575l.759.747c-.029-.057-.058-.144-.087-.201-.03.287-.088.546-.117.833.263-.488.584-.833.613-1.437.03-.603-.438-1.178-.409-1.724.03-.517.614-.891.702-1.465.029-.345-.117-.518-.146-.834-.059-.057-.088-.144-.147-.201-.263-.201-.233-.287.117-.287.848-1.092-.672-2.615-1.548-1.523-.643.804-1.082 1.58-.672 2.557.233.575.058.173.116.058-.116.172-.292.316-.379.488a2.017 2.017 0 00-.234 1.293c.058.403.38.863.38 1.265 0 .373-.322.575-.38.948-.088.345 0 .747.204 1.035.147.23.293.316.526.431.146.086.672.373.351.057l-.175-1.293c-.03.029-.059.086-.088.115.321-.172.643-.345.935-.546h-.175c-1.403-.029-1.374 2.127.029 2.213zm-63.366-.788c.125-.687.3-1.26.6-1.861.35-.688-.075-1.633-.8-1.604.375 0 .1.544.375-.057.05-.143.075-.516.075-.659-.025-.544-.325-.916-.425-1.432-.2-1.116.275-2.004-.325-3.092-.65-1.174-2.274-.086-1.624 1.088.35.601-.05 1.575.025 2.262.025.287.15.516.2.773.125.544.075.63.025 1.203-.075 1.203.525 2.09 1.624 2.062-.275-.544-.55-1.088-.8-1.604-.374.773-.65 1.518-.774 2.377-.225 1.346 1.6 1.919 1.824.544z" fill="#484848"/><path d="M82.018 131.022c4.334-34.357 8.666-68.687 12.973-103.044.16-1.318-1.846-1.29-2.006 0-4.333 34.357-8.666 68.687-12.973 103.044-.187 1.318 1.82 1.29 2.006 0zm40.946-.309c-8.309-34.659-16.645-69.317-24.953-103.976-.302-1.293-2.304-.742-1.975.55 8.309 34.659 16.645 69.317 24.953 103.976.302 1.293 2.304.742 1.975-.55z" fill="#484848"/><path d="M135.888 131.42c-15.512-33.685-22.524-69.869-37.035-103.883-.514-1.208-2.274-.165-1.76 1.043 14.538 33.987 21.55 70.198 37.036 103.883.568 1.208 2.328.165 1.759-1.043zm-63.868-.155C80.003 96.929 87.986 62.62 95.97 28.284c.303-1.29-1.685-1.838-1.99-.549-7.982 34.336-15.965 68.645-23.948 102.981-.303 1.289 1.685 1.838 1.99.549z" fill="#484848"/><path d="M103.978 131.715c-6.594-34.328-8.421-68.959-5.453-103.726.115-1.319-2.026-1.319-2.14 0-2.998 34.96-1.114 69.782 5.509 104.275.285 1.291 2.341.741 2.084-.549z" fill="#484848"/><path d="M101 28c0 1.667-2.006 3-4.5 3S92 29.667 92 28s2.006-3 4.5-3c2.467 0 4.5 1.333 4.5 3z" fill="#484848"/><path d="M100 25.5c0 1.383-1.576 2.5-3.5 2.5S93 26.883 93 25.5c0-1.382 1.576-2.5 3.5-2.5 1.924-.029 3.5 1.118 3.5 2.5z" fill="#484848"/><path d="M96 24c1.657 0 3-.895 3-2s-1.343-2-3-2-3 .895-3 2 1.343 2 3 2zm210.882 122.85c-10.101 17.825-44.827 36.97-68.447 21.43-19.348-12.746-23.419-44.536-15.881-50.528 2.362-1.879 6.986-2.133 9.197-6.5 1.156-2.234.603-3.555.854-7.617.402-7.618 2.614-9.192 3.619-16.352.703-5.079-.252-5.23-.302-12.95 0-7.87.151-21.684 8.242-32.551.905-1.219 1.407-1.879 2.312-2.691 6.432-5.688 18.996-5.485 26.836.863 6.282 5.078 8.744 13.457 8.644 19.754-.101 6.45-2.664 8.735-.855 12.137 2.262 4.215 7.237 2.54 13.368 6.754 7.036 4.824 9.448 13.051 10.051 15.489 2.312 9.343-2.513 12.492.553 21.125 2.01 5.688 4.573 5.738 6.131 10.715 2.714 8.531-2.211 17.266-4.322 20.922z" fill="#484848"/><path d="M261 173c-7.53 0-14.407-1.984-20.281-5.85-12.75-8.445-19.075-25.029-19.678-37.696-.301-6.715 1.055-11.853 3.715-13.989.853-.713 1.958-1.17 3.112-1.679 2.209-.967 4.518-1.933 5.874-4.629.703-1.425.703-2.391.703-4.223 0-.865-.001-1.882.05-3.154.251-4.324 1.004-6.715 1.857-9.258.653-1.984 1.355-4.02 1.757-7.173.502-3.765.301-6.105 0-8.598-.151-1.322-.301-2.696-.301-4.324-.251-13.582 7.178-30.624 20.029-35.61 2.51-.966 11.295-3.866 18.273.611 6.325 4.07 9.036 13.125 8.935 20.298-.05 2.849-.552 4.934-.954 6.562-.502 2.137-.853 3.51.051 5.24 1.104 2.035 2.911 2.543 5.421 3.256 2.159.61 4.819 1.322 7.731 3.306 6.927 4.782 9.487 12.718 10.291 15.923 1.154 4.63.602 7.732.05 10.785-.552 3.103-1.054 6.002.452 10.377 1.003 2.798 2.108 4.172 3.162 5.494 1.104 1.374 2.159 2.697 2.962 5.24 2.711 8.852-2.259 17.703-4.418 21.519-6.526 11.548-21.836 22.281-37.247 26.046A45.324 45.324 0 01261 173zm6.325-136.691c-3.966 0-7.43 1.17-8.885 1.73-12.349 4.781-19.478 21.264-19.227 34.44.051 1.576.151 2.899.302 4.17.251 2.544.502 4.986-.051 8.903-.451 3.256-1.154 5.393-1.807 7.427-.803 2.442-1.556 4.782-1.807 8.903-.05 1.272-.05 2.238-.05 3.052 0 1.882 0 3.154-.853 4.833-1.557 3.103-4.318 4.273-6.526 5.24-1.105.458-2.109.915-2.862 1.475-2.309 1.882-3.514 6.715-3.263 12.921.553 12.362 6.677 28.488 19.076 36.678 10.743 7.122 22.79 6.207 31.023 4.172 14.859-3.612 30.17-14.346 36.445-25.436 2.058-3.662 6.877-12.158 4.317-20.501-.703-2.34-1.657-3.51-2.711-4.833-1.104-1.373-2.309-2.899-3.363-5.901-1.657-4.68-1.105-7.732-.553-10.988.502-2.9 1.004-5.85-.05-10.225-.753-3.052-3.213-10.632-9.789-15.16-2.71-1.882-5.17-2.543-7.379-3.154-2.61-.712-4.869-1.322-6.225-3.866-1.154-2.136-.702-3.917-.15-6.155.401-1.577.903-3.561.954-6.257.1-5.088-1.607-14.855-8.333-19.23-2.611-1.678-5.522-2.238-8.233-2.238z" fill="#484848"/><path d="M197 154.286c.657 1.304 1.616 2.46 2.272 3.714 10.151-1.755 23.028-5.466 36.057-13.389 3.131-1.905 6.01-3.861 8.585-5.867.404-.351 2.273-2.206 2.071-4.463-.253-2.808-3.636-5.516-8.131-5.265-3.383 1.254-5.959 2.507-7.423 3.31-12.221 6.468-15.453 13.639-27.472 19.406-2.424 1.253-4.848 2.203-5.959 2.554z" fill="#E5BBA4"/><path d="M272.989 109.86c-2.361 2.921-5.024 5.842-8.039 8.864a37.989 37.989 0 01-2.512 2.418 91.524 91.524 0 01-5.326 4.785A129.85 129.85 0 01243.597 136L234 130.107c4.874-4.785 9.697-9.57 14.571-14.354 4.924-4.836 9.898-9.721 14.821-14.607.704-.151 3.266-.503 5.728 1.008 2.613 1.611 4.02 4.533 3.869 7.706z" fill="#E5BBA4"/><path d="M263 121.297a92.052 92.052 0 01-5.396 4.703c-2.851-3.317-5.753-6.683-8.604-10 1.782.495 3.513 1.04 5.295 1.584 2.901 1.287 5.803 2.475 8.705 3.713z" fill="#B692B2"/><path d="M264.796 127c-5.599-3.847-11.197-7.745-16.796-11.592 4.899-7.138 9.847-14.225 14.746-21.362.55-.05 5.749-.557 9.448 3.543 4.149 4.556 2.499 10.529 2.399 10.833-3.249 6.176-6.498 12.402-9.797 18.578z" fill="#484848"/><path d="M303 176.429c-9.584 11.541-19.219 23.03-28.853 34.571a35.304 35.304 0 01-5.921-8.426c-2.509-4.953-3.212-9.294-4.015-14.553-1.053-6.486-2.458-12.869-3.211-19.456-.351-2.758-.853-6.077-1.857-9.958-.351-1.43-.702-2.86-1.204-4.392-.502-1.634-1.004-3.421-1.656-5.311-2.107-6.076-5.068-13.174-9.283-21.549l12.093-26.503c.703-.92 3.011-3.881 3.764-8.324a17.8 17.8 0 00.301-3.319c0-.868-.05-1.634-.151-2.502-.201-1.124-.451-2.196-.753-3.115-1.003-2.962-2.458-4.954-3.06-5.668l2.709-1.532c.502-.307.954-.511 1.506-.817A277.072 277.072 0 01269.882 72c2.107 3.37 4.265 6.69 6.423 10.06 5.469 11.081 10.939 24.205 15.304 39.32.201.664.402 1.43.552 2.094-.752 5.362-2.308 10.928-2.86 18.588v.306c-.401 5.668-.401 14.043 1.957 24.409 3.914 3.32 7.878 6.537 11.742 9.652z" fill="#E5BBA4"/><path d="M262.192 84c-1.046-2.88-2.564-4.816-3.192-5.51l2.826-1.49c1.413 1.49 1.57 4.27.366 7z" fill="#545251"/><path d="M270.042 74.795c-3.011 2.8-5.771 4.99-7.979 6.57-.502.356-3.513 2.495-7.377 3.412-1.054.255-2.159.407-3.112-.204-1.405-.917-1.455-2.495-1.455-2.648-.201-.306-.402-.408-.552-.408-.452-.102-.803.408-1.355.255-.502-.204-1.105-.662-1.105-1.222 0-.357.201-.662.352-.764-.151 0-1.205 0-1.807-.866-.251-.407-.251-.764-.151-1.07.151-.458.251-.967.352-1.578.602-3.871-.653-7.538-1.656-8.862-.101-.153-.603-.764-1.155-1.63-.15-.305-.351-.611-.552-.968-1.254-2.495-1.405-4.736-1.455-6.01a18.82 18.82 0 011.154-7.74c.703-2.14 2.208-5.45 5.32-8.2 5.671-4.94 16.662-7.283 23.336-1.325 6.776 6.061 5.872 17.775 2.961 22.206-.451.662-1.957 2.7-2.86 5.806a15.882 15.882 0 00-.904 5.246z" fill="#E5BBA4"/><path d="M247 76a2.531 2.531 0 00-1.234-.316c-.542 0-.74.21-1.233.106a2.177 2.177 0 01-.987-.527c-.049-.053-.494-.526-.543-1.158-.049-.79.494-1.42.691-1.684.444-.579.987-1.79 1.332-4.421.642 1.263 1.283 2.474 1.875 3.737.05 1.42.099 2.842.099 4.263z" fill="#E5BBA4"/><path d="M250.42 67a.477.477 0 01-.377-.18c-.33-.358-1.273-1.254-2.641-1.374-1.226-.06-2.075.538-2.5.897-.283.239-.66.12-.802-.18a.884.884 0 01.142-1.015c.566-.478 1.745-1.255 3.207-1.136 1.651.06 2.83 1.136 3.349 1.733a.903.903 0 01.047 1.076c-.094.12-.236.179-.425.179z" fill="#545251"/><path d="M247.875 65.576c.324 1.06 0 2.12-.755 2.386-.754.212-1.617-.478-1.994-1.538-.324-1.06 0-2.12.701-2.386.808-.212 1.725.478 2.048 1.538zM248.806 80h-.324c-.323-.042-.554-.295-.461-.59a.51.51 0 01.646-.42c.092 0 .508.042.877-.21a.869.869 0 00.324-.421c.092-.253.461-.421.739-.337a.542.542 0 01.369.673c-.092.253-.277.59-.647.884a2.917 2.917 0 01-1.523.421z" fill="#545251"/><path d="M247.728 78.813c.53.254 1.007.509 1.272.678-.265.17-.901.509-1.801.509-.106 0-1.643-.042-2.067-.933-.158-.296-.211-.805.053-.975.424-.296 1.378.17 2.543.721z" fill="#B73232"/><path d="M243 59c-.069 0-.551.103-.826.77-.241.563-.172 1.127-.138 1.23l.964-2zm1.171.074c-.145.248-.339.595-.629.992-.436.645-.582.744-.533.843.145.446 2.179-.198 4.359 0A9.663 9.663 0 01251 62a7.53 7.53 0 00-.436-.893c-1.743-2.48-5.763-2.132-6.393-2.033zM249.518 82c-.167 0-.377-.107-.46-.375-.126-.32-.042-.749.209-.91l.963-.641c.252-.16.587-.054.712.267.126.321.042.75-.209.91l-.963.642c-.084.053-.168.107-.252.107z" fill="#545251"/><path d="M380 324.5c-2.453 2.15-4.856 4.35-7.26 6.5-2.052-2.61-4.105-5.118-6.208-7.677-8.461-10.134-18.324-20.882-29.89-31.732-10.414-9.776-20.577-18.067-30.14-25.182-1.202-1.33-1.502-2.405-1.502-3.224.05-4.043 7.26-8.087 18.024-10.185 3.905 1.843 8.962 4.555 14.569 8.394 4.957 3.429 11.666 8.035 17.374 15.047 9.312 11.362 7.51 18.528 19.375 39.102 1.402 2.406 2.704 4.555 3.906 6.347.5.819 1.001 1.535 1.402 2.201.1.102.25.255.35.409z" fill="#E5BBA4"/><path d="M395.585 334.552l-29.877 28.256c-.151.051-1.402.51-2.503-.205-1.051-.715-1.501-2.248-1.001-3.679 1.602-1.839 3.754-4.496 5.806-8.073 2.001-3.423 4.203-7.204 5.104-12.569.1-.562.2-1.226.251-1.942.05-.766.1-1.584.1-2.503 0-.563-.05-1.125-.05-1.789-.05-.613-.101-1.277-.151-1.941-.1-.818-.25-1.687-.4-2.606 1.501-1.635 3.003-3.219 4.504-4.854.951-1.022 1.552-1.533 1.502-1.635-.051-.051-.251.051-1.101.613a82.254 82.254 0 015.404 2.299c4.905 2.402 3.954 3.475 8.008 4.599 1.101.306 3.903.919 4.604 3.014.45 1.073.1 2.197-.2 3.015z" fill="#E5BBA4"/><path d="M399.215 334.311l-32.101 30.046a2.473 2.473 0 01-3.478-.15 2.542 2.542 0 01.149-3.518l32.101-30.046a2.473 2.473 0 013.478.15c.895 1.005.845 2.613-.149 3.518z" fill="#8AAAC7"/><path d="M372 355.654L367.714 360 364 355.916c1.095-1.989 2.19-3.926 3.238-5.916l4.762 5.654z" fill="#8AAAC7"/><path d="M382 348l-6.592 5.9c-4.224 3.05-8.447 6.05-12.67 9.1a7.808 7.808 0 01-1.082-1.7c-3.759-8.3 9.786-20.85 11.434-22.3 2.987 2.95 5.923 6 8.91 9z" fill="#8AAAC7"/><path d="M281.761 375.009c-.402 1.045-1.404 1.643-2.156 1.991h-40.814c-.151-.05-1.404-.597-1.705-1.841-.351-1.195.401-2.588 1.705-3.235a58.002 58.002 0 009.677-1.841c3.76-1.145 7.872-2.339 12.134-5.574 1.855-1.393 4.562-3.881 7.019-7.912.652-.05 1.304-.099 1.956-.099 2.557-.199 5.114-.349 7.671-.498 0 1.991.1 3.782.351 5.325.552 4.08 1.705 6.668 2.808 8.41.551.945 2.206 3.334 1.354 5.274z" fill="#E5BBA4"/><path d="M282.545 379h-44.09c-1.353 0-2.455-1.122-2.455-2.5s1.102-2.5 2.455-2.5h44.09c1.353 0 2.455 1.122 2.455 2.5s-1.102 2.5-2.455 2.5z" fill="#8AAAC7"/><path d="M248 376h-5.764c-.094-1.774-.142-3.5-.236-5.274 1.984-.575 3.968-1.151 6-1.726v7z" fill="#8AAAC7"/><path d="M261 378h-8.859c-5.092-.624-10.133-1.3-15.225-1.924-.61-.624-.916-1.248-.916-1.872.051-3.172 8.299-6.24 24.796-9.204.051 4.368.102 8.684.204 13z" fill="#8AAAC7"/><path d="M278.939 344.828a156.006 156.006 0 00-.811 8.379c-.051.813-.102 1.574-.152 2.184-2.586.203-5.171.355-7.756.507-.659.051-1.318.102-1.977.102 0-.457-.051-.914-.051-1.371-.405-15.336-1.825-32.855-5.17-51.948-2.484-14.117-5.627-26.965-8.973-38.492-.202-1.777.254-2.843.761-3.453 2.484-3.199 10.696-1.879 20.631 3.149 2.028 3.859 4.461 9.14 6.641 15.64 1.926 5.789 4.461 13.508 4.866 22.546.659 14.727-5.12 19.246-8.009 42.757z" fill="#E5BBA4"/><path d="M276.838 267c-1.701-.967-3.753-1.883-6.104-2.646-6.854-2.137-12.908-1.476-16.51-.763-.401-9.262-.3-19.49.6-30.635 1.701-20.355 5.754-37.86 10.106-51.956 10.707 8.702 21.363 17.404 32.07 26.105-.1 8.6-1.451 15.317-2.702 19.796-.2.763-.4 1.475-.65 2.239-3.952 12.162-8.205 17.352-13.508 29.565a132.99 132.99 0 00-3.302 8.295z" fill="#B692B2"/><path d="M301.692 173.163c9.911 9.328 11.112 24.203 2.753 33.228-8.409 9.026-23.226 8.774-33.137-.554-9.911-9.328-11.112-24.203-2.753-33.228 8.409-9.026 23.226-8.774 33.137.554z" fill="#B692B2"/><path d="M326 253.839c-6.399 4.037-12.798 8.125-19.147 12.161a222.45 222.45 0 01-18.946-21.869A228.928 228.928 0 01261 198.453c13.756-.818 27.512-1.635 41.318-2.453 5.643 6.489 9.07 12.416 11.085 16.657.353.715.655 1.379 1.008 2.146 4.182 9.657 5.391 15.993 9.523 31.27.403 1.788 1.109 4.496 2.066 7.766z" fill="#B692B2"/><path d="M295.938 168.012c-6.115 9.062-17.234 22.198-34.871 28.155-2.274.764-4.447 1.375-6.62 1.833-1.87-17.616-3.74-35.181-5.61-52.798-2.122-3.105-5.205-8.655-4.801-15.528.253-4.939 2.173-8.452 3.993-11.711 4.245-7.637 9.298-16.292 15.11-25.864 4.043-3.717 8.086-7.382 12.179-11.099 11.826 15.325 15.92 28.817 17.638 37.371 1.011 5.142 1.415 9.877 1.971 16.7a329.666 329.666 0 011.011 32.941z" fill="#92B69A"/><path d="M286.629 243c-.1 0-.15 0-.249-.051a.692.692 0 01-.349-.814l11.814-27.77c.149-.305.498-.458.797-.305.299.152.449.508.299.814l-11.814 27.77c-.049.203-.249.356-.498.356z" fill="#fff"/><path d="M299.624 213c-.194 0-.339-.102-.484-.205a.731.731 0 01.048-.92c1.113-.972 2.129-2.046 3.097-3.12 1.743-1.943 3.291-4.143 4.598-6.444.194-.307.532-.409.823-.205.29.205.387.563.193.87-1.355 2.404-2.952 4.603-4.742 6.649-1.017 1.125-2.082 2.25-3.195 3.222-.048.102-.193.153-.338.153z" fill="#B692B2"/><path d="M263.03 108.44c-3.738.356-7.729.56-12.023.56-1.162 0-2.374-.051-3.485-.051-2.476-.051-4.901-.204-7.174-.356a129.842 129.842 0 01-16.721-2.495L221 95c6.87.102 13.69.153 20.561.204 6.971.102 13.942.152 20.914.203.606.407 2.677 1.986 3.334 4.786.656 3.003-.404 6.109-2.779 8.247z" fill="#E5BBA4"/><path d="M248 109c-2.415-.052-4.782-.207-7-.363.394-4.563.789-9.074 1.134-13.637l2.514 4.978c1.134 3.007 2.218 6.015 3.352 9.022z" fill="#C7B28A"/><path d="M245.806 115c-1.269-6.8-2.537-13.65-3.806-20.45A4521.365 4521.365 0 01267.726 90c.457.358 4.516 3.732 4.263 9.356-.254 6.237-5.684 9.305-5.937 9.458-6.8 2.045-13.548 4.141-20.246 6.186z" fill="#92B69A"/><path d="M196.019 82.493c-7.984-4.641-16.929-5.763-23.851-3.009-9.45 3.825-15.059 15.454-14.655 24.125.152 3.825 1.516 5.916 2.577 6.936 1.719 1.632 4.296 2.448 6.772 2.346l8.944 24.023c-3.335-.459-5.811-2.346-7.024-3.366-5.71-4.846-4.346-10.15-8.237-13.669-2.526-2.295-7.529-4.081-18.545-.765.303.663.556 1.275.859 1.938 8.489-1.53 12.582.306 14.705 2.397 3.335 3.162 1.87 6.681 6.468 14.536 2.173 3.723 4.245 7.038 8.085 8.211 2.678.817 5.154.255 6.923-.357 1.011 2.704 2.021 5.458 3.032 8.161L218 137.118a5899.209 5899.209 0 00-10.763-18.31c2.223-4.03 4.396-9.895 3.436-16.474-1.061-7.753-6.569-15.148-14.654-19.84zm12.582 20.147c.809 5.355-.758 10.251-2.577 13.924-4.75-8.11-9.5-16.22-14.25-24.278a6831.231 6831.231 0 00-27.742 13.057c.707 1.836 1.364 3.672 2.072 5.508-1.668-.102-3.335-.663-4.498-1.785-.657-.612-1.768-2.193-1.92-5.457-.303-6.886 4.245-18.412 13.29-21.983 6.367-2.499 14.553-1.428 21.981 2.856 7.479 4.285 12.583 11.068 13.644 18.158z" fill="#B692B2"/><path d="M180.609 81c-.553 1.393-1.056 2.785-1.609 4.178 8.095 6.5 19.358 13.772 33.94 18.26a95.982 95.982 0 0010.107 2.527c.553.052 3.168.258 4.726-1.496 1.911-2.114 1.71-6.55-1.458-9.8-3.168-1.754-5.833-2.785-7.391-3.404-12.923-4.849-20.415-2.373-32.734-7.531A55.764 55.764 0 01180.609 81z" fill="#E5BBA4"/><path d="M269.471 71.992c-3.382.356-3.928-11.428-13.376-15.237-4.376-1.777-6.266-.05-11.984-2.438-3.779-1.574-10.492-5.485-10.094-9.243.497-4.876 12.779-6.806 14.52-7.11 6.265-1.017 16.807-2.692 23.022 3.96 9 9.6 2.238 29.611-2.088 30.068z" fill="#484848"/><path d="M265.84 64.782c-.618 2.736-2.835 4.593-4.948 4.154-2.114-.44-3.351-2.981-2.732-5.718.618-2.736 2.835-4.593 4.948-4.154 2.114.44 3.351 2.981 2.732 5.718z" fill="#E5BBA4"/><path d="M261.582 70c-.236 0-.471-.051-.66-.103a3.208 3.208 0 01-1.745-1.077.69.69 0 010-.924.564.564 0 01.849 0c.33.36.707.616 1.132.719.943.205 1.981-.308 2.782-1.386.189-.256.566-.308.849-.102.236.205.283.615.095.923-.944 1.232-2.123 1.95-3.302 1.95z" fill="#545251"/><path d="M264.661 68c-.101 0-.202-.05-.354-.1-.303-.202-.404-.555-.202-.858.303-.453.505-1.008.657-1.562.101-.353.454-.555.757-.454.354.1.556.454.455.756-.202.655-.455 1.31-.808 1.865-.051.202-.303.353-.505.353z" fill="#545251"/><path d="M265.345 65a.644.644 0 01-.558-.74c.279-2.38-.65-4.494-2.09-4.865a3.021 3.021 0 00-.976 0c-.325.106-.604-.105-.697-.475-.093-.37.093-.688.418-.793.511-.159.976-.159 1.487-.053 2.091.476 3.345 3.225 3.02 6.291-.093.424-.325.635-.604.635z" fill="#545251"/><path d="M260.606 68a.83.83 0 01-.342-.11.708.708 0 01-.147-.942l2.788-4.65c.195-.331.586-.387.831-.165a.708.708 0 01.147.94l-2.788 4.65a.58.58 0 01-.489.277z" fill="#545251"/><path d="M262.322 65a.698.698 0 01-.644-.417l-.645-1.718c-.108-.365.053-.73.43-.833.376-.104.752.052.859.416l.645 1.719c.108.364-.053.729-.43.833h-.215z" fill="#545251"/><path d="M183.339 86c-4.881-1.102-9.712-2.205-14.593-3.307-.915.3-1.831.551-2.746.852 4.881-6.013 12-7.967 16.576-5.512 2.594 1.403 3.865 3.959 4.424 5.612A149.91 149.91 0 01183.339 86zm14.662 68.269c-5.045-.049-8.898-1.329-13.944-1.378-.829-.511-2.495-.822-3.324-1.333 3.406 7.09 9.491 11.797 14.549 10.436 2.869-.783 4.705-3.015 5.635-4.521-1.013-1.078-1.891-2.175-2.916-3.204z" fill="#E5BBA4"/><path d="M291.438 342h-30.071c-2.455-26.122-4.911-52.296-7.367-78.418L278.057 257c4.811 8.418 11.527 22.551 14.484 41.327 2.907 18.673.902 34.183-1.103 43.673zm62.495-9c-15.661-22.311-31.322-44.621-46.933-66.932 6.354-4.006 12.709-8.062 19.013-12.068 7.055 2.535 20.164 8.265 32.072 20.942 14.861 15.82 19.414 33.364 20.915 40.919A7204.266 7204.266 0 00353.933 333z" fill="#B692B2"/><path d="M238 198H37v12h201v-12z" fill="#fff"/><path d="M66 204H50v170h16V204zm159 0h-16v170h16V204z" fill="#fff"/><path d="M215 308H55v7h160v-7z" fill="#fff"/><path d="M195.707 279a.285.285 0 00.286-.242.31.31 0 00-.227-.362l-29.401-6.389a.308.308 0 00-.358.229.312.312 0 00.227.363l29.401 6.389a.178.178 0 00.072.012z" fill="#000"/><path d="M138.308 283c.036 0 .072-.011.108-.022l28.396-10.45c.155-.056.227-.221.167-.354-.06-.144-.239-.21-.395-.155l-28.396 10.451c-.155.055-.227.221-.167.353.06.111.167.177.287.177zm65.387 7a.3.3 0 00.172-.045.282.282 0 00.087-.394l-8.39-11.432a.321.321 0 00-.431-.079.282.282 0 00-.087.394l8.39 11.432c.062.079.16.124.259.124z" fill="#000"/><path d="M153.549 273.516c-.393-.068-1.335-.271-2.145.193-.941.543-.941 1.562-1.739 1.72-.727.147-1.311-.6-1.609-.385-.31.227.31 1.03.072 1.721-.358.996-2.312 1.188-2.884 1.279-1.775.249-4.241 1.46-7.244 5.67 5.1 9.429 10.199 18.857 15.287 28.286h43.727c3.991-6.565 7.995-13.118 11.986-19.683-2.073-5.184-5.814-11.749-12.785-14.59-1.822-.747-2.085-.498-8.185-1.528-14.941-2.513-16.454-4.482-23.794-4.165-2.788.113-8.078 1.912-10.687 1.482z" fill="#000"/><path opacity=".35" d="M203 289.917c1.772.695 3.557 1.389 5.329 2.083.337-2.889.687-5.778 1.024-8.667L211 266c-2.671 7.972-5.342 15.945-8 23.917z" fill="#92B69A"/><path d="M157.311 253c.047 0 35.437-5.417 35.437-5.417a.293.293 0 00.249-.331.298.298 0 00-.343-.249l-35.402 5.417a.293.293 0 00-.249.332.315.315 0 00.308.248z" fill="#000"/><path d="M195.664 279c.214-.011.348-.145.335-.301l-3.327-31.443c-.014-.156-.188-.256-.362-.256-.188.011-.322.145-.309.301l3.327 31.443c.014.145.161.256.336.256z" fill="#000"/><path d="M166.31 273a.305.305 0 00.214-.089l26.392-25.445a.255.255 0 00-.011-.388.303.303 0 00-.417.011l-26.404 25.445a.255.255 0 00.011.388c.06.056.131.078.215.078z" fill="#000"/><path d="M165.686 273a.451.451 0 00.124-.023c.161-.056.235-.225.161-.372l-9.373-20.432c-.061-.147-.247-.214-.408-.147-.161.057-.235.226-.161.373l9.373 20.432a.315.315 0 00.284.169zm30.595 6c.07 0 .14-.023.198-.069l15.426-13.436a.285.285 0 00.023-.401.295.295 0 00-.407-.023l-15.426 13.436a.285.285 0 00-.023.401.271.271 0 00.209.092zm12.055 14c.175 0 .322-.113.336-.25l3.327-26.443c.013-.159-.107-.295-.295-.306-.188-.011-.349.091-.376.25l-3.327 26.443c-.013.158.121.295.295.306h.04z" fill="#000"/><path d="M188.785 278.636c1.309.59 2.111 1.092 4.754 2.25 5.19 2.262 8.906 3.877 10.062 2.741.861-.847.248-3.119-1.073-4.334-1.298-1.203-2.772-.913-4.908-1.504-3.609-1.002-3.008-2.919-6.146-4.066-3.657-1.337-5.072.802-9.13-.758-2.348-.902-2.595-1.905-4.377-1.882-2.064.022-2.925 1.37-5.308 1.125-1.003-.101-1.156-.368-2.489-.736-2.218-.612-4.046-.49-5.603-.389-5.002.323-12.752 2.618-12.564 3.386.142.58 4.554-.846 12.481-.78 3.244.023 14.698.613 24.301 4.947z" fill="#000"/><path d="M193 284c0 2.762 1.34 5 3 5s3-2.238 3-5-1.34-5-3-5-3 2.238-3 5z" fill="#92B69A"/><path d="M198 286c0 1.662.901 3 2 3s2-1.338 2-3-.901-3-2-3-2 1.338-2 3z" fill="#92B69A"/><path d="M197 286c0 1.662.901 3 2 3 1.111 0 2-1.338 2-3s-.901-3-2-3c-1.111 0-2 1.338-2 3zm-5.713 1.605c.569 1.626 1.797 2.668 2.745 2.332.948-.336 1.25-1.917.681-3.542-.569-1.626-1.797-2.668-2.745-2.332-.948.336-1.25 1.917-.681 3.542z" fill="#92B69A"/><path d="M190.245 288.758c1.197 1.198 2.723 1.594 3.415.902.692-.693.297-2.231-.9-3.418-1.197-1.198-2.723-1.594-3.415-.902-.703.693-.297 2.22.9 3.418z" fill="#92B69A"/><path d="M181.733 263.064c-1.942 8.16.462 17.023 1.618 16.935.67-.055-.081-3.075 1.607-9.972.832-3.405 1.456-2.636.705-6.963-.289-1.681-1.075-4.064-1.965-4.064-.994.011-1.734 3.119-1.965 4.064zm4.254 8.36c-.791 5.056-1.45 9.299-.563 9.562 1.007.298 4.267-4.346 4.555-9.562.203-3.683-1.091-7.458-2.002-7.424-.827.023-1.342 3.272-1.99 7.424zM192.5 276c-.828 0-1.5-2.015-1.5-4.5s.672-4.5 1.5-4.5 1.5 2.015 1.5 4.5-.672 4.5-1.5 4.5z" fill="#D2D2D2"/><path d="M188 276c0 3.319 1.126 6 2.5 6 1.385 0 2.5-2.692 2.5-6 0-3.319-1.126-6-2.5-6-1.374-.011-2.5 2.681-2.5 6z" fill="#D2D2D2"/><path d="M194.846 273.99c-1.994 6.666-5.311 9.528-4.792 9.959.72.605 8.097-4.223 7.944-9.959-.048-1.838-.886-4.002-1.57-3.99-.637.012-.944 1.873-1.582 3.99z" fill="#D2D2D2"/><path d="M202.119 271.162c-2.653 5.795-14.626 13.094-14.102 13.786.64.845 19.315-8.726 17.907-13.786-.186-.669-.977-2.162-1.896-2.162-.989 0-1.699 1.69-1.909 2.162z" fill="#D2D2D2"/><path d="M184 285.338c.035 1.292 13.262.527 18.532-.873 1.273-.336 2.818-.91 3.301-2.19.247-.646.259-1.604-.236-2.035-.578-.49-1.627-.107-2.122.072-2.275.814-4.774.886-6.991 1.843-6.483 2.788-12.508 2.321-12.484 3.183z" fill="#D2D2D2"/><path d="M187 281c0 2.208.674 4 1.5 4s1.5-1.792 1.5-4c0-1.825-.141-4-1.5-4-.837 0-1.5 1.792-1.5 4zm-11.616-16.638c-1.546 6.657 1.97 14.859 3.563 14.633 1.593-.236 1.262-8.868-.212-14.633-.791-3.091-1.404-3.362-1.676-3.362-.896 0-1.569 2.854-1.675 3.362z" fill="#D2D2D2"/><path d="M178.252 267.247c-.921 6.089.907 12.809 1.926 12.753 1.046-.068 1.074-7.453.195-12.753-.167-.981-.544-3.247-1.061-3.247-.572 0-.991 2.762-1.06 3.247zm-5.137 4.026c-.916 5.277 3.927 12.084 4.774 11.712.63-.281-1.568-4.331-3.045-11.712-.126-.653-.447-2.273-.871-2.273-.458 0-.812 2.003-.858 2.273z" fill="#D2D2D2"/><path d="M167.14 269.491c-1.148 5.735 5.075 13.199 7.831 12.458.495-.135.773-.505.809-.55 1.378-1.908-4.096-5.207-6.175-11.908-.302-.976-.677-2.491-1.233-2.491-.58 0-1.075 1.706-1.232 2.491z" fill="#D2D2D2"/><path d="M182 279.5a2.5 2.5 0 005 0 2.5 2.5 0 00-5 0zm-10-.5c0 1.663 2.237 3 5 3s5-1.348 5-3c0-1.663-2.237-3-5-3s-5 1.337-5 3z" fill="#45594F"/><path d="M175 281.067c1.185 4.134 4.235 7.194 7.895 7.813 5.443.934 10.534-3.843 10.076-5.326-.316-1.051-3.308-.28-8.633-2.441-1.056-.432-1.326-.619-2.147-.829-2.792-.701-5.396.023-7.191.783z" fill="#D2D2D2"/><path d="M188.313 283c.06 0 .133-.022.182-.054l9.387-6.462a.244.244 0 00.049-.379c-.097-.119-.292-.141-.426-.044l-9.387 6.463a.244.244 0 00-.049.379.364.364 0 00.244.097zm.963 1a.452.452 0 00.109-.018l4.448-1.545c.142-.045.207-.181.142-.298-.055-.118-.218-.172-.36-.118l-4.448 1.545c-.142.045-.207.181-.142.298a.282.282 0 00.251.136zm15.224-11a1.5 1.5 0 10.001-3.001A1.5 1.5 0 00204.5 273zm0-2.395c.496 0 .895.399.895.895a.893.893 0 01-.895.895.893.893 0 01-.895-.895c0-.496.399-.895.895-.895zM189 277a2 2 0 10.001-3.999A2 2 0 00189 277zm0-3.43c.779 0 1.419.639 1.419 1.418 0 .779-.64 1.419-1.419 1.419s-1.419-.64-1.419-1.419.628-1.418 1.419-1.418zm-5 6.43c.55 0 1-.45 1-1s-.45-1-1-1-1 .45-1 1 .45 1 1 1zm0-1.375c.2 0 .375.162.375.375a.368.368 0 01-.375.375.376.376 0 010-.75zm.5-7.625a.5.5 0 100-1 .5.5 0 000 1zm0-.578c.034 0 .069.035.069.069 0 .078-.138.078-.138 0 0-.034.026-.069.069-.069zM188 272c.563 0 1-.656 1-1.5s-.437-1.5-1-1.5-1 .656-1 1.5.448 1.5 1 1.5zm0-2.33c.195 0 .425.348.425.83 0 .496-.23.83-.425.83-.195 0-.425-.348-.425-.83 0-.496.23-.83.425-.83zM177 274c.549 0 1-.451 1-1 0-.549-.451-1-1-1-.549 0-1 .451-1 1a.987.987 0 001 1zm0-1.31c.169 0 .296.141.296.296a.298.298 0 01-.296.296.308.308 0 01-.296-.296c-.014-.169.127-.296.296-.296zm-2 4.31c.545 0 1-.444 1-1 0-.545-.444-1-1-1-.545 0-1 .444-1 1 .01.556.455 1 1 1zm0-1.485a.495.495 0 11-.495.495.495.495 0 01.495-.495zM192.345 277c.171 0 .328-.098.356-.24l1.295-7.449c.029-.153-.113-.284-.299-.306-.199-.032-.37.088-.398.23l-1.295 7.448c-.029.153.113.284.299.306.014.011.028.011.042.011z" fill="#45594F"/><path d="M192.766 277c.149-.011.243-.15.233-.289l-.532-6.464c-.009-.15-.121-.257-.252-.246-.13.01-.224.139-.214.289l.532 6.464c.009.139.112.246.233.246zm-7.437 1c.171 0 .315-.111.329-.266l.341-5.445c.013-.155-.131-.288-.315-.288-.171-.011-.342.111-.342.266l-.341 5.445c-.013.155.131.288.315.288h.013zm.044 5c.177 0 .339-.097.369-.225l1.254-5.461c.029-.15-.103-.279-.31-.311-.192-.021-.398.075-.428.225l-1.254 5.461c-.029.15.103.279.31.311h.059zm.935 0a.29.29 0 00.284-.228l1.396-5.388a.301.301 0 00-.213-.372c-.166-.048-.32.048-.367.216l-1.396 5.389a.3.3 0 00.213.371c.036.012.059.012.083.012zm-2.055-6a.273.273 0 00.262-.23l1.482-10.46c.021-.154-.073-.285-.219-.307-.157-.022-.272.077-.292.23l-1.483 10.46c-.021.154.073.285.219.307h.031zm-1.501 1a.263.263 0 00.247-.285l-.504-11.451c-.01-.154-.089-.274-.258-.263-.138.011-.237.131-.237.285l.505 11.451c.01.142.118.263.247.263zm-1.049 1a.295.295 0 00.297-.305l-.404-11.413c0-.165-.143-.27-.31-.282a.285.285 0 00-.285.305l.404 11.413c0 .165.131.282.298.282zm.017 4c.033 0 .055 0 .088-.011.142-.043.23-.193.175-.332l-1.45-4.469c-.044-.14-.209-.225-.341-.172-.142.043-.23.193-.175.332l1.45 4.47c.022.118.132.182.253.182zm2.594 0c.149 0 .285-.094.31-.231l.373-2.473c.025-.147-.1-.272-.273-.293-.174-.021-.323.084-.348.23l-.373 2.474c-.025.146.1.272.273.293h.038zm-5.575 1a.277.277 0 00.128-.033.276.276 0 00.096-.374l-2.467-4.456a.26.26 0 00-.363-.099.276.276 0 00-.096.374l2.467 4.456a.266.266 0 00.235.132zm1.031-6c.138-.012.239-.15.229-.312l-.54-10.419c-.009-.162-.092-.289-.248-.266-.128.011-.22.15-.21.312l.54 10.419c.009.15.11.266.229.266zm-1.05 1c.034 0 .068-.011.102-.022a.264.264 0 00.158-.347l-3.44-8.46a.283.283 0 00-.362-.152.264.264 0 00-.158.348l3.44 8.459a.278.278 0 00.26.174z" fill="#45594F"/><path d="M181.289 278c.157 0 .289-.103.301-.226l.409-3.494c.012-.144-.108-.267-.264-.278-.157-.02-.313.093-.325.227l-.409 3.494c-.012.143.108.267.264.277h.024zm-6.604 2a.34.34 0 00.201-.065c.138-.098.151-.272.038-.381l-3.375-3.455a.337.337 0 00-.439-.033c-.126.098-.151.272-.038.38l3.375 3.456a.332.332 0 00.238.098zm2.998-1c.026 0 .064 0 .089-.012.164-.049.266-.219.215-.376l-1.367-4.393a.32.32 0 00-.392-.206c-.164.048-.266.218-.215.376l1.367 4.393a.31.31 0 00.303.218zm6.601-1c.14 0 .269-.111.292-.272l.421-3.378a.306.306 0 00-.246-.347c-.163-.025-.304.099-.327.26l-.421 3.378a.307.307 0 00.246.347c.011.012.023.012.035.012zm2.059 2c.178 0 .328-.113.342-.249l.314-2.445c.014-.158-.123-.294-.301-.305-.191-.011-.355.09-.383.249l-.314 2.444c-.014.159.123.295.301.306h.041zm6.048-1c.203 0 .374-.11.39-.24l.218-3.499c.016-.14-.156-.25-.374-.26-.219-.01-.39.1-.406.24l-.218 3.499c-.016.13.156.25.39.26-.016 0 0 0 0 0zm4.9 4c.033 0 .067-.011.101-.021l6.43-2.465a.262.262 0 00.158-.348c-.056-.137-.225-.2-.372-.148l-6.43 2.466a.26.26 0 00-.158.347.306.306 0 00.271.169zm-10.994 3c.024 0 .035 0 .058-.009l9.417-1.541c.152-.028.256-.146.221-.272-.035-.118-.186-.2-.349-.173l-9.416 1.542c-.152.027-.256.145-.221.272.035.108.151.181.29.181zm-3.022 0a.34.34 0 00.108-.02l3.46-1.5c.141-.061.195-.213.13-.335-.065-.121-.227-.182-.356-.121l-3.46 1.5c-.141.061-.195.213-.13.334a.314.314 0 00.248.142zm12.027-5a.305.305 0 00.195-.07l10.396-8.418c.122-.104.147-.29.037-.406a.306.306 0 00-.427-.035l-10.396 8.417c-.122.105-.147.291-.037.407.061.07.146.105.232.105z" fill="#45594F"/><path d="M188.302 284c.048 0 .083-.012.119-.024l16.407-7.417a.286.286 0 00.142-.388.29.29 0 00-.391-.141l-16.407 7.417a.286.286 0 00-.142.388.315.315 0 00.272.165z" fill="#45594F"/><path d="M171.828 283.457c1.52 1.253 4.622.262 6.921-2.197 2.311-2.459 2.944-5.465 1.423-6.717-1.52-1.253-4.622-.262-6.921 2.197-2.311 2.459-2.944 5.465-1.423 6.717z" fill="#92B69A"/><path d="M174.571 283c1.583 0 3.591-.986 5.21-2.703 1.098-1.174 1.854-2.515 2.114-3.778.272-1.285.012-2.337-.744-2.957-.756-.621-1.89-.732-3.225-.311-1.3.41-2.611 1.285-3.71 2.46-2.292 2.448-2.906 5.461-1.37 6.724.449.388 1.051.565 1.725.565zm4.831-9.715c.615 0 1.146.166 1.548.498.673.554.898 1.507.65 2.692-.26 1.208-.981 2.504-2.056 3.645-2.185 2.326-5.103 3.279-6.521 2.127-1.406-1.163-.78-4.011 1.394-6.337 1.063-1.141 2.339-1.983 3.591-2.382a4.484 4.484 0 011.394-.243z" fill="#fff"/><path d="M172.082 281.889c1.889-.604 2.479-3.512 1.336-6.487-1.156-2.974-3.611-4.895-5.5-4.291-1.889.604-2.479 3.512-1.336 6.487 1.156 2.974 3.623 4.895 5.5 4.291z" fill="#92B69A"/><path d="M171.317 282c.255 0 .499-.035.743-.129 1.891-.666 2.506-3.856 1.369-7.093-1.137-3.237-3.597-5.328-5.489-4.65-1.891.666-2.506 3.856-1.369 7.093.986 2.828 2.994 4.779 4.746 4.779zm.638-.397c-1.74.619-4.038-1.391-5.117-4.476-1.079-3.085-.546-6.1 1.195-6.719 1.741-.619 4.038 1.391 5.118 4.476 1.079 3.085.545 6.099-1.196 6.719z" fill="#fff"/><path d="M169.683 282.901c1.015-1.52-.489-4.047-3.358-5.652-2.857-1.606-6.006-1.671-7.008-.15-1.015 1.52.489 4.047 3.358 5.652 2.869 1.606 6.006 1.671 7.008.15z" fill="#92B69A"/><path d="M166.935 285c1.229 0 2.241-.42 2.742-1.261 1.024-1.717-.467-4.579-3.322-6.366-2.856-1.787-6.008-1.834-7.032-.117s.467 4.579 3.322 6.366c1.457.922 3.004 1.378 4.29 1.378zm2.503-1.402c-.944 1.589-3.925 1.495-6.645-.21-2.719-1.705-4.164-4.38-3.231-5.968.944-1.589 3.925-1.484 6.645.21 2.719 1.705 4.164 4.38 3.231 5.968z" fill="#fff"/><path d="M184.992 284.047c.173-1.904-2.369-3.704-5.674-4.004-3.305-.3-6.136 1.004-6.31 2.908-.173 1.903 2.369 3.703 5.674 4.003 3.317.312 6.136-1.004 6.31-2.907z" fill="#92B69A"/><path d="M179.142 287c3.132 0 5.665-1.241 5.848-2.97.196-1.907-2.569-3.702-6.141-3.99-3.585-.288-6.656 1.019-6.839 2.926-.196 1.906 2.569 3.702 6.141 3.99.331.022.661.044.991.044zm-1.321-6.727c.318 0 .648.011.979.044 3.413.277 6.043 1.939 5.872 3.691-.171 1.751-3.095 2.948-6.508 2.671-3.414-.277-6.044-1.94-5.873-3.691.171-1.585 2.557-2.715 5.53-2.715z" fill="#fff"/><path d="M176.44 292.828c1.753-.762 2.076-3.752.727-6.698-1.35-2.945-3.865-4.715-5.607-3.953-1.753.761-2.076 3.752-.727 6.697 1.339 2.934 3.853 4.704 5.607 3.954z" fill="#92B69A"/><path d="M175.196 293c.351 0 .689-.065 1.014-.185.977-.382 1.59-1.288 1.753-2.576.15-1.254-.163-2.717-.876-4.124-.714-1.408-1.765-2.597-2.93-3.339-1.202-.764-2.391-.971-3.367-.589-.977.382-1.59 1.287-1.753 2.575-.15 1.255.163 2.717.876 4.124.714 1.408 1.765 2.597 2.93 3.339.813.513 1.615.775 2.353.775zm.889-.436c-.864.338-1.953.13-3.054-.568-1.127-.709-2.129-1.855-2.83-3.219-.701-1.364-1.001-2.782-.851-3.993.15-1.179.701-2.019 1.565-2.357.864-.338 1.953-.131 3.054.567 1.127.709 2.129 1.855 2.83 3.219.701 1.364 1.001 2.783.851 3.994-.138 1.189-.701 2.029-1.565 2.357z" fill="#fff"/><path d="M162.546 290.26c1.255 1.366 4.266.787 6.718-1.29 2.464-2.077 3.445-4.864 2.19-6.23-1.255-1.366-4.266-.787-6.718 1.29-2.464 2.077-3.445 4.864-2.19 6.23z" fill="#92B69A"/><path d="M163.838 291c1.551 0 3.505-.78 5.19-2.222 2.699-2.292 3.749-5.412 2.357-6.936-1.392-1.536-4.726-.91-7.413 1.383-2.699 2.292-3.749 5.412-2.357 6.936.525.567 1.307.839 2.223.839zm5.324-9.725c.831 0 1.539.248 1.991.756 1.282 1.406.232 4.337-2.333 6.523-2.564 2.186-5.703 2.824-6.985 1.406-1.283-1.406-.232-4.337 2.332-6.523 1.649-1.394 3.53-2.162 4.995-2.162z" fill="#fff"/><path d="M172.194 281.879c1.32.537 3.202-.763 4.201-2.901.999-2.138.735-4.32-.597-4.857-1.32-.537-3.203.763-4.201 2.901-.987 2.149-.723 4.32.597 4.857z" fill="#92B69A"/><path d="M172.887 282c.505 0 1.043-.222 1.592-.643.779-.609 1.471-1.579 1.932-2.737.472-1.147.669-2.352.559-3.369-.109-1.053-.537-1.801-1.196-2.106-.659-.304-1.46-.128-2.261.503-.78.609-1.46 1.579-1.933 2.737-.977 2.398-.691 4.866.637 5.475.209.093.439.14.67.14zm2.228-8.714c.198 0 .384.035.56.117.56.257.933.924 1.032 1.871.099.971-.088 2.117-.538 3.229-.45 1.111-1.109 2.035-1.844 2.62-.725.561-1.427.737-1.987.468-1.197-.55-1.416-2.843-.494-5.1.45-1.1 1.109-2.036 1.844-2.62.494-.386.977-.585 1.427-.585z" fill="#fff"/><path d="M172.093 281.435c-.499 1.417 1.069 3.252 3.504 4.122 2.436.87 4.811.417 5.31-.989.499-1.418-1.069-3.252-3.504-4.122-2.436-.87-4.811-.429-5.31.989z" fill="#92B69A"/><path d="M177.97 286c.333 0 .644-.023.954-.08 1.024-.182 1.725-.683 1.978-1.379.253-.706.011-1.527-.656-2.301-.655-.764-1.655-1.414-2.828-1.812-2.426-.855-4.817-.388-5.323 1.037-.506 1.424 1.058 3.27 3.484 4.125.793.262 1.621.41 2.391.41zm-2.978-5.732c.713 0 1.518.137 2.311.422 1.115.387 2.081 1.003 2.702 1.732.609.706.816 1.424.609 2.028-.218.604-.839 1.026-1.759 1.197-.942.171-2.081.057-3.196-.342-2.276-.798-3.759-2.484-3.311-3.761.299-.831 1.334-1.276 2.644-1.276z" fill="#fff"/><path d="M171.374 282.005c-1.65-.111-3.14 1.815-3.35 4.296-.209 2.48.961 4.584 2.599 4.694 1.65.111 3.141-1.815 3.35-4.296.222-2.48-.948-4.584-2.599-4.694z" fill="#92B69A"/><path d="M170.772 291c.76 0 1.498-.419 2.094-1.202.621-.805 1.007-1.9 1.112-3.092.199-2.479-.971-4.583-2.609-4.701-.819-.054-1.603.365-2.235 1.191-.62.805-1.007 1.9-1.112 3.092-.199 2.479.971 4.583 2.609 4.701a.61.61 0 00.141.011zm.562-8.716c1.486.096 2.527 2.082 2.34 4.412-.094 1.137-.468 2.189-1.053 2.962-.574.752-1.287 1.127-1.978 1.084-1.486-.096-2.527-2.082-2.34-4.411.093-1.138.468-2.19 1.053-2.963.538-.709 1.194-1.084 1.86-1.084.047-.011.082 0 .118 0z" fill="#fff"/><path d="M165.486 276.568c-1.053 1.055-.339 3.22 1.602 4.841 1.941 1.62 4.374 2.079 5.426 1.023 1.053-1.055.339-3.22-1.602-4.841-1.941-1.62-4.374-2.079-5.426-1.023z" fill="#92B69A"/><path d="M170.839 284c.677 0 1.264-.212 1.658-.671 1.072-1.224.373-3.707-1.556-5.543-1.93-1.836-4.367-2.342-5.438-1.118-1.072 1.224-.373 3.707 1.556 5.543 1.208 1.165 2.629 1.789 3.78 1.789zm-3.678-7.708c1.072 0 2.426.612 3.588 1.718 1.816 1.73 2.504 4.025 1.534 5.131-.97 1.106-3.227.588-5.043-1.13-1.816-1.73-2.505-4.025-1.534-5.131.349-.4.857-.588 1.455-.588z" fill="#fff"/><path d="M166.02 282.727c.248 1.613 2.673 2.583 5.419 2.183 2.747-.4 4.788-2.025 4.541-3.637-.248-1.613-2.673-2.583-5.419-2.183-2.759.4-4.788 2.025-4.541 3.637z" fill="#92B69A"/><path d="M170.244 285c.396 0 .804-.023 1.212-.092 1.32-.185 2.508-.657 3.36-1.326.875-.692 1.283-1.499 1.163-2.294-.12-.796-.767-1.453-1.811-1.868-1.02-.404-2.304-.519-3.624-.335-1.32.185-2.508.658-3.36 1.326-.875.692-1.283 1.499-1.163 2.295.12.795.767 1.452 1.811 1.867.708.277 1.536.427 2.412.427zm1.524-5.707c.84 0 1.632.138 2.292.392.948.369 1.524.957 1.619 1.637.108.692-.263 1.407-1.055 2.029-.816.634-1.956 1.084-3.216 1.269-1.26.184-2.496.069-3.468-.312-.948-.369-1.524-.957-1.619-1.637-.108-.692.263-1.406 1.055-2.029.816-.634 1.956-1.084 3.216-1.268a8.248 8.248 0 011.176-.081z" fill="#fff"/><path d="M184 289.5c0 .825 1.348 1.5 3 1.5s3-.675 3-1.5-1.348-1.5-3-1.5c-1.664 0-3 .675-3 1.5zm1-2c0 .274.893.5 2 .5s2-.226 2-.5-.893-.5-2-.5-2 .217-2 .5zm-6 1c0 .835 1.119 1.5 2.5 1.5s2.5-.677 2.5-1.5c0-.822-1.119-1.5-2.5-1.5-1.393-.012-2.5.665-2.5 1.5zm-18 7c0 .835 1.119 1.5 2.5 1.5s2.5-.677 2.5-1.5c0-.835-1.119-1.5-2.5-1.5s-2.5.677-2.5 1.5zm7.5-1.5c-1.381 0-2.5-.672-2.5-1.5s1.119-1.5 2.5-1.5 2.5.672 2.5 1.5-1.119 1.5-2.5 1.5z" fill="#D2D2D2"/><path d="M182 289c0 .551.893 1 2 1s2-.449 2-1c0-.551-.893-1-2-1s-2 .449-2 1zm-23-1c0 .551.893 1 2 1s2-.449 2-1c0-.551-.893-1-2-1s-2 .449-2 1zm33 1c0 .55 1.347 1 3 1s3-.45 3-1-1.347-1-3-1-3 .45-3 1z" fill="#D2D2D2"/><path d="M198 290c-1.657 0-3-.448-3-1s1.343-1 3-1 3 .448 3 1-1.343 1-3 1z" fill="#D2D2D2"/><path d="M195 288.5c0 .282.67.5 1.5.5s1.5-.227 1.5-.5c0-.282-.67-.5-1.5-.5s-1.5.227-1.5.5zm-12 4c0 .278.674.5 1.5.5s1.5-.222 1.5-.5-.674-.5-1.5-.5-1.5.222-1.5.5zm6-1.996c0 .275.669.496 1.5.496s1.5-.221 1.5-.496-.669-.504-1.5-.504c-.831.008-1.5.229-1.5.504zM178 292c0 .551.902 1 2 1 1.111 0 2-.449 2-1 0-.551-.902-1-2-1-1.111 0-2 .449-2 1zm5-1c-1.657 0-3-.448-3-1s1.343-1 3-1 3 .448 3 1-1.343 1-3 1zm-23 0c0 .55 1.343 1 3 1s3-.45 3-1-1.343-1-3-1-3 .45-3 1zm17 6c-1.657 0-3-.448-3-1s1.343-1 3-1 3 .448 3 1-1.343 1-3 1zm-7 0c-1.657 0-3-.448-3-1s1.343-1 3-1 3 .448 3 1-1.343 1-3 1z" fill="#D2D2D2"/><path d="M169 297c0 .55 1.343 1 3 1s3-.45 3-1-1.343-1-3-1-3 .45-3 1zm10 4c-1.657 0-3-.448-3-1s1.343-1 3-1 3 .448 3 1-1.343 1-3 1zm1 6c-1.657 0-3-.448-3-1s1.343-1 3-1 3 .448 3 1-1.343 1-3 1zm-4-4c-1.657 0-3-.448-3-1s1.343-1 3-1 3 .448 3 1-1.343 1-3 1zm11-6c-1.657 0-3-.448-3-1s1.343-1 3-1 3 .448 3 1-1.343 1-3 1z" fill="#D2D2D2"/><path d="M191 298c-1.657 0-3-.448-3-1s1.343-1 3-1 3 .448 3 1-1.343 1-3 1zm4-3c-1.657 0-3-.448-3-1s1.343-1 3-1 3 .448 3 1-1.343 1-3 1z" fill="#D2D2D2"/><path d="M195 299c-1.657 0-3-.448-3-1s1.343-1 3-1 3 .448 3 1-1.343 1-3 1zm-1-3c-1.657 0-3-.448-3-1s1.343-1 3-1 3 .448 3 1-1.343 1-3 1zm-15 7c-1.657 0-3-.448-3-1s1.343-1 3-1 3 .448 3 1-1.343 1-3 1zm3-3c0 .55 1.343 1 3 1s3-.45 3-1-1.343-1-3-1c-1.669 0-3 .44-3 1zm-1-2c0 .55 1.343 1 3 1s3-.45 3-1-1.343-1-3-1-3 .45-3 1zm4-10c0 .551 1.12 1 2.5 1s2.5-.449 2.5-1c0-.551-1.12-1-2.5-1s-2.5.449-2.5 1z" fill="#D2D2D2"/><path opacity=".54" d="M197 311l12-18.474-2.574-1.218c-.846-.44-1.692-.868-2.538-1.308-2.296 7.004-4.592 14.008-6.888 21z" fill="#fff"/><path opacity=".54" d="M197.327 311a2707.08 2707.08 0 013.354-10.434c1.102-3.525 2.217-7.051 3.319-10.566-8.667 1.978-17.333 3.957-26 5.924 6.438 5.018 12.877 10.047 19.327 15.076zm-44.327.769h30.572c4.472.081 8.956.15 13.428.231l-19.758-16c-8.081 5.249-16.161 10.509-24.242 15.769z" fill="#fff"/><path opacity=".54" d="M153 312c8-5.131 16-10.262 24-15.382-2.742-2.74-5.496-5.48-8.237-8.209-3.478-3.474-6.956-6.936-10.434-10.409-1.78 11.322-3.549 22.667-5.329 34z" fill="#fff"/><path d="M197.283 312a.277.277 0 00.271-.201l6.434-21.441a.28.28 0 00-.192-.346.28.28 0 00-.35.189l-6.434 21.442c-.046.145.045.301.192.346.023 0 .045.011.079.011z" fill="#000"/><path d="M196.705 312a.294.294 0 00.223-.1c.106-.123.095-.29-.035-.391l-19.409-15.441a.296.296 0 00-.412.033c-.106.123-.095.29.035.391l19.409 15.441a.275.275 0 00.189.067z" fill="#000"/><path d="M153.296 312h43.408c.166 0 .296-.22.296-.5s-.13-.5-.296-.5h-43.408c-.166 0-.296.22-.296.5s.13.5.296.5z" fill="#000"/><path d="M153.299 312a.29.29 0 00.169-.045l24.402-15.43a.287.287 0 00.085-.395.31.31 0 00-.423-.08l-24.402 15.419a.287.287 0 00-.085.395.303.303 0 00.254.136zm43.98 0a.286.286 0 00.251-.136l11.431-19.439a.28.28 0 00-.103-.386.283.283 0 00-.388.102l-11.431 19.439a.28.28 0 00.103.386c.034.023.08.034.137.034z" fill="#000"/><path opacity=".54" d="M138 283.204c5.02 9.262 10.04 18.523 15.061 27.796 1.779-11.19 3.57-22.391 5.35-33.581 2.533-8.174 5.055-16.359 7.589-24.533-3.04-.292-6.093-.594-9.133-.886A27769.92 27769.92 0 00138 283.204z" fill="#fff"/><path d="M166.696 253c.158 0 .291-.078.303-.172.012-.109-.109-.202-.267-.21l-9.404-.616c-.182-.016-.315.07-.327.171-.012.11.109.203.267.211l9.404.616h.024zm-13.404 58c.145 0 .277-.1.301-.233l5.404-33.453c.024-.156-.085-.289-.253-.311-.169-.022-.313.078-.337.233l-5.404 33.453c-.024.156.085.289.253.311h.036zm24.595-14c.024 0 .047 0 .071-.011l26.208-6.055a.275.275 0 00.212-.192l7.613-24.714a.28.28 0 00-.071-.271l-18.606-18.671a.317.317 0 00-.284-.079l-26.196 6.066a.275.275 0 00-.212.192l-7.613 24.714a.28.28 0 00.071.271l18.594 18.648c.06.068.13.102.213.102zm25.971-6.585l-25.876 5.986-18.358-18.422 7.518-24.398 25.876-5.987 18.358 18.423-7.518 24.398z" fill="#000"/><path d="M153.705 312a.25.25 0 00.132-.034.284.284 0 00.132-.387l-15.398-28.425c-.072-.136-.264-.193-.408-.125a.284.284 0 00-.132.387l15.398 28.425c.06.102.168.159.276.159z" fill="#000"/><path d="M138.295 283c.023 0 .059 0 .082-.011l20.411-5.47c.153-.042.247-.191.2-.328-.047-.138-.212-.222-.365-.18l-20.411 5.471c-.153.042-.247.19-.2.328a.31.31 0 00.283.19z" fill="#000"/><path d="M137.296 284a.296.296 0 00.267-.147l19.395-31.43c.085-.136.037-.305-.109-.384a.31.31 0 00-.412.102l-19.395 31.43c-.085.135-.037.305.109.384a.242.242 0 00.145.045zm71.431 9c.1 0 .2-.059.245-.166a.322.322 0 00-.122-.402l-4.444-2.402c-.133-.071-.3-.012-.378.13a.324.324 0 00.122.403l4.444 2.402a.287.287 0 00.133.035z" fill="#000"/><path opacity=".21" d="M158.999 162l-8.456-8.738c-.185-.921-.358-1.83-.543-2.751 1.476-1.84 2.942-3.681 4.418-5.511 4.191 3.172 8.381 6.343 12.582 9.504-.749 2.495-1.498 4.99-2.258 7.496h-5.743z" fill="#fff"/><path d="M169.032 187.812c-1.189 2.869-2.368 5.727-3.558 8.596-2.195.201-4.39.391-6.585.592-2.714-.335-5.428-.681-8.153-1.016-.714-.469-1.416-.938-2.13-1.407-.865-3.07-1.741-6.128-2.606-9.198.908-4.053 2.444-5.515 3.731-6.085 2.162-.96 3.427.715 8.045.949 4.26.224 5.276-1.094 7.85-.234 2.487.826 4.195 2.936 5.374 5.102-.66.904-1.319 1.797-1.968 2.701z" fill="#484848"/><path d="M154.702 171l-.702-.726.306-.274.694.726-.298.274zm-1.119.188L153 172l.804.595.583-.812-.804-.595zm-1.15.911L152 173l1.793.887.433-.902-1.793-.886z" fill="#45594F"/><path d="M155.712 174l-1.712-.571.288-.429 1.712.571-.288.429zm2.342-1l-.054-.781.946-.219.054.781-.946.219zm-.976 1l-.078-.862.922-.138.078.845-.922.155zm2.439-.856L159 174l.849.528.517-.856-.849-.528zm.983-2.01l-.5.866.86.511.5-.866-.86-.511zm-4.446-1.133L156 171l.999.055.054-.999-.999-.055zm7.547.8L162 172l.59.807 1.601-1.199-.59-.807zm1.384 1.024L164 172l.169.986.984-.175-.168-.986zM165.1 174l-.1-.653.908-.347.092.64-.9.36zm.12.025L165 175l.974.227.22-.976-.974-.226zm-2.174.975l-.046-.926.954-.074.046.926-.954.074z" fill="#45594F"/><path d="M162.859 172.487L162 173l.502.865.858-.512-.501-.866z" fill="#45594F"/><path d="M166.797 179.781a7.904 7.904 0 01-2.803 4.451 6.733 6.733 0 01-1.054.718 7.113 7.113 0 01-1.469.639c-.246.09-.493.157-.739.202a6.23 6.23 0 01-1.435.19c-.191.023-.37.023-.561.012a8.092 8.092 0 01-1.525-.202l-.067-.011c-.179-.045-.359-.09-.516-.146a7.608 7.608 0 01-1.076-.404 7.681 7.681 0 01-1.794-1.188 6.171 6.171 0 01-.762-.763 7.998 7.998 0 01-1.794-7.064 7.91 7.91 0 014.675-5.562 5.002 5.002 0 011.155-.392c.202-.067.392-.101.583-.135.213-.033.426-.067.639-.078.314-.034.628-.056.942-.045.179.011.358.011.527.045.201 0 .403.022.605.078.146.011.303.045.46.079.044.011.067.011.112.033.459.101.908.247 1.323.449.235.101.459.213.684.325.482.269.919.583 1.322.931.326.28.639.594.897.93a7.955 7.955 0 011.671 6.908z" fill="#92B69A"/><path d="M152.913 176.391c-.847 3.36.036 6.185.628 7.586l-.06.023a6.441 6.441 0 01-.822-.775c-.544-1.617-1.004-4.112-.303-6.948.665-2.62 2.08-4.568 3.398-5.878A5.643 5.643 0 01157 170c-1.439 1.207-3.313 3.315-4.087 6.391z" fill="#45594F"/><path d="M155.941 184.889l-.488.111c-.733-3.753-.573-7.605.456-11.159a23.607 23.607 0 011.486-3.764c.202-.033.403-.066.605-.077a22.719 22.719 0 00-1.603 3.996c-1.019 3.465-1.167 7.229-.456 10.893zm.563 1.111a5.111 5.111 0 01-.504-.148 782.844 782.844 0 011.664-10.878c.274-1.67.548-3.327.821-4.974.176.011.351.011.515.045a339.45 339.45 0 00-.832 5.008A832.09 832.09 0 00156.504 186zm3.089-.019a3.454 3.454 0 01-.593.012c1.519-3.07 2.338-6.309 2.433-9.661a22.471 22.471 0 00-.748-6.332c.155.011.321.045.487.079.047.011.071.011.119.034.534 2.043.759 4.142.7 6.23-.083 3.341-.89 6.58-2.398 9.638z" fill="#45594F"/><path d="M161.712 184.8a4.216 4.216 0 01-.712.2c1.144-1.924 2.471-5.004 2.493-8.929 0-2.068-.346-4.114-1.069-6.071.227.1.443.211.659.322.615 1.857.928 3.792.917 5.76a18.125 18.125 0 01-2.288 8.718z" fill="#45594F"/><path d="M164.094 184.283c-.337.269-.71.515-1.094.717 1.06-1.534 2.235-3.841 2.422-6.819a13.222 13.222 0 00-1.095-6.181c.338.269.664.582.943.918.489 1.445.839 3.247.699 5.285a13.79 13.79 0 01-1.875 6.08zm-12.643-11.175L151 174l.887.462.451-.893-.887-.461zm.476 3.892l-1.927-.359.083-.641 1.917.359-.073.641zm-1.708.024L150 178l1.948.454.218-.976-1.947-.454zm4.78-2.078L154 175l.055.998.998-.054-.054-.998zm2.908 1.054l-1.907-.279.079-.721 1.921.265-.093.735zm-3.299.206L154 177l.785.62.608-.794-.785-.62z" fill="#45594F"/><path d="M150.978 179l-1.978-.107.022-.893 1.978.107-.022.893zm.053 0l-.031 1 1.999.062.031-.999-1.999-.063zm2.968 1.954L152 181l.024 1 1.999-.047-.024-.999zm-.246-3.612L153 178l.648.762.752-.659-.647-.761zM156.72 179l-.72-.667.28-.333.72.675-.28.325zm.088 2l-1.808-.557.192-.443 1.808.557-.192.443zm2.815-.782L159 181l.773.634.624-.782-.774-.634zm.363-2.385L159 178l.161.987.986-.167-.161-.987zm-1.185-1.432L158 177l.588.809.801-.599-.588-.809zm.476.599l-.277-.596 2.71-1.404.29.596-2.723 1.404zm3.339 0l-.616-.57.384-.43.616.57-.384.43zm1.426-.999L164 177l.999.045.042-.999-.999-.045zm.883 1.619L164 178l.371.929.925-.38-.371-.929zm-3.706.404L161 179l.974.225.22-.975-.975-.226zm.407 2.197L161 181l.771.637.626-.779-.771-.637zm1.892-1.076L163 180l1.697 1.058.518-.855-1.697-1.058zm-.575 3.521L162 183l.325.946.942-.334-.324-.946zm.943-1.13L163 182l.454.891.885-.464-.453-.891zm-3.696.482L160 183l.98.197.19-.982-.98-.197zm-.653.982l-.537-.314.475-.686.525.314-.463.686zm-1.977-.829L157 183l.821.571.56-.829-.821-.571zm-1.151-.366L156 182l.421.907.409-.195-.421-.907zM158.29 180l-.29-.435.7-.565.3.435-.71.565zm1.776 0l-.066-.907.42-.093.055.926-.409.074z" fill="#45594F"/><path d="M157.659 176.248L157 177l.743.67.659-.753-.743-.669z" fill="#45594F"/><path d="M160.866 167.725c-.276 1.374-.884 2.39-1.364 2.264-.479-.125-.645-1.341-.368-2.714.276-1.374.884-2.39 1.364-2.264.479.125.645 1.341.368 2.714zm1.859.917c-.381 1.38-.996 2.428-1.406 2.354-.41-.074-.425-1.257-.044-2.638.381-1.38.996-2.428 1.406-2.354.41.074.425 1.257.044 2.638z" fill="#8AAAC7"/><path d="M159.64 166.595c-.074 1.6.295 2.214-.025 2.373-.554.254-2.733-1.049-2.61-2.627.123-1.536 2.364-2.595 2.881-2.288.333.18-.16.826-.246 2.542zm3.966 1.883c-.889 1.385-3.174 1.792-3.553 1.354-.261-.291.45-.812 1.93-3.332.675-1.146.805-1.51 1.054-1.5.58.042 1.492 2.041.569 3.478z" fill="#B692B2"/><path d="M159.977 170.755c-.185.416-1.409.297-2.303-.32-1.357-.951-1.923-3.053-1.573-3.386.288-.261 1.223.57 1.994 1.259.494.44 2.118 1.901 1.882 2.447zm3.998-2.714c.221.269-1.064 1.722-2.728 1.928-.474.063-1.201.036-1.243-.134-.032-.09.137-.198.505-.413.79-.466 1.191-.69 1.686-.888.895-.349 1.654-.645 1.78-.493z" fill="#B692B2"/><path opacity=".54" d="M158.011 188.14c.595.1 1.189.189 1.795.29-.217 2.853-.446 5.706-.663 8.57-2.823-.345-5.634-.68-8.457-1.025-.892-2.887-1.795-5.785-2.686-8.671 1.029-11.435 2.069-22.869 3.097-34.304l8.903 8.782c-.663 8.771-1.326 17.565-1.989 26.358z" fill="#fff"/><path opacity=".54" d="M164.641 196.413c-2.152.199-4.303.388-6.454.587.233-2.835.456-5.669.689-8.515a99.75 99.75 0 01-1.876-.277c.731-8.736 1.452-17.472 2.183-26.208h5.309c1.166 8.625 2.342 17.262 3.508 25.887a1578.372 1578.372 0 01-3.359 8.526zm-14.855.587l-2.413-1.248c-.795-3.105-1.579-6.197-2.373-9.302.794-9.829 1.578-19.648 2.373-29.478l2.199-5.972.428 3.127-2.413 34.325c.733 2.846 1.466 5.703 2.199 8.548z" fill="#fff"/><path d="M165.252 163h-5.926a.311.311 0 01-.2-.08l-8.646-8.966a.306.306 0 01-.078-.159l-.399-3.061a.257.257 0 01.066-.216l4.418-5.416a.27.27 0 01.377-.046l13.019 9.592c.1.068.144.205.1.319l-2.464 7.851a.295.295 0 01-.267.182zm-5.804-.569h5.605l2.342-7.464-12.642-9.308-4.173 5.121.366 2.844 8.502 8.807zM145.256 186c-.163-.011-.266-.145-.255-.301l2.076-28.994c0-.034.01-.056.021-.079l2.403-6.45a.254.254 0 01.338-.156c.133.055.194.223.143.368l-2.393 6.406-2.077 28.949c-.01.145-.123.257-.256.257z" fill="#484848"/><path d="M158.921 189l-11.431-1.18a.374.374 0 01-.155-.069l-2.235-1.989a.291.291 0 01-.033-.405.259.259 0 01.385-.035l2.17 1.932 11.288 1.168 9.669-.625 1.927-2.683a.27.27 0 01.385-.058.302.302 0 01.055.405l-2.004 2.787a.276.276 0 01-.198.116l-9.823.636z" fill="#484848"/><path d="M147.742 196a.259.259 0 01-.247-.206l-2.484-9.427c-.042-.149.041-.309.175-.355.134-.046.278.046.319.194l2.484 9.428c.042.149-.041.309-.175.355-.021.011-.051.011-.072.011zm2.995 0a.26.26 0 01-.253-.196l-2.473-8.456a.277.277 0 01.179-.337c.147-.043.284.044.326.185l2.473 8.456a.276.276 0 01-.179.337c-.021.011-.052.011-.073.011zm7.495 2c-.148-.011-.241-.143-.231-.297l.536-8.448c.009-.154.12-.274.25-.252.129.011.222.142.212.296l-.536 8.448c-.009.143-.111.253-.231.253zm7.035-1a.352.352 0 01-.105-.022.269.269 0 01-.137-.362l3.466-8.448a.25.25 0 01.347-.142.269.269 0 01.137.362l-3.466 8.447a.25.25 0 01-.242.165z" fill="#484848"/><path d="M158.842 198l-8.266-1.032c-.033 0-.078-.022-.111-.034l-2.33-1.413a.266.266 0 01-.089-.381.271.271 0 01.377-.101l2.275 1.379 8.156 1.021 6.846-.606a.276.276 0 01.299.258.278.278 0 01-.255.303l-6.902.606zm-10.53-10c-.199-.011-.324-.145-.311-.302l3.375-34.44c.013-.157.175-.268.337-.257.174.011.299.145.286.302l-3.375 34.44c-.013.145-.15.257-.312.257zm8.912 1c-.143-.011-.232-.145-.223-.302l1.552-26.438c.009-.157.098-.28.241-.257.125.011.214.145.205.301l-1.552 26.439c-.009.145-.107.257-.223.257zm11.529 0c-.123 0-.235-.102-.255-.238l-3.495-26.442c-.021-.159.071-.294.214-.317.132-.023.265.09.285.238l3.495 26.442c.021.159-.071.294-.214.317h-.03zm1.963-3a.282.282 0 01-.283-.248l-3.432-31.435a.289.289 0 01.249-.316c.17-.011.295.09.317.248l3.432 31.435a.29.29 0 01-.249.316h-.034z" fill="#484848"/><path d="M244 198H36v13h208v-13z" fill="#C7B28A"/><path d="M67 204H50v176h17V204zm165 0h-17v176h17V204z" fill="#C7B28A"/><path d="M222 312H56v8h166v-8z" fill="#C7B28A"/><path d="M40 355.358c-.15.307-2.597 5.778-8.39 6.545-4.744.665-8.09-2.301-8.54-2.761-3.346-8.948-21.125-57.424-8.74-65.964.5-.358 1.748-1.227 3.446-1.176 11.936.307 19.477 44.794 22.224 63.356z" fill="#45594F"/><path d="M29.863 362c-4.264 0-7.258-2.334-8.172-3.146a1.818 1.818 0 01-.355-.507c-6.65-17.353-20.813-58.656-8.427-66.977a7.126 7.126 0 014.213-1.37c9.391.203 17.462 21.717 23.858 63.932.05.254 0 .508-.101.711-.102.253-2.894 6.342-9.543 7.256-.457.05-.965.101-1.473.101zm-6.243-4.871c.913.761 3.705 2.74 7.462 2.233 4.517-.609 6.802-4.313 7.36-5.48-5.939-38.867-13.706-61.193-21.32-61.396-1.269 0-2.284.609-2.74.914-8.833 6.038-1.016 36.837 9.238 63.729z" fill="#92B69A"/><path d="M31.727 363c-.547 0-1.093-.408-1.193-.969l-15.503-69.469c-.149-.663.249-1.377.944-1.53a1.243 1.243 0 011.49.969L32.97 361.47c.149.663-.249 1.377-.944 1.53h-.298zM12.76 302c-.098 0-.194 0-.291-.049l-5.567-1.519a1.288 1.288 0 01-.872-1.519 1.269 1.269 0 011.501-.882l5.567 1.519c.63.196 1.017.833.871 1.519-.193.539-.677.931-1.21.931zm.904 3c-.106 0-5.435-.326-5.435-.326a1.323 1.323 0 01-1.225-1.412c.053-.76.64-1.358 1.385-1.249l5.382.326a1.323 1.323 0 011.225 1.412c-.053.652-.64 1.249-1.332 1.249z" fill="#92B69A"/><path d="M15.824 299c-.288 0-.624-.096-.864-.335l-3.6-3.633c-.48-.478-.48-1.243 0-1.673.48-.479 1.248-.479 1.68 0l3.6 3.633c.48.478.48 1.243 0 1.673-.24.239-.528.335-.816.335zm6.444-1c-.151 0-.252 0-.404-.052-.656-.209-1.01-.992-.807-1.67l1.463-4.384c.202-.679.96-1.044 1.616-.835.656.208 1.01.991.807 1.67l-1.463 4.384c-.152.574-.657.887-1.212.887zm-.003 4c-.451 0-.853-.255-1.104-.662-.352-.611-.1-1.375.502-1.731l4.469-2.444c.603-.357 1.356-.102 1.707.509.352.611.1 1.375-.502 1.731l-4.469 2.444a1.32 1.32 0 01-.603.153zm1.905 3c-.416 0-.877-.223-1.061-.668-.277-.579 0-1.203.553-1.47l1.707-.757c.6-.267 1.246 0 1.522.534.277.579 0 1.203-.553 1.47l-1.707.757c-.138.134-.323.134-.461.134zm-9.268 7c-.18 0-.316-.044-.496-.089l-1.759-.8c-.54-.266-.811-.933-.54-1.466.27-.578.946-.8 1.487-.533l1.759.8c.54.266.811.933.54 1.466-.18.355-.585.622-.991.622z" fill="#92B69A"/><path d="M10.803 312c-.19 0-2.795-.455-2.795-.455-.663-.102-1.09-.76-.995-1.468.095-.709.71-1.164 1.374-1.063l2.605.456c.663.101 1.09.759.995 1.467-.095.608-.616 1.063-1.184 1.063zm4.861-3c-.211 0-3.54-.506-3.54-.506-.74-.101-1.215-.759-1.11-1.417.106-.709.793-1.164 1.48-1.063l3.382.456c.74.101 1.215.759 1.11 1.417A1.337 1.337 0 0115.663 309zm.999-3c-.597 0-1.14-.379-1.303-1.028l-.326-1.298c-.163-.703.272-1.46.977-1.622.706-.216 1.466.27 1.629.973l.326 1.298c.163.703-.272 1.461-.977 1.623-.109.054-.218.054-.326.054zm.125 15c-.249 0-7.776-1.508-7.776-1.508a1.28 1.28 0 01-.997-1.458c.15-.703.748-1.156 1.446-1.005l7.527 1.508a1.28 1.28 0 01.997 1.458c-.1.603-.648 1.005-1.197 1.005zm-3.034-4c-.195 0-5.751-1.15-5.751-1.15-.682-.115-1.121-.862-.975-1.667.098-.805.731-1.322 1.413-1.15l5.556 1.15c.683.115 1.121.862.975 1.667-.098.633-.634 1.15-1.218 1.15z" fill="#92B69A"/><path d="M16.826 317c-.292 0-.583-.102-.826-.307l-1.603-1.484c-.486-.461-.534-1.279-.097-1.791a1.175 1.175 0 011.7-.102l1.603 1.484c.486.46.534 1.279.097 1.791-.194.255-.534.409-.874.409zm6.391-4c-.237 0-.521-.108-.758-.27a1.436 1.436 0 01-.19-1.888l1.612-2.32c.427-.594 1.139-.702 1.66-.216.522.485.617 1.295.19 1.888l-1.612 2.32c-.238.324-.57.486-.902.486zm2.12 3c-.424 0-.849-.181-1.114-.496-.424-.542-.212-1.219.372-1.58l1.325-.722c.584-.362 1.432-.226 1.857.315.424.542.212 1.219-.372 1.58l-1.325.722c-.213.091-.478.181-.743.181z" fill="#92B69A"/><path d="M27.199 310c-.292 0-.584-.094-.828-.329a1.15 1.15 0 01-.048-1.645l3.602-3.667a1.252 1.252 0 011.704-.047 1.15 1.15 0 01.048 1.645l-3.602 3.667c-.243.282-.535.376-.876.376zm4.001 5c-.377 0-.754-.215-.99-.591-.377-.591-.235-1.45.33-1.88l1.601-1.289c.518-.43 1.272-.269 1.649.376.377.591.235 1.45-.33 1.88l-1.601 1.289c-.189.161-.424.215-.66.215zm-2.875 4c-.582 0-1.111-.325-1.27-.837-.212-.604.211-1.255.9-1.441l6.35-1.674c.688-.186 1.428.186 1.64.79.212.605-.211 1.256-.9 1.442l-6.35 1.674c-.106.046-.264.046-.37.046zm4.475 6c-.096 0-5.696-.5-5.696-.5-.67-.05-1.149-.65-1.1-1.35.047-.7.621-1.15 1.292-1.15l5.6.5c.67.05 1.149.65 1.1 1.35-.095.65-.574 1.15-1.196 1.15zm-22.576 4c-.538 0-1.027-.318-1.173-.818-.196-.591.195-1.227.83-1.408l6.553-1.727c.684-.182 1.32.182 1.515.772.196.591-.195 1.227-.83 1.409l-6.553 1.727c-.146.045-.244.045-.342.045z" fill="#92B69A"/><path d="M16.656 325c-.21 0-2.575-.417-2.575-.417a1.24 1.24 0 01-1.05-1.511c.104-.729.787-1.198 1.523-1.042l2.365.417a1.24 1.24 0 011.05 1.511c-.104.625-.682 1.042-1.313 1.042z" fill="#92B69A"/><path d="M18.329 325c-.215 0-.43-.053-.644-.158a1.355 1.355 0 01-.537-1.794l1.342-2.375c.376-.633 1.181-.844 1.825-.528.644.37.86 1.161.537 1.795l-1.342 2.374c-.215.422-.698.686-1.181.686zm-8.202-1c-.503 0-.96-.32-1.098-.869-.137-.594.229-1.234.824-1.371l2.745-.731c.641-.137 1.236.228 1.373.823.137.594-.229 1.234-.823 1.371l-2.746.731c-.092.046-.183.046-.275.046zm15.263-3c-.61 0-1.166-.344-1.332-.885-.223-.639.221-1.327.943-1.523l2.22-.541c.722-.197 1.5.196 1.721.835.223.639-.221 1.328-.943 1.524l-2.22.541c-.112.049-.223.049-.39.049zm-12.215 16c-.475 0-.902-.338-1.092-.901-.237-.733.048-1.521.665-1.803l4.65-2.197c.617-.282 1.282.056 1.519.789.237.732-.048 1.521-.665 1.802l-4.65 2.197c-.143.113-.285.113-.427.113zm-.977-5c-.57 0-1.091-.456-1.186-1.114a1.244 1.244 0 011.043-1.417l3.605-.456c.616-.101 1.233.405 1.328 1.114a1.244 1.244 0 01-1.043 1.417L12.34 332h-.142zm7.571-1c-.096 0-.192 0-.289-.05l-1.585-.453c-.625-.151-1.009-.855-.865-1.56.144-.654.817-1.056 1.49-.905l1.585.452c.625.151 1.009.856.865 1.56-.192.604-.673.956-1.201.956zm9.901-1a1.37 1.37 0 01-.804-.29l-1.338-1.104c-.589-.465-.696-1.394-.268-2.033a1.283 1.283 0 011.874-.29l1.338 1.103c.589.465.696 1.394.267 2.033-.267.349-.695.581-1.07.581zm-1.75 3c-.354 0-.751-.196-.928-.589l-.838-1.571c-.31-.589-.133-1.325.353-1.669.53-.344 1.192-.147 1.5.393l.84 1.571c.308.589.132 1.325-.354 1.669a.904.904 0 01-.574.196zm5.35-3c-.501 0-.952-.295-1.153-.738-.3-.639 0-1.328.652-1.623l3.46-1.524c.651-.295 1.353 0 1.654.639.3.639 0 1.328-.652 1.623l-3.46 1.525c-.15.098-.3.098-.5.098zm.03 3c-.571 0-1.09-.35-1.246-.9-.208-.649.207-1.349.882-1.549l5.4-1.499c.676-.2 1.403.2 1.61.849.208.65-.207 1.35-.883 1.55l-5.4 1.449c-.155.1-.26.1-.363.1zm3.533 4c-.094 0-.187 0-.28-.047l-2.666-.657c-.608-.14-1.03-.797-.842-1.407.14-.61.795-1.032 1.403-.844l2.665.657c.608.14 1.03.797.842 1.407-.14.516-.608.891-1.122.891zm-5.943 0a.944.944 0 01-.823-.489l-.822-1.303c-.39-.597-.303-1.466.173-1.9.476-.489 1.125-.38 1.515.217l.822 1.303c.39.597.303 1.466-.173 1.901-.217.162-.476.271-.693.271zm-9.524 0a1.85 1.85 0 01-.497-.093c-.717-.232-1.048-.881-.772-1.485l1.269-2.691c.275-.603 1.103-.882 1.765-.65.717.232 1.048.882.772 1.485l-1.269 2.692c-.22.464-.717.742-1.268.742zm-2.74 2c-.107 0-.215 0-.268-.05l-2.306-.453c-.75-.151-1.18-.805-1.018-1.51.16-.704.857-1.106 1.608-.955l2.306.452c.75.151 1.18.805 1.018 1.51-.16.604-.75 1.006-1.34 1.006zm-1.956 4c-.106 0-3.447-.272-3.447-.272-.742-.055-1.272-.709-1.22-1.471a1.329 1.329 0 011.433-1.253l3.34.272c.743.055 1.273.708 1.22 1.471A1.344 1.344 0 0116.671 343zm-.462 4c-.343 0-.734-.149-.93-.448-.441-.547-.343-1.294.195-1.742l5.535-4.528a1.176 1.176 0 011.714.199c.441.547.343 1.294-.196 1.742l-5.534 4.528c-.245.199-.49.249-.784.249z" fill="#92B69A"/><path d="M18.214 341c-.68 0-1.214-.647-1.214-1.471 0-.823.534-1.47 1.214-1.47l2.572-.059c.583.118 1.214.647 1.214 1.471 0 .823-.534 1.47-1.214 1.47l-2.572.059zm15.561 5c-.24 0-.48-.049-.671-.195l-3.6-2.585a1.247 1.247 0 01-.287-1.707c.384-.536 1.152-.683 1.68-.293l3.598 2.537c.528.39.672 1.121.288 1.707-.24.341-.624.536-1.008.536zm3.92-3c-.207 0-4.596-.616-4.596-.616-.723-.095-1.188-.711-1.085-1.375.104-.664.775-1.091 1.498-.996l4.39.616c.722.095 1.187.712 1.084 1.375-.104.569-.672.996-1.291.996zm-16.399 8c-.261 0-.523-.051-.732-.204a1.326 1.326 0 01-.367-1.783l2.408-3.465c.418-.56 1.203-.713 1.831-.356.576.407.733 1.172.367 1.783l-2.408 3.465c-.261.356-.68.56-1.099.56zm-2.113 3c-.613 0-1.133-.536-1.18-1.232-.047-.75.425-1.393 1.086-1.447l3.634-.321c.613 0 1.227.482 1.274 1.232.047.75-.425 1.393-1.086 1.447l-3.634.321h-.094zm13.045-3a1.21 1.21 0 01-1.178-.889c-.196-.641.197-1.332.884-1.53l5.494-1.53c.638-.198 1.325.197 1.522.888.196.642-.197 1.333-.884 1.531L32.571 351c-.147-.049-.245 0-.343 0zm3.592 3c-.046 0-2.688-.17-2.688-.17-.66-.056-1.132-.735-1.132-1.47.047-.791.613-1.413 1.226-1.356l2.642.169c.66.057 1.132.735 1.132 1.47-.047.792-.566 1.357-1.18 1.357z" fill="#92B69A"/><path d="M51.995 345.834c-.197.355-3.89 5.938-9.602 5.076-4.677-.711-7.139-5.178-7.533-5.838-1.034-11.471-6.351-73.397 7.533-79.539.591-.254 1.97-.863 3.545-.305 11.423 4.01 7.928 58.119 6.057 80.606z" fill="#45594F"/><path d="M44.05 353a12.2 12.2 0 01-1.36-.102c-5.09-.765-7.862-5.152-8.618-6.529a.869.869 0 01-.151-.51c-2.067-22.393-5.443-75.187 8.466-81.206.655-.306 2.47-1.071 4.536-.357 8.92 3.111 11.288 30.758 7.005 82.328 0 .204-.101.408-.202.612-.201.255-3.83 5.764-9.676 5.764zm-7.66-7.6c.655 1.122 2.923 4.437 6.652 4.999 4.486.663 7.66-3.214 8.416-4.285 5.594-67.995-1.864-78.146-5.342-79.319-1.159-.408-2.217.051-2.721.255-10.13 4.387-10.28 43.307-7.005 78.35z" fill="#92B69A"/><path d="M42.136 353c-.636 0-1.136-.613-1.136-1.328l1.727-86.446c0-.715.5-1.226 1.137-1.226.636 0 1.136.613 1.136 1.328l-1.727 86.446c-.046.715-.546 1.226-1.137 1.226zm-2.435-77c-.262 0-.524-.05-.734-.199l-5.402-3.527a1.273 1.273 0 01-.367-1.739c.42-.547 1.206-.696 1.835-.348l5.402 3.528a1.27 1.27 0 01.367 1.738 1.392 1.392 0 01-1.1.547zm-.891 3c-.145 0-.29-.046-.434-.091l-4.618-1.732c-.626-.228-.914-.912-.674-1.459.24-.592.914-.866 1.54-.638l4.618 1.732c.626.228.914.912.674 1.459a1.186 1.186 0 01-1.107.729z" fill="#92B69A"/><path d="M42.81 273c-.437 0-.873-.249-1.116-.698l-2.572-5.532a1.228 1.228 0 01.583-1.644c.63-.299 1.31-.05 1.6.598l2.573 5.532a1.228 1.228 0 01-.583 1.644c-.097.05-.29.1-.485.1zm6.458 1c-.202 0-.403-.05-.604-.15-.604-.349-.855-1.098-.503-1.697l2.465-4.494c.352-.599 1.106-.849 1.71-.499.604.349.855 1.098.503 1.697l-2.465 4.494c-.201.399-.654.649-1.106.649zm-.922 5c-.59 0-1.125-.35-1.286-.9-.215-.649.16-1.349.911-1.549l5.307-1.499c.697-.2 1.448.2 1.662.849.215.65-.16 1.35-.911 1.55l-5.307 1.499c-.108 0-.268.05-.376.05zm1.017 5c-.665 0-1.22-.403-1.33-1.007-.167-.705.332-1.36 1.053-1.511l2.218-.453c.776-.151 1.497.302 1.664.957.166.705-.333 1.359-1.054 1.51l-2.218.454c-.166.05-.222.05-.333.05zm-9.543 5c-.29 0-.627-.097-.868-.339l-1.59-1.6c-.483-.485-.483-1.261 0-1.697.481-.485 1.252-.485 1.686 0l1.59 1.6c.483.484.483 1.26 0 1.697a1.159 1.159 0 01-.819.339zm-5.063-2c-.197 0-.394-.051-.591-.153l-2.515-1.433c-.592-.307-.838-1.125-.493-1.739.345-.614 1.085-.869 1.676-.511l2.515 1.381c.592.358.838 1.125.493 1.739-.246.46-.69.716-1.085.716zm5.073-2a.874.874 0 01-.505-.149l-2.704-1.49c-.55-.298-.78-1.043-.505-1.688a1.135 1.135 0 011.559-.547l2.704 1.49c.55.298.78 1.043.505 1.689-.23.447-.642.695-1.055.695zm1.67-4c-.84 0-1.5-.55-1.5-1.25v-1.5c0-.7.66-1.25 1.5-1.25s1.5.55 1.5 1.25v1.5c0 .65-.72 1.25-1.5 1.25zm-2.665 19c-.19 0-.428-.054-.62-.161l-6.622-4.347c-.572-.375-.762-1.18-.429-1.824.334-.644 1.048-.859 1.62-.483l6.623 4.347c.572.375.762 1.18.429 1.824-.19.376-.572.644-1 .644zm-2.124-7a1.47 1.47 0 01-.614-.139l-5.422-2.691c-.614-.325-.87-1.021-.511-1.578.358-.557 1.125-.742 1.739-.464l5.422 2.691c.614.325.87 1.021.511 1.578a1.362 1.362 0 01-1.125.603z" fill="#92B69A"/><path d="M39.663 295c-.477 0-.902-.263-1.167-.683l-1.326-2.363c-.372-.63-.106-1.418.53-1.786.637-.368 1.433-.105 1.804.525l1.326 2.364c.372.63.106 1.418-.53 1.785a1.426 1.426 0 01-.637.158zm7.641-2c-.373 0-.692-.168-.957-.447-.479-.558-.479-1.452.106-1.955l2.34-2.234c.531-.503 1.382-.503 1.86.112.479.558.479 1.452-.106 1.955l-2.34 2.234a1.403 1.403 0 01-.903.335zm.957 3a1.29 1.29 0 01-1.172-.729c-.254-.631.051-1.311.714-1.603l1.426-.583a1.338 1.338 0 011.682.68c.254.632-.051 1.312-.714 1.603l-1.426.583c-.204 0-.357.049-.51.049z" fill="#92B69A"/><path d="M52.237 290c-.398 0-.746-.151-.995-.505-.398-.555-.298-1.363.249-1.766l4.526-3.483c.547-.404 1.343-.303 1.741.252.398.555.298 1.363-.249 1.767l-4.526 3.483c-.249.151-.497.252-.746.252zm2.176 6c-.558 0-1.06-.269-1.283-.673-.334-.582 0-1.21.725-1.479l2.175-.762c.725-.225 1.505 0 1.84.582.334.583 0 1.211-.725 1.48l-2.175.762c-.167.045-.39.09-.557.09zm-4.125 5c-.668 0-1.233-.534-1.285-1.281-.051-.747.514-1.334 1.234-1.387l6.424-.32c.72-.107 1.284.533 1.336 1.28.051.747-.514 1.334-1.234 1.388l-6.424.32h-.051zm3.458 8a1.69 1.69 0 01-.495-.103l-5.492-2.414c-.644-.257-.94-1.027-.644-1.695.248-.668.99-.976 1.633-.668l5.493 2.414c.643.257.94 1.028.644 1.695a1.249 1.249 0 01-1.139.771zm-23.423-1c-.688 0-1.323-.6-1.323-1.309 0-.764.53-1.364 1.27-1.418l7.354-.273c.741 0 1.323.6 1.376 1.309 0 .764-.53 1.364-1.27 1.418l-7.407.273c.053 0 .053 0 0 0zm7.259-4c-.216 0-.433-.055-.65-.165l-2.218-1.264c-.65-.385-.92-1.21-.54-1.87a1.39 1.39 0 011.839-.549l2.273 1.264c.65.385.92 1.21.54 1.869-.27.44-.757.715-1.244.715z" fill="#92B69A"/><path d="M39.143 304c-.232 0-.51-.106-.695-.264a1.41 1.41 0 01-.185-1.849l1.668-2.376c.416-.581 1.111-.687 1.621-.212a1.41 1.41 0 01.185 1.849l-1.668 2.377c-.278.264-.602.475-.926.475zm-4.483-3h-3.32c-.75 0-1.34-.66-1.34-1.5s.59-1.5 1.34-1.5h3.32c.75 0 1.34.66 1.34 1.5 0 .78-.643 1.5-1.34 1.5zm12.699 2c-.761 0-1.359-.647-1.359-1.412 0-.823.598-1.47 1.304-1.529l2.283-.059c.76.118 1.359.647 1.413 1.412 0 .823-.598 1.47-1.304 1.529l-2.337.059c.054 0 0 0 0 0zm-16.051 13c-.62 0-1.19-.407-1.294-.951-.103-.633.363-1.176 1.087-1.312l5.384-.724c.724-.091 1.345.316 1.5.95.104.634-.362 1.177-1.086 1.313l-5.384.724h-.207zm3.494-4c-.19 0-3.793-.616-3.793-.616-.664-.095-1.09-.711-.996-1.375.095-.664.711-1.091 1.375-.996l3.603.616c.664.095 1.09.712.996 1.375-.142.569-.617.996-1.185.996zm3.944 0c-.249 0-.497-.057-.696-.228l-1.492-1.143a1.596 1.596 0 01-.349-1.999c.398-.686 1.144-.8 1.741-.4l1.492 1.142c.548.457.747 1.314.349 2-.249.4-.647.628-1.045.628zm9.822 1a1.55 1.55 0 01-1.193-.552l-1.136-1.504c-.454-.602-.227-1.354.398-1.755.624-.351 1.533-.201 1.988.351l1.136 1.504c.454.602.227 1.354-.398 1.755-.227.101-.51.201-.795.201zm-1.794 4c-.548 0-1.046-.43-1.195-1.022l-.548-2.313c-.149-.699.25-1.452.897-1.613.647-.216 1.344.269 1.493.968l.548 2.313c.149.699-.25 1.452-.897 1.613-.099.054-.199.054-.298.054zm5.404-2c-.575 0-1.054-.372-1.15-.929-.144-.651.287-1.254.959-1.347l3.595-.697c.623-.14 1.294.279 1.39.929.144.65-.287 1.254-.959 1.347l-3.595.697c-.096-.046-.192 0-.24 0zm.088 4c-.658 0-1.266-.623-1.266-1.358 0-.793.506-1.416 1.215-1.472l5.469-.17c.76 0 1.265.566 1.316 1.358 0 .793-.506 1.416-1.215 1.472l-5.52.17zm1.497 5c-.243 0-.486-.047-.68-.189l-2.526-1.611c-.583-.378-.729-1.089-.34-1.657.389-.568 1.117-.71 1.7-.332l2.526 1.611c.583.378.729 1.089.34 1.657a1.276 1.276 0 01-1.02.521z" fill="#92B69A"/><path d="M48.765 322c-.482 0-.964-.29-1.108-.775l-.579-1.597c-.24-.63.097-1.307.723-1.549.627-.243 1.301.096 1.542.726l.579 1.597c.24.63-.097 1.308-.723 1.55-.145.048-.29.048-.434.048zm-9.594-1a.914.914 0 01-.598-.215c-.553-.377-.737-1.185-.414-1.831l1.703-3.284c.322-.646 1.013-.861 1.565-.485.553.377.737 1.185.414 1.831l-1.703 3.284c-.184.485-.552.7-.967.7zm-4.298 0a.867.867 0 01-.582-.217l-1.746-1.302c-.538-.38-.717-1.248-.359-1.845.314-.651 1.03-.814 1.523-.434l1.746 1.302c.538.38.717 1.248.359 1.845-.18.38-.538.651-.94.651zm-2.217 4c-.163 0-.326-.053-.543-.106l-3.258-1.32a1.33 1.33 0 01-.76-1.742c.272-.687 1.086-1.003 1.792-.739l3.258 1.32a1.33 1.33 0 01.76 1.742c-.217.581-.706.845-1.249.845zm-1.413 5c-.444 0-.838-.246-1.085-.638-.346-.59-.099-1.326.493-1.67l6.513-3.535c.593-.344 1.333-.098 1.678.491.346.589.099 1.326-.493 1.669l-6.513 3.536a1.32 1.32 0 01-.593.147z" fill="#92B69A"/><path d="M37.774 323c-.098 0-.245 0-.343-.046l-2.547-.692c-.637-.185-1.03-.83-.833-1.43.196-.6.881-.969 1.518-.784l2.547.692c.637.184 1.03.83.833 1.43-.147.507-.636.83-1.175.83zm11.834 11c-.436 0-.872-.208-1.09-.572l-3.272-4.372c-.436-.572-.272-1.405.328-1.821.6-.416 1.472-.26 1.908.312l3.272 4.372c.436.572.272 1.405-.328 1.821-.218.156-.545.26-.818.26z" fill="#92B69A"/><path d="M52.86 332c-.187 0-.373-.055-.559-.164l-3.672-2.239c-.557-.328-.79-1.147-.51-1.857.278-.656.975-.929 1.58-.601l3.672 2.239c.557.328.79 1.147.51 1.857-.185.492-.603.765-1.022.765zm-17.508 4c-.324 0-.648-.103-.919-.362a1.213 1.213 0 01-.054-1.81l3.297-3.413a1.345 1.345 0 011.89-.052c.541.465.595 1.293.055 1.81l-3.296 3.413c-.27.259-.595.414-.973.414zm1.43 3c-.095 0-.142 0-.237-.045l-3.612-.72c-.666-.136-1.046-.721-.903-1.351.142-.631.76-.991 1.425-.856l3.612.721c.666.135 1.046.72.903 1.35-.19.541-.665.901-1.188.901zm9.423 1c-.675 0-1.205-.635-1.205-1.442 0-.808.53-1.443 1.205-1.443l5.59-.115c.675 0 1.205.635 1.205 1.442 0 .808-.53 1.443-1.205 1.443l-5.59.115z" fill="#92B69A"/><path d="M48.792 344c-.146 0-.292-.057-.438-.115l-2.586-1.147c-.634-.286-.926-1.089-.682-1.835.244-.745.926-1.089 1.56-.802l2.586 1.146c.634.287.926 1.09.682 1.835-.146.517-.634.918-1.122.918z" fill="#92B69A"/><path d="M67.033 351.924c-.252.203-4.737 3.308-10.33 1.527-4.586-1.476-6.451-5.09-6.703-5.65.554-8.195 4.032-52.377 18.848-53.752.604-.05 2.066-.203 3.628.509 10.784 5.243-.454 42.146-5.443 57.366z" fill="#45594F"/><path d="M60.278 355c-1.187 0-2.473-.151-3.809-.606-4.748-1.515-6.776-5.15-7.32-6.211a1.422 1.422 0 01-.149-.656c1.138-15.906 5.243-53.121 19.589-54.484.643-.05 2.374-.202 4.204.657 8.261 3.989 6.678 23.631-4.65 58.371a1.372 1.372 0 01-.445.606c-.148.152-3.166 2.323-7.42 2.323zm-8.755-7.675c.544.959 2.226 3.534 5.688 4.645 4.205 1.364 7.668-.454 8.707-1.111 10.338-31.71 12.415-51.706 5.836-54.887-1.187-.556-2.324-.455-2.918-.404-10.091.959-15.532 27.317-17.313 51.757z" fill="#92B69A"/><path d="M57.321 355c-.103 0-.206 0-.31-.051-.671-.153-1.136-.866-.981-1.529l14.41-59.422a1.306 1.306 0 011.549-.968c.671.152 1.136.866.981 1.528l-14.41 59.423c-.154.611-.67 1.019-1.239 1.019zm7.442-54c-.249 0-.547-.1-.746-.25l-4.526-3.504c-.547-.401-.647-1.202-.249-1.752.398-.551 1.194-.651 1.74-.25l4.527 3.503c.547.401.647 1.202.249 1.752-.249.301-.597.501-.995.501zm-1.048 3a.998.998 0 01-.554-.155l-4.48-2.383c-.603-.31-.855-1.087-.553-1.761.302-.621 1.107-.88 1.711-.569l4.48 2.382c.603.311.855 1.088.553 1.761-.252.466-.705.725-1.157.725z" fill="#92B69A"/><path d="M68.81 300c-.463 0-.88-.305-1.064-.762l-1.665-4.472c-.231-.661.046-1.372.647-1.677.602-.254 1.249.051 1.526.712l1.665 4.471c.231.661-.046 1.372-.647 1.677-.14 0-.278.051-.463.051zm6.544 2c-.378 0-.756-.147-1.026-.441-.486-.49-.432-1.273.162-1.714l3.293-2.547a1.405 1.405 0 011.89.147c.485.489.43 1.273-.163 1.714l-3.239 2.547c-.27.196-.594.294-.917.294zm-2.029 4c-.742 0-1.325-.647-1.325-1.471 0-.823.583-1.47 1.325-1.47l5.35-.059c.742 0 1.325.647 1.325 1.471 0 .823-.583 1.47-1.325 1.47l-5.35.059z" fill="#92B69A"/><path d="M75.626 309c-.055 0-2.307-.115-2.307-.115-.77-.058-1.319-.692-1.319-1.498.055-.807.66-1.441 1.429-1.383l2.252.115c.77.057 1.319.691 1.319 1.498-.055.807-.66 1.383-1.374 1.383zm-12.901 1c-.363 0-.673-.151-.932-.402l-1.45-1.507c-.466-.502-.466-1.306.052-1.758.518-.452 1.346-.452 1.812.05l1.45 1.507c.466.503.466 1.306-.052 1.758a1.23 1.23 0 01-.88.352z" fill="#92B69A"/><path d="M58.705 308c-.262 0-.471-.051-.681-.203l-2.41-1.474a1.228 1.228 0 01-.42-1.728c.368-.609 1.206-.762 1.782-.406l2.41 1.474c.629.355.786 1.168.42 1.727-.263.356-.682.61-1.101.61zm5.1-1a.976.976 0 01-.628-.192l-2.61-1.588c-.58-.336-.726-1.106-.387-1.635.338-.577 1.112-.77 1.643-.385l2.61 1.587c.58.337.726 1.107.387 1.636-.193.337-.628.577-1.015.577zm2.557-1c-.11 0-.166 0-.277-.056-.774-.166-1.216-.889-1.05-1.667l.22-1.168c.167-.778.886-1.278 1.66-1.056.774.167 1.216.89 1.05 1.668l-.22 1.167c-.167.667-.72 1.112-1.383 1.112zm-5.636 12c-.257 0-.514-.052-.72-.209l-6.43-4.387c-.565-.418-.771-1.201-.36-1.828.412-.627 1.184-.731 1.8-.366l6.43 4.387c.566.418.72 1.202.36 1.828a1.335 1.335 0 01-1.08.575zm-1.916-5c-.24 0-.433-.054-.674-.215l-4.572-3.276c-.578-.376-.722-1.235-.385-1.88.385-.644 1.107-.805 1.685-.429l4.572 3.276c.578.376.722 1.235.385 1.88-.24.429-.626.644-1.01.644z" fill="#92B69A"/><path d="M61.874 314c-.396 0-.793-.231-.969-.647l-.793-1.664c-.264-.555-.044-1.248.485-1.571.529-.278 1.19-.047 1.498.508l.793 1.664c.264.554.044 1.248-.485 1.571a1.124 1.124 0 01-.529.139zm7.383-1c-.508 0-.965-.262-1.168-.698-.254-.567.05-1.178.71-1.396l2.488-.829c.66-.219 1.37.043 1.624.61.254.568-.05 1.179-.71 1.397l-2.488.829c-.152.087-.304.087-.456.087zm1.01 4c-.657 0-1.213-.576-1.263-1.325-.051-.807.454-1.498 1.162-1.556l1.466-.115c.707-.058 1.314.519 1.364 1.325.051.807-.454 1.498-1.162 1.556l-1.466.115h-.1zm4.909-3c-.517 0-.987-.354-1.127-.911-.188-.658.187-1.366.798-1.569l4.649-1.468c.61-.202 1.268.203 1.455.861.188.658-.188 1.366-.798 1.569l-4.649 1.467c-.14.051-.235.051-.328.051zm1.214 4a1.39 1.39 0 01-1.386-1.276c-.056-.777.499-1.443 1.22-1.498l2.275-.222c.776-.056 1.442.499 1.497 1.22.056.777-.499 1.443-1.22 1.499l-2.275.222c-.055.055-.055.055-.11.055zm2.333 4c-.208 0-6.653-1.229-6.653-1.229-.728-.112-1.196-.839-1.04-1.621.104-.782.78-1.285 1.507-1.118l6.393 1.174c.728.112 1.196.838 1.04 1.62A1.233 1.233 0 0178.723 322zm-5.046 5c-.21 0-.42-.048-.63-.143l-5.354-2.614c-.63-.332-.892-1.045-.525-1.616.367-.57 1.155-.808 1.785-.475l5.354 2.614c.63.333.892 1.046.525 1.616-.262.428-.682.618-1.155.618zm-15.907-4c-.192 0-6.78-1.346-6.78-1.346-.674-.107-1.107-.807-.962-1.561a1.217 1.217 0 011.394-1.077l6.589 1.346c.673.108 1.105.808.961 1.561-.144.593-.673 1.077-1.202 1.077zm1.072-3c-.228 0-.41-.054-.637-.215l-1.683-1.289c-.546-.376-.683-1.236-.319-1.88.319-.645 1.046-.806 1.592-.376l1.683 1.289c.546.376.683 1.236.319 1.88-.228.376-.591.591-.955.591z" fill="#92B69A"/><path d="M60.4 321c-.495 0-.935-.218-1.21-.654a1.336 1.336 0 01.495-1.851l2.255-1.307a1.364 1.364 0 011.87.49c.386.653.166 1.47-.495 1.851l-2.255 1.308c-.165.109-.44.163-.66.163zm-3.74-4c-.109 0-.163 0-.272-.048l-3.32-.619c-.762-.143-1.197-.763-1.034-1.382.163-.667.925-1.096 1.578-.906l3.32.62c.762.143 1.197.762 1.034 1.382-.109.572-.653.953-1.306.953zm13.992 5c-.274 0-2.523-.417-2.523-.417-.768-.156-1.262-.833-1.097-1.511.164-.729.877-1.198 1.59-1.042l2.25.417c.767.156 1.26.834 1.096 1.511-.055.573-.658 1.042-1.316 1.042zm-13.902 6c-.103 0-5.553-.5-5.553-.5-.726-.05-1.245-.7-1.193-1.35.052-.7.726-1.15 1.4-1.15l5.399.5c.726.05 1.245.7 1.193 1.35a1.27 1.27 0 01-1.245 1.15z" fill="#92B69A"/><path d="M54.767 326c-.147 0-.245 0-.393-.054l-3.534-1.295c-.638-.216-.981-1.025-.785-1.727.196-.702.884-1.079 1.57-.863l3.535 1.295c.638.216.981 1.025.785 1.727a1.24 1.24 0 01-1.178.917zm4.937 0c-.26 0-.574-.115-.782-.286l-1.408-1.145c-.573-.458-.677-1.374-.26-2.004a1.24 1.24 0 011.824-.286l1.408 1.145c.573.458.677 1.374.26 2.003-.26.401-.625.573-1.042.573zm9.12 3c-.37 0-.786-.215-.971-.645l-.694-1.343c-.323-.645-.138-1.451.416-1.827.555-.376 1.249-.161 1.572.484l.694 1.343c.323.645.138 1.451-.416 1.827a1.14 1.14 0 01-.601.161zm-3.184 2c-.673 0-1.29-.438-1.401-1.07l-.225-1.556c-.112-.681.449-1.264 1.178-1.362.729-.097 1.457.389 1.57 1.022l.224 1.556c.112.681-.449 1.264-1.178 1.361 0 .049-.112.049-.168.049zm9.197 0c-.097 0-3.722-.277-3.722-.277-.677-.055-1.16-.719-1.112-1.438.049-.774.58-1.383 1.257-1.272l3.625.277c.677.055 1.16.719 1.112 1.438 0 .719-.532 1.272-1.16 1.272zm1.903 4c-.255 0-5.686-1.15-5.686-1.15-.717-.172-1.178-.92-1.024-1.667.102-.805.768-1.322 1.485-1.15l5.43 1.15c.718.172 1.18.92 1.025 1.667-.05.633-.614 1.15-1.23 1.15z" fill="#92B69A"/><path d="M71.701 337c-.26 0-.522-.095-.783-.238l-2.403-1.622a1.137 1.137 0 01-.26-1.669c.417-.525 1.253-.62 1.827-.239l2.403 1.622c.574.381.679 1.144.26 1.669a1.412 1.412 0 01-1.044.477z" fill="#92B69A"/><path d="M66.684 335a1.293 1.293 0 01-1.262-.947l-.368-1.368c-.21-.684.21-1.42.894-1.631.736-.21 1.42.211 1.63.895l.368 1.368c.21.683-.21 1.42-.894 1.63-.105.053-.263.053-.368.053zm-8.338-3c-.367 0-.786-.142-1.049-.425a1.074 1.074 0 01.21-1.654l2.36-1.653a1.372 1.372 0 011.836.189 1.073 1.073 0 01-.21 1.653l-2.36 1.654c-.21.142-.525.236-.787.236zm-3.546 0c-.236 0-.47-.054-.659-.268l-1.646-1.289c-.518-.429-.659-1.234-.282-1.878.376-.591 1.129-.752 1.646-.322l1.646 1.288c.518.429.659 1.234.282 1.879-.282.375-.611.59-.987.59zm-3.995 1c-.19 0-.38-.05-.57-.152l-2.609-1.464c-.57-.303-.806-1.111-.474-1.717.284-.606 1.043-.859 1.613-.505l2.609 1.464c.57.354.806 1.111.474 1.717-.237.455-.617.657-1.043.657zm-1.478 4c-.63 0-1.207-.491-1.312-1.146a1.394 1.394 0 011.102-1.583l7.347-1.256c.682-.109 1.364.382 1.521 1.146a1.394 1.394 0 01-1.102 1.583L49.536 337h-.21z" fill="#92B69A"/><path d="M56.716 334c-.152 0-.355-.056-.507-.112l-2.432-1.178c-.659-.28-.963-1.121-.659-1.85.254-.729 1.014-1.066 1.672-.729l2.433 1.177c.659.281.963 1.122.659 1.851-.203.505-.66.841-1.166.841zm8.977 9c-.415 0-.83-.2-1.09-.549l-2.385-3.494c-.415-.599-.207-1.348.363-1.747s1.4-.2 1.815.349l2.386 3.494c.415.599.207 1.348-.363 1.747-.208.1-.467.2-.726.2zm5.086 0a.951.951 0 01-.643-.211l-3.557-2.376c-.593-.369-.741-1.214-.395-1.794a1.17 1.17 0 011.68-.423l3.557 2.376c.593.369.741 1.214.395 1.795-.247.422-.642.633-1.037.633zm-18.503-1c-.45 0-.9-.242-1.15-.679-.3-.581-.05-1.308.6-1.599l3.499-1.6c.6-.291 1.35-.048 1.65.582.299.581.05 1.309-.6 1.599l-3.5 1.6c-.15.049-.35.097-.5.097z" fill="#92B69A"/><path d="M52.791 344c-.147 0-.294 0-.441-.104l-3.534-1.398a1.307 1.307 0 01-.736-1.658 1.243 1.243 0 011.57-.777l3.534 1.399c.638.259.982.984.736 1.657-.196.57-.638.881-1.129.881zm14.972 4c-.245 0-5.77-1.234-5.77-1.234-.685-.168-1.076-.898-.978-1.627.147-.785.782-1.234 1.418-1.122l5.574 1.234c.685.169 1.076.898.978 1.627-.147.673-.635 1.122-1.222 1.122z" fill="#92B69A"/><path d="M64.711 350a.981.981 0 01-.555-.159l-2.473-1.324c-.605-.317-.858-1.112-.555-1.8.303-.635 1.06-.9 1.716-.582l2.473 1.323c.605.318.858 1.112.555 1.801-.303.476-.707.741-1.16.741z" fill="#92B69A"/><path d="M80.393 355.996c-.202.206-3.848 3.233-7.545 1.437-3.038-1.437-3.747-5.029-3.848-5.593 1.671-8.057 10.988-51.521 21.673-52.803.456-.052 1.519-.154 2.481.564 6.785 5.132-6.887 41.411-12.76 56.395z" fill="#45594F"/><path d="M75.455 359a7.004 7.004 0 01-2.937-.661c-3.336-1.626-4.281-5.337-4.48-6.456a.884.884 0 010-.508c3.982-19.367 12.246-52.104 22.353-53.324.547-.051 1.991-.254 3.335.762 5.327 4.016 1.294 23.333-12.097 57.391-.05.204-.2.356-.349.509-.15.152-2.688 2.287-5.825 2.287zm-4.928-7.371c.199.915.945 3.355 3.086 4.372 2.49 1.22 5.078-.508 5.825-1.068 17.873-45.597 14.288-52.917 12.795-54.086-.548-.407-1.195-.356-1.544-.305-5.974.762-13.89 20.79-20.162 51.087z" fill="#92B69A"/><path d="M73.29 358c-.154 0-.256 0-.41-.051-.668-.202-1.028-.96-.822-1.617l19.418-57.467c.206-.657.925-1.01 1.644-.808.668.202 1.028.96.822 1.617l-19.418 57.467c-.206.556-.72.859-1.233.859zm13.535-52c-.343 0-.736-.15-.981-.501l-2.602-3.46c-.392-.551-.294-1.354.197-1.755a1.174 1.174 0 011.717.201l2.602 3.459c.392.552.294 1.354-.197 1.755-.196.251-.49.301-.736.301zm-1.985 3c-.287 0-.527-.105-.766-.315l-2.632-2.362c-.526-.473-.574-1.26-.19-1.837.43-.578 1.195-.63 1.674-.21l2.632 2.362c.526.472.574 1.26.19 1.837-.238.368-.573.525-.908.525z" fill="#92B69A"/><path d="M89.817 305c-.585 0-1.122-.462-1.22-1.13l-.584-4.418c-.098-.72.39-1.336 1.024-1.439.634-.103 1.268.411 1.365 1.079l.585 4.418c.098.719-.39 1.336-1.024 1.439 0 .051-.048.051-.146.051zm3.445 2c-.297 0-.643-.1-.89-.348-.496-.498-.496-1.294 0-1.742l2.524-2.537c.495-.497 1.287-.497 1.733 0 .495.498.495 1.294 0 1.741l-2.525 2.538c-.198.248-.495.348-.842.348zm-1.022 4c-.694 0-1.24-.66-1.24-1.5s.546-1.5 1.24-1.5h3.52c.694 0 1.24.66 1.24 1.5s-.546 1.5-1.24 1.5h-3.52zm.528 3c-.103 0-1.587-.115-1.587-.115-.717-.058-1.229-.75-1.177-1.558.05-.808.665-1.327 1.382-1.327l1.433.115c.717.058 1.229.75 1.177 1.558 0 .75-.563 1.327-1.228 1.327zm-8.948 1c-.412 0-.824-.251-1.007-.702l-.688-1.455c-.275-.602-.092-1.355.504-1.706.55-.301 1.238-.1 1.558.552l.688 1.455c.275.602.092 1.354-.504 1.705a1.13 1.13 0 01-.55.151z" fill="#92B69A"/><path d="M81.718 312c-.36 0-.667-.152-.923-.405l-1.435-1.468a1.213 1.213 0 01.051-1.772 1.25 1.25 0 011.794.051l1.435 1.468a1.213 1.213 0 01-.051 1.772 1.208 1.208 0 01-.871.354zm4.102 0c-.29 0-.627-.098-.868-.344l-1.59-1.57c-.483-.491-.483-1.276 0-1.718.481-.491 1.252-.491 1.686 0l1.59 1.571c.483.49.483 1.276 0 1.717-.192.246-.53.344-.819.344z" fill="#92B69A"/><path d="M87.34 311c-.108 0-.268 0-.375-.058-.696-.23-1.124-1.035-.91-1.784l.321-1.151c.214-.748.963-1.208 1.66-.92.695.23 1.123 1.036.909 1.784l-.321 1.151c-.214.575-.75.978-1.284.978zm-6.506 11c-.338 0-.676-.159-.917-.424l-3.62-4.396c-.434-.529-.385-1.377.097-1.853.483-.477 1.255-.424 1.69.106l3.618 4.396c.435.529.386 1.377-.096 1.853-.193.159-.483.318-.772.318zm.008-4c-.324 0-.602-.164-.833-.436l-2.684-3.272c-.463-.546-.417-1.418.046-1.909.463-.546 1.203-.491 1.62.054l2.684 3.272c.463.546.417 1.418-.046 1.909a1.04 1.04 0 01-.787.382z" fill="#92B69A"/><path d="M82.657 318c-.63 0-1.154-.378-1.26-.946l-.367-1.655c-.157-.662.315-1.277 1.05-1.372.682-.142 1.417.284 1.522.946l.368 1.655c.157.663-.315 1.277-1.05 1.372h-.263zm5.483 0c-.418 0-.836-.222-1.022-.622-.279-.533-.046-1.199.511-1.466l1.72-.799c.557-.267 1.254-.044 1.533.489.279.533.046 1.199-.511 1.465l-1.72.8c-.185.133-.325.133-.51.133zm.29 4c-.742 0-1.369-.586-1.426-1.288-.057-.82.513-1.523 1.255-1.581l1.197-.117c.799-.117 1.483.527 1.54 1.288.057.82-.513 1.522-1.255 1.581l-1.197.117h-.114z" fill="#92B69A"/><path d="M92.18 318c-.48 0-.959-.309-1.102-.825a1.308 1.308 0 01.718-1.649l3.593-1.442c.623-.258 1.294.103 1.533.773a1.308 1.308 0 01-.718 1.649l-3.593 1.442c-.144.052-.288.052-.431.052zm.09 5c-.603 0-1.157-.498-1.257-1.216-.1-.775.402-1.438 1.107-1.549l1.459-.221c.654-.11 1.308.442 1.408 1.217.1.774-.402 1.437-1.107 1.548l-1.459.221h-.15zm1.436 4c-.105 0-.21 0-.315-.056l-4.412-1.228c-.683-.168-1.103-.95-.946-1.676.21-.726.893-1.172 1.576-1.005l4.412 1.229c.683.167 1.103.949.946 1.675-.158.67-.683 1.061-1.26 1.061zm-4.026 4c-.32 0-.64-.095-.853-.286l-3.36-2.617c-.534-.428-.64-1.189-.16-1.665.48-.524 1.333-.571 1.866-.143l3.36 2.617c.534.429.64 1.19.16 1.666-.266.285-.64.428-1.013.428zm-10.892-4c-.098 0-.197 0-.344-.053l-4.527-1.322c-.64-.212-1.034-.899-.886-1.64.197-.687.837-1.11 1.525-.952l4.527 1.323c.64.211 1.034.899.886 1.639-.148.582-.64 1.005-1.181 1.005z" fill="#92B69A"/><path d="M79.63 325c-.383 0-.712-.165-.986-.441l-1.26-1.266a1.336 1.336 0 01.055-1.928c.548-.496 1.424-.496 1.917.055l1.26 1.322a1.336 1.336 0 01-.055 1.928c-.274.22-.603.33-.931.33z" fill="#92B69A"/><path d="M80.181 325c-.385 0-.722-.218-.963-.598-.386-.599-.241-1.469.289-1.905l1.59-1.251c.53-.435 1.3-.272 1.685.326.386.599.241 1.469-.289 1.905l-1.59 1.251c-.192.218-.481.272-.722.272zm-1.555-3c-.11 0-.275 0-.385-.048l-2.25-.618c-.715-.191-1.154-.857-.934-1.476.22-.618.988-.999 1.702-.809l2.25.619c.715.19 1.154.857.934 1.475-.165.524-.714.857-1.317.857zm9.091 4c-.102 0-.205 0-.358-.052l-1.435-.413c-.666-.207-1.076-.931-.871-1.603.205-.672.871-1.085 1.588-.878l1.435.413c.666.207 1.076.931.871 1.603-.154.516-.666.93-1.23.93zm-10.965 6c-.197 0-3.702-.547-3.702-.547a1.228 1.228 0 01-1.036-1.394 1.22 1.22 0 011.382-1.045l3.554.498a1.226 1.226 0 011.036 1.393c-.098.647-.641 1.095-1.234 1.095z" fill="#92B69A"/><path d="M76.684 330a1.01 1.01 0 01-.566-.161l-2.42-1.288c-.619-.322-.876-1.127-.567-1.824.309-.644 1.082-.913 1.751-.591l2.42 1.288c.619.322.876 1.127.567 1.825-.257.483-.67.751-1.184.751z" fill="#92B69A"/><path d="M78.884 331c-.316 0-.678-.17-.904-.566l-.724-1.132c-.407-.623-.316-1.528.181-1.981.498-.51 1.221-.396 1.583.226l.724 1.132c.407.623.316 1.529-.181 1.981a.899.899 0 01-.679.34zm6.771 2c-.568 0-1.085-.368-1.24-1l-.362-1.315c-.206-.684.207-1.42.93-1.631.724-.21 1.395.211 1.602.947l.362 1.315c.206.684-.207 1.421-.93 1.631-.155.053-.259.053-.362.053z" fill="#92B69A"/><path d="M83.442 335c-.863-.049-1.496-.641-1.438-1.332l.115-1.53c.057-.691.748-1.184 1.553-1.135.806.05 1.382.642 1.324 1.333l-.115 1.529c-.058.592-.69 1.135-1.439 1.135zm5.38 1c-.098 0-2.693-.273-2.693-.273-.685-.054-1.175-.763-1.126-1.472A1.333 1.333 0 0186.325 333l2.546.273c.685.054 1.175.763 1.126 1.472 0 .71-.539 1.255-1.175 1.255z" fill="#92B69A"/><path d="M89.77 339c-.099 0-.197 0-.345-.057l-3.538-1.142c-.64-.229-1.033-.971-.836-1.771.197-.742.885-1.199 1.524-.971l3.538 1.142c.64.229 1.033.971.836 1.771-.147.628-.639 1.028-1.18 1.028zm-3.046 3c-.362 0-.776-.144-1.034-.432l-1.397-1.634a1.113 1.113 0 01.207-1.682c.569-.384 1.397-.336 1.81.192l1.397 1.634a1.113 1.113 0 01-.207 1.682c-.207.192-.517.24-.776.24z" fill="#92B69A"/><path d="M83.53 339c-.764 0-1.409-.532-1.468-1.276l-.058-1.33c-.059-.744.587-1.382 1.408-1.382.939-.107 1.467.531 1.526 1.276l.058 1.329c.059.745-.587 1.383-1.408 1.383h-.059zm-6.388-3c-.325 0-.603-.143-.834-.383-.418-.478-.418-1.243.046-1.674l1.716-1.626c.463-.43 1.205-.43 1.623.048.417.478.417 1.244-.047 1.674l-1.716 1.626c-.185.192-.51.335-.788.335z" fill="#92B69A"/><path d="M75.626 336c-.398 0-.797-.162-1.081-.485l-1.194-1.295a1.304 1.304 0 01.114-1.887c.568-.486 1.478-.432 1.99.108l1.194 1.294a1.304 1.304 0 01-.114 1.887c-.227.27-.568.378-.91.378zm-3.818 1c-.285 0-.523-.101-.76-.304l-1.617-1.466a1.284 1.284 0 01-.142-1.771c.428-.556 1.188-.607 1.663-.152l1.617 1.467c.522.456.57 1.265.142 1.771-.237.303-.57.455-.903.455zm-1.516 4c-.63 0-1.156-.441-1.261-1.102-.158-.772.315-1.488.998-1.654l5.363-1.212c.736-.165 1.42.331 1.578 1.047.157.772-.316 1.488-1 1.653l-5.362 1.213c-.158.055-.21.055-.316.055z" fill="#92B69A"/><path d="M75.761 338c-.245 0-.49-.056-.687-.225l-1.523-1.179a1.565 1.565 0 01-.344-1.966c.393-.618 1.13-.843 1.72-.394l1.522 1.18c.54.449.737 1.292.344 1.966-.245.393-.638.618-1.032.618zm5.885 9c-.618 0-1.18-.353-1.348-.907l-1.235-3.475c-.225-.655.168-1.36.898-1.561.73-.202 1.516.151 1.74.805l1.236 3.476c.225.655-.168 1.36-.898 1.561-.113.101-.281.101-.393.101z" fill="#92B69A"/><path d="M84.697 347c-.32 0-.692-.107-.958-.374l-2.34-2.353c-.532-.535-.532-1.391 0-1.872.532-.535 1.383-.535 1.862 0l2.34 2.353c.532.535.532 1.39 0 1.872a1.28 1.28 0 01-.904.374zm-12.472-1c-.433 0-.819-.196-1.06-.589a1.225 1.225 0 01.434-1.67l2.599-1.572a1.175 1.175 0 011.636.442c.337.59.145 1.326-.433 1.67l-2.599 1.572a1.263 1.263 0 01-.577.147z" fill="#92B69A"/><path d="M71.687 348c-.206 0-.413-.053-.62-.159l-2.425-1.379a1.327 1.327 0 01-.464-1.802c.361-.636 1.135-.849 1.754-.477l2.426 1.378c.619.371.825 1.167.464 1.803-.206.371-.67.636-1.135.636zm10.131 4c-.094 0-.236 0-.33-.056l-3.636-1.221c-.614-.222-.992-1-.803-1.722.189-.721.85-1.166 1.464-.944l3.635 1.222c.614.222.992 1 .803 1.721-.141.611-.614 1-1.133 1z" fill="#92B69A"/><path d="M78.795 354c-.248 0-.546-.108-.795-.269l-1.54-1.347c-.547-.485-.597-1.293-.2-1.886.448-.592 1.193-.646 1.74-.215l1.54 1.347c.547.484.597 1.293.2 1.885a1.19 1.19 0 01-.945.485z" fill="#92B69A"/><path d="M100 336v8.282c0 2.083-.25 4.166-.752 6.148C95.285 367.247 75.424 380 51.5 380 24.717 380 3 363.995 3 344.282V336h97z" fill="#B692B2"/><path d="M100 336v8.504c0 2.138-.25 4.277-.753 6.312-.903-1.356-2.107-2.713-4.265-3.13-5.27-.991-7.778 5.478-16.41 5.686-2.659.105-7.777-.417-12.494-1.565-1.606-.365-3.011-.782-5.019-.678-3.562.209-4.315 1.826-7.527 2.765-5.369 1.617-7.778-1.617-14.552-.313-4.366.782-3.914 2.243-7.276 2.4-4.617.261-10.74-2.139-13.65-5.895-1.304-1.67-2.057-3.652-3.864-3.757-1.154-.104-1.756.626-2.71.835-2.157.522-5.87-1.2-8.48-3.547V336h97z" fill="#D2D2D2"/><path d="M80.898 380H22.102c-1.151 0-2.102-.943-2.102-2.085v-2.83c0-1.142.95-2.085 2.102-2.085h58.796c1.151 0 2.102.943 2.102 2.085v2.83c-.05 1.191-.95 2.085-2.102 2.085z" fill="#484848"/><path d="M102.639 339H1.361C.605 339 0 338.379 0 337.603 0 336.672.605 336 1.361 336H102.64c.756 0 1.361.621 1.361 1.397 0 .931-.655 1.603-1.361 1.603z" fill="#B692B2"/></svg>